<?xml version="1.0" encoding="UTF-8"?><svg id="_圖層_2" xmlns="http://www.w3.org/2000/svg" viewBox="0 0 405.55 386.85"><defs><style>.cls-1{fill:#299591;}.cls-2{fill:#da2c7e;}.cls-3{fill:#193456;}.cls-4{fill:#217bac;}.cls-5{fill:#01795a;}.cls-6{fill:#09548b;}.cls-7{fill:#258d80;}.cls-8{fill:#2b9899;}.cls-9{fill:#0d6358;}</style></defs><g id="_泡泡飄移"><path class="cls-2" d="M333,1.46c33.25,4.69,56.57,22.54,67.59,54.17,10.48,30.07,4.14,57.73-17.18,81.5-12.19,13.59-27.74,21.54-45.69,24.7-3.49.61-7.07.75-10.6,1.11-5.52-.4-11.05-.62-16.55-1.23-6.45-.72-12.49-3.05-18.55-5.27-3.56-1.87-7.12-3.74-10.68-5.61-2.99-2.16-5.98-4.31-8.97-6.47-2.28-2.14-4.55-4.27-6.83-6.41-1.57-1.83-3.14-3.65-4.71-5.48-1.04-1.42-2.09-2.83-3.13-4.25-2.08-3.45-4.15-6.9-6.23-10.35-.94-2.25-1.88-4.5-2.82-6.75-1.4-5.23-2.88-10.43-4.15-15.69-.62-2.57-.83-5.24-1.22-7.86,0-3.41,0-6.83,0-10.24.49-3.58.77-7.2,1.53-10.72.99-4.56,2.38-9.04,3.6-13.55,1.14-2.58,2.29-5.15,3.43-7.73,1.29-2.26,2.58-4.52,3.87-6.78.13-.19.27-.38.4-.57.11-.13.23-.26.34-.39,1.18-1.71,2.37-3.41,3.55-5.12,1.57-1.85,3.14-3.7,4.71-5.55,1.85-1.83,3.7-3.65,5.55-5.48,2.74-2.14,5.49-4.29,8.23-6.43,3.09-1.81,6.18-3.62,9.27-5.44,3.8-1.53,7.51-3.41,11.43-4.5,5.63-1.56,11.42-2.54,17.14-3.77,5.56.06,11.12.12,16.68.18ZM292.38,82.03c-.24,15.58,12.18,31.75,31.79,31.81,18.52.05,31.89-14.84,31.93-31.93.04-17.4-14.42-31.85-31.85-31.9-17.53-.06-31.87,14.35-31.87,32.03Z"/><path class="cls-9" d="M135.49,324.84c-5.53,6.5-10.65,13.41-16.67,19.41-21.96,21.9-48.34,35.53-79,40.5-7.63,1.24-15.43,1.42-23.15,2.07-.7.06-1.4,0-2.54,0,.65-3.34,1.16-6.46,1.87-9.54,5.12-22.07,14.18-42.41,26.99-61.09.24-.35.41-.74.61-1.11.44-.55.91-1.08,1.32-1.65,6.09-8.37,12.66-16.33,20.31-23.33,5.09-4.66,10.42-9.05,15.65-13.56.12-.12.24-.24.36-.35,6.42-4.13,12.84-8.27,19.25-12.4,2.71-1.37,5.4-2.8,8.15-4.08,11.31-5.27,22.62-10.55,34.79-13.64,3.34-.85,6.7-1.6,10.06-2.4,2.71-.46,5.42-.92,8.14-1.38.13.61.26,1.21.38,1.82,0,.7,0,1.4,0,2.1-.13.84-.29,1.67-.38,2.52-.57,5.35-.95,10.73-1.73,16.05-2.17,14.81-6.91,28.85-13.77,42.11-3.19,6.17-7.07,11.99-10.63,17.98Z"/><path class="cls-8" d="M328.26,163.4c5.12.81,10.37,1.11,15.33,2.5,32.04,9.01,52.47,29.76,59.45,62.25,8.88,41.42-15.75,81.69-56.3,93.89-6.57,1.98-13.31,3-20.16,3.27-.91.04-1.82,0-2.88,0-.03-.66-.07-1.13-.07-1.61.03-23.07.06-46.15.08-69.22,0-.61-.24-1.22-.37-1.83,0-6.03,0-12.05.01-18.08.12-.68.34-1.37.35-2.05.11-15.06.2-30.13.28-45.19.02-4.62,0-9.24,0-13.86v-10.08h4.29Z"/><path class="cls-2" d="M80.89,276.55c-5.22,4.51-10.55,8.9-15.65,13.56-7.65,6.99-14.22,14.96-20.31,23.33-.41.57-.88,1.1-1.32,1.65C18.07,301.01,3.64,279.47.26,250.53c-.09-1.01-.17-2.03-.26-3.04.23-5.13.47-10.27.7-15.4,4.81-34.03,30.24-61.3,63.9-68.18,5.4-1.1,11.01-1.14,16.53-1.67.07.22.14.45.21.67-.03,2.02-.06,4.05-.1,6.07,0,9.22.01,18.43.02,27.65-.03,5.98-.06,11.96-.09,17.95,0,5.56,0,11.12.01,16.68,0,5.13,0,10.26,0,15.4-.05,5.85-.1,11.7-.15,17.56.02,3.98.04,7.95.06,11.93-.07.14-.14.27-.21.41Z"/><path class="cls-4" d="M80.84,90.59c-1.74,15.45-7.5,29.26-17.28,41.3-13.55,16.68-31.1,26.49-52.37,29.51-3.57.51-7.23.42-10.85.61,0-13.41.02-26.81.03-40.22,2.67-.29,5.4-.34,8.01-.9,12.96-2.77,22.58-10.1,28.51-21.93,4.16-8.31,5.34-17.22,3.18-26.31-3.66-15.43-13.12-25.67-28.31-30.35-3.48-1.07-7.17-1.45-10.88-2.18-.05-.6-.11-1.37-.17-2.14,0-12.53,0-25.06,0-37.59.14-.13.28-.25.42-.38,1.99.13,3.99.23,5.98.41,11.4,1,22.19,4.11,32.22,9.67,16.14,8.95,27.94,21.91,35.46,38.74,3.2,7.17,5.25,14.67,6.06,22.5.14,2.93.28,5.86.43,8.79-.02,1.79-.04,3.59-.05,5.38-.13,1.7-.25,3.4-.38,5.09Z"/><path class="cls-5" d="M323.34,234.58c0,6.03,0,12.05-.01,18.08-1.23,12.83-5.52,24.61-12.64,35.28-13,19.48-31.13,31.36-54.19,35.51-4.45.8-9.05.75-13.58,1.09-.16-1.45-.32-2.9-.48-4.36.04-1.84.07-3.67.11-5.51.07-2.88.14-5.77.21-8.65,1.69-.12,3.38-.31,5.08-.35,5.23-.13,10.26-1.33,15.15-3.02,12.96-4.46,23.41-12.34,31.2-23.63,6.15-8.92,9.73-18.78,10.76-29.65.63-6.66.24-13.17-1.26-19.61-3.21-13.72-10.14-25.23-21.06-34.19-11.43-9.37-24.58-14.2-39.4-14.35l-.14-.03h-.14c-.05-3.1-.1-6.21-.14-9.32.01-2.88.02-5.77.03-8.65.03-.11.07-.22.11-.33,2.67-.02,5.34-.04,8.01-.06,1.57.25,3.15.49,4.72.74,1.57.28,3.14.57,4.7.85,2.53.67,5.07,1.35,7.6,2.02,3.31,1.33,6.62,2.65,9.93,3.98,4.13,2.44,8.27,4.89,12.4,7.33.32.27.63.57.96.82,10.83,8.13,19.19,18.28,24.94,30.54,3.79,8.07,6.36,16.51,7.12,25.44Z"/><path class="cls-6" d="M242.44,320.2c.16,1.45.32,2.9.48,4.36-1.03,1.36-2.34.13-3.49.39-.72-.23-1.42-.51-2.15-.69-9.28-2.27-18.15-5.56-26.53-10.22-5.86-3.26-11.44-6.92-16.37-11.41-5.04-4.59-9.82-9.44-13.88-15-7.02-9.62-12.2-20.11-15.56-31.52-.97-3.31-1.96-6.62-2.94-9.92,0-.7,0-1.4,0-2.1,1.62-.03,3.24-.06,4.85-.09,1.61.17,3.23.34,4.84.5,8.08.79,15.77,3.02,23.14,6.37,18.08,8.24,31.45,21.33,40.09,39.21,3.75,7.77,6.33,15.91,7.09,24.55.14,1.85.28,3.71.42,5.56Z"/><path class="cls-4" d="M162,246.19c.98,3.31,1.97,6.61,2.94,9.92,3.36,11.41,8.54,21.9,15.56,31.52,4.05,5.55,8.84,10.41,13.88,15,4.93,4.49,10.52,8.15,16.37,11.41,8.38,4.66,17.25,7.96,26.53,10.22.73.18,1.43.46,2.15.69-8.04.02-16.07.05-24.11.07-.85,0-1.71-.05-2.56-.05-25.12-.03-50.24-.05-75.36-.07-.64,0-1.28-.04-1.92-.06,3.56-5.98,7.44-11.8,10.63-17.98,6.86-13.26,11.6-27.3,13.77-42.11.78-5.32,1.16-10.7,1.73-16.05.09-.84.25-1.68.38-2.52Z"/><path class="cls-7" d="M81.96,91.83c-.25-2.11-.49-4.22-.74-6.34.02-1.79.04-3.59.05-5.38.14-1.94.28-3.89.42-5.83.11-.25.29-.5.31-.76.41-6.66,2.07-13.04,4.25-19.3.86-2.14,1.71-4.27,2.57-6.41.89-1.84,1.77-3.67,2.66-5.51,1.25-2.02,2.51-4.03,3.76-6.05.91-1.34,1.81-2.68,2.72-4.02.69-.78,1.38-1.56,2.07-2.33.84-1.02,1.69-2.03,2.53-3.05.99-1.03,1.99-2.06,2.98-3.08,2.01-1.8,4.03-3.61,6.04-5.41,2.42-1.73,4.83-3.46,7.25-5.19,2.57-1.44,5.14-2.88,7.7-4.32,5.61-1.98,11.14-4.27,16.87-5.85,4.63-1.28,9.5-1.7,14.26-2.5,3.45-.02,6.9-.05,10.35-.07,2.65.43,5.31.8,7.94,1.3,25.53,4.84,44.8,18.52,57.54,41.18,5.47,9.73,8.64,20.24,9.42,31.42l.39,2.98c0,3.41,0,6.83,0,10.24-.12.59-.25,1.17-.37,1.76-.35,2.74-.51,5.52-1.08,8.22-3.96,18.89-13.29,34.63-28.27,46.84-13.73,11.19-29.49,17.32-47.27,18.06l-7.64.41c-.43-.15-.86-.37-1.3-.43-3.93-.54-7.9-.92-11.81-1.6-6.47-1.13-12.53-3.56-18.54-6.14-3.44-1.99-6.88-3.98-10.32-5.98-2.69-2.08-5.37-4.15-8.06-6.23-2.31-2.33-4.61-4.66-6.92-7-1.71-2.16-3.41-4.31-5.12-6.47-2.43-3.99-4.85-7.99-7.28-11.98-.99-2.29-1.99-4.59-2.98-6.88-1.08-3.95-2.22-7.89-3.21-11.86-.53-2.12-.79-4.3-1.17-6.46ZM111.32,77.76c-.03,1.22-.07,2.44-.1,3.67.11,1.9.2,3.81.33,5.71.36,5.44,1.88,10.6,4.15,15.51,3.26,7.04,7.8,13.09,13.79,18.14,9.29,7.83,20.05,11.57,31.99,12.06,4.94.2,9.84-.63,14.66-1.97,10.35-2.87,18.94-8.53,25.67-16.72,7.7-9.38,11.92-20.21,11.53-32.56-.29-3.51-.23-7.09-.92-10.51-2.59-12.8-9.37-23.17-19.82-30.78-11.51-8.38-24.52-11.65-38.76-9.15-6.51,1.14-12.61,3.4-18.14,6.98-3.93,2.54-7.92,5.09-10.87,8.87-8.02,8.53-12.57,18.58-13.29,30.31-.07.15-.14.3-.22.45Z"/><path class="cls-4" d="M158.66,162.85l7.64-.41c.56.16,1.12.45,1.69.45,8.95.09,17.91.17,26.86.2,16,.06,31.99.1,47.99.15-.01,2.88-.02,5.77-.03,8.65-.69,3.54-1.14,7.16-2.1,10.62-8.79,31.52-29.06,51.4-60.8,59.44-4.24,1.08-8.68,1.38-13.03,2.04-1.62.03-3.24.06-4.85.09-.13-.61-.26-1.21-.38-1.82-.03-.35-.02-.72-.1-1.06-2.55-10.45-5.99-20.55-11.22-30.02-6.02-10.89-13.8-20.27-23.44-28.1-9.14-7.42-19.35-12.94-30.49-16.67-4.15-1.39-8.42-2.38-12.64-3.55,2.15-.05,4.29-.09,6.44-.14,2.14,0,4.28-.02,6.42-.03,2.71.02,5.41.03,8.12.05,3.14,0,6.27,0,9.41,0,3.85,0,7.7,0,11.54,0,11,.03,22,.05,32.99.08Z"/><path class="cls-6" d="M83.74,162.89c4.22,1.17,8.5,2.16,12.64,3.55,11.15,3.73,21.36,9.24,30.49,16.67,9.64,7.83,17.42,17.21,23.44,28.1,5.23,9.47,8.67,19.57,11.22,30.02.08.34.07.71.1,1.06-2.71.46-5.42.92-8.14,1.38-5.58-1.22-11.24-2.18-16.73-3.74-7.89-2.24-14.96-6.3-21.76-10.82-2.83-2.34-5.67-4.69-8.5-7.03-2.46-2.64-4.92-5.27-7.38-7.91-1.68-2.3-3.35-4.59-5.03-6.89-1.68-2.99-3.36-5.98-5.03-8.96-1.19-2.87-2.38-5.74-3.56-8.61-.58-2.04-1.32-4.05-1.72-6.12-.93-4.85-1.71-9.73-2.54-14.6.03-2.02.06-4.05.1-6.07.8,0,1.6,0,2.4-.01Z"/><path class="cls-3" d="M.37,121.79c.02-12.69.04-25.38.06-38.08.12-.68.35-1.36.32-2.03-.06-1.62-.37-3.24-.37-4.85-.04-11.95-.02-23.9-.02-35.85.12-1,.24-2.01.36-3.01.06.77.12,1.54.17,2.14,3.71.72,7.4,1.11,10.88,2.18,15.2,4.68,24.65,14.93,28.31,30.35,2.16,9.09.98,18-3.18,26.31-5.93,11.83-15.55,19.16-28.51,21.93-2.62.56-5.34.62-8.01.9Z"/><path class="cls-7" d="M243.22,181.23c14.82.15,27.97,4.98,39.4,14.35,10.92,8.96,17.85,20.46,21.06,34.19,1.51,6.45,1.9,12.96,1.26,19.61-1.03,10.87-4.61,20.73-10.76,29.65-7.78,11.28-18.24,19.17-31.2,23.63-4.89,1.68-9.92,2.88-15.15,3.02-1.69.04-3.39.23-5.08.35,0-4.97.02-9.95.02-14.92.02-26.38.04-52.76.06-79.15,0-.71.05-1.42.08-2.13.1-.61.3-1.22.3-1.83.01-8.93,0-17.85,0-26.78Z"/><path class="cls-8" d="M242.02,314.64c.18.02.35.03.53.05-.04,1.84-.07,3.67-.11,5.51-.14-1.85-.28-3.71-.42-5.56Z"/><path class="cls-1" d="M213.33,81.59c.39,12.35-3.83,23.18-11.53,32.56-6.73,8.2-15.31,13.85-25.67,16.72-4.82,1.34-9.72,2.17-14.66,1.97-11.94-.49-22.7-4.23-31.99-12.06-5.99-5.06-10.53-11.11-13.79-18.14-2.27-4.9-3.79-10.07-4.15-15.51-.13-1.9-.22-3.8-.33-5.71,5.4-.03,10.81-.05,16.21-.08l4.63.08c1.29.01,2.59.02,3.88.04,1.7.01,3.4.02,5.1.04.11-.12.22-.24.34-.37.79-11.11,8.45-18.54,19.01-20,5.56-.77,10.78.88,15.12,4.39,5,4.05,7.76,9.45,7.99,16.07h29.84Z"/></g></svg>