<?xml version="1.0" encoding="UTF-8"?><svg id="_圖層_2" xmlns="http://www.w3.org/2000/svg" viewBox="0 0 383.94 383.91"><defs><style>.cls-1{fill:#299591;}.cls-2{fill:#da2c7e;}.cls-3{fill:#101d30;}.cls-4{fill:#217bac;}.cls-5{fill:#183354;}.cls-6{fill:#258d80;}.cls-7{fill:#2b9899;}</style></defs><g id="_飄移"><path class="cls-2" d="M191.31,105.68c-1.45,6.77-2.62,13.62-4.46,20.28-1.29,4.64-3.51,9.03-5.32,13.53-2.14,3.66-4.29,7.31-6.43,10.97-2.54,3.25-5.07,6.49-7.61,9.74-2.16,2.19-4.33,4.38-6.49,6.57-2.19,1.86-4.38,3.71-6.57,5.57-2.02,1.4-4.04,2.8-6.06,4.2-.15.13-.31.27-.46.4-.22.16-.45.32-.67.47-2.67,1.52-5.35,3.05-8.02,4.57-3.05,1.35-6.1,2.71-9.15,4.06-5.34,1.44-10.64,3.08-16.04,4.26-4.16.91-8.45,1.23-12.69,1.81-4.04,0-8.08,0-12.12,0-3.1-.47-6.26-.71-9.3-1.44-6.22-1.5-12.38-3.26-18.57-4.91-2.66-1.11-5.33-2.22-7.99-3.34-4.08-2.46-8.17-4.91-12.25-7.37-1.68-1.24-3.35-2.47-5.03-3.71-2.16-1.86-4.32-3.72-6.49-5.58-2.53-2.7-5.05-5.39-7.58-8.09-2.55-3.54-5.11-7.07-7.66-10.61-2.21-4.21-4.43-8.43-6.64-12.64-2.63-7.16-5.39-14.32-6.24-21.95-.72-6.5-.99-13.05-1.46-19.58.42-4.18.58-8.42,1.31-12.55,3.74-21.25,13.14-39.64,29.23-54.07C58.67,1.05,91.4-6.45,126.99,5.95c37.43,13.04,58.56,40.64,64.11,79.99.07,6.58.14,13.16.21,19.74ZM133.65,96.29c-.06-20.62-17.16-37.74-37.75-37.69-20.22.05-37.85,15.88-37.79,37.79.07,23.2,19.21,37.9,37.64,37.62,20.91,0,37.97-16.97,37.9-37.72Z"/><path class="cls-4" d="M287.61,191.77c-2.36.06-4.72.12-7.08.18-1.04-1.19-2.1-1.12-2.86.2v-.02c-.17-.29-.35-.57-.53-.86-4.58-.94-9.2-1.71-13.73-2.86-7.65-1.95-14.93-4.92-21.86-8.73-.64-.35-1.38-.53-2.07-.8-2.54-1.77-5.13-3.46-7.61-5.31-11.28-8.37-20.55-18.49-27.48-30.78-5.3-9.4-8.74-19.43-10.78-29.95-.72-3.68-.81-7.48-1.22-11.23-.1-.89-.31-1.76-.47-2.64,0-2.02,0-4.03,0-6.05.16-.37.45-.74.45-1.12.13-11.9,3.01-23.2,7.64-34.08,3.33-7.84,7.77-15.02,13.05-21.72,6.98-8.86,15.39-16.07,24.89-22.07.41-.26.7-.69,1.04-1.04.7-.24,1.45-.38,2.09-.73,18.34-10.13,37.92-13.98,58.72-11.44,22.04,2.69,41.09,11.88,56.42,27.83,23.49,24.43,32.44,53.78,25.35,86.95-7.64,35.74-29.73,59.5-64.19,71.43-7,2.42-14.6,3.09-21.93,4.57-2.61.08-5.23.16-7.84.24ZM321.42,146.21c16.41-10.94,25.51-26.56,26.91-46.33,2.24-31.7-20.62-59.69-52.13-64.04-9.06-1.25-17.97-.43-26.69,2.38-.38.12-.73.35-1.1.54-7.12,2.11-13.29,5.9-19.02,10.55-4.69,3.8-8.67,8.2-11.89,13.25-5.78,9.06-9.26,18.82-9.77,29.75-.54,11.37,1.58,21.97,6.91,31.96,5.31,9.95,12.78,17.89,22.54,23.52,3.68,2.12,7.73,3.61,11.61,5.38,18.64,6.03,36.37,3.89,52.63-6.95Z"/><path class="cls-2" d="M287.97,383.37c1.69-.03,3.38-.05,5.07-.08,7.96-.8,15.91-1.76,23.5-4.41,36.13-12.62,58.73-37.49,65.55-75.25,5.81-32.2-3.58-60.47-26.37-83.85-15.83-16.24-35.44-25.34-58.08-27.71-.74-.08-1.46-.35-2.19-.54-2.61.08-5.23.16-7.84.24,0,18.01.02,36.01.03,54.02.1.82.28,1.63.28,2.45.05,13.55.09,27.09.1,40.64,0,13.46-.04,26.92-.06,40.39.03,11.21.08,22.42.08,33.63,0,6.83-.04,13.65-.07,20.48Z"/><path class="cls-7" d="M191.93,92.95c.16-.37.45-.74.45-1.12.13-11.9,3.01-23.2,7.64-34.08,3.33-7.84,7.77-15.02,13.05-21.72,6.98-8.86,15.39-16.07,24.89-22.07.41-.26.7-.69,1.04-1.04-7.63-4.78-15.92-8.1-24.67-9.91-6.89-1.42-13.97-1.88-20.97-2.75-.57-.07-1.15,0-1.92,0,0,28.63,0,57.09,0,85.54.16,2.38.33,4.76.49,7.15Z"/><path class="cls-6" d="M76.51,381.65c-4.7-1.17-9.36-2.52-14.04-3.8-2.71-1.18-5.43-2.35-8.14-3.53-4.73-2.87-9.45-5.74-14.18-8.61-2.55-2.02-5.1-4.04-7.65-6.05-2.76-2.73-5.52-5.46-8.28-8.19-2.46-3.18-4.91-6.36-7.37-9.54-2.36-4.07-4.72-8.14-7.07-12.22-3.05-7.1-5.93-14.28-7.27-21.94-.81-4.63-1.26-9.32-1.9-13.97-.07-.53-.34-1.03-.51-1.54.16-3.01.33-6.02.49-9.04.88-21.03,8.13-39.69,21.37-55.94,14.45-17.73,33.07-28.77,55.43-33.46,3.19-.67,6.48-.86,9.72-1.27.69-.15,1.39-.3,2.08-.44,4.04,0,8.08,0,12.12,0,1.18.15,2.35.3,3.53.46,13.23.92,25.68,4.67,37.19,11.14,26.81,15.07,43,37.87,48.73,68.09.59,3.12,1.03,6.27,1.54,9.4-.03,4.08-.05,8.17-.08,12.25-.95,5.64-1.45,11.4-2.96,16.88-1.87,6.78-4.58,13.32-6.93,19.96-1.7,3.04-3.4,6.08-5.11,9.12-2.05,2.86-4.1,5.72-6.15,8.58-2.13,2.38-4.27,4.77-6.4,7.15-1.22,1.18-2.43,2.35-3.65,3.53-1.2,1-2.4,2-3.61,2.99-.92.82-1.84,1.64-2.76,2.45-1.59,1.07-3.17,2.14-4.76,3.21-2.39,1.48-4.78,2.97-7.16,4.45-2.17,1.05-4.34,2.09-6.52,3.14-2.53,1.01-5.06,2.03-7.59,3.04-7.41,2.58-14.96,4.54-22.84,5.03-.31.02-.6.24-.9.36-2.3.16-4.6.33-6.9.49-2.12.02-4.25.04-6.37.06-2.5-.29-5-.58-7.5-.88-2.55-.45-5.14-.76-7.64-1.38ZM101.34,348.03c13.88-.85,25.78-6.23,35.87-15.72,4.47-3.49,7.49-8.21,10.5-12.86,4.23-6.54,6.91-13.77,8.26-21.47,2.96-16.84-.91-32.24-10.83-45.87-9.01-12.37-21.28-20.4-36.42-23.46-4.05-.82-8.29-.75-12.44-1.09-14.62-.47-27.43,4.53-38.54,13.64-9.7,7.96-16.39,18.12-19.79,30.38-1.59,5.71-2.57,11.51-2.33,17.35.58,14.13,5,26.87,14.27,37.86,5.98,7.09,13.14,12.47,21.47,16.32,5.8,2.69,11.91,4.49,18.35,4.91,2.25.15,4.5.26,6.75.39,1.45-.04,2.89-.08,4.34-.12.18-.09.36-.17.53-.26Z"/><path class="cls-5" d="M192.32,281.21c-.03,4.08-.05,8.17-.08,12.25.99,6.21,1.73,12.47,3.03,18.61,1.59,7.5,4.89,14.42,8.24,21.28,2.73,4.19,5.45,8.37,8.18,12.56,4.06,4.37,8.12,8.74,12.18,13.11.61.45,1.24.85,1.81,1.34,11.12,9.52,23.76,16.17,37.94,19.8,4.54,1.16,9.21,1.85,13.82,2.76,1.17.06,2.34.13,3.52.19.18.01.35.03.53.04.34.02.67.03,1.01.05.34-.04.67-.08,1.01-.12,1.52.12,3.04.24,4.57.36l-.09-.07c.02-6.83.07-13.65.07-20.48,0-11.21-.05-22.42-.08-33.63-.99-.16-1.97-.41-2.97-.46-11.51-.61-20.97-5.4-28.47-14.08-7.52-8.71-11.17-18.63-10.07-30.33.6-6.41,2.13-12.37,5.43-17.85,8.11-13.47,20.11-20.26,35.76-20.75,0-18.01-.02-36.01-.03-54.02-2.36.06-4.72.12-7.08.18-.95.07-1.91.13-2.86.2v-.02c-1.82.22-3.68.35-5.5.67-23.91,4.22-43.7,15.62-58.96,34.51-12.68,15.68-19.73,33.68-20.89,53.89Z"/><path class="cls-7" d="M268.79,153.16c4.45-6.63,8.69-13.39,11.53-20.88,1.42-3.75,2.49-7.64,3.72-11.46-2.12-.69-4.29-1.25-6.34-2.09-11.19-4.57-17.4-16.78-14.71-28.05,2.63-11.03,9.83-17.63,21.11-19.56-3.07-11.84-8.4-22.57-15.68-32.36-7.12,2.11-13.29,5.9-19.02,10.55-4.69,3.8-8.67,8.2-11.89,13.25-5.78,9.06-9.26,18.82-9.77,29.75-.54,11.37,1.58,21.97,6.91,31.96,5.31,9.95,12.78,17.89,22.54,23.52,3.68,2.12,7.73,3.61,11.61,5.38Z"/><path class="cls-7" d="M191.49,106.68c.02.66.05,1.33.07,1.99.05,2.17.11,4.34.16,6.52-.01,8.11-.02,16.22-.03,24.33-.02.33-.04.65-.06.98,0,4.39,0,8.77,0,13.16.04,3.88.08,7.76.12,11.63,0,2.7.01,5.4.02,8.1,0,2.2,0,4.39.01,6.59,0,2.02.01,4.05.02,6.07.03,1.84.06,3.69.09,5.53,7.23.39,14.38-.41,21.33-2.28,6.11-1.65,12.05-3.9,18.07-5.89,2.73-1.51,5.46-3.01,8.19-4.52-2.54-1.77-5.13-3.46-7.61-5.31-11.28-8.37-20.55-18.49-27.48-30.78-5.3-9.4-8.74-19.43-10.78-29.95-.72-3.68-.81-7.48-1.22-11.23-.1-.89-.31-1.76-.47-2.64-.14,2.56-.29,5.12-.43,7.69Z"/><path class="cls-3" d="M287.64,245.79c-15.65.48-27.66,7.28-35.76,20.75-3.3,5.48-4.83,11.44-5.43,17.85-1.1,11.7,2.55,21.62,10.07,30.33,7.5,8.69,16.95,13.47,28.47,14.08.99.05,1.98.3,2.97.46.02-13.46.06-26.92.06-40.39,0-13.55-.05-27.09-.1-40.64,0-.82-.18-1.63-.28-2.45Z"/><path class="cls-1" d="M96.27,227.56c-14.62-.47-27.43,4.53-38.54,13.64-9.7,7.96-16.39,18.12-19.79,30.38-1.59,5.71-2.57,11.51-2.33,17.35.58,14.13,5,26.87,14.27,37.86,5.98,7.09,13.14,12.47,21.47,16.32,5.8,2.69,11.91,4.49,18.35,4.91,2.25.15,4.5.26,6.75.39.03-6.39.06-12.79.09-19.18-.03-1.82-.06-3.65-.09-5.47-.01-1.53-.03-3.06-.04-4.59-.01-2.01-.03-4.02-.04-6.03.14-.13.29-.27.43-.4,13.14-.93,21.94-10,23.67-22.49.91-6.58-1.04-12.75-5.19-17.89-4.79-5.92-11.19-9.19-19.02-9.46,0-11.91,0-23.61,0-35.32Z"/><path class="cls-4" d="M284.09,71.12c-11.28,1.94-18.48,8.54-21.11,19.56-2.69,11.27,3.52,23.48,14.71,28.05,2.05.84,4.22,1.4,6.34,2.09,2.01-.09,4.04-.04,6.03-.29,9.45-1.2,16.12-6.26,20.16-14.84.18-.38.4-.73.6-1.1.51-3.04,1.02-6.08,1.53-9.11-1.15-12.08-7.51-20.57-18.07-23.41-3.25-.87-6.78-.65-10.19-.94Z"/></g></svg>