<?xml version="1.0" encoding="UTF-8"?><svg id="_圖層_2" xmlns="http://www.w3.org/2000/svg" viewBox="0 0 227.19 128.37"><defs><style>.cls-1{fill:#2b999a;}.cls-2{fill:#09548c;}.cls-3{fill:#258e80;}.cls-4{fill:#193456;}.cls-5{fill:#101d30;}.cls-6{fill:#050c1d;}.cls-7{fill:#01795a;}.cls-8{fill:#db2c7e;}.cls-9{fill:#183354;}.cls-10{fill:#163050;}.cls-11{fill:#217bad;}.cls-12{fill:#299692;}.cls-13{fill:#0d6358;}</style></defs><g id="_字"><path class="cls-8" d="M210.24,38.38c7.76,1.09,13.21,5.26,15.78,12.65,2.45,7.02.97,13.48-4.01,19.03-2.85,3.17-6.48,5.03-10.67,5.77-.82.14-1.65.18-2.48.26-1.29-.09-2.58-.15-3.86-.29-1.51-.17-2.92-.71-4.33-1.23-.83-.44-1.66-.87-2.49-1.31-.7-.5-1.4-1.01-2.09-1.51-.53-.5-1.06-1-1.6-1.5-.37-.43-.73-.85-1.1-1.28l-.73-.99c-.48-.81-.97-1.61-1.45-2.42-.22-.53-.44-1.05-.66-1.58-.33-1.22-.67-2.44-.97-3.66-.14-.6-.19-1.22-.28-1.83,0-.8,0-1.59,0-2.39.12-.84.18-1.68.36-2.5.23-1.07.56-2.11.84-3.17.27-.6.53-1.2.8-1.8.3-.53.6-1.05.9-1.58.03-.04.06-.09.09-.13.03-.03.05-.06.08-.09.28-.4.55-.8.83-1.2.37-.43.73-.86,1.1-1.3.43-.43.86-.85,1.3-1.28.64-.5,1.28-1,1.92-1.5.72-.42,1.44-.85,2.16-1.27.89-.36,1.75-.8,2.67-1.05,1.31-.36,2.67-.59,4-.88,1.3.01,2.6.03,3.89.04ZM200.75,57.19c-.06,3.64,2.85,7.41,7.42,7.43,4.32.01,7.45-3.47,7.46-7.46,0-4.06-3.37-7.44-7.44-7.45-4.09-.01-7.44,3.35-7.44,7.48Z"/><path class="cls-11" d="M94.62,77.3c0,2.39,0,4.78-.01,7.17,0,.07-.02.13-.03.2-.02.18-.06.35-.06.53,0,2.93,0,5.87,0,8.8v.66c-.66-.04-1.25-.07-1.84-.1-1.62-.1-3.18-.52-4.7-1.07-1.67-.6-3.19-1.49-4.64-2.49-.73-.63-1.47-1.27-2.2-1.9-.3-.32-.59-.64-.89-.97-.27-.34-.54-.67-.81-1.01-.34-.49-.67-.99-1.01-1.48-.27-.5-.54-.99-.81-1.49-.27-.67-.55-1.33-.82-2-.22-.83-.48-1.65-.67-2.48-.17-.73-.26-1.49-.39-2.23-.03-.03-.07-.05-.1-.08v-1.57c-.21,0-.33-.02-.43,0-2.12.49-4.18,1.16-6.14,2.12-1.46.71-2.87,1.54-4.11,2.6-1.02.87-2.03,1.77-2.93,2.76-1.06,1.16-1.94,2.47-2.7,3.86-.76,1.4-1.42,2.85-1.88,4.38-.25.84-.45,1.68-.68,2.52-.01-.27-.02-.54-.04-.82.03-6.68.06-13.36.09-20.04.02-4.67.02-9.34.02-14.01,0-.25-.04-.49-.06-.74.02-.54.05-1.08.07-1.63,1.47-.03,2.92.13,4.34.5,6.88,1.82,11.44,6.12,13.69,12.85.49,1.45.69,2.97.82,4.49v1.11c.32-.07.55-.11.77-.16,2.48-.58,4.86-1.43,7.08-2.69,2.36-1.34,4.43-3.03,6.16-5.11,1.92-2.31,3.3-4.92,4.21-7.78.25-.76.45-1.54.67-2.32,0,.2.03.4.03.59,0,5.28,0,10.56-.01,15.84,0,1.06,0,2.12,0,3.18Z"/><path class="cls-11" d="M189.4,17.79c.29-1.45.42-2.95.9-4.33,2.35-6.8,7.04-11.16,14.09-12.67,6.54-1.4,12.33.37,17.16,5,3.15,3.02,4.96,6.78,5.49,11.13.5,4.1-.26,7.97-2.26,11.59-.07.13-.1.27-.14.41-.07.07-.15.13-.21.21-1.18,1.87-2.61,3.53-4.35,4.91-1.32,1.04-2.74,1.92-4.28,2.58-2.15.91-4.38,1.48-6.72,1.51-.07,0-.15.06-.22.09-.4,0-.8,0-1.19,0-.17-.03-.35-.07-.52-.09-.74-.08-1.49-.1-2.22-.24-2.08-.4-4.05-1.08-5.91-2.13-2.43-1.37-4.42-3.2-6.07-5.42-.36-.49-.7-1-1.05-1.5-.05-.14-.09-.28-.16-.41-.75-1.37-1.34-2.8-1.72-4.31-.23-.89-.38-1.8-.56-2.71-.06-.04-.11-.07-.17-.11h0c.26-.15.28-.36.04-.56.01-.47.02-.93.04-1.4.02-.52.03-1.03.05-1.55ZM196.97,23.05c.35.77.64,1.56,1.06,2.29,1.11,1.93,2.68,3.4,4.64,4.45,1.97,1.05,4.06,1.47,6.31,1.36,2.16-.1,4.08-.79,5.87-1.93,1-.64,1.86-1.42,2.61-2.35.92-1.13,1.67-2.35,2.08-3.75.04-.07.08-.14.11-.22.55-1.72.72-3.48.47-5.27-.86-6.22-6.38-10.73-12.64-10.29-3.9.27-6.98,2.07-9.14,5.31-2.14,3.21-2.56,6.71-1.37,10.38Z"/><path class="cls-3" d="M94.62,77.3c0-1.06,0-2.12,0-3.18.13-.75.24-1.5.39-2.25,1.64-8.23,9.08-14.58,17.46-14.91.94,0,1.87,0,2.81,0,.27.04.53.07.8.11.3.06.6.12.9.17.27.04.53.08.8.13.37.1.73.2,1.1.3.53.19,1.07.38,1.6.57l2.09.95c.17.09.35.17.5.28.87.61,1.73,1.22,2.59,1.83.62.6,1.27,1.18,1.85,1.82,3.01,3.35,4.65,7.27,4.88,11.77.03.61.03,1.23.04,1.84-.17,1.16-.26,2.35-.54,3.49-1.27,5.2-4.25,9.16-8.83,11.93-.1.06-.19.13-.29.19-1.52.78-3.08,1.48-4.76,1.84-1.07.23-2.15.36-3.23.54-1,.03-2,.05-3.01.08-.05-.05-.09-.14-.14-.15-2.02-.19-3.97-.67-5.8-1.53-5.99-2.81-9.67-7.45-10.95-13.96-.12-.61-.19-1.24-.28-1.86ZM116.99,64.4c-.43-.1-.87-.21-1.3-.31-.73-.07-1.46-.14-2.19-.21-.66.06-1.33.08-1.98.19-5.24.84-9.43,5.26-9.88,10.56-.37,4.32,1.15,7.9,4.55,10.61,2.12,1.69,4.56,2.55,7.3,2.5.5-.03,1-.05,1.51-.08.76-.17,1.53-.35,2.29-.52,1.01-.29,1.95-.75,2.8-1.37.03-.02.06-.04.09-.05.03-.02.06-.05.09-.07.28-.2.59-.37.85-.59,3.44-3.04,4.89-6.82,4.14-11.37-.31-1.88-1.05-3.61-2.29-5.1-.53-.57-1.06-1.13-1.59-1.7-.6-.43-1.2-.87-1.8-1.3-.47-.24-.93-.47-1.4-.71-.4-.15-.8-.31-1.2-.46Z"/><path class="cls-13" d="M164.12,113.89c-1.29,1.52-2.49,3.13-3.89,4.53-5.13,5.11-11.29,8.3-18.45,9.46-1.78.29-3.6.33-5.41.48-.16.01-.33,0-.59,0,.15-.78.27-1.51.44-2.23,1.19-5.15,3.31-9.9,6.3-14.27.06-.08.1-.17.14-.26.1-.13.21-.25.31-.39,1.42-1.95,2.96-3.81,4.74-5.45,1.19-1.09,2.43-2.11,3.65-3.17.03-.03.06-.06.08-.08,1.5-.97,3-1.93,4.5-2.9.63-.32,1.26-.65,1.9-.95,2.64-1.23,5.28-2.46,8.12-3.19.78-.2,1.57-.37,2.35-.56.63-.11,1.27-.22,1.9-.32.03.14.06.28.09.42,0,.16,0,.33,0,.49-.03.2-.07.39-.09.59-.13,1.25-.22,2.5-.4,3.75-.51,3.46-1.61,6.74-3.22,9.83-.75,1.44-1.65,2.8-2.48,4.2Z"/><path class="cls-1" d="M92.68,94.55c.59.03,1.17.07,1.84.1v-.66c0-2.93,0-5.87,0-8.8,0-.18.04-.35.06-.53,0,3.39-.03,6.78-.03,10.17,0,2.63-.52,5.16-1.64,7.53-2.92,6.14-7.73,9.91-14.47,10.92-6.56.98-12.18-1.08-16.72-5.91-2.83-3.01-4.4-6.64-4.87-10.75-.03-.63-.07-1.26-.1-1.9.01-.07.03-.13.04-.2.47,0,.94,0,1.41,0,.36,0,.71,0,1.07,0,.2,0,.4.02.59.02,2.44,0,4.88,0,7.32,0,2.82,0,5.64.02,8.46.03.03,0,.07,0,.1,0,.5,0,1,0,1.5.01.53,0,1.07,0,1.6,0,1.2,0,2.4,0,3.59,0,3.26.01,6.51.03,9.77.03.16,0,.32-.06.48-.09Z"/><path class="cls-1" d="M209.13,76.19c1.19.19,2.42.26,3.58.58,7.48,2.1,12.25,6.95,13.88,14.54,2.07,9.67-3.68,19.07-13.15,21.92-1.53.46-3.11.7-4.71.76-.21,0-.42,0-.67,0,0-.15-.02-.26-.02-.38,0-5.39.02-10.78.02-16.16,0-.14-.06-.28-.09-.43,0-1.41,0-2.81,0-4.22.03-.16.08-.32.08-.48.03-3.52.05-7.03.07-10.55,0-1.08,0-2.16,0-3.24v-2.35h1Z"/><path class="cls-1" d="M116.49,9.37c.86-1.1,1.63-2.27,2.59-3.28,2.83-2.98,6.31-4.84,10.37-5.52,5.52-.92,10.54.33,14.95,3.78,3.82,3,6.12,6.94,6.94,11.73.12.72.16,1.45.23,2.18,0,.33-.01.67-.02,1v-.02c-2.47,0-4.93,0-7.38,0-.21,0-.42.06-.62.09-.96,0-1.93,0-2.89,0-.17-.03-.35-.09-.52-.09-2.49-.02-4.97-.04-7.46-.05-.22,0-.44,0-.66,0-1.67,0-3.35.02-5.02.03-.06-.01-.13-.04-.19-.04-2.27,0-4.54.01-6.81.02-2.06,0-4.11,0-6.25,0,.07-.87.08-1.65.21-2.41.17-1.04.42-2.08.63-3.11.64-1.43,1.28-2.86,1.92-4.29Z"/><path class="cls-8" d="M151.55,19.26c0-.33.01-.67.02-1,.16-1.57.35-3.14.87-4.64,2.49-7.13,7.4-11.59,14.85-12.93,6.35-1.15,11.93.71,16.54,5.2,3.2,3.12,5,6.99,5.47,11.46.02.15.07.29.11.43-.02.52-.03,1.03-.05,1.55-3.55,0-7.11,0-10.66,0-.16-.02-.32-.06-.48-.06-2.67,0-5.35-.02-8.02-.02-2.66,0-5.31,0-7.97.01-2.21,0-4.42-.01-6.64-.02-1.35,0-2.69,0-4.04.01Z"/><path class="cls-3" d="M56.88,36.52c.12-.73.24-1.45.38-2.18,1.32-7.32,7.34-13.47,14.63-14.88,1.3-.25,2.63-.28,3.95-.41h0c.01.36.02.73.04,1.1,0,.4,0,.8,0,1.2,0,1.46,0,2.93,0,4.39,0,1.63,0,3.26-.01,4.89,0,1.87,0,3.73,0,5.6,0,1.12,0,2.25-.01,3.37-.03.17-.09.35-.09.52,0,1.8,0,3.59,0,5.39,0,3.72,0,7.45,0,11.17,0,.03-.01.06-.02.09-.3,0-.59.02-.89.02-.56-.04-1.13-.05-1.69-.14-5.36-.83-9.66-3.43-12.81-7.85-2.12-2.97-3.25-6.3-3.4-9.95v-.95c-.31,0-.54,0-.77,0-2.26,0-4.51,0-6.77,0-.17,0-.35-.05-.52-.08.53,0,1.06-.01,1.59-.01,1.67,0,3.34-.02,5.01-.02.09,0,.18,0,.28,0,.04,0,.08,0,.12,0h1.01v-1.29Z"/><path class="cls-8" d="M151.37,102.61c-1.22,1.05-2.46,2.08-3.65,3.17-1.79,1.63-3.32,3.49-4.74,5.45-.1.13-.21.26-.31.39-5.96-3.29-9.33-8.31-10.12-15.07-.02-.24-.04-.47-.06-.71l.16-3.6c1.12-7.95,7.06-14.31,14.92-15.92,1.26-.26,2.57-.27,3.86-.39.02.05.03.1.05.16,0,.47-.02.95-.02,1.42,0,2.15,0,4.3,0,6.46,0,1.4-.01,2.79-.02,4.19,0,1.3,0,2.6,0,3.9,0,1.2,0,2.4,0,3.6-.01,1.37-.02,2.73-.04,4.1,0,.93,0,1.86.01,2.79-.02.03-.03.06-.05.1Z"/><path class="cls-4" d="M111.78,94.79c1-.03,2-.05,3.01-.08.79.12,1.59.22,2.38.36,1.53.28,2.98.84,4.4,1.44,1.37.72,2.69,1.51,3.88,2.51,3.79,3.21,6.06,7.25,6.71,12.18.11.8.14,1.61.21,2.44-3.65,0-7.22,0-10.79,0-.01-.47.04-.95-.05-1.41-.4-2.05-1.37-3.77-3.03-5.08-1.27-1.01-2.72-1.61-4.31-1.73-2.59-.19-4.85.59-6.69,2.51-1.52,1.59-2.27,3.46-2.3,5.64-2.98,0-5.95,0-8.93,0-.56,0-1.13,0-1.69,0-.42-8.08,6.18-17.87,17.2-18.8Z"/><path class="cls-11" d="M37.71,97.23c-.64,4.25-2.46,7.91-5.54,10.91-3.13,3.05-6.88,4.84-11.24,5.26-5.67.55-10.66-1.1-14.85-4.96-3.28-3.02-5.23-6.79-5.84-11.22-.12-.87-.16-1.74-.24-2.62,3.23,0,6.36,0,9.5,0,.05.61.04,1.23.16,1.83,1.05,5.17,5.98,8.36,10.92,7.5,4.51-.79,7.87-4.76,7.83-9.27.2,0,.4-.02.6-.02,2.72,0,5.44,0,8.17,0,.22.03.45.06.67.09-.04.83-.09,1.66-.13,2.5Z"/><path class="cls-11" d="M151.36,59.19c-.41,3.61-1.75,6.83-4.03,9.64-3.17,3.89-7.26,6.19-12.23,6.89-.83.12-1.69.1-2.53.14,0-3.13,0-6.26,0-9.39.62-.07,1.26-.08,1.87-.21,3.03-.65,5.27-2.36,6.66-5.12.97-1.94,1.25-4.02.74-6.14-.85-3.6-3.06-5.99-6.61-7.09-.81-.25-1.67-.34-2.54-.51-.01-.14-.02-.32-.04-.5,0-2.93,0-5.85,0-8.78.03-.03.07-.06.1-.09.47.03.93.05,1.4.09,2.66.23,5.18.96,7.52,2.26,3.77,2.09,6.52,5.12,8.28,9.05.75,1.67,1.23,3.43,1.42,5.25.03.68.07,1.37.1,2.05,0,.42,0,.84-.01,1.26-.03.4-.06.79-.09,1.19Z"/><path class="cls-3" d="M54.43,9.65c-2.15,3.5-5.06,6.12-8.83,7.77-.14.06-.27.12-.41.18-1.12.33-2.24.69-3.37.97-.76.19-1.56.25-2.33.37-.46,0-.93,0-1.39.01v-.02c-.02-.11-.07-.22-.09-.33-.56-2.66-1.46-5.19-2.8-7.56-1.74-3.08-4.08-5.58-7.01-7.53-2.41-1.6-5.03-2.73-7.87-3.34-.08-.02-.14-.11-.21-.17,3.44,0,6.88.01,10.32.02,8.68.02,17.36.04,26.04.06.16,0,.32,0,.51,0,.04,1.34-.12,2.6-.37,3.85-.29,1.41-.72,2.78-1.29,4.11-.09.21-.2.41-.3.61-.2.33-.4.67-.6,1Z"/><path class="cls-9" d="M55.48,37.8c-1.67,0-3.34.02-5.01.02-.53,0-1.06,0-1.59.01-.2,0-.4-.02-.6-.02-3.44,0-6.88,0-10.32,0-6.28-.02-12.56-.06-18.84-.08,0-.27-.02-.54-.02-.82.03-.3.06-.61.09-.91.03-.33.07-.66.1-.99,1.34-7.31,5.46-12.34,12.41-15,1.48-.57,3.02-.9,4.61-.98.59-.03,1.19-.07,1.78-.1v.02c0,.16,0,.33.04.49.37,1.74.92,3.41,1.61,5.05,1.09,2.56,2.58,4.85,4.5,6.85,1.33,1.38,2.8,2.59,4.46,3.53,1.15.65,2.37,1.17,3.56,1.75.87.3,1.75.6,2.62.91.2.07.39.18.59.28Z"/><path class="cls-4" d="M28.41,94.67c.04,4.51-3.32,8.48-7.83,9.27-4.94.86-9.87-2.33-10.92-7.5-.12-.6-.11-1.22-.16-1.83.67-.03,1.35-.05,2.02-.08,1.33,0,2.66,0,3.99,0,.6,0,1.2,0,1.8,0h1.6c.06-.79.12-1.54.18-2.3.07-.39.13-.78.21-1.18,1.69-8.88,9.55-15.35,18.59-15.29,0,2.34,0,4.67,0,7.01,0,.79-.03,1.59-.05,2.38-.44.04-.89.04-1.33.12-2.29.4-4.25,1.39-5.78,3.18-1.53,1.8-2.36,3.84-2.32,6.22Z"/><path class="cls-4" d="M56.66,102.54c.15,1.33.13,2.65-.19,3.96-1.14,4.55-5.65,7.63-10.28,7.03-4.31-.56-7.54-3.63-8.24-7.92-.15-.94-.04-1.92-.05-2.88.02-.1.05-.2.07-.3.01-.1.02-.2.03-.3.06-.2.13-.4.19-.61,1.09-3.84,4.53-6.56,8.36-6.81.72.01,1.43.02,2.15.03.56.15,1.13.26,1.68.45,1.98.68,3.54,1.93,4.76,3.61.18.32.4.62.53.95.35.92.66,1.86.99,2.79Z"/><path class="cls-7" d="M75.84,19.05c.04-4.98,1.75-9.31,5.17-12.94,3.01-3.21,6.72-5.16,11.09-5.73,6.31-.83,11.75,1.03,16.23,5.54,2.73,2.74,4.39,6.07,5.07,9.89.04.22.12.43.18.65,0,.1,0,.2.01.29,0,.03,0,.07,0,.1,0,.17.01.33.02.5-.02.03-.01.06.01.09.01.15.04.29.04.44-.01.43-.04.85-.07,1.28-1.43-.01-2.86-.02-4.29-.03-.07-.89-.07-1.79-.22-2.67-.5-2.91-1.85-5.4-3.87-7.53-1.29-1.36-2.83-2.38-4.54-3.15-2.82-1.27-5.76-1.55-8.74-.97-3.32.64-6.12,2.29-8.3,4.91-2.24,2.7-3.42,5.79-3.39,9.32-1.13,0-2.26.02-3.39.03-.3,0-.6,0-.9,0-.04,0-.07-.02-.11-.03h0Z"/><path class="cls-7" d="M207.98,92.81c0,1.41,0,2.81,0,4.22-.29,3-1.29,5.75-2.95,8.24-3.04,4.55-7.27,7.32-12.65,8.29-1.04.19-2.11.18-3.17.26-.04-.34-.08-.68-.11-1.02,0-.43.02-.86.02-1.29.02-.67.03-1.35.05-2.02.4-.03.79-.07,1.19-.08,1.22-.03,2.4-.31,3.54-.7,3.03-1.04,5.47-2.88,7.28-5.52,1.44-2.08,2.27-4.39,2.51-6.92.15-1.55.06-3.07-.3-4.58-.75-3.2-2.37-5.89-4.92-7.98-2.67-2.19-5.74-3.32-9.2-3.35h-.03s-.03,0-.03,0c-.01-.73-.02-1.45-.03-2.18,0-.67,0-1.35,0-2.02,0-.03.02-.05.03-.08.62,0,1.25,0,1.87-.01.37.06.74.12,1.1.17.37.07.73.13,1.1.2.59.16,1.18.32,1.77.47.77.31,1.55.62,2.32.93.97.57,1.93,1.14,2.9,1.71.07.06.15.13.23.19,2.53,1.9,4.48,4.27,5.82,7.13.88,1.88,1.48,3.85,1.66,5.94Z"/><path class="cls-7" d="M38.1,18.94c-.59.03-1.19.07-1.78.1-.08-.06-.15-.17-.23-.17-2.3-.22-4.5-.85-6.53-1.93-5.44-2.89-8.82-7.34-10.04-13.4C19.27,2.37,19.17,1.21,19.2,0h.51c.07,0,.14,0,.2,0,.06,0,.13,0,.19,0,.07.06.13.15.21.17,2.84.6,5.46,1.73,7.87,3.34,2.93,1.95,5.27,4.46,7.01,7.53,1.34,2.37,2.24,4.9,2.8,7.56.02.11.07.22.1.33Z"/><path class="cls-2" d="M189.09,112.8c.04.34.08.68.11,1.02-.24.32-.55.03-.82.09-.17-.05-.33-.12-.5-.16-2.17-.53-4.24-1.3-6.19-2.39-1.37-.76-2.67-1.62-3.82-2.66-1.18-1.07-2.29-2.2-3.24-3.5-1.64-2.25-2.85-4.7-3.63-7.36-.23-.77-.46-1.54-.69-2.32,0-.16,0-.33,0-.49.38,0,.76-.01,1.13-.02.38.04.75.08,1.13.12,1.89.18,3.68.7,5.4,1.49,4.22,1.92,7.34,4.98,9.36,9.16.88,1.81,1.48,3.71,1.66,5.73.03.43.07.87.1,1.3Z"/><path class="cls-5" d="M52.27,36.62c-1.19-.58-2.41-1.1-3.56-1.75-1.67-.94-3.14-2.16-4.46-3.53-1.93-2-3.42-4.29-4.5-6.85-.69-1.63-1.24-3.31-1.61-5.05-.03-.16-.04-.33-.05-.49.46,0,.93,0,1.39-.01.62.09,1.23.17,1.85.27,1.8.3,3.51.9,5.15,1.69,3.24,1.66,5.83,4.03,7.73,7.14.06.1.1.2.15.3-.23.54-.53,1.05-.68,1.61-.35,1.32-.64,2.66-.92,3.99-.19.88-.32,1.78-.48,2.67Z"/><path class="cls-11" d="M170.31,95.52c.23.77.46,1.54.69,2.32.78,2.66,1.99,5.11,3.63,7.36.95,1.3,2.06,2.43,3.24,3.5,1.15,1.05,2.46,1.9,3.82,2.66,1.96,1.09,4.03,1.86,6.19,2.39.17.04.33.11.5.16-1.88,0-3.75.01-5.63.02-.2,0-.4-.01-.6-.01-5.87,0-11.73-.01-17.6-.02-.15,0-.3,0-.45-.01.83-1.4,1.74-2.76,2.48-4.2,1.6-3.1,2.71-6.37,3.22-9.83.18-1.24.27-2.5.4-3.75.02-.2.06-.39.09-.59Z"/><path class="cls-5" d="M105.2,113.58c.02-2.18.78-4.05,2.3-5.64,1.84-1.92,4.1-2.7,6.69-2.51,1.59.12,3.04.72,4.31,1.73,1.66,1.32,2.63,3.03,3.03,5.08.09.46.04.94.05,1.41-1.97,0-3.95,0-5.92,0-.9,0-1.79-.02-2.69-.02-2.08,0-4.15,0-6.23,0-.51,0-1.03-.03-1.54-.05Z"/><path class="cls-1" d="M208.85,38.21c.07-.03.15-.09.22-.09,2.35-.03,4.58-.59,6.72-1.51,1.55-.66,2.96-1.53,4.28-2.58,1.75-1.38,3.17-3.04,4.35-4.91.05-.08.14-.14.21-.21.94,1.51,1.6,3.14,1.95,4.87.28,1.36.37,2.76.54,4.14.01.11,0,.23,0,.38-5.65,0-11.26,0-16.88,0-.47-.03-.94-.06-1.41-.1Z"/><path class="cls-6" d="M52.27,36.62c.16-.89.3-1.78.48-2.67.28-1.34.58-2.67.92-3.99.15-.56.45-1.08.68-1.61.72,1.09,1.19,2.29,1.6,3.51.51,1.51.83,3.06.91,4.65v1.29h-1.01s-.08,0-.12,0c-.09,0-.18,0-.28,0-.2-.09-.38-.2-.59-.28-.87-.31-1.75-.6-2.62-.91Z"/><path class="cls-3" d="M151.62,59.48c-.06-.49-.12-.99-.17-1.48,0-.42,0-.84.01-1.26.03-.45.06-.91.1-1.36.02-.06.07-.12.07-.18.1-1.55.48-3.04.99-4.51.2-.5.4-1,.6-1.5.21-.43.41-.86.62-1.29.29-.47.59-.94.88-1.41.21-.31.42-.63.63-.94.16-.18.32-.36.48-.55.2-.24.39-.47.59-.71.23-.24.46-.48.7-.72.47-.42.94-.84,1.41-1.26.56-.4,1.13-.81,1.69-1.21.6-.34,1.2-.67,1.8-1.01,1.31-.46,2.6-1,3.94-1.37,1.08-.3,2.22-.4,3.33-.58.81,0,1.61-.01,2.42-.02.62.1,1.24.19,1.85.3,5.96,1.13,10.46,4.33,13.43,9.62,1.28,2.27,2.02,4.73,2.2,7.34l.09.7c0,.8,0,1.59,0,2.39-.03.14-.06.27-.09.41-.08.64-.12,1.29-.25,1.92-.93,4.41-3.1,8.09-6.6,10.94-3.21,2.61-6.89,4.04-11.04,4.22-.59.03-1.19.06-1.78.1-.1-.03-.2-.09-.3-.1-.92-.13-1.84-.22-2.76-.37-1.51-.26-2.93-.83-4.33-1.43-.8-.47-1.61-.93-2.41-1.4-.63-.48-1.25-.97-1.88-1.45-.54-.54-1.08-1.09-1.62-1.63-.4-.5-.8-1.01-1.19-1.51-.57-.93-1.13-1.86-1.7-2.8-.23-.54-.46-1.07-.7-1.61-.25-.92-.52-1.84-.75-2.77-.12-.49-.18-1-.27-1.51ZM158.47,56.19c0,.29-.02.57-.02.86.03.44.05.89.08,1.33.08,1.27.44,2.48.97,3.62.76,1.64,1.82,3.06,3.22,4.24,2.17,1.83,4.68,2.7,7.47,2.82,1.15.05,2.3-.15,3.42-.46,2.42-.67,4.42-1.99,5.99-3.9,1.8-2.19,2.78-4.72,2.69-7.6-.07-.82-.05-1.65-.21-2.45-.6-2.99-2.19-5.41-4.63-7.19-2.69-1.96-5.73-2.72-9.05-2.14-1.52.27-2.94.79-4.24,1.63-.92.59-1.85,1.19-2.54,2.07-1.87,1.99-2.93,4.34-3.1,7.08-.02.04-.03.07-.05.11Z"/><path class="cls-8" d="M56.74,94.74c-.32,0-.65,0-.97,0-2.36,0-4.71,0-7.07,0-.72-.01-1.43-.02-2.15-.03-.15-.02-.29-.05-.44-.05-2.74,0-5.48,0-8.22.01-.03-.02-.06-.03-.09-.04.03-.75.07-1.49.07-2.24.01-1.8,0-3.59,0-5.39,0-.61-.02-1.23-.03-1.84.02-.79.04-1.59.05-2.38,0-2.34,0-4.67,0-7.01v-.02c.43.02.87.03,1.31.07.86.09,1.72.22,2.58.33,1,.3,2,.6,3,.89,1.12.58,2.25,1.15,3.37,1.73.28.2.55.4.83.6,3.15,2.33,5.39,5.32,6.71,9.01.56,1.57.88,3.19,1.05,4.84.01.27.02.54.04.82,0,.17,0,.34,0,.51-.01.07-.03.13-.04.2Z"/><path class="cls-7" d="M56.87,56.79c-.02.54-.05,1.08-.07,1.63-.04.36-.07.72-.12,1.08-.36,2.6-1.26,5-2.63,7.23-1.33,2.15-3.05,3.92-5.06,5.43-1.23.68-2.46,1.36-3.69,2.04-1.13.36-2.27.72-3.4,1.07-1.33.13-2.67.27-4,.4-1.17-.11-2.36-.14-3.51-.36-4.48-.88-8.19-3.09-11.08-6.62-2.27-2.77-3.63-5.95-4.09-9.5-.06-.62-.12-1.24-.17-1.85.03-.22.06-.43.08-.65,1.43,0,2.87.01,4.3.02.1.98.13,1.98.31,2.95.63,3.38,2.36,6.14,4.97,8.31,2.17,1.81,4.68,2.91,7.52,3.21,1.64.17,3.27.15,4.89-.21,3.57-.81,6.46-2.71,8.63-5.64,1.87-2.52,2.72-5.42,2.84-8.54,1.43,0,2.86,0,4.3,0Z"/><path class="cls-2" d="M56.78,94.54c0-.17,0-.34,0-.51.23-.84.43-1.69.68-2.52.45-1.53,1.12-2.98,1.88-4.38.75-1.39,1.64-2.7,2.7-3.86.9-.99,1.91-1.89,2.93-2.76,1.24-1.06,2.64-1.89,4.11-2.6,1.96-.95,4.02-1.63,6.14-2.12.11-.03.23,0,.43,0v1.57c-.03.3-.06.6-.08.9-.07.41-.14.82-.22,1.22-1.54,7.84-8.14,13.98-16.08,14.97-.36.03-.72.06-1.07.09-.47,0-.94,0-1.41,0Z"/><path class="cls-2" d="M75.72,74.64c.02-.29.03-.58.05-.87.14-.77.23-1.56.44-2.32.33-1.17.75-2.32,1.13-3.47.27-.53.54-1.05.8-1.58.33-.5.66-1.01.99-1.51.47-.6.94-1.2,1.41-1.8.43-.45.87-.89,1.3-1.34.57-.45,1.13-.9,1.7-1.36.5-.32,1-.64,1.5-.96.67-.34,1.33-.69,2-1.03.08-.02.16-.04.24-.07,1.96-.83,4-1.26,6.11-1.45.43,0,.87.02,1.3.03-.02.26-.04.53-.07.79-.22.77-.42,1.55-.67,2.32-.92,2.86-2.29,5.47-4.21,7.78-1.73,2.08-3.8,3.78-6.16,5.11-2.23,1.26-4.6,2.11-7.08,2.69-.22.05-.45.09-.77.16v-1.11Z"/><path class="cls-9" d="M171.71,38.14c-.81,0-1.61.01-2.42.02-1.22-.19-2.46-.34-3.67-.6-1.48-.31-2.84-.97-4.2-1.63-.83-.54-1.65-1.08-2.48-1.61-.86-.8-1.72-1.6-2.59-2.4-.09-.12-.17-.25-.26-.36-1.88-2.19-3.19-4.69-3.91-7.49-.23-.9-.37-1.82-.54-2.73-.01-.23-.03-.46-.04-.69,0-.03,0-.07,0-.1,0-.07,0-.13,0-.2,0-.07.02-.13.02-.2-.02-.3-.05-.6-.07-.9v.02c1.36,0,2.71-.01,4.05-.01,2.21,0,4.42.01,6.64.02.03.2.08.39.09.59.12,2.27,1.06,4.14,2.78,5.62,1.72,1.48,3.68,2.2,5.99,1.99,1.27-.12,2.44-.42,3.52-1.07,2.66-1.6,4-3.97,4.09-7.06,3.55,0,7.11,0,10.66,0-.01.47-.02.93-.04,1.4-.01.19-.03.38-.04.56h0c-.04.36-.07.73-.13,1.08-.83,4.72-3.08,8.62-6.81,11.63-3.09,2.5-6.65,3.89-10.63,4.12Z"/><path class="cls-1" d="M196.97,23.05c1.31-.88,2.64-1.71,4.12-2.27.74-.28,1.51-.49,2.26-.73.14.42.25.85.41,1.25.9,2.21,3.31,3.43,5.53,2.9,2.18-.52,3.48-1.94,3.86-4.17,2.34.6,4.45,1.66,6.39,3.09-.42,1.41-1.16,2.62-2.08,3.75-.75.92-1.62,1.71-2.61,2.35-1.79,1.14-3.71,1.83-5.87,1.93-2.24.11-4.33-.31-6.31-1.36-1.96-1.05-3.53-2.52-4.64-4.45-.42-.73-.71-1.53-1.06-2.29Z"/><path class="cls-1" d="M206.14,38.3c-.13,0-.26,0-.39-.01-.43-.01-.86-.02-1.29-.03-1.6,0-3.2,0-4.8,0-.06,0-.13,0-.19.01-.87,0-1.73,0-2.6,0-.77,0-1.53-.02-2.3-.02-.53,0-1.07,0-1.6,0-.43,0-.87,0-1.3,0-.4,0-.8,0-1.2,0-.36,0-.73-.01-1.09-.02-.08-1.43.08-2.84.45-4.21.32-1.21.77-2.38,1.16-3.56.3-.54.59-1.08.89-1.62.35.5.68,1.01,1.05,1.5,1.65,2.22,3.65,4.06,6.07,5.42,1.85,1.04,3.83,1.72,5.91,2.13.73.14,1.48.16,2.22.24.17.02.35.06.52.09-.51.03-1.01.06-1.52.08Z"/><path class="cls-11" d="M169.53,76.06c.59-.03,1.19-.06,1.78-.1.13.04.26.1.39.11,2.09.02,4.18.04,6.27.05,3.74.02,7.47.02,11.21.03,0,.67,0,1.35,0,2.02-.16.83-.27,1.67-.49,2.48-2.05,7.36-6.79,12-14.2,13.88-.99.25-2.03.32-3.04.48-.38,0-.76.01-1.13.02-.03-.14-.06-.28-.09-.42,0-.08,0-.17-.02-.25-.6-2.44-1.4-4.8-2.62-7.01-1.41-2.54-3.22-4.73-5.47-6.56-2.13-1.73-4.52-3.02-7.12-3.89-.97-.32-1.97-.55-2.95-.83.5-.01,1-.02,1.5-.03.5,0,1,0,1.5,0,.63,0,1.26,0,1.9.01.73,0,1.46,0,2.2,0,.9,0,1.8,0,2.7,0,2.57,0,5.14.01,7.7.02Z"/><path class="cls-2" d="M152.03,76.07c.98.27,1.98.5,2.95.83,2.6.87,4.99,2.16,7.12,3.89,2.25,1.83,4.07,4.02,5.47,6.56,1.22,2.21,2.02,4.57,2.62,7.01.02.08.02.17.02.25-.63.11-1.27.22-1.9.32-1.3-.29-2.63-.51-3.91-.87-1.84-.52-3.49-1.47-5.08-2.53-.66-.55-1.32-1.09-1.98-1.64-.57-.62-1.15-1.23-1.72-1.85-.39-.54-.78-1.07-1.17-1.61-.39-.7-.78-1.4-1.18-2.09l-.83-2.01c-.14-.48-.31-.95-.4-1.43-.22-1.13-.4-2.27-.59-3.41,0-.47.02-.95.02-1.42.19,0,.37,0,.56,0Z"/><path class="cls-8" d="M117.61,26.55c.93-.96,1.85-1.93,2.79-2.88.34-.34.73-.61,1.1-.92.43-.28.86-.56,1.3-.82,2.27-1.39,4.73-2.22,7.36-2.61.62-.05,1.23-.1,1.85-.15.22,0,.44,0,.66,0,0,2.79,0,5.59.01,8.38.01.75.02,1.51.04,2.26-.02.18-.06.36-.06.54,0,2.4-.02,4.8-.02,7.21,0,.15.06.31.1.46-.03.03-.06.06-.1.09-1.16,0-2.32,0-3.48,0-2,0-3.99,0-5.99-.01-.2,0-.4-.01-.6-.01-2.95-.03-5.89-.05-8.84-.08.07-.9.09-1.81.23-2.71.15-.97.4-1.93.6-2.89.41-1,.81-1.99,1.22-2.99.61-.96,1.22-1.92,1.83-2.88Z"/><path class="cls-4" d="M132.72,29.83c-.01-.75-.02-1.51-.04-2.26.13-.56.2-1.15.39-1.69,1.25-3.65,3.76-5.86,7.58-6.55.96,0,1.93,0,2.89,0,.16.02.33.04.49.07,3.89.84,6.67,3.74,7.42,7.73l.07.31c0,.13.02.26.03.4-.01.03-.01.06,0,.09,0,.07.01.13.02.2-.01.53-.02,1.07-.03,1.6-.03.17-.06.34-.09.51-.75,4.31-4.31,7.61-8.8,7.86-5.01.28-9.29-3.3-9.93-8.28Z"/><path class="cls-5" d="M178.7,19.33c-.1,3.09-1.44,5.46-4.09,7.06-1.08.65-2.26.95-3.52,1.07-2.31.22-4.27-.5-5.99-1.99-1.71-1.48-2.66-3.34-2.78-5.62-.01-.2-.06-.39-.09-.59,2.66,0,5.31-.01,7.97-.01,2.67,0,5.35,0,8.02.02.16,0,.32.04.48.06Z"/><path class="cls-8" d="M113.61,38.91c-.03.33-.06.66-.1.98-.9,7.19-4.65,12.32-11.19,15.4-2.41,1.13-4.98,1.59-7.64,1.61-.43,0-.87-.02-1.3-.03-.36-.04-.72-.09-1.08-.13-1.87-.23-3.65-.76-5.38-1.5-.63-.32-1.25-.64-1.88-.96-.5-.33-1-.66-1.5-1-.57-.47-1.14-.94-1.71-1.41-.44-.45-.88-.91-1.32-1.36-.52-.68-1.05-1.35-1.57-2.03-.37-.63-.74-1.25-1.1-1.88-.24-.56-.49-1.12-.73-1.68-.31-1.07-.65-2.14-.92-3.22-.17-.68-.23-1.39-.34-2.09,0-1.12,0-2.25.01-3.37.04-.27.08-.55.14-.82.25-1.13.5-2.25.76-3.38.39-.93.78-1.87,1.18-2.8.47-.76.95-1.53,1.42-2.29.4-.5.79-1,1.19-1.51.91-.84,1.81-1.68,2.72-2.52.25-.17.49-.33.74-.5,2.49-1.72,5.24-2.74,8.22-3.18.62-.05,1.24-.1,1.85-.15.43,0,.87,0,1.3,0,.68.06,1.36.08,2.03.19,6,.97,10.57,4.05,13.7,9.27,1.38,2.31,2.17,4.81,2.42,7.49l.03.32c.02.86.04,1.71.06,2.57ZM94.69,45.43c4.1.01,7.47-3.34,7.48-7.45,0-4.01-3.36-7.43-7.34-7.44-4.18-.01-7.55,3.29-7.57,7.4-.02,4.11,3.32,7.47,7.43,7.48Z"/><path class="cls-1" d="M56.95,38.87c-.15.96-.25,1.94-.45,2.89-.87,4.1-2.9,7.53-6.03,10.31-.11.1-.21.21-.32.31-.95.65-1.9,1.3-2.86,1.96-.9.42-1.8.84-2.7,1.26-.08.01-.16.02-.24.04-1.18.29-2.35.63-3.55.86-.87.17-1.76.18-2.65.27-.35,0-.7.04-1.04.02-.37-.01-.74-.06-1.11-.09-.47-.08-.94-.16-1.41-.25-4-.76-7.43-2.59-10.24-5.54-3.01-3.16-4.74-6.92-5.14-11.28-.02-.63-.05-1.26-.07-1.89,6.28.03,12.56.06,18.84.08,3.44.01,6.88,0,10.32,0,.2,0,.4.01.6.02.17.03.35.08.52.08,2.26,0,4.51,0,6.77,0,.23,0,.46,0,.77,0v.95Z"/><path class="cls-4" d="M132.56,66.47c0-2.96,0-5.93.01-8.89.03-.16.08-.32.08-.47-.02-.38-.09-.76-.09-1.13,0-2.79,0-5.58,0-8.37.03-.23.06-.47.08-.7.01.18.03.36.04.5.87.17,1.73.26,2.54.51,3.55,1.09,5.76,3.49,6.61,7.09.5,2.12.23,4.2-.74,6.14-1.38,2.76-3.63,4.47-6.66,5.12-.61.13-1.25.14-1.87.21Z"/><path class="cls-6" d="M132.65,46.9c-.03.23-.06.47-.08.7-.24-.03-.47-.06-.71-.08-1.38-.12-2.67-.53-3.88-1.21.07-.59.12-1.18.2-1.76.15-1.06.3-2.11.46-3.16.17-1.09.36-2.17.54-3.25,1.16,0,2.32,0,3.48,0,0,2.93,0,5.85,0,8.78Z"/><path class="cls-3" d="M95.36,19.08c-.43,0-.87,0-1.3,0-2.01,0-4.02.01-6.03.02-2.1,0-4.2,0-6.3-.01-.5-.01-1-.03-1.5-.04-.03-3.53,1.14-6.62,3.39-9.32,2.18-2.63,4.98-4.27,8.3-4.91,2.99-.58,5.93-.3,8.74.97,1.72.77,3.25,1.8,4.54,3.15,2.03,2.12,3.37,4.62,3.87,7.53.15.88.15,1.78.22,2.67-.2,0-.4.02-.6.02-4.45-.02-8.89-.04-13.34-.07Z"/><path class="cls-3" d="M189.27,80.35c3.46.04,6.53,1.16,9.2,3.35,2.55,2.09,4.17,4.78,4.92,7.98.35,1.51.44,3.03.3,4.58-.24,2.54-1.08,4.84-2.51,6.92-1.82,2.63-4.26,4.48-7.28,5.52-1.14.39-2.32.67-3.54.7-.4.01-.79.05-1.19.08,0-1.16,0-2.32,0-3.49,0-6.16,0-12.32.01-18.48,0-.17.01-.33.02-.5.02-.14.07-.28.07-.43,0-2.08,0-4.17,0-6.25Z"/><path class="cls-1" d="M188.99,111.5s.08,0,.12.01c0,.43-.02.86-.02,1.29-.03-.43-.07-.87-.1-1.3Z"/><path class="cls-10" d="M127.97,46.31c1.21.68,2.5,1.1,3.88,1.21-.06.6-.13,1.21-.18,1.81-.11,1.31-.23,2.62-.3,3.94-.07,1.22-.07,2.44-.11,3.66-.68-.08-1.37-.11-2.03-.26-1.13-.25-2.24-.58-3.37-.88-1.07-.53-2.13-1.06-3.2-1.59-.73-.53-1.47-1.07-2.2-1.6-.53-.5-1.06-1-1.59-1.5-.45-.53-.91-1.06-1.36-1.59-.34-.49-.68-.98-1.01-1.48-.38-.71-.76-1.42-1.14-2.12-.41-1.27-.88-2.53-1.2-3.82-.23-.91-.27-1.86-.4-2.79-.02-.13-.05-.25-.08-.38.02-.3.04-.59.05-.89,2.95.03,5.89.05,8.84.08.2,0,.4,0,.6.01.12,3.59,1.69,6.34,4.79,8.19Z"/><path class="cls-5" d="M131.26,56.93c.03-1.22.04-2.44.11-3.66.07-1.31.19-2.62.3-3.94.05-.6.12-1.21.18-1.81.24.03.47.06.71.08,0,2.79,0,5.58,0,8.37,0,.38.07.76.09,1.13,0,.16-.05.32-.08.47,0-.18-.02-.36-.02-.56-.43-.03-.86-.06-1.29-.09Z"/><path class="cls-12" d="M182.29,57.09c.09,2.88-.89,5.41-2.69,7.6-1.57,1.91-3.58,3.23-5.99,3.9-1.13.31-2.27.51-3.42.46-2.79-.11-5.3-.99-7.47-2.82-1.4-1.18-2.46-2.59-3.22-4.24-.53-1.15-.89-2.35-.97-3.62-.03-.44-.05-.89-.08-1.33,1.26,0,2.52-.01,3.78-.02.36,0,.72.01,1.08.02.3,0,.6,0,.91,0,.4,0,.79,0,1.19,0,.03-.03.05-.06.08-.09.18-2.59,1.97-4.33,4.44-4.67,1.3-.18,2.52.21,3.53,1.02,1.17.94,1.81,2.21,1.87,3.75,2.35,0,4.66,0,6.97,0Z"/><path class="cls-3" d="M35.99,56.69c.37.03.74.08,1.11.09.35.01.7-.01,1.04-.02,1.62,0,3.24.01,4.86.01.56,0,1.12-.02,1.68-.03.7,0,1.39,0,2.09,0h.81c.96,0,1.92,0,2.89,0,.7.01,1.39.02,2.09.03-.12,3.12-.96,6.01-2.84,8.54-2.18,2.93-5.06,4.83-8.63,5.64-1.61.37-3.24.39-4.89.21-2.84-.3-5.36-1.4-7.52-3.21-2.61-2.17-4.35-4.94-4.97-8.31-.18-.97-.21-1.97-.31-2.95.18,0,.36-.02.55-.02,4.01,0,8.03,0,12.04,0Z"/><path class="cls-11" d="M213.16,20.03c-.38,2.23-1.68,3.65-3.86,4.17-2.22.53-4.63-.69-5.53-2.9-.17-.41-.28-.83-.41-1.25.02-.4,0-.8.06-1.19.24-1.87,1.23-3.18,2.93-3.98.07-.04.14-.08.22-.12.6-.1,1.2-.2,1.8-.3,2.38.23,4.06,1.48,4.62,3.57.17.64.13,1.34.18,2.01Z"/><path class="cls-3" d="M116.09,71.55c.36.28.72.56,1.08.84.37.59.74,1.18,1.11,1.77.33,1.23.39,2.45-.16,3.63-.22.46-.49.9-.74,1.34-.22.17-.42.34-.65.49-.34.23-.69.43-1.04.65-.7.28-1.42.46-2.18.45-.31-.03-.62-.04-.92-.1-1.86-.36-3.44-2-3.78-3.87-.48-2.71,1.21-5.2,3.91-5.74.24-.05.5-.05.74-.07.44.04.88.08,1.32.12.43.17.87.33,1.3.5Z"/><path class="cls-5" d="M127.97,46.31c-3.1-1.85-4.67-4.6-4.79-8.19,2,0,3.99,0,5.99.01-.18,1.08-.37,2.17-.54,3.25-.16,1.05-.32,2.11-.46,3.16-.08.58-.14,1.17-.2,1.76Z"/></g></svg>