<?xml version="1.0" encoding="UTF-8"?><svg id="_圖層_2" xmlns="http://www.w3.org/2000/svg" viewBox="0 0 803.61 454.05"><defs><style>.cls-1{fill:#299591;}.cls-2{fill:#da2c7e;}.cls-3{fill:#193456;}.cls-4{fill:#101d30;}.cls-5{fill:#217bac;}.cls-6{fill:#050c1d;}.cls-7{fill:#01795a;}.cls-8{fill:#183354;}.cls-9{fill:#163050;}.cls-10{fill:#09548b;}.cls-11{fill:#258d80;}.cls-12{fill:#2b9899;}.cls-13{fill:#0d6358;}</style></defs><g id="_飄移"><path class="cls-2" d="M59.98,318.3c-27.46-3.87-46.72-18.62-55.83-44.74-8.66-24.84-3.42-47.68,14.19-67.32,10.07-11.23,22.91-17.79,37.74-20.4,2.88-.51,5.84-.62,8.76-.91,4.56.33,9.13.51,13.67,1.02,5.33.59,10.32,2.52,15.32,4.36,2.94,1.55,5.88,3.09,8.82,4.64,2.47,1.78,4.94,3.56,7.41,5.34,1.88,1.76,3.76,3.53,5.64,5.29,1.3,1.51,2.6,3.02,3.89,4.53.86,1.17,1.73,2.34,2.59,3.51,1.71,2.85,3.43,5.7,5.14,8.55.78,1.86,1.55,3.72,2.33,5.58,1.15,4.32,2.38,8.62,3.42,12.96.51,2.12.68,4.32,1.01,6.49,0,2.82,0,5.64,0,8.46-.41,2.96-.63,5.95-1.27,8.86-.82,3.77-1.97,7.47-2.97,11.2-.94,2.13-1.89,4.26-2.83,6.38-1.06,1.87-2.13,3.73-3.19,5.6-.11.16-.22.31-.33.47-.09.11-.19.22-.28.32-.98,1.41-1.96,2.82-2.93,4.23-1.3,1.53-2.59,3.06-3.89,4.59-1.53,1.51-3.05,3.02-4.58,4.53-2.27,1.77-4.53,3.54-6.8,5.31-2.55,1.5-5.1,2.99-7.66,4.49-3.14,1.26-6.2,2.82-9.44,3.71-4.65,1.29-9.43,2.1-14.15,3.12-4.59-.05-9.18-.1-13.78-.15ZM93.53,251.76c.2-12.87-10.06-26.22-26.25-26.27-15.29-.04-26.34,12.26-26.37,26.37-.03,14.37,11.91,26.3,26.3,26.35,14.48.05,26.33-11.86,26.32-26.45Z"/><path class="cls-5" d="M468.91,180.63c.01-8.45.03-16.91.05-25.36,0-.23.07-.46.11-.69.08-.62.22-1.25.22-1.87.01-10.38,0-20.76,0-31.14v-2.34c2.34.13,4.42.25,6.49.37,5.74.35,11.24,1.82,16.61,3.77,5.9,2.14,11.27,5.26,16.41,8.81,2.59,2.24,5.18,4.48,7.77,6.72,1.05,1.14,2.09,2.28,3.14,3.42.96,1.19,1.91,2.38,2.87,3.58,1.19,1.75,2.37,3.5,3.56,5.25.96,1.75,1.92,3.51,2.88,5.26.97,2.35,1.94,4.7,2.92,7.06.8,2.92,1.69,5.83,2.36,8.78.59,2.6.92,5.26,1.37,7.89.12.1.25.19.37.29v5.57c.73,0,1.15.08,1.54-.01,7.5-1.73,14.79-4.11,21.71-7.48,5.17-2.52,10.14-5.45,14.52-9.21,3.6-3.09,7.17-6.27,10.37-9.76,3.76-4.1,6.88-8.74,9.54-13.65,2.69-4.96,5.04-10.07,6.64-15.49.87-2.96,1.61-5.95,2.4-8.93.04.96.08,1.93.13,2.89-.1,23.63-.22,47.26-.3,70.89-.06,16.52-.06,33.04-.07,49.56,0,.88.13,1.75.2,2.63-.08,1.92-.17,3.83-.25,5.75-5.2.09-10.34-.45-15.35-1.78-24.32-6.43-40.46-21.63-48.43-45.47-1.72-5.14-2.43-10.5-2.91-15.88v-3.93c-1.14.24-1.94.39-2.73.57-8.77,2.06-17.18,5.06-25.05,9.51-8.36,4.73-15.67,10.72-21.8,18.09-6.79,8.16-11.66,17.41-14.9,27.51-.87,2.71-1.58,5.46-2.37,8.19-.03-.7-.09-1.4-.09-2.1.01-18.67.03-37.35.05-56.02,0-3.75.02-7.49.03-11.24Z"/><path class="cls-5" d="M133.67,391.13c-1.03,5.11-1.5,10.42-3.19,15.3-8.32,24.05-24.91,39.47-49.85,44.8-23.15,4.95-43.63-1.3-60.68-17.69-11.13-10.7-17.54-23.99-19.42-39.37-1.77-14.51.91-28.18,7.98-40.98.25-.44.34-.97.51-1.46.24-.24.55-.45.73-.73,4.19-6.63,9.22-12.5,15.4-17.37,4.68-3.68,9.69-6.78,15.16-9.11,7.59-3.23,15.48-5.24,23.78-5.33.26,0,.52-.2.78-.31,1.41,0,2.81,0,4.22,0,.61.11,1.22.26,1.84.33,2.61.28,5.27.35,7.84.85,7.34,1.43,14.34,3.83,20.9,7.53,8.58,4.83,15.65,11.31,21.48,19.18,1.29,1.73,2.47,3.54,3.7,5.31.18.48.31,1,.56,1.44,2.66,4.83,4.73,9.91,6.09,15.25.8,3.16,1.34,6.38,2,9.58.2.13.4.25.6.38h.01c-.92.52-.97,1.26-.14,1.99-.04,1.65-.08,3.29-.13,4.94-.05,1.82-.11,3.65-.17,5.47ZM106.89,372.52c-1.24-2.71-2.28-5.54-3.76-8.11-3.93-6.81-9.47-12.03-16.41-15.73-6.98-3.72-14.37-5.2-22.31-4.82-7.62.36-14.44,2.79-20.76,6.82-3.52,2.25-6.6,5.03-9.25,8.3-3.24,4-5.89,8.31-7.36,13.28-.13.25-.29.5-.37.77-1.96,6.08-2.54,12.3-1.66,18.63,3.04,21.99,22.57,37.94,44.7,36.38,13.8-.97,24.7-7.33,32.33-18.78,7.56-11.35,9.06-23.72,4.85-36.73Z"/><path class="cls-11" d="M468.91,180.63c0,3.75-.02,7.49-.03,11.24-.45,2.65-.84,5.32-1.36,7.95-5.81,29.1-32.13,51.56-61.78,52.73-3.31,0-6.62-.02-9.93-.03-.94-.12-1.88-.25-2.82-.37-1.06-.2-2.13-.41-3.19-.61-.94-.15-1.88-.3-2.81-.45-1.3-.35-2.59-.7-3.89-1.05-1.89-.67-3.78-1.33-5.67-2-2.46-1.12-4.92-2.24-7.38-3.37-.6-.32-1.23-.59-1.78-.97-3.06-2.15-6.1-4.32-9.15-6.49-2.18-2.13-4.49-4.16-6.53-6.42-10.64-11.83-16.44-25.71-17.26-41.63-.11-2.17-.1-4.34-.15-6.51.61-4.12.91-8.31,1.89-12.34,4.5-18.39,15.02-32.42,31.22-42.2.35-.21.68-.46,1.02-.68,5.38-2.76,10.89-5.24,16.84-6.49,3.77-.8,7.61-1.28,11.41-1.91,3.54-.09,7.09-.18,10.63-.27.16.18.31.51.48.53,7.14.66,14.03,2.37,20.5,5.41,21.19,9.93,34.19,26.36,38.72,49.38.43,2.17.66,4.38.99,6.57ZM389.82,226.26c1.53.36,3.07.73,4.6,1.09,2.58.24,5.17.49,7.75.73,2.34-.21,4.7-.29,7.01-.66,18.54-2.96,33.36-18.61,34.95-37.34,1.3-15.27-4.07-27.96-16.1-37.54-7.49-5.97-16.14-9.02-25.81-8.83-1.78.09-3.55.18-5.33.28-2.7.61-5.41,1.23-8.11,1.84-3.59,1.03-6.89,2.66-9.92,4.84-.11.06-.22.13-.33.19-.11.09-.21.18-.32.26-1,.7-2.08,1.3-2.99,2.1-12.18,10.75-17.31,24.13-14.64,40.23,1.1,6.67,3.7,12.79,8.1,18.04,1.87,2.01,3.74,4.01,5.62,6.02,2.12,1.54,4.24,3.07,6.36,4.61,1.65.84,3.3,1.67,4.94,2.51,1.41.55,2.82,1.09,4.23,1.64Z"/><path class="cls-13" d="M223.11,51.22c4.57-5.37,8.79-11.07,13.77-16.03,18.14-18.08,39.93-29.35,65.25-33.45,6.3-1.02,12.74-1.17,19.12-1.71.57-.05,1.16,0,2.1,0-.54,2.76-.96,5.34-1.55,7.88-4.23,18.23-11.71,35.03-22.29,50.46-.2.29-.34.61-.51.92-.37.45-.75.89-1.09,1.36-5.03,6.91-10.46,13.49-16.77,19.27-4.2,3.85-8.61,7.47-12.92,11.2-.1.1-.2.2-.29.29-5.3,3.41-10.6,6.83-15.9,10.24-2.24,1.13-4.46,2.31-6.73,3.37-9.34,4.35-18.69,8.72-28.73,11.27-2.76.7-5.54,1.33-8.31,1.99-2.24.38-4.48.76-6.72,1.14-.11-.5-.21-1-.32-1.5,0-.58,0-1.15,0-1.73.11-.69.24-1.38.31-2.08.47-4.42.79-8.86,1.43-13.25,1.79-12.24,5.71-23.83,11.38-34.78,2.64-5.1,5.84-9.91,8.78-14.85Z"/><path class="cls-12" d="M475.8,119.59c-2.08-.12-4.15-.24-6.49-.37v2.34c0,10.38,0,20.76,0,31.14,0,.62-.14,1.25-.22,1.87.03-12,.09-23.99.09-35.99,0-9.31,1.83-18.26,5.82-26.64,10.33-21.73,27.34-35.07,51.2-38.63,23.2-3.46,43.09,3.81,59.15,20.89,10.02,10.65,15.55,23.5,17.22,38.02.12,2.24.24,4.47.37,6.71-.05.23-.09.46-.14.69-1.66,0-3.32,0-4.99-.01h-3.78c-.7-.02-1.4-.08-2.1-.08-8.63,0-17.26,0-25.88-.01-9.97-.02-19.95-.06-29.92-.1-.12,0-.25-.01-.37-.02-1.77-.01-3.54-.03-5.31-.04-1.88,0-3.77,0-5.65,0-4.24,0-8.47,0-12.71,0-11.52-.04-23.04-.09-34.56-.11-.56,0-1.13.21-1.69.32Z"/><path class="cls-12" d="M63.89,184.55c-4.23-.67-8.57-.92-12.66-2.07-26.46-7.44-43.34-24.58-49.1-51.42C-5.2,96.85,15.15,63.6,48.63,53.52c5.43-1.63,10.99-2.48,16.65-2.7.75-.03,1.5,0,2.38,0,.02.54.06.94.06,1.33-.02,19.06-.05,38.11-.06,57.17,0,.5.2,1.01.31,1.51,0,4.98,0,9.96-.01,14.93-.1.57-.28,1.13-.29,1.7-.09,12.44-.17,24.88-.23,37.32-.02,3.82,0,7.63,0,11.45,0,2.74,0,5.48,0,8.32-1.37,0-2.46,0-3.54,0Z"/><path class="cls-12" d="M391.58,420.92c-3.03,3.88-5.78,8.04-9.16,11.59-10.02,10.55-22.32,17.12-36.7,19.51-19.54,3.25-37.29-1.15-52.87-13.38-13.5-10.6-21.66-24.54-24.54-41.49-.43-2.54-.55-5.13-.81-7.7.02-1.18.04-2.36.05-3.54l.05.06c8.69.01,17.38.03,26.07.03.73,0,1.47-.21,2.2-.32,3.41,0,6.82,0,10.23,0,.61.11,1.23.31,1.84.32,8.79.08,17.59.13,26.38.19.78,0,1.56.01,2.34.02,5.92-.03,11.84-.06,17.76-.09.23.05.46.15.68.15,8.03-.02,16.07-.04,24.1-.06,7.27,0,14.54,0,22.09,0-.25,3.07-.3,5.83-.73,8.53-.59,3.7-1.47,7.34-2.23,11.01-2.26,5.06-4.52,10.12-6.78,15.18Z"/><path class="cls-2" d="M267.56,385.91c-.02,1.18-.04,2.36-.05,3.54-.55,5.56-1.23,11.1-3.08,16.4-8.81,25.21-26.16,40.99-52.52,45.75-22.47,4.06-42.2-2.5-58.52-18.41-11.34-11.05-17.69-24.74-19.34-40.54-.05-.52-.25-1.02-.37-1.53.06-1.82.11-3.65.17-5.47,12.57,0,25.13.01,37.7.02.57.07,1.14.19,1.71.2,9.45.03,18.91.06,28.36.07,9.4,0,18.79-.03,28.19-.04,7.82.02,15.65.05,23.47.06,4.76,0,9.53-.03,14.29-.05Z"/><path class="cls-11" d="M602.42,324.88c-.44,2.57-.86,5.15-1.33,7.71-4.66,25.89-25.95,47.64-51.75,52.62-4.58.88-9.32.99-13.98,1.45v.02c-.04-1.3-.08-2.6-.13-3.9,0-1.41,0-2.82.01-4.23,0-5.18,0-10.36.01-15.54.01-5.77.03-11.54.04-17.31,0-6.61,0-13.21,0-19.82.01-3.98.03-7.96.04-11.93.11-.61.32-1.23.32-1.84.02-6.35.02-12.7.01-19.06,0-13.17-.02-26.35-.03-39.52.03-.11.05-.22.06-.33,1.05-.03,2.1-.06,3.15-.09,1.99.16,4,.18,5.97.49,18.96,2.94,34.16,12.14,45.31,27.77,7.48,10.49,11.49,22.27,12.03,35.18v3.35c1.08,0,1.9,0,2.71,0,7.98,0,15.97,0,23.95.01.62,0,1.24.18,1.86.27-1.87.02-3.74.04-5.61.05-5.91.03-11.81.06-17.72.08-.33,0-.65,0-.98,0-.14,0-.28,0-.42-.01-1.14,0-2.29,0-3.56,0v4.56Z"/><path class="cls-2" d="M268.21,91.1c4.31-3.73,8.72-7.35,12.92-11.2,6.32-5.78,11.74-12.36,16.77-19.27.34-.47.73-.91,1.09-1.36,21.09,11.63,33.01,29.41,35.8,53.32.07.84.14,1.68.22,2.51-.19,4.24-.39,8.48-.58,12.72-3.97,28.11-24.97,50.63-52.78,56.32-4.46.91-9.1.94-13.65,1.38-.06-.19-.11-.37-.17-.56.03-1.67.05-3.34.08-5.01,0-7.61,0-15.23-.01-22.84.02-4.94.05-9.88.07-14.82,0-4.59,0-9.19-.01-13.78,0-4.24,0-8.48,0-12.72.04-4.83.08-9.67.12-14.5-.02-3.28-.04-6.57-.05-9.85.06-.11.12-.23.18-.34Z"/><path class="cls-3" d="M408.22,118.74c-3.54.09-7.09.18-10.63.27-2.81-.42-5.64-.77-8.43-1.28-5.42-.99-10.53-2.95-15.58-5.09-4.84-2.55-9.53-5.33-13.73-8.88-13.41-11.34-21.43-25.65-23.73-43.09-.37-2.83-.49-5.69-.73-8.64,12.9,0,25.53,0,38.17,0,.05,1.66-.13,3.37.19,4.98,1.42,7.25,4.84,13.32,10.72,17.99,4.51,3.58,9.62,5.7,15.25,6.12,9.17.69,17.17-2.09,23.67-8.88,5.37-5.61,8.04-12.23,8.12-19.95,10.53,0,21.06-.02,31.59-.03,1.99,0,3.98,0,5.97,0,1.47,28.59-21.86,63.21-60.84,66.48Z"/><path class="cls-5" d="M670.24,110.13c2.26-15.03,8.69-27.99,19.58-38.59,11.07-10.78,24.35-17.13,39.77-18.61,20.06-1.93,37.7,3.89,52.51,17.54,11.6,10.69,18.51,24.01,20.67,39.69.42,3.06.57,6.16.84,9.25-11.41,0-22.51,0-33.61,0-.18-2.16-.14-4.36-.57-6.47-3.7-18.29-21.17-29.58-38.63-26.53-15.96,2.79-27.84,16.84-27.69,32.77-.7.02-1.41.07-2.11.07-9.63,0-19.26,0-28.89,0-.79-.11-1.58-.21-2.36-.32.16-2.94.32-5.88.48-8.83Z"/><path class="cls-5" d="M268.25,244.69c1.44-12.76,6.19-24.17,14.27-34.11,11.2-13.78,25.68-21.88,43.26-24.37,2.95-.42,5.97-.35,8.96-.5,0,11.07-.01,22.15-.02,33.22-2.21.24-4.46.28-6.62.75-10.71,2.29-18.65,8.34-23.55,18.11-3.44,6.86-4.41,14.22-2.63,21.73,3.02,12.74,10.83,21.2,23.39,25.07,2.87.89,5.92,1.2,8.99,1.8.04.5.09,1.13.14,1.77,0,10.35,0,20.7,0,31.05-.11.1-.23.21-.34.31-1.65-.11-3.3-.19-4.94-.34-9.42-.83-18.33-3.39-26.61-7.99-13.33-7.39-23.08-18.09-29.28-32-2.64-5.92-4.34-12.12-5.01-18.58-.12-2.42-.23-4.84-.35-7.26.01-1.48.03-2.96.04-4.44.1-1.4.21-2.81.31-4.21Z"/><path class="cls-11" d="M611.09,419.91c7.59-12.37,17.91-21.64,31.24-27.49.48-.21.96-.42,1.44-.64,3.97-1.16,7.91-2.44,11.92-3.42,2.7-.66,5.5-.89,8.26-1.31,1.64-.01,3.29-.03,4.93-.04l-.03.07c.12.39.27.78.35,1.18,1.99,9.4,5.17,18.35,9.91,26.75,6.14,10.88,14.43,19.75,24.8,26.65,8.53,5.67,17.8,9.66,27.84,11.8.27.06.49.39.73.6-12.17-.02-24.35-.04-36.52-.06-30.7-.07-61.41-.14-92.11-.21-.57,0-1.15,0-1.81,0-.15-4.73.41-9.2,1.31-13.63,1.01-5,2.56-9.83,4.56-14.53.31-.74.71-1.44,1.06-2.16.71-1.18,1.41-2.36,2.12-3.54Z"/><path class="cls-8" d="M607.37,320.34c5.91-.03,11.81-.05,17.72-.08,1.87,0,3.74-.03,5.61-.05.7.02,1.41.06,2.11.06,12.17,0,24.34-.03,36.51,0,22.21.08,44.42.2,66.64.3.03.96.06,1.92.09,2.88-.11,1.07-.22,2.15-.33,3.22-.12,1.16-.23,2.32-.35,3.49-4.75,25.87-19.33,43.63-43.91,53.07-5.22,2-10.68,3.18-16.29,3.48-2.1.12-4.21.24-6.31.35l.03-.07c-.06-.58-.07-1.17-.19-1.74-1.31-6.14-3.24-12.07-5.7-17.85-3.84-9.05-9.11-17.15-15.92-24.22-4.69-4.87-9.89-9.17-15.78-12.49-4.06-2.29-8.38-4.13-12.58-6.18-3.09-1.06-6.19-2.11-9.27-3.2-.72-.25-1.39-.65-2.08-.98Z"/><path class="cls-3" d="M703.12,119.19c-.15-15.94,11.73-29.99,27.69-32.77,17.46-3.05,34.93,8.24,38.63,26.53.43,2.11.39,4.31.57,6.47-2.39.09-4.77.18-7.16.27-4.71,0-9.42,0-14.13,0-2.12,0-4.24,0-6.36,0-1.86,0-3.72,0-5.65,0-.22,2.79-.42,5.46-.63,8.13-.24,1.39-.47,2.78-.73,4.16-5.96,31.42-33.77,54.28-65.77,54.1,0-8.26,0-16.52.02-24.78,0-2.81.1-5.62.16-8.42,1.57-.13,3.16-.14,4.71-.41,8.09-1.42,15.04-4.9,20.44-11.26,5.4-6.36,8.34-13.6,8.22-22Z"/><path class="cls-3" d="M603.21,91.36c-.52-4.7-.47-9.36.69-13.99,4.03-16.08,19.97-27,36.35-24.86,15.25,2,26.68,12.85,29.15,28.02.54,3.32.15,6.78.18,10.18-.08.36-.17.71-.25,1.07-.04.35-.08.7-.12,1.05-.23.72-.48,1.43-.68,2.15-3.84,13.57-16.02,23.19-29.56,24.08-2.54-.04-5.07-.08-7.61-.11-1.98-.52-4.01-.92-5.94-1.57-7.02-2.39-12.53-6.81-16.85-12.78-.63-1.12-1.41-2.18-1.86-3.37-1.24-3.26-2.34-6.58-3.5-9.87Z"/><path class="cls-7" d="M535.36,386.67c-.14,17.63-6.21,32.94-18.27,45.77-10.66,11.34-23.77,18.24-39.23,20.27-22.32,2.94-41.56-3.66-57.42-19.6-9.65-9.7-15.54-21.49-17.92-34.99-.14-.78-.42-1.53-.64-2.29-.01-.35-.03-.69-.04-1.04,0-.12,0-.24,0-.36-.02-.59-.04-1.18-.06-1.77.06-.12.05-.23-.04-.32-.05-.52-.15-1.03-.13-1.55.05-1.51.15-3.02.23-4.53,5.06.04,10.11.08,15.17.12.24,3.15.25,6.33.78,9.43,1.77,10.29,6.53,19.11,13.7,26.63,4.58,4.8,10,8.42,16.07,11.15,9.97,4.49,20.36,5.49,30.93,3.44,11.76-2.27,21.65-8.09,29.37-17.38,7.94-9.55,12.09-20.48,11.97-32.95,4-.03,8-.06,11.99-.1,1.06,0,2.11-.01,3.17-.02.12.03.25.06.37.1v-.02Z"/><path class="cls-7" d="M67.96,125.76c0-4.98,0-9.96.01-14.93,1.02-10.6,4.56-20.33,10.44-29.14,10.74-16.09,25.72-25.9,44.75-29.33,3.67-.66,7.47-.62,11.21-.9.13,1.2.27,2.4.4,3.6-.03,1.52-.06,3.04-.09,4.55-.06,2.38-.12,4.76-.17,7.14-1.4.1-2.79.26-4.19.29-4.32.11-8.48,1.1-12.52,2.49-10.7,3.68-19.34,10.2-25.77,19.52-5.08,7.37-8.04,15.51-8.89,24.49-.52,5.5-.2,10.87,1.04,16.2,2.65,11.33,8.37,20.84,17.39,28.24,9.44,7.74,20.3,11.73,32.54,11.85l.11.02h.12c.04,2.56.08,5.13.12,7.69,0,2.38-.02,4.76-.03,7.15-.03.09-.06.18-.09.27-2.21.02-4.41.03-6.62.05-1.3-.2-2.6-.41-3.9-.61-1.3-.24-2.59-.47-3.89-.71-2.09-.56-4.18-1.11-6.28-1.67-2.73-1.09-5.47-2.19-8.2-3.28-3.41-2.02-6.83-4.04-10.24-6.06-.27-.23-.52-.47-.8-.68-8.94-6.71-15.85-15.1-20.6-25.23-3.13-6.67-5.25-13.64-5.88-21.01Z"/><path class="cls-7" d="M668.85,387.07c2.1-.12,4.21-.24,6.31-.35.27.21.53.59.82.62,8.14.79,15.9,3,23.11,6.82,19.25,10.21,31.21,25.97,35.53,47.41.82,4.09,1.18,8.22,1.07,12.48h-1.8c-.24,0-.48,0-.73,0-.22,0-.45,0-.67,0-.24-.21-.46-.54-.73-.6-10.04-2.14-19.31-6.13-27.84-11.8-10.37-6.9-18.66-15.76-24.8-26.65-4.74-8.4-7.92-17.35-9.91-26.75-.08-.4-.23-.78-.35-1.18Z"/><path class="cls-10" d="M134.77,55.05c-.13-1.2-.27-2.4-.4-3.6.85-1.12,1.94-.11,2.88-.33.59.19,1.17.42,1.77.57,7.67,1.87,14.99,4.59,21.91,8.44,4.84,2.69,9.45,5.71,13.52,9.42,4.16,3.79,8.11,7.8,11.46,12.39,5.8,7.95,10.07,16.61,12.85,26.03.81,2.73,1.62,5.46,2.43,8.2,0,.58,0,1.15,0,1.73-1.34.03-2.67.05-4.01.08-1.33-.14-2.67-.28-4-.41-6.67-.65-13.02-2.49-19.11-5.26-14.93-6.81-25.98-17.61-33.11-32.38-3.1-6.42-5.22-13.14-5.86-20.28-.12-1.53-.23-3.06-.35-4.59Z"/><path class="cls-4" d="M618.72,324.52c4.2,2.04,8.52,3.89,12.58,6.18,5.89,3.32,11.09,7.63,15.78,12.49,6.81,7.07,12.08,15.17,15.92,24.22,2.46,5.78,4.39,11.72,5.7,17.85.12.57.13,1.16.19,1.74-1.64.01-3.29.03-4.93.04-2.18-.32-4.36-.59-6.53-.95-6.38-1.07-12.42-3.19-18.23-5.99-11.47-5.87-20.62-14.25-27.33-25.26-.21-.34-.36-.72-.54-1.08.82-1.9,1.89-3.73,2.41-5.7,1.24-4.67,2.27-9.39,3.27-14.12.67-3.12,1.15-6.28,1.71-9.43Z"/><path class="cls-5" d="M201.21,116.18c-.81-2.73-1.63-5.46-2.43-8.2-2.78-9.42-7.05-18.09-12.85-26.03-3.35-4.59-7.3-8.6-11.46-12.39-4.07-3.71-8.69-6.73-13.52-9.42-6.92-3.85-14.24-6.57-21.91-8.44-.6-.15-1.18-.38-1.77-.57,6.64-.02,13.27-.04,19.91-.06.7,0,1.41.04,2.11.04,20.75.02,41.49.04,62.24.06.53,0,1.06.03,1.58.05-2.94,4.94-6.14,9.75-8.78,14.85-5.67,10.95-9.58,22.54-11.38,34.78-.64,4.39-.96,8.84-1.43,13.25-.07.7-.21,1.39-.31,2.08Z"/><path class="cls-4" d="M431.5,52.29c-.09,7.72-2.75,14.34-8.12,19.95-6.5,6.79-14.5,9.57-23.67,8.88-5.63-.42-10.74-2.54-15.25-6.12-5.88-4.67-9.3-10.73-10.72-17.99-.31-1.61-.14-3.32-.19-4.98,6.99,0,13.97,0,20.96.01,3.17,0,6.34.06,9.51.07,7.34.01,14.69,0,22.03.01,1.82,0,3.63.11,5.45.17Z"/><path class="cls-12" d="M64.87,318.88c-.26.11-.52.31-.78.31-8.31.09-16.19,2.1-23.78,5.33-5.47,2.33-10.48,5.42-15.16,9.11-6.19,4.87-11.22,10.74-15.4,17.37-.18.28-.48.49-.73.73-3.33-5.33-5.65-11.11-6.91-17.22-.99-4.81-1.31-9.75-1.92-14.64-.05-.39,0-.8,0-1.34,19.98,0,39.84,0,59.7,0,1.66.11,3.32.23,4.99.34Z"/><path class="cls-6" d="M618.72,324.52c-.56,3.14-1.04,6.31-1.71,9.43-1.01,4.73-2.04,9.45-3.27,14.12-.52,1.97-1.59,3.8-2.41,5.7-2.54-3.85-4.21-8.09-5.68-12.43-1.8-5.34-2.94-10.82-3.23-16.46v-4.56c1.27,0,2.41,0,3.56,0,.14,0,.28,0,.42.01.33,0,.65,0,.98,0,.69.33,1.36.72,2.08.98,3.08,1.09,6.18,2.14,9.27,3.2Z"/><path class="cls-11" d="M267.32,243.67c.2,1.74.41,3.49.61,5.23-.01,1.48-.03,2.96-.04,4.44-.11,1.6-.23,3.21-.34,4.81-.09.21-.24.41-.25.63-.34,5.5-1.71,10.77-3.51,15.94-.71,1.76-1.41,3.53-2.12,5.29-.73,1.52-1.46,3.03-2.19,4.55-1.04,1.67-2.07,3.33-3.11,5-.75,1.11-1.5,2.21-2.24,3.32-.57.64-1.14,1.29-1.71,1.93-.7.84-1.39,1.68-2.09,2.52-.82.85-1.64,1.7-2.46,2.55-1.66,1.49-3.33,2.98-4.99,4.47-2,1.43-3.99,2.86-5.99,4.29-2.12,1.19-4.24,2.38-6.36,3.56-4.64,1.64-9.2,3.53-13.93,4.84-3.83,1.06-7.85,1.4-11.78,2.06-2.85.02-5.7.04-8.55.06-2.19-.36-4.38-.66-6.56-1.08-21.09-4-37-15.3-47.52-34.01-4.52-8.03-7.13-16.72-7.78-25.95l-.32-2.47c0-2.82,0-5.64,0-8.46.1-.48.21-.97.31-1.45.29-2.26.42-4.56.89-6.79,3.27-15.6,10.98-28.6,23.35-38.68,11.34-9.24,24.36-14.3,39.04-14.92,2.1-.11,4.2-.23,6.31-.34.36.12.71.31,1.08.36,3.25.45,6.52.76,9.75,1.32,5.34.93,10.35,2.94,15.31,5.07,2.84,1.65,5.68,3.29,8.53,4.94,2.22,1.71,4.44,3.43,6.66,5.14,1.91,1.93,3.81,3.85,5.72,5.78,1.41,1.78,2.82,3.56,4.23,5.34,2,3.3,4.01,6.6,6.01,9.89.82,1.89,1.64,3.79,2.46,5.68.89,3.26,1.83,6.51,2.65,9.8.43,1.75.65,3.55.96,5.33ZM243.07,255.29c.03-1.01.06-2.02.08-3.03-.09-1.57-.17-3.14-.27-4.71-.3-4.49-1.55-8.76-3.43-12.81-2.69-5.81-6.44-10.81-11.39-14.98-7.67-6.47-16.56-9.56-26.42-9.96-4.08-.17-8.13.52-12.11,1.62-8.55,2.37-15.64,7.04-21.2,13.81-6.36,7.75-9.85,16.69-9.52,26.89.24,2.9.19,5.85.76,8.68,2.14,10.57,7.74,19.14,16.37,25.42,9.51,6.92,20.25,9.62,32.01,7.56,5.37-.94,10.42-2.81,14.98-5.76,3.24-2.1,6.54-4.21,8.98-7.33,6.62-7.04,10.38-15.35,10.97-25.03.06-.12.12-.25.18-.37Z"/><path class="cls-2" d="M602.91,118.94c1.15,0,2.3.02,3.45.02,8.33,0,16.67-.01,25-.02,2.54.04,5.07.08,7.61.11.52.06,1.04.18,1.56.18,9.69,0,19.38-.02,29.08-.04.1.07.2.12.31.16-.09,2.64-.24,5.28-.26,7.92-.04,6.35-.02,12.71,0,19.06,0,2.17.07,4.35.11,6.52-.06,2.81-.15,5.62-.16,8.42-.02,8.26-.01,16.52-.02,24.78l.05.06c-1.56-.08-3.14-.09-4.69-.26-3.05-.34-6.08-.76-9.12-1.15-3.53-1.05-7.07-2.11-10.6-3.16-3.98-2.03-7.96-4.07-11.94-6.1-.98-.7-1.96-1.4-2.93-2.12-11.13-8.23-19.07-18.81-23.73-31.86-1.98-5.55-3.12-11.28-3.71-17.13-.04-.96-.08-1.93-.13-2.89,0-.61,0-1.21,0-1.82.05-.23.09-.46.14-.69Z"/><path class="cls-7" d="M602.47,253.16c.08-1.92.17-3.83.25-5.75.15-1.28.26-2.56.44-3.84,1.27-9.19,4.45-17.68,9.32-25.56,4.69-7.59,10.79-13.87,17.9-19.21,4.35-2.4,8.69-4.81,13.04-7.21,4.01-1.26,8.02-2.53,12.02-3.79,4.72-.48,9.44-.95,14.16-1.43,4.14.41,8.35.48,12.41,1.28,15.84,3.1,28.96,10.95,39.21,23.43,8.04,9.79,12.85,21.03,14.48,33.61.21,2.19.41,4.37.62,6.56-.1.76-.2,1.53-.3,2.29-5.07-.02-10.14-.05-15.21-.07-.35-3.48-.46-7.01-1.1-10.44-2.21-11.95-8.36-21.72-17.59-29.41-7.66-6.39-16.56-10.29-26.61-11.34-5.81-.61-11.58-.54-17.29.76-12.64,2.87-22.84,9.57-30.54,19.94-6.63,8.93-9.62,19.16-10.03,30.2-5.07,0-10.13,0-15.2-.01Z"/><path class="cls-10" d="M602.77,119.64c0,.61,0,1.21,0,1.82-.8,2.98-1.53,5.97-2.4,8.93-1.6,5.42-3.95,10.53-6.64,15.49-2.67,4.91-5.79,9.54-9.54,13.65-3.2,3.49-6.77,6.67-10.37,9.76-4.38,3.75-9.35,6.69-14.52,9.21-6.92,3.38-14.21,5.75-21.71,7.48-.38.09-.81.01-1.54.01v-5.57c.1-1.06.2-2.12.3-3.18.25-1.44.48-2.89.76-4.32,5.45-27.72,28.79-49.45,56.88-52.96,1.27-.11,2.53-.22,3.8-.33,1.66,0,3.32,0,4.99.01Z"/><path class="cls-10" d="M535.78,190.04c-.06,1.02-.12,2.05-.18,3.07-.51,2.74-.82,5.54-1.57,8.21-1.17,4.14-2.64,8.19-3.99,12.28-.95,1.86-1.89,3.73-2.84,5.59-1.17,1.78-2.34,3.57-3.5,5.35-1.66,2.12-3.32,4.24-4.98,6.36-1.54,1.58-3.07,3.15-4.61,4.73-2,1.6-4,3.2-6,4.8-1.76,1.14-3.53,2.27-5.29,3.41-2.36,1.22-4.71,2.44-7.07,3.66-.28.08-.57.13-.83.25-6.92,2.92-14.16,4.45-21.61,5.14-1.54-.03-3.07-.06-4.61-.09.08-.93.16-1.86.24-2.79.79-2.73,1.5-5.49,2.37-8.19,3.24-10.1,8.12-19.35,14.9-27.51,6.13-7.37,13.44-13.36,21.8-18.09,7.88-4.46,16.28-7.45,25.05-9.51.79-.19,1.59-.33,2.73-.57v3.93Z"/><path class="cls-8" d="M196.26,319.16c2.85-.02,5.7-.04,8.55-.06,4.33.69,8.7,1.2,12.99,2.11,5.23,1.11,10.06,3.41,14.85,5.75,2.92,1.9,5.84,3.8,8.76,5.71,3.05,2.83,6.1,5.66,9.15,8.5.31.42.6.87.94,1.27,6.65,7.76,11.28,16.58,13.82,26.48.81,3.17,1.29,6.43,1.93,9.65.05.82.09,1.64.14,2.45.01.12.02.25.03.37.01.24.02.47.03.71-.03.24-.06.47-.09.71.08,1.06.17,2.12.25,3.19l-.05-.06c-4.76.02-9.53.05-14.29.05-7.82,0-15.65-.04-23.47-.06-.11-.69-.28-1.38-.32-2.07-.43-8.04-3.77-14.63-9.83-19.87-6.08-5.25-13-7.8-21.17-7.03-4.48.42-8.63,1.48-12.46,3.79-9.4,5.66-14.14,14.04-14.48,24.96-12.57,0-25.13-.01-37.7-.02.04-1.65.08-3.29.13-4.94.05-.67.09-1.33.14-2,0,0-.01,0-.01,0,.15-1.28.24-2.58.47-3.84,2.95-16.69,10.9-30.5,24.09-41.15,10.95-8.85,23.5-13.77,37.61-14.58Z"/><path class="cls-12" d="M106.89,372.52c-4.62,3.11-9.34,6.06-14.58,8.04-2.62.99-5.33,1.74-8,2.6-.48-1.48-.87-2.99-1.46-4.42-3.19-7.81-11.71-12.14-19.57-10.27-7.7,1.83-12.3,6.86-13.65,14.73-8.26-2.14-15.75-5.86-22.59-10.95,1.47-4.97,4.12-9.27,7.36-13.28,2.65-3.27,5.73-6.05,9.25-8.3,6.32-4.03,13.14-6.46,20.76-6.82,7.93-.38,15.33,1.1,22.31,4.82,6.94,3.7,12.49,8.92,16.41,15.73,1.48,2.57,2.52,5.4,3.76,8.11Z"/><path class="cls-12" d="M74.46,318.58c.46.02.93.03,1.39.05,1.52.04,3.03.08,4.55.11,5.66,0,11.32-.02,16.98-.02.23-.01.46-.03.68-.04,3.06,0,6.12,0,9.18,0,2.71.03,5.41.05,8.12.08,1.88,0,3.77,0,5.65.01,1.53,0,3.06,0,4.6,0,1.41,0,2.82,0,4.24.01,1.29.02,2.57.04,3.86.06.27,5.05-.28,10.04-1.59,14.89-1.15,4.26-2.72,8.41-4.11,12.61-1.05,1.91-2.1,3.81-3.15,5.72-1.23-1.77-2.42-3.58-3.7-5.31-5.84-7.87-12.9-14.34-21.48-19.18-6.56-3.7-13.56-6.1-20.9-7.53-2.57-.5-5.22-.57-7.84-.85-.62-.07-1.23-.22-1.84-.33,1.79-.1,3.58-.2,5.36-.3Z"/><path class="cls-5" d="M203.98,185.01c-2.1.11-4.2.23-6.31.34-.46-.13-.93-.37-1.39-.37-7.4-.07-14.79-.14-22.19-.17-13.21-.05-26.42-.08-39.64-.12,0-2.38.02-4.76.03-7.15.57-2.93.94-5.91,1.74-8.77,7.26-26.03,24.01-42.46,50.22-49.1,3.5-.89,7.17-1.14,10.76-1.69,1.34-.03,2.67-.05,4.01-.08.11.5.21,1,.32,1.5.03.29.01.6.08.88,2.11,8.63,4.94,16.97,9.27,24.79,4.97,9,11.4,16.74,19.36,23.21,7.55,6.13,15.98,10.69,25.19,13.76,3.42,1.14,6.96,1.96,10.44,2.93-1.77.04-3.55.07-5.32.11-1.77,0-3.53.02-5.3.02-2.24-.01-4.47-.03-6.71-.04-2.59,0-5.18,0-7.77,0-3.18,0-6.36,0-9.54,0-9.08-.02-18.17-.04-27.25-.07Z"/><path class="cls-10" d="M265.86,184.98c-3.48-.97-7.02-1.78-10.44-2.93-9.21-3.08-17.64-7.63-25.19-13.76-7.97-6.47-14.39-14.21-19.36-23.21-4.32-7.82-7.16-16.16-9.27-24.79-.07-.28-.06-.58-.08-.88,2.24-.38,4.48-.76,6.72-1.14,4.61,1.01,9.29,1.8,13.82,3.09,6.51,1.85,12.36,5.2,17.97,8.94,2.34,1.94,4.68,3.87,7.02,5.81,2.03,2.18,4.06,4.36,6.09,6.53,1.39,1.9,2.77,3.79,4.16,5.69,1.39,2.47,2.77,4.94,4.16,7.4.98,2.37,1.96,4.74,2.94,7.12.48,1.68,1.09,3.34,1.42,5.06.77,4,1.41,8.03,2.1,12.05-.03,1.67-.05,3.34-.08,5.01-.66,0-1.32,0-1.98.01Z"/><path class="cls-2" d="M387.6,360.13c-3.28,3.4-6.53,6.83-9.87,10.18-1.19,1.19-2.59,2.17-3.9,3.24-1.53.97-3.04,1.97-4.58,2.92-8.02,4.92-16.74,7.87-26.02,9.22-2.18.18-4.37.35-6.55.53-.78,0-1.56-.01-2.34-.02-.01-9.88-.03-19.77-.04-29.65-.04-2.67-.08-5.33-.13-8,.07-.64.2-1.28.2-1.91.04-8.5.06-17,.06-25.49,0-.54-.22-1.08-.34-1.62.11-.1.23-.21.34-.31,4.1,0,8.2-.02,12.3-.02,7.06.02,14.13.03,21.19.05.7.02,1.4.04,2.11.05,10.42.09,20.84.18,31.26.27-.25,3.19-.32,6.42-.8,9.58-.52,3.44-1.4,6.82-2.13,10.23-1.43,3.53-2.87,7.05-4.3,10.58-2.15,3.4-4.3,6.8-6.46,10.19Z"/><path class="cls-3" d="M334.16,348.54c.04,2.67.08,5.33.13,8-.45,2-.71,4.05-1.37,5.98-4.42,12.92-13.31,20.74-26.82,23.17-3.41,0-6.82,0-10.23,0-.58-.09-1.17-.14-1.74-.26-13.77-2.98-23.59-13.22-26.25-27.34l-.23-1.1c-.03-.47-.06-.93-.1-1.4.05-.11.05-.22-.02-.33-.02-.24-.04-.48-.06-.71.04-1.89.08-3.77.11-5.66.1-.6.21-1.2.31-1.8,2.66-15.24,15.24-26.92,31.11-27.82,17.74-1,32.86,11.66,35.14,29.28Z"/><path class="cls-4" d="M171.54,385.68c.34-10.92,5.08-19.3,14.48-24.96,3.83-2.3,7.99-3.37,12.46-3.79,8.17-.76,15.09,1.78,21.17,7.03,6.06,5.23,9.4,11.83,9.83,19.87.04.69.21,1.38.32,2.07-9.4.01-18.79.04-28.19.04-9.45,0-18.91-.03-28.36-.07-.57,0-1.14-.13-1.71-.2Z"/><path class="cls-2" d="M401.76,316.42c.11-1.16.22-2.32.34-3.48,3.18-25.43,16.44-43.59,39.58-54.47,8.52-4.01,17.62-5.64,27.01-5.69,1.54.03,3.07.06,4.61.09,1.27.16,2.54.32,3.81.47,6.61.81,12.92,2.68,19.03,5.3,2.22,1.14,4.43,2.28,6.65,3.41,1.77,1.17,3.54,2.35,5.31,3.52,2.01,1.66,4.03,3.33,6.04,4.99,1.56,1.61,3.12,3.22,4.69,4.82,1.85,2.39,3.71,4.79,5.56,7.18,1.3,2.22,2.6,4.43,3.91,6.65.86,1.98,1.72,3.96,2.57,5.94,1.1,3.8,2.31,7.57,3.27,11.41.6,2.41.82,4.92,1.22,7.39-.01,3.98-.03,7.96-.04,11.93-.16.97-.27,1.94-.48,2.9-.88,3.98-1.78,7.96-2.68,11.94-1.39,3.3-2.78,6.61-4.16,9.91-1.67,2.7-3.34,5.4-5.02,8.1-1.4,1.78-2.8,3.55-4.21,5.33-3.21,2.98-6.41,5.95-9.62,8.93-.87.59-1.75,1.18-2.61,1.78-8.79,6.07-18.53,9.7-29.08,11.24-2.19.18-4.37.36-6.56.53-1.53,0-3.06,0-4.59,0-2.39-.22-4.81-.29-7.17-.67-21.22-3.42-37.4-14.34-48.45-32.78-4.89-8.16-7.68-17.03-8.58-26.49l-.12-1.12c-.07-3.03-.14-6.06-.22-9.09ZM468.69,293.37c-14.51-.04-26.42,11.82-26.44,26.34-.02,14.19,11.89,26.27,25.96,26.31,14.77.04,26.7-11.62,26.76-26.18.07-14.54-11.73-26.42-26.28-26.46Z"/><path class="cls-12" d="M602.18,316.57c.52-3.41.88-6.86,1.6-10.23,3.06-14.51,10.26-26.63,21.34-36.47.39-.35.76-.73,1.14-1.1,3.37-2.31,6.73-4.61,10.1-6.92,3.19-1.48,6.37-2.97,9.56-4.45.29-.04.58-.07.86-.13,4.18-1.03,8.32-2.24,12.55-3.05,3.07-.59,6.23-.65,9.36-.94,1.23-.03,2.46-.13,3.69-.09,1.31.04,2.62.22,3.93.33,1.67.29,3.33.55,4.99.87,14.16,2.69,26.3,9.17,36.24,19.61,10.65,11.18,16.76,24.48,18.2,39.88.08,2.23.16,4.46.24,6.69-22.21-.1-44.42-.22-66.64-.3-12.17-.04-24.34,0-36.51,0-.7,0-1.41-.04-2.11-.06-.62-.09-1.24-.27-1.86-.27-7.98-.02-15.97-.01-23.95-.01-.82,0-1.63,0-2.71,0v-3.35Z"/><path class="cls-3" d="M334.71,218.92c-.02,10.48-.03,20.97-.05,31.45-.1.56-.29,1.12-.27,1.68.05,1.34.3,2.67.31,4.01.03,9.87.02,19.74.02,29.61-.1.83-.2,1.66-.3,2.49-.05-.64-.1-1.27-.14-1.77-3.07-.6-6.12-.91-8.99-1.8-12.55-3.87-20.36-12.33-23.39-25.07-1.78-7.51-.81-14.87,2.63-21.73,4.9-9.77,12.84-15.82,23.55-18.11,2.16-.46,4.41-.51,6.62-.75Z"/><path class="cls-6" d="M334.43,288.15c.1-.83.2-1.66.3-2.49.84.1,1.68.2,2.52.3,4.9.41,9.46,1.88,13.73,4.29-.23,2.08-.43,4.16-.71,6.23-.51,3.74-1.05,7.47-1.63,11.19-.6,3.84-1.27,7.67-1.9,11.5-4.1,0-8.2.02-12.3.02,0-10.35,0-20.7,0-31.05Z"/><path class="cls-11" d="M466.3,386.56c1.53,0,3.06,0,4.59,0,7.11-.02,14.22-.04,21.33-.06,7.43.02,14.85.03,22.28.05,1.77.05,3.55.1,5.32.16.12,12.48-4.04,23.4-11.97,32.95-7.72,9.29-17.61,15.11-29.37,17.38-10.57,2.04-20.96,1.04-30.93-3.44-6.07-2.74-11.5-6.36-16.07-11.15-7.16-7.51-11.93-16.34-13.7-26.63-.53-3.1-.53-6.28-.78-9.43.7-.02,1.41-.06,2.11-.06,15.73.08,31.46.16,47.19.24Z"/><path class="cls-11" d="M134.13,169.83c-12.24-.13-23.1-4.11-32.54-11.85-9.02-7.4-14.74-16.9-17.39-28.24-1.24-5.33-1.57-10.7-1.04-16.2.85-8.98,3.8-17.12,8.89-24.49,6.43-9.32,15.06-15.84,25.77-19.52,4.04-1.39,8.2-2.38,12.52-2.49,1.4-.04,2.8-.19,4.19-.29,0,4.11-.02,8.22-.02,12.33-.02,21.79-.03,43.58-.05,65.37,0,.59-.04,1.17-.07,1.76-.09.5-.25,1-.25,1.51-.01,7.37,0,14.74,0,22.12Z"/><path class="cls-12" d="M135.12,59.64c-.14-.01-.29-.02-.43-.04.03-1.52.06-3.04.09-4.55.12,1.53.23,3.06.35,4.59Z"/><path class="cls-9" d="M350.98,290.26c-4.27-2.41-8.84-3.88-13.73-4.29.22-2.14.48-4.27.65-6.41.38-4.64.8-9.28,1.05-13.92.23-4.31.26-8.64.37-12.96,2.39.29,4.83.38,7.17.91,4,.9,7.94,2.07,11.9,3.12,3.77,1.87,7.54,3.75,11.31,5.62,2.59,1.89,5.19,3.78,7.78,5.67,1.87,1.77,3.74,3.54,5.61,5.31,1.6,1.87,3.21,3.74,4.81,5.61,1.2,1.74,2.39,3.48,3.59,5.22,1.34,2.5,2.68,5.01,4.02,7.51,1.44,4.5,3.1,8.95,4.26,13.52.82,3.2.96,6.58,1.41,9.88.06.45.19.9.29,1.34-.06,1.05-.12,2.1-.19,3.14-10.42-.09-20.84-.18-31.26-.27-.7,0-1.4-.03-2.11-.05-.42-12.71-5.98-22.42-16.94-28.97Z"/><path class="cls-4" d="M339.32,252.68c-.12,4.32-.14,8.65-.37,12.96-.25,4.65-.67,9.28-1.05,13.92-.17,2.14-.43,4.27-.65,6.41-.84-.1-1.68-.2-2.52-.3,0-9.87,0-19.74-.02-29.61,0-1.34-.25-2.67-.31-4.01-.02-.55.17-1.12.27-1.68.03.63.06,1.26.09,1.98,1.51.11,3.04.22,4.56.33Z"/><path class="cls-1" d="M158.82,252.12c-.33-10.2,3.16-19.14,9.52-26.89,5.56-6.77,12.65-11.44,21.2-13.81,3.98-1.11,8.03-1.79,12.11-1.62,9.86.4,18.75,3.49,26.42,9.96,4.95,4.18,8.7,9.17,11.39,14.98,1.87,4.05,3.13,8.31,3.43,12.81.1,1.57.18,3.14.27,4.71-4.46.02-8.93.04-13.39.06l-3.82-.06c-1.07-.01-2.14-.02-3.21-.03-1.4-.01-2.81-.02-4.21-.03-.09.1-.19.2-.28.3-.65,9.17-6.98,15.31-15.7,16.52-4.59.64-8.9-.73-12.48-3.62-4.13-3.34-6.41-7.81-6.6-13.28-8.31,0-16.48,0-24.65,0Z"/><path class="cls-11" d="M676.3,253.52c-1.31-.12-2.62-.29-3.93-.33-1.23-.04-2.46.05-3.69.09-5.73-.02-11.47-.05-17.2-.05-1.98,0-3.97.08-5.95.12-2.46,0-4.92-.02-7.38-.03-.95-.01-1.91-.02-2.86-.04-3.4,0-6.8,0-10.21.01-2.47-.04-4.93-.08-7.4-.12.41-11.04,3.41-21.27,10.03-30.2,7.69-10.37,17.9-17.07,30.54-19.94,5.71-1.29,11.47-1.36,17.29-.76,10.05,1.05,18.94,4.96,26.61,11.34,9.23,7.69,15.38,17.46,17.59,29.41.64,3.43.75,6.96,1.1,10.44-.64.02-1.29.06-1.93.06-14.2,0-28.4,0-42.59,0Z"/><path class="cls-5" d="M49.63,383.21c1.35-7.87,5.96-12.9,13.65-14.73,7.87-1.88,16.38,2.46,19.57,10.27.59,1.43.98,2.95,1.46,4.42-.06,1.4-.03,2.82-.2,4.21-.84,6.6-4.37,11.25-10.36,14.07-.26.12-.51.28-.77.42-2.12.36-4.24.71-6.36,1.07-8.43-.8-14.36-5.24-16.34-12.61-.61-2.27-.46-4.73-.65-7.11Z"/><path class="cls-11" d="M393,200.96c-1.28-.99-2.56-1.98-3.83-2.97-1.31-2.09-2.62-4.18-3.93-6.27-1.16-4.35-1.38-8.67.58-12.86.77-1.63,1.74-3.17,2.62-4.75.76-.59,1.5-1.21,2.3-1.75,1.2-.8,2.44-1.53,3.67-2.3,2.48-1.01,5.03-1.64,7.72-1.58,1.08.12,2.18.15,3.25.36,6.56,1.29,12.18,7.07,13.37,13.7,1.71,9.57-4.29,18.4-13.83,20.32-.86.17-1.75.18-2.63.26-1.56-.14-3.12-.28-4.68-.43-1.53-.58-3.06-1.17-4.59-1.75Z"/><path class="cls-4" d="M350.98,290.26c10.97,6.55,16.52,16.25,16.94,28.97-7.06-.02-14.13-.03-21.19-.05.64-3.83,1.3-7.66,1.9-11.5.58-3.72,1.12-7.46,1.63-11.19.28-2.07.48-4.15.71-6.23Z"/></g></svg>