<?xml version="1.0" encoding="UTF-8"?><svg id="_圖層_2" xmlns="http://www.w3.org/2000/svg" viewBox="0 0 800.9 452.52"><defs><style>.cls-1{fill:#299591;}.cls-2{fill:#da2c7e;}.cls-3{fill:#193456;}.cls-4{fill:#101d30;}.cls-5{fill:#217bac;}.cls-6{fill:#050c1d;}.cls-7{fill:#01795a;}.cls-8{fill:#183354;}.cls-9{fill:#163050;}.cls-10{fill:#09548b;}.cls-11{fill:#258d80;}.cls-12{fill:#2b9899;}.cls-13{fill:#0d6358;}</style></defs><g id="_飄移"><path class="cls-2" d="M727.4,317.37c-4.71-1.01-9.47-1.82-14.11-3.11-3.23-.9-6.28-2.44-9.41-3.7-2.54-1.49-5.09-2.98-7.63-4.48-2.26-1.76-4.52-3.53-6.78-5.29-1.52-1.5-3.04-3.01-4.57-4.51-1.29-1.52-2.58-3.05-3.87-4.57-.97-1.41-1.95-2.81-2.92-4.22-.09-.11-.19-.22-.28-.32-.11-.16-.22-.31-.33-.47-1.06-1.86-2.12-3.72-3.18-5.58-.94-2.12-1.88-4.24-2.82-6.36-1-3.72-2.14-7.4-2.96-11.16-.63-2.9-.86-5.88-1.26-8.83,0-2.81,0-5.62,0-8.43.32-2.16.49-4.35,1-6.47,1.04-4.33,2.26-8.61,3.41-12.91.77-1.85,1.55-3.7,2.32-5.56,1.71-2.84,3.42-5.68,5.13-8.52.86-1.17,1.72-2.33,2.58-3.5,1.29-1.5,2.59-3.01,3.88-4.51,1.87-1.76,3.75-3.51,5.62-5.27,2.46-1.78,4.92-3.55,7.38-5.33,2.93-1.54,5.86-3.08,8.79-4.62,4.98-1.83,9.96-3.75,15.27-4.34,4.52-.5,9.08-.69,13.62-1.02,2.91.29,5.85.41,8.73.91,14.78,2.6,27.57,9.14,37.61,20.33,17.55,19.57,22.77,42.33,14.14,67.09-9.07,26.04-28.27,40.73-55.64,44.59-4.58.05-9.15.1-13.73.15ZM733.93,277.27c14.35-.05,26.25-11.94,26.22-26.26-.03-14.07-11.04-26.33-26.29-26.29-16.13.05-26.36,13.36-26.16,26.18,0,14.55,11.8,26.41,26.23,26.36Z"/><path class="cls-5" d="M333.57,180.02c-.01-8.42-.03-16.85-.05-25.27,0-.23-.07-.46-.11-.69-.08-.62-.22-1.25-.22-1.87-.01-10.34,0-20.69,0-31.03v-2.34c-2.33.13-4.4.25-6.47.37-5.72.35-11.2,1.82-16.56,3.76-5.88,2.13-11.23,5.24-16.36,8.78-2.58,2.23-5.16,4.47-7.75,6.7-1.04,1.14-2.08,2.27-3.13,3.41-.95,1.19-1.91,2.38-2.86,3.56-1.18,1.74-2.36,3.49-3.55,5.23-.96,1.75-1.91,3.5-2.87,5.25-.97,2.34-1.94,4.69-2.91,7.03-.79,2.91-1.68,5.81-2.35,8.75-.59,2.59-.92,5.24-1.36,7.86-.12.1-.24.19-.37.29,0,1.84,0,3.69,0,5.55-.73,0-1.15.08-1.53-.01-7.48-1.72-14.74-4.09-21.64-7.46-5.16-2.51-10.11-5.44-14.47-9.18-3.59-3.08-7.15-6.25-10.34-9.73-3.74-4.09-6.86-8.71-9.51-13.6-2.68-4.94-5.02-10.04-6.61-15.44-.87-2.95-1.6-5.93-2.4-8.9-.04.96-.08,1.92-.13,2.88.1,23.55.22,47.1.3,70.65.06,16.46.06,32.93.07,49.39,0,.87-.13,1.74-.2,2.62.08,1.91.17,3.82.25,5.73,5.18.09,10.3-.45,15.3-1.77,24.24-6.4,40.32-21.56,48.27-45.31,1.71-5.12,2.42-10.46,2.9-15.83,0-1.26,0-2.52,0-3.91,1.14.24,1.93.38,2.72.57,8.74,2.06,17.12,5.04,24.97,9.48,8.33,4.72,15.62,10.69,21.73,18.03,6.76,8.13,11.62,17.35,14.85,27.42.87,2.7,1.58,5.44,2.36,8.16.03-.7.09-1.4.09-2.1-.01-18.61-.03-37.22-.05-55.83,0-3.73-.02-7.46-.03-11.2Z"/><path class="cls-5" d="M667.52,384.36c-.04-1.64-.08-3.28-.13-4.92.83-.72.78-1.46-.14-1.99h.01c.2-.12.4-.24.6-.37.65-3.18,1.19-6.4,1.99-9.55,1.36-5.32,3.42-10.38,6.07-15.2.25-.45.37-.96.55-1.44,1.23-1.77,2.41-3.57,3.69-5.29,5.82-7.84,12.86-14.3,21.41-19.11,6.54-3.68,13.51-6.08,20.83-7.5,2.56-.5,5.2-.57,7.81-.85.62-.07,1.22-.21,1.83-.33,1.4,0,2.8,0,4.21,0,.26.11.52.31.78.31,8.28.09,16.13,2.1,23.7,5.31,5.45,2.32,10.45,5.41,15.1,9.08,6.17,4.86,11.18,10.7,15.35,17.31.18.28.48.49.72.73.17.49.26,1.01.51,1.46,7.05,12.76,9.72,26.38,7.96,40.84-1.87,15.33-8.27,28.58-19.36,39.24-17,16.34-37.41,22.56-60.48,17.63-24.86-5.32-41.39-20.68-49.68-44.65-1.68-4.87-2.15-10.16-3.18-15.25-.05-1.82-.11-3.64-.16-5.45ZM699.21,407.87c7.61,11.41,18.47,17.75,32.22,18.72,22.05,1.55,41.52-14.34,44.55-36.26.87-6.3.3-12.5-1.66-18.56-.09-.27-.25-.51-.37-.76-1.47-4.95-4.1-9.24-7.34-13.23-2.64-3.26-5.71-6.03-9.21-8.27-6.3-4.02-13.09-6.44-20.69-6.8-7.91-.38-15.28,1.1-22.23,4.81-6.92,3.69-12.45,8.89-16.36,15.68-1.48,2.56-2.51,5.38-3.74,8.08-4.19,12.97-2.7,25.3,4.83,36.61Z"/><path class="cls-11" d="M334.55,173.47c4.51-22.94,17.47-39.31,38.59-49.21,6.45-3.03,13.32-4.73,20.44-5.39.17-.02.32-.34.48-.52,3.53.09,7.06.18,10.6.27,3.79.62,7.62,1.11,11.37,1.9,5.93,1.25,11.41,3.73,16.78,6.47.34.23.67.47,1.02.68,16.14,9.75,26.63,23.73,31.11,42.06.98,4.01,1.28,8.19,1.89,12.3-.05,2.16-.04,4.33-.15,6.49-.81,15.86-6.59,29.69-17.2,41.49-2.03,2.26-4.33,4.27-6.51,6.4-3.04,2.16-6.07,4.33-9.12,6.47-.55.38-1.18.65-1.77.97-2.45,1.12-4.9,2.24-7.35,3.36-1.88.67-3.77,1.33-5.65,2-1.29.35-2.58.7-3.88,1.05-.93.15-1.87.3-2.8.44-1.06.2-2.12.41-3.18.61-.94.12-1.87.25-2.81.37-3.3,0-6.59.02-9.89.03-29.54-1.17-55.77-23.55-61.57-52.55-.52-2.63-.91-5.28-1.36-7.93,0-3.73-.02-7.46-.03-11.2.32-2.18.56-4.39.98-6.55ZM416.62,223.87c1.64-.83,3.28-1.67,4.93-2.5,2.11-1.53,4.22-3.06,6.34-4.59,1.87-2,3.73-4,5.6-6,4.38-5.23,6.97-11.33,8.07-17.97,2.65-16.05-2.45-29.39-14.6-40.1-.91-.8-1.98-1.4-2.98-2.1-.11-.09-.21-.18-.32-.26-.11-.06-.22-.13-.33-.19-3.02-2.17-6.3-3.8-9.88-4.82-2.69-.61-5.39-1.22-8.08-1.83-1.77-.09-3.54-.18-5.31-.28-9.64-.18-18.26,2.86-25.73,8.8-11.99,9.55-17.34,22.19-16.05,37.41,1.59,18.66,16.35,34.27,34.84,37.21,2.3.37,4.66.45,6.99.66,2.57-.24,5.15-.49,7.72-.73,1.53-.36,3.06-.72,4.58-1.08,1.41-.54,2.81-1.09,4.22-1.63Z"/><path class="cls-13" d="M578.55,51.04c-4.55-5.35-8.77-11.04-13.72-15.98-18.08-18.02-39.79-29.25-65.03-33.34-6.28-1.02-12.7-1.17-19.06-1.7-.57-.05-1.15,0-2.09,0,.54,2.75.96,5.32,1.54,7.85,4.21,18.17,11.67,34.91,22.21,50.29.2.29.34.61.5.91.36.45.75.89,1.09,1.36,5.01,6.89,10.42,13.45,16.72,19.2,4.19,3.83,8.58,7.45,12.88,11.16.1.1.2.19.29.29,5.28,3.4,10.57,6.81,15.85,10.21,2.23,1.12,4.44,2.31,6.71,3.36,9.31,4.34,18.62,8.69,28.64,11.23,2.75.7,5.52,1.32,8.28,1.98,2.23.38,4.47.76,6.7,1.14.11-.5.21-1,.32-1.49,0-.57,0-1.15,0-1.72-.11-.69-.24-1.38-.31-2.07-.47-4.4-.78-8.83-1.42-13.21-1.79-12.19-5.69-23.75-11.34-34.66-2.63-5.08-5.82-9.87-8.75-14.8Z"/><path class="cls-12" d="M326.71,119.19c2.07-.12,4.14-.23,6.47-.37v2.34c0,10.34,0,20.69,0,31.03,0,.62.14,1.25.22,1.87-.03-11.96-.09-23.91-.09-35.87,0-9.28-1.83-18.19-5.8-26.55-10.3-21.66-27.24-34.95-51.02-38.5-23.12-3.45-42.94,3.8-58.95,20.82-9.98,10.61-15.5,23.42-17.16,37.89-.12,2.23-.24,4.46-.37,6.68.05.23.09.46.14.69,1.66,0,3.31,0,4.97-.01,1.26,0,2.51,0,3.77,0,.7-.03,1.4-.08,2.1-.09,8.6,0,17.2,0,25.8-.01,9.94-.02,19.88-.06,29.82-.1.12,0,.25-.01.37-.02,1.77-.01,3.53-.03,5.3-.04,1.88,0,3.76,0,5.64,0,4.22,0,8.45,0,12.67,0,11.48-.04,22.96-.09,34.44-.11.56,0,1.13.21,1.69.32Z"/><path class="cls-12" d="M737.23,183.93c4.21-.66,8.54-.91,12.62-2.06,26.37-7.42,43.2-24.49,48.93-51.25,7.31-34.1-12.97-67.24-46.34-77.28-5.41-1.63-10.95-2.47-16.59-2.69-.75-.03-1.5,0-2.37,0-.02.54-.06.93-.06,1.33.02,18.99.05,37.99.06,56.98,0,.5-.2,1-.31,1.5,0,4.96,0,9.92.01,14.88.1.56.28,1.13.29,1.69.09,12.4.16,24.8.23,37.2.02,3.8,0,7.61,0,11.41,0,2.73,0,5.46,0,8.29h3.53Z"/><path class="cls-12" d="M410.64,419.5c3.02,3.87,5.76,8.01,9.12,11.55,9.99,10.52,22.24,17.06,36.57,19.45,19.47,3.24,37.16-1.15,52.69-13.33,13.46-10.56,21.58-24.46,24.46-41.35.43-2.53.55-5.12.81-7.68-.02-1.17-.04-2.35-.05-3.52l-.05.06c-8.66.01-17.32.03-25.98.03-.73,0-1.46-.21-2.2-.32-3.4,0-6.8,0-10.2,0-.61.11-1.22.31-1.84.32-8.76.08-17.53.13-26.29.19-.78,0-1.56.01-2.34.02-5.9-.03-11.8-.06-17.71-.09-.23.05-.45.15-.68.15-8.01-.01-16.01-.04-24.02-.06-7.25,0-14.49,0-22.02,0,.25,3.06.29,5.81.72,8.5.59,3.68,1.47,7.32,2.22,10.98,2.25,5.04,4.5,10.08,6.75,15.13Z"/><path class="cls-2" d="M534.25,384.61c.02,1.17.04,2.35.05,3.52.55,5.54,1.22,11.07,3.07,16.35,8.78,25.13,26.07,40.85,52.34,45.6,22.4,4.04,42.06-2.49,58.32-18.34,11.3-11.01,17.63-24.65,19.28-40.4.05-.52.25-1.02.37-1.52-.05-1.82-.11-3.64-.16-5.45-12.52,0-25.05.01-37.57.02-.57.07-1.14.19-1.7.2-9.42.03-18.85.06-28.27.07-9.36,0-18.73-.03-28.09-.04-7.8.02-15.59.05-23.39.06-4.75,0-9.49-.03-14.24-.05Z"/><path class="cls-11" d="M200.52,323.79c.44,2.56.86,5.13,1.32,7.69,4.65,25.8,25.87,47.48,51.57,52.44,4.57.88,9.29.99,13.94,1.45v.02c.04-1.29.08-2.59.13-3.88,0-1.41,0-2.81-.01-4.22,0-5.16,0-10.33-.01-15.49-.01-5.75-.03-11.5-.04-17.25,0-6.58,0-13.17,0-19.75-.01-3.96-.03-7.93-.04-11.89-.11-.61-.32-1.22-.32-1.83-.02-6.33-.02-12.66-.01-18.99,0-13.13.02-26.26.03-39.39-.03-.11-.05-.22-.06-.33-1.05-.03-2.09-.06-3.14-.09-1.99.15-3.99.18-5.95.48-18.9,2.93-34.05,12.1-45.15,27.68-7.46,10.46-11.45,22.2-11.99,35.07v3.34c-1.08,0-1.89,0-2.71,0-7.96,0-15.92,0-23.87.01-.62,0-1.23.18-1.85.27,1.86.02,3.73.04,5.59.05,5.89.03,11.77.06,17.66.08.33,0,.65,0,.98,0,.14,0,.28,0,.42-.01,1.14,0,2.28,0,3.54,0,0,1.63,0,3.08,0,4.54Z"/><path class="cls-2" d="M533.6,90.8c-4.3-3.71-8.69-7.33-12.88-11.16-6.3-5.76-11.7-12.32-16.72-19.2-.34-.47-.73-.91-1.09-1.36-21.02,11.59-32.9,29.31-35.68,53.14-.07.83-.14,1.67-.22,2.5l.58,12.68c3.96,28.01,24.89,50.46,52.6,56.13,4.44.91,9.06.94,13.6,1.38.06-.18.11-.37.17-.55-.03-1.67-.05-3.33-.08-5,0-7.59,0-15.17.01-22.76-.02-4.92-.05-9.85-.07-14.77,0-4.58,0-9.16.01-13.73,0-4.22,0-8.45,0-12.67-.04-4.82-.08-9.63-.12-14.45.02-3.27.04-6.55.05-9.82-.06-.11-.12-.22-.18-.34Z"/><path class="cls-3" d="M394.06,118.34c3.53.09,7.06.18,10.6.27,2.8-.42,5.62-.77,8.4-1.28,5.4-.98,10.49-2.94,15.52-5.07,4.82-2.54,9.5-5.32,13.68-8.85,13.36-11.3,21.36-25.56,23.65-42.95.37-2.82.49-5.67.73-8.61-12.86,0-25.45,0-38.04,0-.05,1.66.13,3.36-.19,4.96-1.41,7.23-4.82,13.27-10.68,17.93-4.49,3.57-9.59,5.68-15.2,6.1-9.14.69-17.11-2.08-23.59-8.85-5.36-5.6-8.01-12.19-8.1-19.88-10.49,0-20.99-.02-31.48-.03-1.99,0-3.97,0-5.95,0-1.47,28.5,21.79,63,60.64,66.26Z"/><path class="cls-5" d="M132.93,109.75c-2.25-14.98-8.66-27.89-19.51-38.46-11.03-10.74-24.27-17.07-39.64-18.55-19.99-1.92-37.57,3.88-52.34,17.48C9.88,80.88,2.99,94.17.84,109.79c-.42,3.05-.57,6.14-.84,9.22,11.37,0,22.44,0,33.5,0,.18-2.15.14-4.35.56-6.45,3.69-18.23,21.1-29.48,38.5-26.44,15.9,2.78,27.74,16.78,27.59,32.66.7.02,1.4.07,2.1.07,9.6,0,19.19,0,28.79,0,.79-.11,1.57-.21,2.36-.32-.16-2.93-.32-5.86-.48-8.8Z"/><path class="cls-5" d="M533.56,243.87c-1.43-12.72-6.17-24.09-14.22-34-11.16-13.73-25.6-21.81-43.11-24.29-2.94-.42-5.95-.35-8.93-.5,0,11.04.01,22.07.02,33.11,2.2.24,4.44.28,6.6.74,10.67,2.28,18.59,8.31,23.47,18.05,3.43,6.84,4.39,14.17,2.62,21.66-3.01,12.7-10.8,21.13-23.31,24.99-2.86.88-5.9,1.2-8.96,1.79-.04.49-.09,1.13-.14,1.76,0,10.32,0,20.63,0,30.95.11.1.23.21.34.31,1.64-.11,3.29-.19,4.93-.33,9.39-.82,18.26-3.38,26.52-7.96,13.29-7.37,23-18.03,29.19-31.89,2.63-5.9,4.32-12.08,4.99-18.52.12-2.41.23-4.83.35-7.24-.01-1.48-.03-2.95-.04-4.43-.1-1.4-.21-2.8-.31-4.19Z"/><path class="cls-11" d="M191.87,418.49c-7.57-12.33-17.85-21.56-31.14-27.4-.48-.21-.96-.42-1.44-.63-3.96-1.15-7.88-2.43-11.88-3.41-2.69-.66-5.48-.89-8.23-1.31-1.64-.01-3.27-.03-4.91-.04l.03.07c-.12.39-.27.77-.35,1.17-1.98,9.37-5.16,18.29-9.88,26.66-6.12,10.84-14.38,19.68-24.71,26.56-8.5,5.65-17.74,9.63-27.74,11.76-.27.06-.49.39-.73.59,12.13-.02,24.26-.04,36.4-.06,30.6-.07,61.2-.14,91.8-.2.57,0,1.14,0,1.8,0,.15-4.72-.41-9.17-1.3-13.59-1.01-4.98-2.55-9.8-4.54-14.48-.31-.73-.7-1.44-1.06-2.15-.7-1.18-1.41-2.36-2.11-3.53Z"/><path class="cls-8" d="M195.58,319.26c-5.89-.03-11.77-.05-17.66-.08-1.87,0-3.73-.03-5.59-.05-.7.02-1.4.06-2.11.06-12.13,0-24.26-.03-36.39,0-22.14.08-44.27.2-66.41.3-.03.96-.06,1.92-.09,2.87.11,1.07.22,2.14.33,3.21.12,1.16.23,2.32.35,3.48,4.73,25.78,19.26,43.49,43.77,52.89,5.21,2,10.64,3.17,16.24,3.47,2.1.12,4.19.24,6.29.35l-.03-.07c.06-.58.06-1.17.19-1.73,1.3-6.12,3.23-12.03,5.68-17.79,3.83-9.02,9.08-17.1,15.87-24.14,4.67-4.85,9.86-9.14,15.73-12.45,4.05-2.28,8.35-4.12,12.54-6.16,3.08-1.06,6.17-2.11,9.24-3.19.72-.25,1.38-.64,2.07-.97Z"/><path class="cls-3" d="M100.15,118.79c.15-15.88-11.69-29.89-27.59-32.66-17.4-3.04-34.81,8.21-38.5,26.44-.43,2.1-.39,4.3-.56,6.45,2.38.09,4.76.18,7.14.27,4.69,0,9.39,0,14.08,0,2.11,0,4.22,0,6.34,0,1.85,0,3.71,0,5.63,0,.21,2.79.42,5.44.62,8.1.24,1.38.47,2.77.73,4.15,5.94,31.31,33.65,54.1,65.55,53.91,0-8.23,0-16.46-.02-24.7,0-2.8-.1-5.6-.16-8.39-1.56-.13-3.15-.14-4.69-.41-8.06-1.42-14.99-4.89-20.37-11.22-5.39-6.34-8.31-13.55-8.19-21.93Z"/><path class="cls-3" d="M199.73,91.05c.52-4.69.47-9.33-.68-13.95-4.02-16.03-19.9-26.91-36.23-24.78-15.2,1.99-26.59,12.81-29.05,27.93-.54,3.3-.15,6.76-.18,10.14.08.36.17.71.25,1.07.04.35.08.7.12,1.05.23.72.47,1.43.68,2.15,3.83,13.52,15.96,23.11,29.46,23.99,2.53-.04,5.05-.08,7.58-.11,1.98-.52,3.99-.91,5.92-1.57,6.99-2.38,12.49-6.79,16.79-12.73.63-1.11,1.4-2.17,1.85-3.35,1.24-3.25,2.33-6.56,3.48-9.84Z"/><path class="cls-7" d="M267.35,385.36c.14,17.57,6.19,32.83,18.21,45.62,10.63,11.3,23.69,18.18,39.1,20.2,22.24,2.93,41.42-3.65,57.23-19.53,9.62-9.67,15.49-21.41,17.86-34.87.14-.77.42-1.52.64-2.28.01-.34.03-.69.04-1.03,0-.12,0-.24,0-.36.02-.59.04-1.18.06-1.77-.06-.12-.05-.22.04-.32.05-.51.15-1.03.13-1.54-.05-1.5-.15-3.01-.23-4.51-5.04.04-10.08.08-15.12.12-.24,3.13-.25,6.31-.78,9.4-1.76,10.25-6.51,19.05-13.65,26.54-4.56,4.78-9.97,8.39-16.02,11.12-9.93,4.47-20.29,5.47-30.83,3.43-11.72-2.26-21.58-8.06-29.27-17.32-7.91-9.52-12.05-20.41-11.93-32.84-3.98-.03-7.97-.06-11.95-.1-1.05,0-2.11-.01-3.16-.02-.12.03-.25.06-.37.1v-.02Z"/><path class="cls-7" d="M733.18,125.34c0-4.96,0-9.92-.01-14.88-1.01-10.56-4.54-20.26-10.41-29.04-10.7-16.03-25.63-25.81-44.6-29.23-3.66-.66-7.45-.62-11.18-.9-.13,1.2-.26,2.39-.4,3.59.03,1.51.06,3.03.09,4.54.06,2.37.11,4.75.17,7.12,1.39.1,2.78.25,4.18.29,4.3.11,8.45,1.1,12.47,2.48,10.67,3.67,19.27,10.16,25.68,19.45,5.07,7.35,8.01,15.46,8.86,24.41.52,5.48.2,10.84-1.04,16.15-2.64,11.3-8.35,20.77-17.33,28.14-9.41,7.72-20.23,11.69-32.43,11.81l-.11.02h-.12c-.04,2.55-.08,5.11-.12,7.67,0,2.37.02,4.75.03,7.12.03.09.06.18.09.27,2.2.02,4.4.03,6.6.05,1.3-.2,2.59-.41,3.89-.61,1.29-.23,2.58-.47,3.87-.7,2.09-.56,4.17-1.11,6.26-1.67,2.72-1.09,5.45-2.18,8.17-3.27,3.4-2.01,6.81-4.02,10.21-6.04.26-.23.52-.47.79-.67,8.91-6.69,15.8-15.05,20.53-25.14,3.12-6.64,5.23-13.59,5.86-20.94Z"/><path class="cls-7" d="M134.31,385.77c-2.1-.12-4.19-.24-6.29-.35-.27.21-.53.59-.81.61-8.12.78-15.85,2.99-23.03,6.8-19.19,10.17-31.11,25.88-35.41,47.25-.82,4.08-1.17,8.19-1.07,12.44h1.8c.24,0,.48,0,.72,0,.22,0,.45,0,.67,0,.24-.2.46-.54.73-.59,10.01-2.13,19.25-6.11,27.74-11.76,10.34-6.88,18.59-15.71,24.71-26.56,4.73-8.37,7.9-17.29,9.88-26.66.08-.4.23-.78.35-1.17Z"/><path class="cls-10" d="M666.58,54.86c.13-1.2.26-2.39.4-3.59-.84-1.12-1.93-.11-2.87-.32-.59.19-1.17.42-1.77.57-7.64,1.87-14.94,4.58-21.84,8.41-4.82,2.68-9.42,5.69-13.48,9.39-4.14,3.77-8.09,7.77-11.42,12.34-5.78,7.92-10.04,16.56-12.81,25.95-.8,2.72-1.62,5.45-2.42,8.17,0,.57,0,1.15,0,1.72,1.33.03,2.66.05,4,.08,1.33-.14,2.66-.28,3.99-.41,6.65-.65,12.98-2.48,19.05-5.25,14.88-6.79,25.89-17.55,33-32.27,3.09-6.39,5.21-13.1,5.84-20.21.12-1.52.23-3.05.35-4.57Z"/><path class="cls-4" d="M184.27,323.43c-4.19,2.04-8.49,3.88-12.54,6.16-5.87,3.31-11.06,7.6-15.73,12.45-6.79,7.05-12.04,15.12-15.87,24.14-2.45,5.76-4.37,11.68-5.68,17.79-.12.56-.13,1.15-.19,1.73,1.64.01,3.27.03,4.91.04,2.17-.31,4.35-.59,6.51-.95,6.36-1.07,12.38-3.17,18.17-5.97,11.43-5.85,20.55-14.21,27.24-25.18.21-.34.36-.71.53-1.07-.82-1.89-1.88-3.71-2.4-5.68-1.23-4.65-2.26-9.36-3.26-14.07-.66-3.11-1.14-6.26-1.7-9.4Z"/><path class="cls-5" d="M600.37,115.78c.81-2.72,1.62-5.44,2.42-8.17,2.77-9.39,7.03-18.03,12.81-25.95,3.34-4.57,7.28-8.57,11.42-12.34,4.06-3.7,8.66-6.71,13.48-9.39,6.9-3.84,14.2-6.55,21.84-8.41.6-.15,1.18-.37,1.77-.57-6.61-.02-13.23-.04-19.84-.06-.7,0-1.4.04-2.11.04-20.68.02-41.35.04-62.03.06-.53,0-1.05.03-1.58.05,2.93,4.92,6.12,9.72,8.75,14.8,5.65,10.92,9.55,22.47,11.34,34.66.64,4.38.95,8.81,1.42,13.21.07.69.21,1.38.31,2.07Z"/><path class="cls-4" d="M370.86,52.11c.09,7.69,2.74,14.29,8.1,19.88,6.48,6.77,14.45,9.53,23.59,8.85,5.61-.42,10.7-2.54,15.2-6.1,5.86-4.65,9.27-10.7,10.68-17.93.31-1.61.14-3.31.19-4.96-6.96,0-13.92,0-20.89.01-3.16,0-6.32.06-9.48.07-7.32.01-14.64,0-21.96.01-1.81,0-3.62.11-5.43.17Z"/><path class="cls-12" d="M736.25,317.81c.26.11.52.31.78.31,8.28.09,16.13,2.1,23.7,5.31,5.45,2.32,10.45,5.41,15.1,9.08,6.17,4.86,11.18,10.7,15.35,17.31.18.28.48.49.72.73,3.32-5.31,5.63-11.08,6.89-17.16.99-4.79,1.31-9.72,1.91-14.59.05-.39,0-.8,0-1.34-19.92,0-39.71,0-59.5,0-1.66.11-3.31.23-4.97.34Z"/><path class="cls-6" d="M184.27,323.43c.56,3.13,1.04,6.28,1.7,9.4,1,4.71,2.03,9.42,3.26,14.07.52,1.97,1.59,3.79,2.4,5.68,2.53-3.84,4.2-8.06,5.66-12.39,1.8-5.33,2.93-10.78,3.22-16.4,0-1.46,0-2.91,0-4.54-1.26,0-2.4,0-3.54,0-.14,0-.28,0-.42.01-.33,0-.65,0-.98,0-.69.33-1.35.72-2.07.97-3.07,1.09-6.16,2.13-9.24,3.19Z"/><path class="cls-11" d="M535.44,237.53c.81-3.27,1.75-6.51,2.64-9.76.82-1.89,1.64-3.78,2.45-5.66,2-3.29,3.99-6.57,5.99-9.86,1.4-1.77,2.81-3.55,4.21-5.32,1.9-1.92,3.8-3.84,5.7-5.76,2.21-1.71,4.42-3.42,6.63-5.12,2.83-1.64,5.66-3.28,8.5-4.92,4.94-2.12,9.93-4.13,15.26-5.05,3.22-.56,6.48-.87,9.72-1.32.37-.05.72-.23,1.07-.36,2.1.11,4.19.23,6.29.34,14.63.61,27.6,5.65,38.91,14.87,12.33,10.05,20.01,23,23.27,38.55.47,2.22.6,4.51.89,6.76.1.48.21.96.31,1.45,0,2.81,0,5.62,0,8.43l-.32,2.46c-.64,9.2-3.25,17.86-7.75,25.87-10.48,18.65-26.34,29.91-47.36,33.9-2.17.41-4.36.72-6.54,1.07-2.84-.02-5.68-.04-8.52-.06-3.92-.66-7.93-1.01-11.74-2.06-4.71-1.3-9.27-3.19-13.89-4.82-2.11-1.18-4.23-2.37-6.34-3.55-1.99-1.42-3.98-2.85-5.96-4.27-1.66-1.48-3.31-2.97-4.97-4.45-.82-.85-1.63-1.69-2.45-2.54-.69-.84-1.39-1.67-2.08-2.51-.57-.64-1.14-1.28-1.71-1.92-.75-1.1-1.49-2.21-2.24-3.31-1.03-1.66-2.06-3.32-3.1-4.98-.73-1.51-1.46-3.02-2.19-4.53-.7-1.76-1.41-3.52-2.11-5.28-1.79-5.16-3.16-10.41-3.5-15.89-.01-.21-.16-.42-.25-.62-.11-1.6-.23-3.2-.34-4.8-.01-1.48-.03-2.95-.04-4.43.2-1.74.41-3.48.61-5.22.31-1.77.53-3.57.96-5.32ZM558.83,254.8c.59,9.65,4.33,17.93,10.94,24.95,2.43,3.11,5.71,5.21,8.95,7.3,4.55,2.94,9.58,4.8,14.93,5.74,11.72,2.06,22.42-.64,31.9-7.53,8.61-6.26,14.19-14.8,16.32-25.33.57-2.82.52-5.76.76-8.65.33-10.17-3.15-19.08-9.49-26.8-5.54-6.75-12.61-11.4-21.13-13.77-3.97-1.1-8-1.78-12.07-1.62-9.83.4-18.69,3.48-26.33,9.93-4.93,4.16-8.67,9.14-11.35,14.93-1.87,4.04-3.12,8.29-3.42,12.76-.1,1.56-.18,3.13-.27,4.7.03,1.01.06,2.01.08,3.02.06.12.12.25.18.37Z"/><path class="cls-2" d="M200.02,118.54c-1.15,0-2.29.02-3.44.02-8.3,0-16.61-.01-24.91-.02-2.53.04-5.05.08-7.58.11-.52.06-1.04.18-1.56.18-9.66,0-19.32-.02-28.98-.04-.1.07-.2.12-.31.16.09,2.63.24,5.26.26,7.89.04,6.33.02,12.67,0,19,0,2.17-.07,4.33-.11,6.5.06,2.8.15,5.6.16,8.39.02,8.23.01,16.46.02,24.7l-.05.06c1.56-.08,3.13-.09,4.68-.26,3.04-.33,6.06-.76,9.09-1.15,3.52-1.05,7.04-2.1,10.57-3.15,3.97-2.03,7.93-4.05,11.9-6.08.97-.7,1.95-1.4,2.92-2.11,11.09-8.2,19.01-18.75,23.65-31.75,1.97-5.54,3.11-11.24,3.69-17.07.04-.96.08-1.92.13-2.88,0-.6,0-1.21,0-1.81-.05-.23-.09-.46-.14-.69Z"/><path class="cls-7" d="M200.47,252.31c-.08-1.91-.17-3.82-.25-5.73-.14-1.27-.26-2.55-.44-3.82-1.26-9.16-4.44-17.62-9.29-25.47-4.67-7.57-10.76-13.82-17.84-19.14-4.33-2.39-8.66-4.79-13-7.18-3.99-1.26-7.99-2.52-11.98-3.78-4.71-.47-9.41-.95-14.12-1.42-4.13.4-8.32.48-12.37,1.27-15.79,3.09-28.86,10.91-39.08,23.35-8.01,9.76-12.81,20.96-14.43,33.49-.2,2.18-.41,4.36-.61,6.54.1.76.2,1.52.3,2.29,5.05-.02,10.11-.05,15.16-.07.35-3.47.46-6.99,1.09-10.4,2.21-11.91,8.33-21.64,17.54-29.31,7.64-6.36,16.5-10.26,26.52-11.3,5.79-.6,11.54-.53,17.23.76,12.6,2.86,22.76,9.54,30.43,19.87,6.6,8.9,9.58,19.1,10,30.1,5.05,0,10.1,0,15.15-.01Z"/><path class="cls-10" d="M200.16,119.23c0,.6,0,1.21,0,1.81.79,2.97,1.53,5.95,2.4,8.9,1.59,5.4,3.93,10.5,6.61,15.44,2.66,4.89,5.77,9.51,9.51,13.6,3.19,3.48,6.75,6.65,10.34,9.73,4.37,3.74,9.32,6.66,14.47,9.18,6.9,3.36,14.17,5.73,21.64,7.46.38.09.8.01,1.53.01,0-1.86,0-3.7,0-5.55-.1-1.06-.2-2.11-.3-3.17-.25-1.44-.48-2.88-.76-4.31-5.43-27.63-28.69-49.28-56.69-52.78-1.26-.11-2.53-.22-3.79-.33-1.66,0-3.31,0-4.97.01Z"/><path class="cls-10" d="M266.93,189.4c.06,1.02.12,2.04.18,3.06.51,2.73.82,5.52,1.57,8.18,1.17,4.13,2.63,8.16,3.98,12.24.94,1.86,1.89,3.71,2.83,5.57,1.16,1.78,2.33,3.56,3.49,5.33,1.65,2.11,3.31,4.22,4.96,6.34,1.53,1.57,3.06,3.14,4.59,4.71,1.99,1.59,3.99,3.19,5.98,4.78,1.76,1.13,3.52,2.26,5.27,3.4,2.35,1.21,4.7,2.43,7.05,3.64.28.08.57.13.83.25,6.89,2.91,14.12,4.43,21.54,5.12,1.53-.03,3.06-.06,4.59-.09-.08-.93-.16-1.85-.24-2.78-.78-2.72-1.5-5.47-2.36-8.16-3.23-10.07-8.09-19.28-14.85-27.42-6.11-7.34-13.39-13.31-21.73-18.03-7.85-4.44-16.23-7.42-24.97-9.48-.79-.19-1.58-.33-2.72-.57,0,1.4,0,2.66,0,3.91Z"/><path class="cls-8" d="M605.31,318.08c-2.84-.02-5.68-.04-8.52-.06-4.32.69-8.67,1.2-12.94,2.11-5.22,1.11-10.03,3.4-14.8,5.73-2.91,1.9-5.82,3.79-8.73,5.69-3.04,2.82-6.08,5.65-9.12,8.47-.31.42-.59.87-.93,1.26-6.62,7.74-11.25,16.53-13.77,26.39-.81,3.16-1.29,6.41-1.92,9.61-.05.82-.09,1.63-.14,2.45-.01.12-.02.24-.03.37-.01.23-.02.47-.03.7.03.23.06.47.09.7-.08,1.06-.17,2.12-.25,3.18l.05-.06c4.75.02,9.49.05,14.24.05,7.8,0,15.59-.04,23.39-.06.11-.69.28-1.37.32-2.07.43-8.01,3.75-14.58,9.8-19.8,6.06-5.23,12.96-7.77,21.1-7.01,4.46.42,8.61,1.48,12.42,3.77,9.37,5.64,14.09,13.99,14.43,24.88,12.52,0,25.05-.01,37.57-.02-.04-1.64-.08-3.28-.13-4.92-.05-.66-.09-1.33-.14-1.99,0,0,.01,0,.01,0-.15-1.28-.24-2.57-.46-3.83-2.94-16.63-10.87-30.39-24.01-41.01-10.91-8.82-23.43-13.72-37.49-14.53Z"/><path class="cls-12" d="M694.37,371.27c4.61,3.1,9.31,6.04,14.53,8.02,2.61.99,5.31,1.73,7.97,2.59.48-1.47.87-2.98,1.45-4.41,3.18-7.78,11.67-12.1,19.51-10.23,7.67,1.83,12.26,6.84,13.61,14.68,8.23-2.13,15.7-5.84,22.51-10.91-1.47-4.95-4.1-9.24-7.34-13.23-2.64-3.26-5.71-6.03-9.21-8.27-6.3-4.02-13.09-6.44-20.69-6.8-7.91-.38-15.28,1.1-22.23,4.81-6.92,3.69-12.45,8.89-16.36,15.68-1.48,2.56-2.51,5.38-3.74,8.08Z"/><path class="cls-12" d="M726.7,317.51c-.46.02-.92.03-1.38.05-1.51.04-3.02.08-4.53.11-5.64,0-11.28-.02-16.92-.02-.23-.01-.45-.03-.68-.04-3.05,0-6.1,0-9.15,0-2.7.03-5.4.05-8.09.08-1.88,0-3.76,0-5.63.01-1.53,0-3.05,0-4.58,0-1.41,0-2.81,0-4.22.01-1.28.02-2.56.04-3.85.06-.27,5.03.28,10,1.58,14.84,1.14,4.25,2.71,8.38,4.09,12.57,1.05,1.9,2.09,3.8,3.14,5.7,1.23-1.77,2.41-3.57,3.69-5.29,5.82-7.84,12.86-14.3,21.41-19.11,6.54-3.68,13.51-6.08,20.83-7.5,2.56-.5,5.2-.57,7.81-.85.62-.07,1.22-.21,1.83-.33-1.78-.1-3.56-.2-5.35-.3Z"/><path class="cls-5" d="M597.62,184.38c2.1.11,4.19.23,6.29.34.46-.13.92-.37,1.39-.37,7.37-.07,14.74-.14,22.11-.17,13.17-.05,26.33-.08,39.5-.12,0-2.37-.02-4.75-.03-7.12-.57-2.92-.94-5.89-1.73-8.75-7.24-25.94-23.92-42.31-50.05-48.93-3.49-.89-7.15-1.14-10.73-1.68-1.33-.03-2.66-.05-4-.08-.11.5-.21,1-.32,1.49-.03.29-.01.59-.08.87-2.1,8.6-4.93,16.92-9.23,24.71-4.95,8.96-11.36,16.68-19.3,23.13-7.52,6.11-15.92,10.65-25.1,13.72-3.41,1.14-6.93,1.96-10.41,2.92,1.77.04,3.53.07,5.3.11,1.76,0,3.52.02,5.28.02,2.23-.01,4.46-.03,6.68-.04,2.58,0,5.16,0,7.74,0,3.17,0,6.34,0,9.5,0,9.05-.02,18.11-.04,27.16-.07Z"/><path class="cls-10" d="M535.94,184.35c3.47-.96,6.99-1.78,10.41-2.92,9.18-3.07,17.58-7.61,25.1-13.72,7.94-6.45,14.34-14.16,19.3-23.13,4.31-7.79,7.14-16.11,9.23-24.71.07-.28.06-.58.08-.87-2.23-.38-4.47-.76-6.7-1.14-4.6,1.01-9.26,1.79-13.77,3.08-6.49,1.84-12.31,5.18-17.91,8.91-2.33,1.93-4.66,3.86-7,5.79-2.02,2.17-4.05,4.34-6.07,6.51-1.38,1.89-2.76,3.78-4.14,5.67-1.38,2.46-2.76,4.92-4.14,7.38-.98,2.36-1.96,4.73-2.93,7.09-.48,1.68-1.09,3.33-1.42,5.04-.77,3.99-1.4,8.01-2.09,12.01.03,1.67.05,3.33.08,5,.66,0,1.32,0,1.98.01Z"/><path class="cls-2" d="M414.61,358.91c3.27,3.39,6.51,6.81,9.83,10.14,1.18,1.19,2.58,2.16,3.89,3.23,1.52.97,3.03,1.96,4.57,2.91,7.99,4.9,16.68,7.84,25.94,9.19,2.18.17,4.35.35,6.53.52.78,0,1.56-.01,2.34-.02.01-9.85.03-19.7.04-29.55.04-2.66.08-5.31.13-7.97-.07-.64-.2-1.27-.2-1.91-.04-8.47-.06-16.94-.06-25.41,0-.54.22-1.08.34-1.62-.11-.1-.23-.21-.34-.31-4.09,0-8.17-.02-12.26-.02-7.04.02-14.08.03-21.12.05-.7.02-1.4.04-2.1.05-10.39.09-20.77.18-31.16.27.25,3.18.32,6.39.79,9.54.51,3.43,1.4,6.8,2.12,10.2,1.43,3.51,2.86,7.03,4.29,10.54,2.14,3.39,4.29,6.77,6.43,10.16Z"/><path class="cls-3" d="M467.87,347.37c-.04,2.66-.08,5.31-.13,7.97.44,1.99.7,4.04,1.36,5.96,4.41,12.87,13.26,20.67,26.73,23.09,3.4,0,6.8,0,10.2,0,.58-.09,1.16-.14,1.73-.26,13.72-2.97,23.51-13.17,26.16-27.25l.23-1.09c.03-.47.06-.93.1-1.4-.05-.11-.05-.22.02-.33.02-.24.04-.47.06-.71-.04-1.88-.08-3.76-.11-5.64-.1-.6-.21-1.2-.31-1.79-2.65-15.19-15.19-26.83-31.01-27.72-17.68-1-32.75,11.62-35.02,29.18Z"/><path class="cls-4" d="M629.94,384.38c-.34-10.89-5.06-19.24-14.43-24.88-3.81-2.3-7.96-3.36-12.42-3.77-8.14-.76-15.04,1.78-21.1,7.01-6.04,5.22-9.37,11.79-9.8,19.8-.04.69-.21,1.38-.32,2.07,9.36.01,18.73.04,28.09.04,9.42,0,18.85-.03,28.27-.07.57,0,1.14-.13,1.7-.2Z"/><path class="cls-2" d="M400.28,324.41l-.12,1.11c-.89,9.43-3.67,18.27-8.55,26.4-11.02,18.38-27.14,29.26-48.29,32.67-2.36.38-4.76.45-7.15.67-1.53,0-3.05,0-4.58,0-2.18-.18-4.36-.36-6.53-.53-10.51-1.53-20.22-5.15-28.98-11.2-.86-.6-1.74-1.18-2.61-1.77-3.2-2.97-6.39-5.93-9.59-8.9-1.4-1.77-2.79-3.54-4.19-5.31-1.67-2.69-3.33-5.38-5-8.08-1.38-3.29-2.77-6.59-4.15-9.88-.89-3.97-1.79-7.93-2.67-11.9-.21-.95-.32-1.93-.48-2.89-.01-3.96-.03-7.93-.04-11.89.39-2.46.61-4.96,1.21-7.36.95-3.82,2.16-7.58,3.26-11.37.85-1.97,1.71-3.95,2.56-5.92,1.3-2.21,2.6-4.42,3.89-6.63,1.85-2.39,3.69-4.77,5.54-7.16,1.56-1.6,3.11-3.21,4.67-4.81,2.01-1.66,4.01-3.32,6.02-4.97,1.76-1.17,3.53-2.34,5.29-3.51,2.21-1.13,4.42-2.27,6.63-3.4,6.09-2.6,12.38-4.48,18.97-5.28,1.27-.15,2.53-.31,3.8-.47,1.53-.03,3.06-.06,4.59-.09,9.36.05,18.43,1.68,26.92,5.67,23.06,10.85,36.27,28.95,39.44,54.29.11,1.15.22,2.31.34,3.46-.07,3.02-.14,6.04-.22,9.06ZM307.6,318.75c.07,14.51,11.95,26.13,26.67,26.09,14.02-.04,25.9-12.07,25.88-26.22-.02-14.47-11.9-26.29-26.36-26.25-14.5.04-26.26,11.89-26.19,26.37Z"/><path class="cls-12" d="M200.75,315.5c-.52-3.4-.88-6.83-1.59-10.19-3.05-14.46-10.22-26.54-21.27-36.35-.39-.35-.76-.73-1.13-1.09-3.36-2.3-6.71-4.6-10.07-6.9-3.18-1.48-6.35-2.96-9.53-4.44-.29-.04-.58-.07-.86-.13-4.17-1.03-8.3-2.23-12.5-3.04-3.06-.58-6.21-.64-9.33-.94-1.23-.03-2.45-.13-3.68-.09-1.31.04-2.61.21-3.92.33-1.66.29-3.32.55-4.98.87-14.11,2.68-26.21,9.14-36.12,19.54-10.61,11.15-16.7,24.39-18.13,39.75-.08,2.22-.16,4.45-.24,6.67,22.14-.1,44.27-.22,66.41-.3,12.13-.04,24.26,0,36.39,0,.7,0,1.4-.04,2.11-.06.62-.09,1.23-.27,1.85-.27,7.96-.02,15.92-.01,23.87-.01.81,0,1.63,0,2.71,0v-3.34Z"/><path class="cls-3" d="M467.32,218.18c.02,10.45.03,20.9.05,31.34.1.56.29,1.12.27,1.67-.05,1.33-.3,2.66-.3,4-.03,9.84-.02,19.67-.02,29.51.1.83.2,1.65.3,2.48.05-.63.1-1.27.14-1.76,3.06-.6,6.09-.91,8.96-1.79,12.51-3.86,20.29-12.29,23.31-24.99,1.78-7.49.81-14.82-2.62-21.66-4.88-9.74-12.8-15.77-23.47-18.05-2.15-.46-4.4-.51-6.6-.74Z"/><path class="cls-6" d="M467.61,287.18c-.1-.83-.2-1.65-.3-2.48-.84.1-1.67.2-2.51.3-4.88.41-9.43,1.87-13.69,4.28.23,2.07.43,4.14.71,6.21.51,3.72,1.05,7.44,1.63,11.15.6,3.83,1.26,7.64,1.9,11.47,4.09,0,8.17.02,12.26.02,0-10.32,0-20.63,0-30.95Z"/><path class="cls-11" d="M336.17,385.26c-1.53,0-3.05,0-4.58,0-7.09-.02-14.17-.04-21.26-.06-7.4.02-14.8.03-22.21.05-1.77.05-3.54.1-5.31.15-.12,12.43,4.02,23.32,11.93,32.84,7.69,9.26,17.55,15.06,29.27,17.32,10.53,2.04,20.89,1.04,30.83-3.43,6.05-2.73,11.46-6.33,16.02-11.12,7.14-7.49,11.89-16.29,13.65-26.54.53-3.09.53-6.26.78-9.4-.7-.02-1.4-.06-2.1-.06-15.68.08-31.35.16-47.03.24Z"/><path class="cls-11" d="M667.23,169.25c12.2-.13,23.03-4.1,32.43-11.81,8.99-7.37,14.7-16.84,17.33-28.14,1.24-5.31,1.56-10.66,1.04-16.15-.85-8.95-3.79-17.06-8.86-24.41-6.41-9.29-15.01-15.78-25.68-19.45-4.03-1.38-8.17-2.37-12.47-2.48-1.39-.04-2.79-.19-4.18-.29,0,4.1.02,8.19.02,12.29.02,21.72.03,43.43.05,65.15,0,.58.04,1.17.07,1.75.09.5.24,1,.25,1.5.01,7.35,0,14.7,0,22.04Z"/><path class="cls-12" d="M666.24,59.44c.14-.01.29-.02.43-.04-.03-1.51-.06-3.03-.09-4.54-.12,1.52-.23,3.05-.35,4.57Z"/><path class="cls-9" d="M451.11,289.28c4.26-2.4,8.81-3.87,13.69-4.28-.22-2.13-.47-4.25-.65-6.39-.38-4.62-.8-9.24-1.04-13.87-.23-4.3-.26-8.61-.37-12.92-2.39.29-4.81.38-7.15.91-3.99.9-7.91,2.06-11.86,3.11-3.76,1.87-7.52,3.73-11.27,5.6-2.59,1.88-5.17,3.77-7.76,5.65-1.86,1.76-3.73,3.53-5.59,5.29-1.6,1.86-3.2,3.73-4.8,5.59-1.19,1.74-2.38,3.47-3.58,5.21-1.33,2.5-2.67,4.99-4,7.49-1.44,4.48-3.09,8.92-4.25,13.47-.81,3.19-.95,6.56-1.41,9.84-.06.45-.19.89-.29,1.34.06,1.04.12,2.09.19,3.13,10.39-.09,20.77-.18,31.16-.27.7,0,1.4-.03,2.1-.05.42-12.67,5.96-22.35,16.89-28.87Z"/><path class="cls-4" d="M462.73,251.82c.12,4.31.14,8.62.37,12.92.25,4.63.67,9.25,1.04,13.87.17,2.13.43,4.26.65,6.39.84-.1,1.67-.2,2.51-.3,0-9.84,0-19.67.02-29.51,0-1.33.25-2.66.3-4,.02-.55-.17-1.11-.27-1.67-.03.63-.06,1.26-.09,1.97-1.51.11-3.03.22-4.54.33Z"/><path class="cls-1" d="M642.62,251.27c.33-10.17-3.15-19.08-9.49-26.8-5.54-6.75-12.61-11.4-21.13-13.77-3.97-1.1-8-1.78-12.07-1.62-9.83.4-18.69,3.48-26.33,9.93-4.93,4.16-8.67,9.14-11.35,14.93-1.87,4.04-3.12,8.29-3.42,12.76-.1,1.56-.18,3.13-.27,4.7,4.45.02,8.89.04,13.34.06,1.27-.02,2.54-.04,3.81-.06,1.07-.01,2.13-.02,3.2-.03,1.4-.01,2.8-.02,4.2-.03.09.1.18.2.28.3.65,9.14,6.96,15.26,15.65,16.46,4.58.64,8.87-.72,12.44-3.61,4.12-3.33,6.39-7.78,6.58-13.23,8.28,0,16.42,0,24.56,0Z"/><path class="cls-11" d="M126.89,252.67c1.31-.12,2.61-.29,3.92-.33,1.22-.04,2.45.05,3.68.09,5.72-.02,11.43-.05,17.15-.05,1.98,0,3.96.08,5.93.12,2.45,0,4.9-.02,7.35-.03.95-.01,1.9-.02,2.85-.04,3.39,0,6.78,0,10.17.01,2.46-.04,4.92-.08,7.38-.12-.41-11-3.39-21.2-10-30.1-7.67-10.33-17.84-17.01-30.43-19.87-5.69-1.29-11.43-1.36-17.23-.76-10.02,1.04-18.88,4.94-26.52,11.3-9.2,7.67-15.33,17.4-17.54,29.31-.63,3.42-.74,6.93-1.09,10.4.64.02,1.28.06,1.93.06,14.15,0,28.3,0,42.45,0Z"/><path class="cls-5" d="M751.44,381.91c-1.35-7.85-5.94-12.85-13.61-14.68-7.84-1.87-16.33,2.45-19.51,10.23-.58,1.43-.97,2.94-1.45,4.41.06,1.4.03,2.81.2,4.19.84,6.58,4.35,11.21,10.33,14.02.26.12.51.28.77.41,2.11.36,4.23.71,6.34,1.07,8.4-.8,14.31-5.23,16.28-12.57.61-2.26.46-4.72.65-7.09Z"/><path class="cls-11" d="M409.23,200.28c1.27-.99,2.55-1.97,3.82-2.96,1.31-2.08,2.61-4.16,3.92-6.25,1.16-4.33,1.37-8.64-.58-12.81-.76-1.63-1.74-3.16-2.61-4.73-.76-.58-1.49-1.21-2.29-1.74-1.19-.8-2.43-1.53-3.65-2.29-2.47-1-5.01-1.63-7.7-1.57-1.08.11-2.18.15-3.24.36-6.54,1.28-12.14,7.04-13.32,13.66-1.71,9.54,4.28,18.34,13.79,20.25.86.17,1.75.18,2.62.26,1.56-.14,3.11-.28,4.67-.42,1.53-.58,3.05-1.17,4.58-1.75Z"/><path class="cls-4" d="M451.11,289.28c-10.93,6.52-16.47,16.2-16.89,28.87,7.04-.02,14.08-.03,21.12-.05-.64-3.82-1.3-7.64-1.9-11.47-.58-3.71-1.12-7.43-1.63-11.15-.28-2.06-.48-4.14-.71-6.21Z"/></g></svg>