<?xml version="1.0" encoding="UTF-8"?><svg id="_圖層_2" xmlns="http://www.w3.org/2000/svg" viewBox="0 0 754 426.02"><defs><style>.cls-1{fill:#299591;}.cls-2{fill:#da2c7e;}.cls-3{fill:#193456;}.cls-4{fill:#101d30;}.cls-5{fill:#217bac;}.cls-6{fill:#050c1d;}.cls-7{fill:#01795a;}.cls-8{fill:#183354;}.cls-9{fill:#163050;}.cls-10{fill:#09548b;}.cls-11{fill:#258d80;}.cls-12{fill:#2b9899;}.cls-13{fill:#0d6358;}</style></defs><g id="_飄移"><path class="cls-2" d="M56.28,298.65c-25.77-3.63-43.84-17.47-52.38-41.98-8.12-23.31-3.21-44.74,13.32-63.16,9.45-10.53,21.49-16.69,35.41-19.14,2.71-.48,5.48-.58,8.22-.86,4.28.31,8.56.48,12.82.96,5,.56,9.68,2.37,14.37,4.09,2.76,1.45,5.52,2.9,8.28,4.35,2.32,1.67,4.63,3.34,6.95,5.01,1.76,1.65,3.53,3.31,5.29,4.96,1.22,1.42,2.44,2.83,3.65,4.25.81,1.1,1.62,2.2,2.43,3.29,1.61,2.67,3.22,5.35,4.83,8.02.73,1.74,1.46,3.49,2.18,5.23,1.08,4.05,2.23,8.08,3.21,12.16.48,1.99.64,4.06.94,6.09,0,2.65,0,5.29,0,7.94-.38,2.77-.59,5.58-1.19,8.31-.77,3.54-1.85,7.01-2.79,10.5-.89,2-1.77,3.99-2.66,5.99-1,1.75-2,3.5-3,5.25-.1.15-.21.29-.31.44-.09.1-.18.2-.26.3-.92,1.32-1.84,2.65-2.75,3.97-1.22,1.43-2.43,2.87-3.65,4.3-1.43,1.42-2.87,2.83-4.3,4.25-2.13,1.66-4.25,3.32-6.38,4.98-2.39,1.4-4.79,2.81-7.18,4.21-2.95,1.18-5.82,2.64-8.86,3.48-4.36,1.21-8.85,1.97-13.28,2.92-4.31-.05-8.62-.09-12.92-.14ZM87.75,236.21c.18-12.07-9.44-24.6-24.63-24.65-14.35-.04-24.72,11.5-24.75,24.75-.03,13.48,11.17,24.68,24.68,24.72,13.59.04,24.7-11.12,24.7-24.82Z"/><path class="cls-5" d="M439.96,169.48c.01-7.93.03-15.86.04-23.79,0-.22.07-.43.1-.65.07-.59.21-1.17.21-1.76.01-9.74,0-19.48,0-29.21v-2.2c2.19.12,4.14.23,6.09.35,5.39.33,10.54,1.71,15.59,3.54,5.53,2,10.58,4.94,15.4,8.27,2.43,2.1,4.86,4.21,7.29,6.31.98,1.07,1.96,2.14,2.94,3.21.9,1.12,1.8,2.24,2.69,3.36,1.11,1.64,2.23,3.28,3.34,4.92.9,1.65,1.8,3.29,2.7,4.94.91,2.21,1.82,4.41,2.74,6.62.75,2.74,1.58,5.47,2.21,8.24.55,2.44.86,4.93,1.28,7.4.12.09.23.18.35.27v5.22c.69,0,1.08.07,1.44-.01,7.04-1.62,13.88-3.85,20.37-7.02,4.85-2.37,9.52-5.12,13.63-8.64,3.38-2.9,6.73-5.88,9.73-9.16,3.52-3.85,6.45-8.2,8.95-12.8,2.53-4.65,4.73-9.45,6.23-14.54.82-2.77,1.51-5.58,2.26-8.38.04.9.08,1.81.12,2.71-.1,22.17-.21,44.34-.28,66.51-.05,15.5-.06,31-.07,46.5,0,.82.12,1.64.19,2.46-.08,1.8-.16,3.6-.24,5.4-4.87.09-9.7-.43-14.4-1.67-22.82-6.03-37.96-20.3-45.44-42.66-1.61-4.82-2.28-9.85-2.73-14.9v-3.68c-1.07.22-1.82.36-2.56.54-8.23,1.94-16.12,4.74-23.51,8.93-7.85,4.44-14.7,10.06-20.45,16.97-6.37,7.66-10.94,16.34-13.98,25.81-.81,2.54-1.49,5.12-2.22,7.69-.03-.66-.09-1.32-.09-1.97.01-17.52.03-35.04.05-52.56,0-3.51.02-7.03.03-10.54Z"/><path class="cls-5" d="M125.42,366.98c-.97,4.8-1.41,9.78-2.99,14.36-7.81,22.57-23.37,37.03-46.77,42.04-21.72,4.64-40.94-1.22-56.94-16.6-10.44-10.04-16.46-22.51-18.22-36.94-1.66-13.62.86-26.44,7.49-38.45.23-.42.32-.91.48-1.37.23-.23.51-.42.68-.68,3.93-6.22,8.65-11.72,14.45-16.3,4.39-3.46,9.09-6.36,14.22-8.55,7.13-3.03,14.52-4.92,22.32-5,.25,0,.49-.19.73-.29,1.32,0,2.64,0,3.96,0,.58.1,1.15.24,1.73.31,2.45.27,4.94.33,7.35.8,6.89,1.34,13.46,3.59,19.61,7.06,8.05,4.54,14.68,10.61,20.16,17.99,1.21,1.63,2.32,3.32,3.47,4.98.17.45.29.94.52,1.36,2.5,4.54,4.44,9.3,5.71,14.31.75,2.96,1.26,5.99,1.87,8.99.19.12.37.24.56.35h.01c-.86.49-.91,1.19-.13,1.87-.04,1.55-.08,3.09-.12,4.64-.05,1.71-.1,3.42-.15,5.13ZM100.29,349.52c-1.16-2.54-2.14-5.19-3.52-7.6-3.68-6.39-8.88-11.29-15.4-14.76-6.54-3.49-13.49-4.88-20.93-4.53-7.15.34-13.55,2.61-19.48,6.4-3.3,2.11-6.19,4.72-8.67,7.79-3.04,3.76-5.53,7.79-6.91,12.46-.12.24-.27.47-.35.72-1.84,5.71-2.38,11.54-1.56,17.48,2.85,20.63,21.18,35.6,41.94,34.14,12.94-.91,23.18-6.88,30.34-17.62,7.1-10.65,8.5-22.25,4.55-34.46Z"/><path class="cls-11" d="M439.96,169.48c0,3.51-.02,7.03-.03,10.54-.42,2.49-.78,4.99-1.28,7.46-5.46,27.31-30.15,48.37-57.96,49.47-3.1,0-6.21-.02-9.31-.03-.88-.12-1.77-.23-2.65-.35-1-.19-2-.38-2.99-.58-.88-.14-1.76-.28-2.64-.42-1.22-.33-2.43-.66-3.65-.98-1.77-.63-3.55-1.25-5.32-1.88-2.31-1.05-4.61-2.11-6.92-3.16-.56-.3-1.15-.55-1.67-.91-2.87-2.01-5.72-4.06-8.58-6.09-2.05-2-4.21-3.9-6.12-6.03-9.98-11.1-15.43-24.12-16.19-39.06-.1-2.03-.1-4.07-.14-6.11.58-3.86.85-7.8,1.78-11.58,4.22-17.26,14.09-30.41,29.29-39.59.33-.2.64-.43.96-.64,5.05-2.59,10.22-4.92,15.8-6.09,3.54-.75,7.14-1.2,10.71-1.79,3.33-.08,6.65-.17,9.98-.25.15.17.29.48.45.49,6.7.62,13.16,2.23,19.24,5.08,19.88,9.32,32.08,24.73,36.33,46.33.4,2.04.62,4.11.93,6.17ZM365.75,212.29c1.44.34,2.88.68,4.31,1.02,2.42.23,4.85.46,7.27.69,2.19-.2,4.41-.27,6.58-.62,17.4-2.77,31.3-17.46,32.8-35.03,1.22-14.33-3.82-26.23-15.11-35.22-7.03-5.6-15.14-8.46-24.22-8.29-1.67.09-3.33.17-5,.26-2.54.57-5.07,1.15-7.61,1.72-3.37.97-6.46,2.5-9.3,4.54-.1.06-.21.12-.31.18-.1.08-.2.17-.3.25-.94.65-1.95,1.22-2.8,1.97-11.43,10.08-16.24,22.64-13.74,37.75,1.03,6.25,3.47,12,7.6,16.92,1.76,1.88,3.51,3.76,5.27,5.65,1.99,1.44,3.98,2.88,5.97,4.32,1.55.78,3.09,1.57,4.64,2.35,1.32.51,2.65,1.02,3.97,1.53Z"/><path class="cls-13" d="M209.33,48.06c4.29-5.03,8.25-10.39,12.92-15.04,17.02-16.97,37.46-27.54,61.22-31.39,5.91-.96,11.96-1.1,17.94-1.6.54-.05,1.08,0,1.97,0-.5,2.59-.9,5.01-1.45,7.39-3.96,17.11-10.99,32.87-20.91,47.34-.18.27-.32.57-.47.86-.34.43-.71.84-1.03,1.28-4.72,6.48-9.81,12.66-15.74,18.08-3.95,3.61-8.08,7.01-12.12,10.51-.09.09-.18.18-.28.27-4.97,3.2-9.95,6.41-14.92,9.61-2.1,1.06-4.18,2.17-6.31,3.16-8.77,4.08-17.53,8.18-26.96,10.57-2.59.66-5.2,1.24-7.79,1.86-2.1.36-4.2.71-6.31,1.07-.1-.47-.2-.94-.3-1.41,0-.54,0-1.08,0-1.62.1-.65.22-1.3.29-1.95.44-4.15.74-8.31,1.34-12.44,1.68-11.48,5.36-22.35,10.67-32.63,2.48-4.78,5.48-9.3,8.24-13.93Z"/><path class="cls-12" d="M446.42,112.21c-1.95-.11-3.9-.22-6.09-.35v2.2c0,9.74,0,19.48,0,29.21,0,.59-.14,1.17-.21,1.76.03-11.26.08-22.51.08-33.77,0-8.74,1.72-17.13,5.46-25,9.69-20.39,25.65-32.91,48.03-36.25,21.77-3.25,40.43,3.58,55.5,19.6,9.4,9.99,14.59,22.05,16.16,35.68.11,2.1.23,4.19.34,6.29-.04.22-.09.43-.13.65-1.56,0-3.12,0-4.68-.01h-3.55c-.66-.02-1.32-.07-1.97-.07-8.1,0-16.19,0-24.29-.01-9.36-.02-18.72-.06-28.07-.09-.12,0-.23-.01-.35-.02-1.66-.01-3.32-.02-4.99-.04-1.77,0-3.54,0-5.31,0-3.98,0-7.95,0-11.93,0-10.81-.04-21.61-.09-32.42-.11-.53,0-1.06.2-1.59.3Z"/><path class="cls-12" d="M59.95,173.16c-3.96-.63-8.04-.86-11.88-1.94-24.83-6.98-40.67-23.06-46.07-48.24-6.88-32.1,12.21-63.3,43.63-72.76,5.09-1.53,10.31-2.33,15.62-2.53.7-.03,1.41,0,2.23,0,.02.51.06.88.06,1.25-.02,17.88-.05,35.76-.06,53.64,0,.47.19.94.29,1.41,0,4.67,0,9.34,0,14.01-.09.53-.26,1.06-.27,1.59-.08,11.67-.16,23.35-.22,35.02-.02,3.58,0,7.16,0,10.74v7.81h-3.33Z"/><path class="cls-12" d="M367.41,394.93c-2.85,3.64-5.42,7.54-8.59,10.88-9.4,9.9-20.94,16.06-34.43,18.31-18.33,3.05-34.98-1.08-49.6-12.55-12.67-9.94-20.32-23.03-23.03-38.93-.41-2.38-.52-4.82-.76-7.23.02-1.11.03-2.21.05-3.32l.04.06c8.15.01,16.3.03,24.46.02.69,0,1.38-.19,2.07-.3,3.2,0,6.4,0,9.6,0,.58.1,1.15.3,1.73.3,8.25.07,16.5.12,24.75.18.73,0,1.47.01,2.2.02,5.56-.03,11.11-.06,16.67-.09.21.05.43.14.64.14,7.54-.01,15.08-.04,22.61-.06h20.73c-.23,2.88-.28,5.47-.68,8-.55,3.47-1.38,6.89-2.09,10.33-2.12,4.75-4.24,9.49-6.36,14.24Z"/><path class="cls-2" d="M251.04,362.09c-.02,1.11-.03,2.21-.05,3.32-.52,5.21-1.15,10.42-2.89,15.39-8.27,23.66-24.55,38.46-49.28,42.93-21.08,3.81-39.6-2.35-54.91-17.27-10.64-10.37-16.59-23.21-18.15-38.03-.05-.49-.23-.96-.35-1.43.05-1.71.1-3.42.15-5.13,11.79,0,23.58.01,35.37.02.53.06,1.07.18,1.6.18,8.87.03,17.74.06,26.61.06,8.82,0,17.63-.02,26.45-.04,7.34.02,14.68.05,22.02.06,4.47,0,8.94-.03,13.41-.04Z"/><path class="cls-11" d="M565.23,304.83c-.41,2.41-.81,4.83-1.25,7.24-4.37,24.29-24.35,44.7-48.55,49.37-4.3.83-8.74.93-13.12,1.36v.02c-.04-1.22-.08-2.44-.12-3.66,0-1.32,0-2.65.01-3.97,0-4.86,0-9.72.01-14.58.01-5.41.02-10.83.04-16.24,0-6.2,0-12.39,0-18.59.01-3.73.03-7.46.04-11.2.11-.58.3-1.15.3-1.73.02-5.96.02-11.92.01-17.88,0-12.36-.02-24.72-.03-37.08.03-.1.04-.2.05-.31.99-.03,1.97-.06,2.96-.08,1.87.15,3.76.17,5.6.46,17.79,2.76,32.05,11.39,42.51,26.05,7.02,9.85,10.78,20.9,11.29,33.01v3.15c1.01,0,1.78,0,2.55,0,7.49,0,14.98,0,22.48.01.58,0,1.16.17,1.74.25-1.76.02-3.51.04-5.27.05-5.54.03-11.08.05-16.62.08-.31,0-.61,0-.92,0-.13,0-.26,0-.39-.01h-3.34v4.28Z"/><path class="cls-2" d="M251.65,85.48c4.05-3.5,8.18-6.9,12.12-10.51,5.93-5.42,11.02-11.59,15.74-18.08.32-.44.68-.85,1.03-1.28,19.79,10.91,30.97,27.6,33.59,50.03.07.79.14,1.57.2,2.36l-.54,11.93c-3.72,26.37-23.43,47.51-49.52,52.84-4.18.85-8.53.88-12.81,1.3-.05-.17-.11-.35-.16-.52.03-1.57.05-3.14.08-4.7,0-7.14,0-14.29-.01-21.43.02-4.64.04-9.27.07-13.91,0-4.31,0-8.62-.01-12.93,0-3.98,0-7.95,0-11.93.04-4.54.08-9.07.12-13.61-.02-3.08-.03-6.16-.05-9.25.06-.11.11-.21.17-.32Z"/><path class="cls-3" d="M383.02,111.41c-3.33.08-6.65.17-9.98.25-2.64-.4-5.29-.73-7.91-1.2-5.08-.93-9.88-2.77-14.61-4.78-4.54-2.39-8.94-5-12.88-8.34-12.58-10.64-20.11-24.06-22.27-40.43-.35-2.65-.46-5.34-.69-8.11h35.81c.05,1.56-.12,3.16.18,4.67,1.33,6.81,4.54,12.5,10.06,16.88,4.23,3.36,9.03,5.35,14.31,5.75,8.6.65,16.11-1.96,22.21-8.33,5.04-5.27,7.54-11.48,7.62-18.72,9.88,0,19.76-.02,29.64-.02,1.87,0,3.74,0,5.6,0,1.38,26.83-20.51,59.31-57.09,62.38Z"/><path class="cls-5" d="M628.86,103.33c2.12-14.1,8.15-26.26,18.37-36.21,10.39-10.11,22.85-16.07,37.31-17.46,18.82-1.81,35.37,3.65,49.27,16.46,10.89,10.03,17.37,22.53,19.39,37.24.4,2.87.53,5.78.79,8.68h-31.54c-.17-2.03-.13-4.1-.53-6.07-3.47-17.16-19.86-27.75-36.24-24.89-14.97,2.62-26.12,15.8-25.98,30.75-.66.02-1.32.07-1.98.07-9.03,0-18.07,0-27.1,0-.74-.1-1.48-.2-2.22-.3.15-2.76.3-5.52.45-8.28Z"/><path class="cls-5" d="M251.68,229.59c1.35-11.97,5.81-22.68,13.39-32.01,10.5-12.92,24.1-20.53,40.58-22.87,2.77-.39,5.6-.33,8.41-.47,0,10.39-.01,20.78-.02,31.17-2.07.22-4.18.27-6.21.7-10.05,2.15-17.5,7.83-22.1,16.99-3.23,6.44-4.14,13.34-2.46,20.39,2.84,11.95,10.16,19.89,21.94,23.52,2.69.83,5.55,1.13,8.43,1.69.04.47.08,1.06.13,1.66,0,9.71,0,19.42,0,29.13-.11.1-.22.19-.32.29-1.55-.1-3.09-.18-4.64-.31-8.84-.78-17.19-3.18-24.97-7.49-12.51-6.93-21.65-16.98-27.48-30.02-2.48-5.56-4.07-11.37-4.7-17.44-.11-2.27-.22-4.54-.33-6.82.01-1.39.03-2.78.04-4.17.1-1.32.2-2.63.29-3.95Z"/><path class="cls-11" d="M573.36,393.98c7.12-11.6,16.81-20.3,29.31-25.79.45-.2.9-.4,1.35-.6,3.73-1.08,7.42-2.29,11.19-3.21,2.53-.62,5.16-.83,7.75-1.23,1.54-.01,3.08-.03,4.62-.04l-.03.06c.11.37.25.73.33,1.1,1.87,8.82,4.85,17.22,9.3,25.1,5.76,10.21,13.53,18.53,23.27,25,8,5.32,16.7,9.06,26.12,11.07.26.05.46.37.69.56-11.42-.02-22.84-.03-34.26-.06-28.81-.06-57.62-.13-86.43-.19-.54,0-1.08,0-1.7,0-.14-4.44.38-8.63,1.23-12.79.95-4.69,2.4-9.23,4.27-13.63.29-.69.66-1.35,1-2.03.66-1.11,1.32-2.22,1.99-3.33Z"/><path class="cls-8" d="M569.87,300.57c5.54-.03,11.08-.05,16.62-.08,1.76,0,3.51-.03,5.27-.05.66.02,1.32.06,1.98.06,11.42,0,22.84-.03,34.26,0,20.84.07,41.68.18,62.52.28.03.9.05,1.8.08,2.71-.1,1.01-.21,2.02-.31,3.03-.11,1.09-.22,2.18-.33,3.27-4.45,24.27-18.14,40.94-41.2,49.79-4.9,1.88-10.02,2.99-15.29,3.26-1.97.11-3.95.22-5.92.33l.03-.06c-.06-.54-.06-1.1-.17-1.63-1.23-5.76-3.04-11.33-5.34-16.75-3.61-8.49-8.55-16.09-14.94-22.73-4.4-4.56-9.28-8.6-14.81-11.72-3.81-2.15-7.86-3.88-11.8-5.8-2.9-1-5.81-1.98-8.7-3.01-.67-.24-1.3-.61-1.95-.92Z"/><path class="cls-3" d="M659.71,111.83c-.14-14.95,11.01-28.13,25.98-30.75,16.38-2.86,32.77,7.73,36.24,24.89.4,1.98.36,4.05.53,6.07-2.24.08-4.48.17-6.72.25-4.42,0-8.84,0-13.26,0-1.99,0-3.98,0-5.97,0h-5.3c-.2,2.62-.39,5.12-.59,7.63-.23,1.3-.44,2.61-.68,3.9-5.59,29.48-31.68,50.93-61.71,50.76,0-7.75,0-15.5.02-23.25,0-2.63.1-5.27.15-7.9,1.47-.12,2.97-.13,4.41-.38,7.59-1.33,14.11-4.6,19.18-10.57,5.07-5.97,7.83-12.76,7.71-20.64Z"/><path class="cls-3" d="M565.97,85.72c-.49-4.41-.45-8.78.64-13.13,3.78-15.09,18.74-25.34,34.11-23.32,14.31,1.87,25.03,12.06,27.35,26.29.51,3.11.14,6.36.17,9.55-.08.33-.16.67-.23,1-.04.33-.08.66-.11.99-.21.67-.45,1.34-.64,2.02-3.61,12.73-15.03,21.76-27.74,22.59-2.38-.04-4.76-.07-7.14-.11-1.86-.49-3.76-.86-5.57-1.48-6.58-2.24-11.75-6.39-15.81-11.99-.59-1.05-1.32-2.04-1.75-3.16-1.16-3.06-2.2-6.17-3.28-9.26Z"/><path class="cls-7" d="M502.31,362.8c-.13,16.54-5.82,30.91-17.14,42.95-10.01,10.64-22.31,17.11-36.81,19.02-20.94,2.76-38.99-3.43-53.87-18.39-9.06-9.1-14.58-20.16-16.81-32.83-.13-.73-.4-1.43-.6-2.15-.01-.32-.02-.65-.04-.97,0-.11,0-.22,0-.34-.02-.55-.04-1.11-.06-1.66.06-.11.04-.21-.04-.3-.04-.48-.14-.97-.12-1.45.05-1.42.14-2.83.22-4.25,4.74.04,9.49.07,14.23.11.23,2.95.23,5.94.73,8.85,1.66,9.65,6.13,17.93,12.85,24.98,4.29,4.5,9.38,7.9,15.08,10.47,9.35,4.21,19.1,5.15,29.02,3.23,11.03-2.13,20.31-7.59,27.55-16.31,7.45-8.96,11.34-19.21,11.24-30.92,3.75-.03,7.5-.06,11.25-.09.99,0,1.98-.01,2.97-.02.12.03.23.06.35.09v-.02Z"/><path class="cls-7" d="M63.76,118c0-4.67,0-9.34,0-14.01.95-9.94,4.28-19.07,9.8-27.34,10.07-15.1,24.13-24.3,41.99-27.52,3.45-.62,7.01-.58,10.52-.85.12,1.13.25,2.25.37,3.38-.03,1.42-.05,2.85-.08,4.27-.05,2.23-.11,4.47-.16,6.7-1.31.09-2.62.24-3.94.27-4.05.1-7.95,1.03-11.74,2.34-10.04,3.45-18.14,9.57-24.18,18.31-4.77,6.92-7.54,14.56-8.34,22.98-.49,5.16-.19,10.2.98,15.2,2.48,10.63,7.86,19.55,16.32,26.49,8.86,7.26,19.05,11,30.53,11.12l.11.02h.11c.04,2.4.07,4.81.11,7.22,0,2.23-.02,4.47-.02,6.7-.02.09-.05.17-.09.25-2.07.02-4.14.03-6.21.05-1.22-.19-2.44-.38-3.66-.57-1.22-.22-2.43-.44-3.65-.66-1.96-.52-3.93-1.05-5.89-1.57-2.56-1.03-5.13-2.05-7.69-3.08-3.2-1.89-6.41-3.79-9.61-5.68-.25-.21-.49-.44-.75-.63-8.39-6.3-14.87-14.17-19.33-23.67-2.93-6.26-4.93-12.79-5.52-19.71Z"/><path class="cls-7" d="M627.56,363.17c1.97-.11,3.95-.22,5.92-.33.25.2.49.55.77.58,7.64.74,14.92,2.82,21.68,6.4,18.06,9.58,29.28,24.36,33.33,44.48.77,3.84,1.11,7.71,1.01,11.71h-1.69c-.23,0-.45,0-.68,0-.21,0-.42,0-.63,0-.23-.19-.43-.51-.69-.56-9.42-2.01-18.12-5.75-26.12-11.07-9.73-6.47-17.5-14.79-23.27-25-4.45-7.88-7.43-16.27-9.3-25.1-.08-.37-.22-.74-.33-1.1Z"/><path class="cls-10" d="M126.45,51.65c-.12-1.13-.25-2.25-.37-3.38.79-1.05,1.82-.1,2.71-.31.55.18,1.1.39,1.66.53,7.19,1.76,14.07,4.31,20.56,7.92,4.54,2.53,8.87,5.36,12.69,8.84,3.9,3.55,7.61,7.32,10.75,11.62,5.44,7.46,9.45,15.59,12.06,24.43.76,2.57,1.52,5.13,2.28,7.69,0,.54,0,1.08,0,1.62-1.25.02-2.51.05-3.76.07-1.25-.13-2.5-.27-3.75-.39-6.26-.61-12.22-2.34-17.93-4.94-14.01-6.39-24.38-16.53-31.06-30.38-2.91-6.02-4.9-12.33-5.49-19.03-.11-1.44-.22-2.87-.33-4.31Z"/><path class="cls-4" d="M580.52,304.49c3.94,1.92,7.99,3.65,11.8,5.8,5.53,3.11,10.41,7.15,14.81,11.72,6.39,6.63,11.33,14.24,14.94,22.73,2.3,5.43,4.12,10.99,5.34,16.75.11.53.12,1.09.17,1.63-1.54.01-3.08.03-4.62.04-2.04-.3-4.09-.55-6.13-.89-5.98-1.01-11.65-2.99-17.1-5.62-10.76-5.51-19.34-13.37-25.65-23.7-.2-.32-.34-.67-.5-1.01.77-1.78,1.77-3.5,2.26-5.35,1.16-4.38,2.13-8.81,3.07-13.25.62-2.93,1.07-5.9,1.6-8.85Z"/><path class="cls-5" d="M188.79,109c-.76-2.56-1.53-5.13-2.28-7.69-2.6-8.84-6.62-16.97-12.06-24.43-3.14-4.3-6.85-8.07-10.75-11.62-3.82-3.48-8.15-6.31-12.69-8.84-6.49-3.61-13.36-6.17-20.56-7.92-.56-.14-1.11-.35-1.66-.53,6.23-.02,12.45-.04,18.68-.06.66,0,1.32.04,1.98.04,19.47.02,38.93.04,58.4.06.5,0,.99.03,1.49.04-2.76,4.63-5.76,9.15-8.24,13.93-5.32,10.28-8.99,21.15-10.67,32.63-.6,4.12-.9,8.29-1.34,12.44-.07.65-.19,1.3-.29,1.95Z"/><path class="cls-4" d="M404.86,49.06c-.08,7.24-2.58,13.45-7.62,18.72-6.1,6.37-13.61,8.98-22.21,8.33-5.28-.4-10.08-2.39-14.31-5.75-5.52-4.38-8.73-10.07-10.06-16.88-.3-1.51-.13-3.11-.18-4.67,6.55,0,13.11,0,19.66.01,2.98,0,5.95.06,8.93.06,6.89,0,13.78,0,20.67.01,1.7,0,3.41.1,5.11.16Z"/><path class="cls-12" d="M60.87,299.19c-.24.1-.49.29-.73.29-7.8.08-15.19,1.97-22.32,5-5.13,2.18-9.83,5.09-14.22,8.55-5.8,4.57-10.52,10.08-14.45,16.3-.17.27-.45.46-.68.68-3.13-5-5.3-10.43-6.49-16.15-.93-4.51-1.23-9.15-1.8-13.73-.05-.37,0-.75,0-1.26,18.75,0,37.38,0,56.01,0l4.68.32Z"/><path class="cls-6" d="M580.52,304.49c-.53,2.95-.98,5.92-1.6,8.85-.94,4.43-1.91,8.87-3.07,13.25-.49,1.85-1.49,3.57-2.26,5.35-2.38-3.61-3.95-7.59-5.33-11.66-1.69-5.01-2.76-10.15-3.03-15.44v-4.28h3.34c.13,0,.26,0,.39.01.31,0,.61,0,.92,0,.65.31,1.28.68,1.95.92,2.89,1.02,5.8,2.01,8.7,3.01Z"/><path class="cls-11" d="M250.82,228.62c.19,1.64.38,3.27.57,4.91-.01,1.39-.03,2.78-.04,4.17-.11,1.51-.21,3.01-.32,4.52-.08.2-.22.39-.24.59-.32,5.16-1.6,10.1-3.29,14.96-.66,1.66-1.33,3.31-1.99,4.97-.69,1.42-1.37,2.84-2.06,4.27-.97,1.56-1.94,3.13-2.92,4.69-.7,1.04-1.4,2.08-2.1,3.11-.54.6-1.07,1.21-1.61,1.81-.65.79-1.31,1.57-1.96,2.36-.77.8-1.54,1.59-2.31,2.39-1.56,1.4-3.12,2.8-4.68,4.19-1.87,1.34-3.74,2.68-5.62,4.02-1.99,1.11-3.98,2.23-5.97,3.34-4.35,1.54-8.64,3.31-13.07,4.54-3.59.99-7.36,1.32-11.05,1.94-2.67.02-5.35.04-8.02.05-2.05-.33-4.11-.62-6.15-1.01-19.79-3.75-34.72-14.36-44.59-31.91-4.24-7.54-6.69-15.69-7.3-24.35l-.3-2.31c0-2.65,0-5.29,0-7.94.1-.45.19-.91.29-1.36.27-2.12.4-4.28.83-6.37,3.07-14.64,10.3-26.83,21.91-36.3,10.64-8.67,22.86-13.42,36.63-14l5.92-.32c.34.11.67.29,1.01.33,3.05.42,6.12.71,9.15,1.24,5.01.87,9.71,2.76,14.36,4.76,2.67,1.54,5.33,3.09,8,4.63,2.08,1.61,4.16,3.22,6.24,4.82,1.79,1.81,3.58,3.61,5.36,5.42,1.32,1.67,2.64,3.34,3.96,5.01,1.88,3.09,3.76,6.19,5.64,9.28.77,1.78,1.54,3.55,2.31,5.33.84,3.06,1.72,6.11,2.49,9.19.41,1.64.61,3.33.9,5ZM228.07,239.53c.03-.95.05-1.89.08-2.84-.08-1.47-.16-2.95-.25-4.42-.28-4.22-1.46-8.22-3.22-12.02-2.52-5.45-6.04-10.14-10.69-14.06-7.2-6.07-15.54-8.97-24.79-9.35-3.83-.16-7.62.49-11.36,1.52-8.02,2.23-14.68,6.61-19.89,12.96-5.97,7.27-9.24,15.66-8.93,25.23.22,2.72.18,5.49.71,8.15,2,9.92,7.26,17.95,15.36,23.85,8.92,6.49,19,9.03,30.03,7.09,5.04-.89,9.77-2.63,14.06-5.41,3.04-1.97,6.14-3.95,8.42-6.87,6.22-6.61,9.74-14.4,10.3-23.49.06-.12.11-.23.17-.35Z"/><path class="cls-2" d="M565.69,111.6c1.08,0,2.16.01,3.23.02,7.82,0,15.64-.01,23.46-.02,2.38.04,4.76.07,7.14.11.49.06.98.17,1.46.17,9.09,0,18.19-.02,27.28-.03.09.06.19.11.29.15-.08,2.48-.23,4.95-.24,7.43-.04,5.96-.02,11.92,0,17.89,0,2.04.07,4.08.1,6.12-.05,2.63-.14,5.27-.15,7.9-.02,7.75-.01,15.5-.02,23.25l.04.05c-1.47-.08-2.94-.09-4.4-.25-2.86-.32-5.71-.71-8.56-1.08-3.32-.99-6.63-1.98-9.95-2.97-3.73-1.91-7.47-3.82-11.2-5.73-.92-.66-1.84-1.31-2.75-1.99-10.44-7.72-17.9-17.65-22.26-29.89-1.86-5.21-2.93-10.58-3.48-16.07-.04-.9-.08-1.81-.12-2.71,0-.57,0-1.14,0-1.71.04-.22.09-.43.13-.65Z"/><path class="cls-7" d="M565.27,237.53c.08-1.8.16-3.6.24-5.4.14-1.2.25-2.4.41-3.6,1.19-8.62,4.18-16.59,8.74-23.98,4.4-7.12,10.13-13.01,16.8-18.02,4.08-2.25,8.16-4.51,12.24-6.76,3.76-1.19,7.52-2.37,11.28-3.56,4.43-.45,8.86-.89,13.29-1.34,3.89.38,7.83.45,11.65,1.2,14.87,2.91,27.17,10.27,36.79,21.98,7.54,9.19,12.06,19.73,13.59,31.53.19,2.05.38,4.1.58,6.15-.09.72-.19,1.43-.28,2.15-4.76-.02-9.51-.05-14.27-.07-.33-3.27-.43-6.58-1.03-9.79-2.08-11.21-7.85-20.38-16.51-27.59-7.19-5.99-15.53-9.66-24.96-10.64-5.45-.57-10.86-.5-16.22.71-11.86,2.69-21.43,8.98-28.65,18.71-6.22,8.38-9.02,17.98-9.41,28.34-4.75,0-9.51,0-14.26,0Z"/><path class="cls-10" d="M565.56,112.25c0,.57,0,1.14,0,1.71-.75,2.79-1.44,5.6-2.26,8.38-1.5,5.09-3.7,9.88-6.23,14.54-2.5,4.61-5.43,8.96-8.95,12.8-3,3.28-6.35,6.26-9.73,9.16-4.11,3.52-8.77,6.27-13.63,8.64-6.5,3.17-13.34,5.4-20.37,7.02-.36.08-.76.01-1.44.01v-5.22c.09-1,.19-1.99.28-2.99.24-1.35.45-2.71.72-4.06,5.12-26.01,27.01-46.39,53.37-49.69,1.19-.1,2.38-.2,3.57-.31,1.56,0,3.12,0,4.68.01Z"/><path class="cls-10" d="M502.7,178.31c-.06.96-.11,1.92-.17,2.88-.48,2.57-.77,5.19-1.48,7.7-1.1,3.88-2.48,7.69-3.74,11.52-.89,1.75-1.78,3.5-2.66,5.25-1.1,1.67-2.19,3.35-3.29,5.02-1.56,1.99-3.12,3.98-4.67,5.97-1.44,1.48-2.88,2.96-4.32,4.44-1.88,1.5-3.75,3-5.63,4.5-1.66,1.07-3.31,2.13-4.96,3.2-2.21,1.14-4.42,2.29-6.63,3.43-.26.08-.53.13-.78.23-6.49,2.74-13.29,4.17-20.28,4.82-1.44-.03-2.88-.06-4.32-.09.07-.87.15-1.75.22-2.62.74-2.56,1.41-5.15,2.22-7.69,3.04-9.48,7.61-18.15,13.98-25.81,5.75-6.91,12.61-12.53,20.45-16.97,7.39-4.18,15.28-6.99,23.51-8.93.74-.17,1.49-.31,2.56-.54v3.68Z"/><path class="cls-8" d="M184.14,299.45c2.67-.02,5.35-.04,8.02-.05,4.06.65,8.16,1.13,12.19,1.98,4.91,1.04,9.44,3.2,13.93,5.39,2.74,1.78,5.48,3.57,8.22,5.35,2.86,2.66,5.72,5.32,8.59,7.97.29.4.56.82.88,1.19,6.24,7.28,10.59,15.56,12.96,24.84.76,2.98,1.21,6.03,1.81,9.05.04.77.08,1.54.13,2.3,0,.12.02.23.03.35.01.22.02.44.03.66-.03.22-.05.44-.08.66.08,1,.16,1.99.23,2.99l-.04-.06c-4.47.02-8.94.05-13.41.04-7.34,0-14.68-.04-22.02-.06-.1-.65-.27-1.29-.3-1.94-.4-7.54-3.53-13.73-9.22-18.64-5.71-4.92-12.2-7.31-19.86-6.6-4.2.39-8.1,1.39-11.69,3.55-8.82,5.31-13.27,13.17-13.59,23.42-11.79,0-23.58-.01-35.37-.02.04-1.55.08-3.09.12-4.64.04-.62.09-1.25.13-1.87,0,0-.01,0-.01,0,.14-1.2.23-2.42.44-3.61,2.76-15.66,10.23-28.61,22.6-38.61,10.27-8.3,22.05-12.92,35.29-13.68Z"/><path class="cls-12" d="M100.29,349.52c-4.34,2.91-8.77,5.69-13.68,7.55-2.46.93-5,1.63-7.5,2.44-.45-1.39-.82-2.81-1.37-4.15-2.99-7.33-10.98-11.39-18.36-9.63-7.22,1.72-11.54,6.43-12.81,13.82-7.75-2.01-14.78-5.5-21.19-10.27,1.38-4.66,3.86-8.7,6.91-12.46,2.49-3.07,5.37-5.68,8.67-7.79,5.93-3.79,12.33-6.06,19.48-6.4,7.44-.35,14.38,1.04,20.93,4.53,6.52,3.47,11.72,8.37,15.4,14.76,1.39,2.41,2.36,5.06,3.52,7.6Z"/><path class="cls-12" d="M69.86,298.91c.43.02.87.03,1.3.05,1.42.04,2.85.07,4.27.11,5.31,0,10.62-.01,15.93-.02.21-.01.43-.02.64-.04,2.87,0,5.74,0,8.61,0,2.54.03,5.08.05,7.62.08,1.77,0,3.54,0,5.3.01,1.44,0,2.88,0,4.31,0,1.32,0,2.65,0,3.97,0,1.21.02,2.41.04,3.62.06.25,4.74-.27,9.42-1.49,13.97-1.08,4-2.55,7.89-3.85,11.83-.99,1.79-1.97,3.58-2.96,5.36-1.16-1.66-2.27-3.36-3.47-4.98-5.48-7.38-12.11-13.46-20.16-17.99-6.15-3.47-12.72-5.72-19.61-7.06-2.41-.47-4.9-.53-7.35-.8-.58-.06-1.15-.2-1.73-.31,1.68-.09,3.36-.19,5.03-.28Z"/><path class="cls-5" d="M191.38,173.59l-5.92.32c-.44-.12-.87-.35-1.31-.35-6.94-.07-13.88-.13-20.82-.16-12.4-.05-24.79-.08-37.19-.12,0-2.23.02-4.47.02-6.7.53-2.75.88-5.55,1.63-8.23,6.81-24.42,22.52-39.84,47.12-46.07,3.29-.83,6.73-1.07,10.1-1.58,1.25-.02,2.51-.05,3.76-.07.1.47.2.94.3,1.41.02.27.01.56.08.82,1.98,8.1,4.64,15.93,8.69,23.26,4.66,8.44,10.69,15.7,18.17,21.78,7.08,5.75,14.99,10.03,23.63,12.91,3.21,1.07,6.53,1.84,9.8,2.75-1.66.04-3.33.07-4.99.11-1.66,0-3.32.02-4.97.02-2.1-.01-4.19-.03-6.29-.04-2.43,0-4.86,0-7.29,0-2.98,0-5.96,0-8.95,0-8.52-.02-17.05-.04-25.57-.06Z"/><path class="cls-10" d="M249.44,173.56c-3.27-.91-6.58-1.67-9.8-2.75-8.64-2.89-16.55-7.16-23.63-12.91-7.47-6.07-13.5-13.34-18.17-21.78-4.05-7.34-6.72-15.16-8.69-23.26-.06-.26-.05-.55-.08-.82,2.1-.36,4.2-.71,6.31-1.07,4.33.95,8.71,1.69,12.97,2.9,6.11,1.74,11.59,4.88,16.86,8.39,2.2,1.82,4.39,3.63,6.59,5.45,1.91,2.04,3.81,4.09,5.72,6.13,1.3,1.78,2.6,3.56,3.9,5.34,1.3,2.32,2.6,4.63,3.9,6.95.92,2.23,1.84,4.45,2.76,6.68.45,1.58,1.02,3.14,1.33,4.75.72,3.76,1.32,7.54,1.97,11.31-.03,1.57-.05,3.14-.08,4.7-.62,0-1.24,0-1.86.01Z"/><path class="cls-2" d="M363.67,337.89c-3.08,3.19-6.13,6.41-9.26,9.55-1.12,1.12-2.43,2.03-3.66,3.04-1.43.91-2.85,1.85-4.3,2.74-7.52,4.61-15.71,7.38-24.42,8.65-2.05.16-4.1.33-6.15.49-.73,0-1.47-.01-2.2-.02-.01-9.27-.02-18.55-.04-27.82-.04-2.5-.08-5-.12-7.5.07-.6.19-1.2.19-1.8.03-7.97.06-15.95.06-23.92,0-.51-.21-1.01-.32-1.52.11-.1.22-.19.32-.29,3.85,0,7.69-.01,11.54-.02,6.63.01,13.26.03,19.88.04.66.02,1.32.04,1.98.05,9.78.09,19.55.17,29.33.26-.23,3-.3,6.02-.75,8.98-.48,3.23-1.32,6.4-2,9.6-1.35,3.31-2.69,6.62-4.04,9.93-2.02,3.19-4.04,6.38-6.06,9.56Z"/><path class="cls-3" d="M313.53,327.02c.04,2.5.08,5,.12,7.5-.42,1.87-.66,3.8-1.28,5.61-4.15,12.12-12.49,19.46-25.16,21.74-3.2,0-6.4,0-9.6,0-.54-.08-1.09-.13-1.63-.25-12.92-2.8-22.13-12.4-24.63-25.65l-.22-1.03c-.03-.44-.06-.88-.09-1.32.05-.11.04-.21-.01-.31-.02-.22-.04-.45-.05-.67.04-1.77.07-3.54.11-5.31.1-.56.19-1.13.29-1.69,2.5-14.3,14.3-25.25,29.19-26.1,16.64-.94,30.83,10.94,32.97,27.47Z"/><path class="cls-4" d="M160.95,361.87c.32-10.25,4.77-18.11,13.59-23.42,3.59-2.16,7.49-3.16,11.69-3.55,7.66-.72,14.16,1.67,19.86,6.6,5.69,4.91,8.82,11.1,9.22,18.64.03.65.2,1.3.3,1.94-8.82.01-17.63.04-26.45.04-8.87,0-17.74-.03-26.61-.06-.54,0-1.07-.12-1.6-.18Z"/><path class="cls-2" d="M376.96,296.88c.11-1.09.21-2.17.32-3.26,2.99-23.86,15.42-40.9,37.13-51.11,7.99-3.76,16.53-5.29,25.34-5.34,1.44.03,2.88.06,4.32.09,1.19.15,2.38.3,3.57.44,6.2.76,12.13,2.52,17.86,4.97,2.08,1.07,4.16,2.14,6.24,3.2,1.66,1.1,3.32,2.2,4.98,3.3,1.89,1.56,3.78,3.12,5.67,4.68,1.47,1.51,2.93,3.02,4.4,4.53,1.74,2.25,3.48,4.49,5.22,6.74,1.22,2.08,2.44,4.16,3.66,6.24.8,1.86,1.61,3.72,2.41,5.57,1.03,3.56,2.17,7.1,3.07,10.7.56,2.26.77,4.62,1.14,6.93-.01,3.73-.03,7.46-.04,11.2-.15.91-.25,1.82-.45,2.72-.82,3.74-1.67,7.47-2.51,11.21-1.3,3.1-2.6,6.2-3.91,9.3-1.57,2.53-3.14,5.07-4.71,7.6-1.32,1.67-2.63,3.33-3.95,5-3.01,2.79-6.02,5.58-9.03,8.38-.82.56-1.64,1.11-2.45,1.67-8.25,5.69-17.39,9.1-27.28,10.54-2.05.17-4.1.33-6.15.5-1.44,0-2.87,0-4.31,0-2.24-.2-4.51-.27-6.73-.63-19.91-3.21-35.09-13.45-45.46-30.76-4.59-7.66-7.21-15.98-8.05-24.86l-.11-1.05c-.07-2.84-.14-5.69-.2-8.53ZM439.75,275.26c-13.61-.04-24.79,11.09-24.81,24.71-.02,13.32,11.16,24.64,24.36,24.68,13.86.04,25.05-10.9,25.11-24.57.06-13.64-11.01-24.79-24.66-24.83Z"/><path class="cls-12" d="M565,297.02c.49-3.2.83-6.43,1.5-9.6,2.88-13.61,9.63-24.99,20.02-34.22.37-.33.71-.68,1.07-1.03,3.16-2.16,6.32-4.33,9.48-6.49,2.99-1.39,5.98-2.79,8.97-4.18.27-.04.54-.06.81-.13,3.92-.97,7.81-2.1,11.77-2.86,2.88-.55,5.85-.61,8.78-.88,1.15-.03,2.31-.12,3.46-.08,1.23.04,2.46.2,3.69.31,1.56.27,3.13.52,4.69.81,13.29,2.52,24.67,8.6,34,18.4,9.99,10.49,15.73,22.97,17.07,37.42.08,2.09.15,4.19.23,6.28-20.84-.1-41.68-.21-62.52-.28-11.42-.04-22.84,0-34.26,0-.66,0-1.32-.04-1.98-.06-.58-.09-1.16-.25-1.74-.25-7.49-.02-14.98-.01-22.48-.01-.77,0-1.53,0-2.55,0v-3.15Z"/><path class="cls-3" d="M314.05,205.41c-.01,9.84-.03,19.67-.04,29.51-.09.53-.27,1.05-.25,1.57.05,1.26.28,2.51.29,3.76.03,9.26.02,18.52.02,27.78-.09.78-.19,1.56-.28,2.33-.05-.6-.09-1.19-.13-1.66-2.88-.56-5.74-.86-8.43-1.69-11.78-3.63-19.1-11.57-21.94-23.52-1.67-7.05-.76-13.95,2.46-20.39,4.59-9.17,12.05-14.85,22.1-16.99,2.03-.43,4.14-.48,6.21-.7Z"/><path class="cls-6" d="M313.78,270.36c.09-.78.19-1.56.28-2.33.79.09,1.58.19,2.36.28,4.59.39,8.88,1.76,12.88,4.03-.22,1.95-.4,3.9-.67,5.84-.48,3.5-.99,7.01-1.53,10.5-.56,3.6-1.19,7.2-1.79,10.79-3.85,0-7.69.01-11.54.02,0-9.71,0-19.42,0-29.13Z"/><path class="cls-11" d="M437.51,362.7c1.44,0,2.87,0,4.31,0,6.67-.02,13.34-.04,20.01-.05,6.97.01,13.94.03,20.91.04,1.66.05,3.33.1,4.99.15.11,11.71-3.79,21.96-11.24,30.92-7.24,8.72-16.52,14.17-27.55,16.31-9.92,1.92-19.67.98-29.02-3.23-5.7-2.57-10.79-5.96-15.08-10.47-6.72-7.05-11.2-15.33-12.85-24.98-.5-2.9-.5-5.9-.73-8.85.66-.02,1.32-.06,1.98-.06,14.76.07,29.52.15,44.27.22Z"/><path class="cls-11" d="M125.85,159.34c-11.48-.12-21.68-3.86-30.53-11.12-8.46-6.94-13.83-15.86-16.32-26.49-1.17-5-1.47-10.04-.98-15.2.8-8.42,3.57-16.06,8.34-22.98,6.03-8.74,14.13-14.86,24.18-18.31,3.79-1.3,7.69-2.23,11.74-2.34,1.31-.03,2.62-.18,3.94-.27,0,3.86-.02,7.71-.02,11.57-.02,20.44-.03,40.89-.05,61.33,0,.55-.04,1.1-.06,1.65-.08.47-.23.94-.23,1.41-.01,6.92,0,13.83,0,20.75Z"/><path class="cls-12" d="M126.78,55.96c-.14-.01-.27-.02-.41-.04.03-1.42.05-2.85.08-4.27.11,1.44.22,2.87.33,4.31Z"/><path class="cls-9" d="M329.31,272.34c-4.01-2.26-8.29-3.64-12.88-4.03.21-2,.45-4,.61-6.01.36-4.35.75-8.7.98-13.06.22-4.05.24-8.11.35-12.16,2.25.27,4.53.36,6.73.85,3.75.84,7.45,1.94,11.17,2.93,3.54,1.76,7.08,3.52,10.61,5.27,2.43,1.77,4.87,3.55,7.3,5.32,1.75,1.66,3.51,3.32,5.26,4.98,1.51,1.76,3.01,3.51,4.52,5.27,1.12,1.63,2.25,3.27,3.37,4.9,1.26,2.35,2.51,4.7,3.77,7.05,1.36,4.22,2.91,8.39,4,12.68.77,3.01.9,6.17,1.32,9.27.06.42.18.84.27,1.26-.06.98-.12,1.97-.17,2.95-9.78-.08-19.55-.17-29.33-.26-.66,0-1.32-.03-1.98-.05-.39-11.93-5.61-21.04-15.9-27.18Z"/><path class="cls-4" d="M318.37,237.08c-.11,4.05-.13,8.11-.35,12.16-.23,4.36-.63,8.71-.98,13.06-.16,2.01-.4,4.01-.61,6.01-.79-.09-1.58-.19-2.36-.28,0-9.26,0-18.52-.02-27.78,0-1.25-.24-2.51-.29-3.76-.02-.52.16-1.05.25-1.57.03.59.05,1.18.08,1.85,1.42.1,2.85.21,4.28.31Z"/><path class="cls-1" d="M149.01,236.56c-.31-9.57,2.97-17.96,8.93-25.23,5.21-6.35,11.87-10.73,19.89-12.96,3.74-1.04,7.54-1.68,11.36-1.52,9.25.38,17.59,3.28,24.79,9.35,4.64,3.92,8.16,8.61,10.69,14.06,1.76,3.8,2.94,7.8,3.22,12.02.1,1.47.17,2.95.25,4.42-4.19.02-8.37.04-12.56.06-1.19-.02-2.39-.04-3.58-.06-1,0-2.01-.02-3.01-.03-1.32,0-2.63-.02-3.95-.03-.09.09-.17.19-.26.28-.61,8.61-6.55,14.36-14.73,15.5-4.31.6-8.35-.68-11.71-3.4-3.88-3.14-6.02-7.33-6.19-12.46h-23.13Z"/><path class="cls-11" d="M634.54,237.87c-1.23-.11-2.46-.27-3.69-.31-1.15-.04-2.31.05-3.46.08-5.38-.02-10.76-.05-16.14-.05-1.86,0-3.72.07-5.59.11-2.31,0-4.62-.02-6.92-.02-.89-.01-1.79-.02-2.68-.03-3.19,0-6.38,0-9.58.01-2.31-.04-4.63-.08-6.94-.11.39-10.36,3.19-19.96,9.41-28.34,7.22-9.73,16.79-16.02,28.65-18.71,5.36-1.21,10.76-1.28,16.22-.71,9.43.98,17.77,4.65,24.96,10.64,8.66,7.22,14.43,16.38,16.51,27.59.6,3.22.7,6.53,1.03,9.79-.6.02-1.21.05-1.81.05-13.32,0-26.64,0-39.96,0Z"/><path class="cls-5" d="M46.57,359.55c1.27-7.39,5.59-12.1,12.81-13.82,7.38-1.76,15.37,2.31,18.36,9.63.55,1.35.92,2.77,1.37,4.15-.06,1.32-.03,2.64-.19,3.95-.79,6.19-4.1,10.55-9.72,13.2-.25.12-.48.26-.72.39-1.99.33-3.98.67-5.97,1-7.91-.75-13.47-4.92-15.33-11.83-.57-2.13-.43-4.44-.61-6.67Z"/><path class="cls-11" d="M368.74,188.56c-1.2-.93-2.4-1.86-3.6-2.78-1.23-1.96-2.46-3.92-3.69-5.88-1.09-4.08-1.29-8.13.55-12.06.72-1.53,1.63-2.97,2.46-4.46.72-.55,1.4-1.14,2.15-1.64,1.12-.75,2.29-1.44,3.44-2.15,2.32-.94,4.72-1.53,7.25-1.48,1.02.11,2.05.14,3.05.34,6.16,1.21,11.43,6.63,12.54,12.86,1.61,8.98-4.03,17.27-12.98,19.06-.81.16-1.64.17-2.47.24-1.47-.13-2.93-.27-4.4-.4-1.44-.55-2.87-1.1-4.31-1.65Z"/><path class="cls-4" d="M329.31,272.34c10.29,6.14,15.5,15.25,15.9,27.18-6.63-.01-13.26-.03-19.88-.04.6-3.6,1.22-7.19,1.79-10.79.55-3.49,1.05-7,1.53-10.5.27-1.94.45-3.89.67-5.84Z"/></g></svg>