<?xml version="1.0" encoding="UTF-8"?><svg id="_圖層_2" xmlns="http://www.w3.org/2000/svg" xmlns:xlink="http://www.w3.org/1999/xlink" viewBox="0 0 49.05 13.07"><defs><style>.cls-1{filter:url(#drop-shadow-1);}.cls-2{fill:#fff;}</style><filter id="drop-shadow-1" x="0" y="0" width="49.05" height="13.07" filterUnits="userSpaceOnUse"><feOffset dx="0" dy="0"/><feGaussianBlur result="blur" stdDeviation="3"/><feFlood flood-color="#000" flood-opacity="1"/><feComposite in2="blur" operator="in"/><feComposite in="SourceGraphic"/></filter></defs><g id="_字_x2B_按鈕"><g class="cls-1"><path class="cls-2" d="M12.73,4.05v.81h-2.37l-.11,1.23H2.08l.17-1.23H0v-.81h2.35l.16-1.19h8.03l-.1,1.19h2.29ZM7.84,11.09c1.63.41,3.33.92,4.4,1.3l-.69.68c-1.01-.38-2.66-.93-4.3-1.37l.52-.61h-3.12l.84.55c-1.16.62-3.07,1.16-4.63,1.42-.11-.2-.38-.54-.57-.74,1.5-.23,3.4-.74,4.3-1.23H1.9v-4.4h8.98v4.4h-3.03ZM1.43,3.58H.47V1.33h5.45c-.17-.35-.41-.74-.62-1.05l.89-.28c.33.38.64.91.84,1.33h5.24v2.25h-1v-1.39H1.43v1.39ZM2.92,7.94h6.91v-.64H2.92v.64ZM2.92,9.19h6.91v-.65H2.92v.65ZM2.92,10.46h6.91v-.67H2.92v.67ZM3.13,5.47h2.65c.03-.23.06-.45.08-.69h-2.65l-.09.69ZM3.37,3.48l-.08.65h2.63l.04-.65h-2.59ZM9.33,5.47l.06-.69h-2.63c-.03.25-.06.47-.07.69h2.65ZM9.49,3.48h-2.63l-.06.65h2.63l.06-.65Z"/><path class="cls-2" d="M22.77,10.69c-.96.81-2.45,1.61-3.67,2.11-.16-.2-.54-.58-.75-.75,1.22-.41,2.62-1.06,3.46-1.73l.96.37ZM30.94,5.45v.86h-12.43v-.86h5.74c-.13-.23-.28-.45-.42-.64l.79-.27h-4.5V.62h9.27v3.92h-4.6c.21.27.42.61.58.91h5.58ZM25.28,9.94v2.08c0,.52-.13.75-.54.88-.4.14-1.05.14-2.05.14-.04-.27-.18-.59-.3-.85.72.03,1.4.03,1.6.03.2-.01.24-.07.24-.23v-2.05h-3.79v-2.89h8.68v2.89h-3.84ZM21.11,2.22h7.24v-.88h-7.24v.88ZM21.11,3.82h7.24v-.91h-7.24v.91ZM21.45,9.16h6.61v-1.33h-6.61v1.33ZM27.15,10.37c1.27.45,2.9,1.22,3.75,1.78l-.71.69c-.79-.57-2.42-1.37-3.71-1.87l.67-.61Z"/><path class="cls-2" d="M49.05.68v12.33h-1v-.55h-9.77v.55h-.98V.68h11.75ZM48.05,11.55V1.57h-9.77v9.98h9.77ZM47.43,5.07v.67h-8.48v-.67h3.72v-.64h-2.31v-2.19h5.59v2.19h-2.39v.64h3.87ZM39.91,6.34h6.5v4.46h-6.5v-4.46ZM40.73,10.14h4.81v-3.14h-4.81v3.14ZM41.24,3.79h3.81v-.93h-3.81v.93ZM41.63,7.6h3v1.93h-3v-1.93ZM42.29,8.98h1.67v-.82h-1.67v.82Z"/></g></g></svg>