<?xml version="1.0" encoding="UTF-8"?><svg id="_圖層_2" xmlns="http://www.w3.org/2000/svg" xmlns:xlink="http://www.w3.org/1999/xlink" viewBox="0 0 30 30"><defs><style>.cls-1{fill:none;}.cls-2{filter:url(#drop-shadow-1);}.cls-3{fill:#fff;}</style><filter id="drop-shadow-1" x="-1.19" y="-5.02" width="32" height="40" filterUnits="userSpaceOnUse"><feOffset dx="0" dy="0"/><feGaussianBlur result="blur" stdDeviation="2"/><feFlood flood-color="#000b5b" flood-opacity=".65"/><feComposite in2="blur" operator="in"/><feComposite in="SourceGraphic"/></filter></defs><g id="_飄移"><rect class="cls-1" width="30" height="30"/><g class="cls-2"><path class="cls-3" d="M22.78,15.98c.04-.07.09-.15.16-.25,0-.01.02-.02.02-.04.12-.22.3-.55.31-.56.73-1.42,1.1-2.96,1.1-4.56,0-.17,0-.34-.01-.51,0-.07,0-.15-.01-.22v-.15s-.01-.09-.02-.14c0-.06-.01-.12-.02-.18v-.13c-.02-.06-.03-.12-.03-.19,0-.05-.01-.1-.02-.14l-.02-.12c-.01-.07-.02-.14-.03-.21,0-.06-.02-.11-.03-.17l-.03-.15c-.01-.05-.02-.1-.03-.15-.02-.07-.04-.15-.05-.22l-.03-.12s-.02-.08-.03-.12c-.02-.08-.05-.16-.07-.23l-.03-.1s-.02-.08-.03-.11c-.03-.08-.05-.15-.08-.23l-.04-.1s-.03-.07-.04-.1c-.03-.08-.07-.17-.1-.25l-.04-.09s-.02-.05-.03-.08c-.05-.11-.1-.22-.16-.33l-.04-.08c-.06-.11-.11-.21-.18-.34l-.03-.05c-.06-.11-.13-.22-.21-.35,0,0-.02-.03-.02-.03-.07-.11-.15-.22-.23-.33,0,0-.02-.03-.02-.03-.08-.11-.17-.22-.25-.32,0,0-.02-.02-.02-.03-.09-.11-.18-.22-.28-.33-.1-.11-.2-.21-.3-.32,0,0,0,0,0,0-1.7-1.71-4.04-2.61-6.77-2.61-5.51,0-9.37,3.85-9.37,9.37,0,1.7.44,3.39,1.26,4.87l.14.26s.01.02.02.03l.24.36s.05.08.07.1l5.99,10.07h0l1.39,2.33c.07.13.21.2.36.2h0c.15,0,.28-.08.36-.21l1.35-2.33h0l5.84-10.06c.05-.08.09-.15.14-.22ZM20.25,10.68s-.01.1-.02.15l-.02.13c-.01.09-.02.17-.04.25-.01.06-.03.13-.05.19l-.03.14c-.01.06-.03.12-.05.18-.02.08-.05.16-.08.23l-.05.12s-.03.09-.05.13c-.04.1-.09.19-.13.28l-.04.08s-.03.06-.05.09c-.06.12-.13.23-.21.34-.03.05-.04.07-.06.09-.08.12-.17.24-.26.35-.02.02-.03.04-.04.05-.1.12-.21.24-.32.36-1,1.01-2.32,1.57-3.72,1.58-.02,0-.03,0-.05,0-2.92,0-5.3-2.38-5.3-5.3s2.38-5.3,5.3-5.3h.05c1.4.02,2.72.57,3.71,1.57l.02.02c.12.12.22.24.31.35.01.02.02.03.03.05.1.12.18.24.27.36.01.02.03.04.04.07.09.13.16.25.22.37.02.03.03.06.05.1l.02.04c.06.12.11.22.15.32.02.04.03.09.05.13l.04.12c.03.08.06.15.08.23.02.06.03.12.05.18l.03.13c.02.06.04.13.05.2.02.08.03.17.04.25l.02.13s.02.1.02.15c.02.18.03.36.03.54s0,.36-.03.54Z"/></g></g></svg>