<?xml version="1.0" encoding="UTF-8"?><svg id="_圖層_2" xmlns="http://www.w3.org/2000/svg" viewBox="0 0 1034 584.22"><defs><style>.cls-1{fill:#299591;}.cls-2{fill:#da2c7e;}.cls-3{fill:#193456;}.cls-4{fill:#101d30;}.cls-5{fill:#217bac;}.cls-6{fill:#050c1d;}.cls-7{fill:#01795a;}.cls-8{fill:#183354;}.cls-9{fill:#163050;}.cls-10{fill:#09548b;}.cls-11{fill:#258d80;}.cls-12{fill:#2b9899;}.cls-13{fill:#0d6358;}</style></defs><g id="_字_x2B_按鈕"><path class="cls-2" d="M956.83,174.66c35.34,4.98,60.12,23.95,71.83,57.57,11.14,31.96,4.4,61.35-18.26,86.61-12.96,14.45-29.48,22.89-48.56,26.25-3.71.65-7.51.8-11.27,1.18-5.86-.42-11.75-.66-17.58-1.31-6.85-.76-13.28-3.25-19.71-5.61-3.78-1.99-7.57-3.98-11.35-5.96-3.18-2.29-6.35-4.58-9.53-6.88-2.42-2.27-4.84-4.54-7.26-6.81-1.67-1.94-3.34-3.88-5.01-5.82-1.11-1.51-2.22-3.01-3.33-4.52-2.21-3.67-4.41-7.33-6.62-11-1-2.39-2-4.78-3-7.17-1.48-5.55-3.06-11.08-4.41-16.67-.66-2.73-.88-5.56-1.3-8.35,0-3.63,0-7.26,0-10.88.52-3.8.81-7.66,1.63-11.39,1.06-4.85,2.53-9.61,3.83-14.41,1.22-2.74,2.43-5.48,3.65-8.21,1.37-2.4,2.74-4.8,4.11-7.2.14-.2.28-.4.42-.6.12-.14.24-.28.36-.42,1.26-1.81,2.52-3.63,3.78-5.44,1.67-1.97,3.33-3.93,5-5.9,1.97-1.94,3.93-3.88,5.9-5.83,2.92-2.28,5.83-4.55,8.75-6.83,3.28-1.93,6.57-3.85,9.85-5.78,4.04-1.62,7.98-3.62,12.15-4.78,5.98-1.66,12.13-2.7,18.21-4.01,5.91.06,11.82.13,17.72.19ZM913.66,260.29c-.25,16.55,12.95,33.74,33.78,33.8,19.68.06,33.89-15.77,33.94-33.94.04-18.49-15.32-33.84-33.84-33.9-18.63-.06-33.87,15.25-33.87,34.03Z"/><path class="cls-5" d="M430.65,351.8c-.02,10.88-.04,21.75-.06,32.63,0,.3-.09.59-.14.89-.1.8-.28,1.61-.28,2.41-.02,13.35-.01,26.71-.01,40.06,0,.88,0,1.76,0,3.02-3.01-.17-5.68-.32-8.35-.47-7.39-.45-14.46-2.34-21.38-4.85-7.59-2.75-14.5-6.77-21.12-11.34-3.33-2.88-6.67-5.77-10-8.65-1.35-1.47-2.69-2.93-4.04-4.4-1.23-1.53-2.46-3.07-3.69-4.6-1.53-2.25-3.05-4.5-4.58-6.75-1.24-2.26-2.47-4.51-3.71-6.77-1.25-3.03-2.5-6.05-3.75-9.08-1.02-3.76-2.17-7.5-3.03-11.3-.76-3.34-1.18-6.76-1.76-10.15-.16-.12-.32-.25-.47-.37,0-2.38,0-4.76,0-7.16-.94,0-1.48-.1-1.98.01-9.65,2.22-19.03,5.28-27.94,9.63-6.66,3.25-13.05,7.02-18.68,11.85-4.64,3.97-9.23,8.06-13.34,12.56-4.83,5.28-8.85,11.24-12.28,17.56-3.46,6.38-6.48,12.96-8.54,19.93-1.12,3.8-2.07,7.66-3.09,11.49-.05-1.24-.11-2.48-.16-3.72.13-30.4.29-60.81.39-91.21.07-21.25.08-42.51.09-63.76,0-1.13-.17-2.25-.26-3.38.11-2.47.22-4.93.33-7.4,6.69-.12,13.3.58,19.75,2.29,31.29,8.27,52.05,27.83,62.31,58.5,2.21,6.61,3.12,13.51,3.74,20.43,0,1.62,0,3.25,0,5.05,1.47-.31,2.5-.5,3.51-.73,11.29-2.66,22.1-6.51,32.24-12.24,10.76-6.09,20.17-13.8,28.05-23.28,8.73-10.5,15-22.4,19.17-35.4,1.12-3.48,2.04-7.03,3.05-10.54.04.9.12,1.8.12,2.71-.02,24.03-.04,48.05-.07,72.08-.01,4.82-.02,9.64-.03,14.46Z"/><path class="cls-5" d="M862,80.96c1.33-6.58,1.93-13.41,4.11-19.69,10.71-30.95,32.05-50.78,64.14-57.65,29.78-6.37,56.14,1.67,78.08,22.76,14.32,13.76,22.57,30.87,24.99,50.66,2.28,18.67-1.17,36.25-10.27,52.73-.32.57-.44,1.25-.65,1.88-.31.31-.7.57-.93.94-5.39,8.53-11.86,16.08-19.82,22.35-6.02,4.74-12.46,8.73-19.5,11.72-9.77,4.16-19.91,6.75-30.6,6.86-.34,0-.67.26-1.01.4-1.81,0-3.62,0-5.43,0-.79-.14-1.57-.33-2.37-.42-3.36-.37-6.77-.45-10.08-1.1-9.45-1.84-18.45-4.93-26.89-9.68-11.04-6.22-20.13-14.55-27.64-24.68-1.65-2.23-3.18-4.55-4.77-6.83-.23-.62-.4-1.28-.71-1.86-3.42-6.22-6.09-12.76-7.84-19.63-1.03-4.06-1.72-8.21-2.57-12.33-.26-.16-.51-.32-.77-.48h-.01c1.19-.67,1.25-1.63.18-2.56.05-2.12.11-4.24.16-6.36.07-2.35.14-4.69.21-7.04ZM896.46,104.9c1.59,3.49,2.93,7.12,4.83,10.43,5.05,8.77,12.18,15.48,21.12,20.24,8.97,4.79,18.49,6.69,28.7,6.21,9.81-.47,18.58-3.59,26.71-8.78,4.53-2.89,8.49-6.47,11.9-10.68,4.17-5.15,7.58-10.69,9.47-17.08.16-.33.37-.64.48-.99,2.52-7.83,3.26-15.83,2.14-23.97-3.91-28.3-29.04-48.82-57.51-46.81-17.75,1.25-31.78,9.43-41.6,24.16-9.73,14.6-11.65,30.52-6.24,47.26Z"/><path class="cls-11" d="M430.65,351.8c.01-4.82.02-9.64.03-14.46.58-3.41,1.08-6.84,1.75-10.23,7.48-37.45,41.35-66.34,79.49-67.85,4.26.01,8.51.03,12.77.04,1.21.16,2.42.32,3.63.48,1.37.26,2.74.53,4.11.79,1.21.19,2.41.38,3.62.57,1.67.45,3.34.9,5,1.35,2.43.86,4.86,1.72,7.3,2.58,3.16,1.44,6.33,2.89,9.49,4.33.77.41,1.58.76,2.29,1.25,3.94,2.76,7.85,5.56,11.77,8.35,2.81,2.75,5.78,5.35,8.4,8.26,13.69,15.23,21.15,33.08,22.21,53.56.14,2.79.13,5.59.19,8.38-.79,5.3-1.17,10.7-2.44,15.88-5.79,23.66-19.33,41.71-40.17,54.3-.45.27-.88.59-1.32.88-6.93,3.55-14.01,6.74-21.66,8.36-4.85,1.02-9.79,1.65-14.69,2.46-4.56.12-9.12.23-13.68.35-.21-.23-.39-.66-.62-.68-9.18-.85-18.05-3.05-26.38-6.96-27.26-12.78-44-33.92-49.82-63.54-.55-2.79-.85-5.64-1.27-8.46ZM532.43,293.09c-1.97-.47-3.94-.93-5.92-1.4-3.32-.31-6.65-.63-9.97-.94-3.01.27-6.04.37-9.02.85-23.86,3.8-42.92,23.95-44.97,48.04-1.68,19.65,5.23,35.97,20.72,48.3,9.64,7.68,20.77,11.6,33.21,11.36,2.29-.12,4.57-.24,6.86-.36,3.48-.79,6.96-1.58,10.44-2.37,4.62-1.33,8.86-3.42,12.76-6.23.14-.08.29-.16.43-.24.14-.11.27-.23.41-.34,1.29-.9,2.68-1.68,3.85-2.71,15.67-13.83,22.27-31.05,18.84-51.77-1.42-8.58-4.76-16.45-10.42-23.21-2.41-2.58-4.82-5.16-7.23-7.74-2.73-1.98-5.45-3.95-8.18-5.93-2.12-1.08-4.24-2.15-6.36-3.23-1.82-.7-3.63-1.4-5.45-2.1Z"/><path class="cls-13" d="M746.93,518.32c-5.88,6.9-11.32,14.25-17.72,20.63-23.34,23.27-51.37,37.76-83.95,43.04-8.11,1.31-16.4,1.51-24.6,2.2-.74.06-1.49,0-2.7,0,.69-3.55,1.23-6.87,1.99-10.14,5.44-23.46,15.07-45.07,28.68-64.92.25-.37.43-.79.65-1.18.47-.58.97-1.15,1.41-1.75,6.47-8.89,13.45-17.36,21.58-24.79,5.41-4.95,11.08-9.62,16.63-14.41.13-.13.25-.25.38-.38,6.82-4.39,13.64-8.79,20.46-13.18,2.88-1.45,5.73-2.98,8.66-4.34,12.02-5.6,24.04-11.22,36.97-14.5,3.55-.9,7.12-1.71,10.69-2.55,2.88-.49,5.77-.98,8.65-1.47.14.64.27,1.29.41,1.93,0,.74,0,1.48,0,2.23-.14.89-.31,1.78-.4,2.67-.61,5.69-1.01,11.4-1.84,17.05-2.31,15.74-7.34,30.66-14.64,44.75-3.39,6.56-7.51,12.75-11.3,19.1Z"/><path class="cls-12" d="M421.8,430.34c2.67.15,5.35.3,8.35.47,0-1.26,0-2.14,0-3.02,0-13.35,0-26.71.01-40.06,0-.8.19-1.61.28-2.41-.04,15.43-.12,30.87-.11,46.3,0,11.98-2.36,23.49-7.49,34.28-13.29,27.96-35.17,45.12-65.87,49.7-29.85,4.45-55.44-4.91-76.11-26.88-12.89-13.7-20.01-30.24-22.16-48.92-.16-2.88-.32-5.75-.47-8.63.06-.3.12-.59.18-.89,2.14,0,4.28,0,6.41.01,1.62,0,3.24,0,4.87-.01.9.04,1.81.11,2.71.11,11.1,0,22.2,0,33.3.02,12.83.03,25.67.08,38.5.12.16,0,.32.01.48.02,2.28.02,4.56.03,6.84.05,2.43,0,4.85,0,7.28,0,5.45,0,10.9,0,16.36,0,14.82.06,29.64.12,44.46.15.73,0,1.45-.27,2.18-.41Z"/><path class="cls-12" d="M951.79,346.76c5.44.86,11.02,1.18,16.29,2.66,34.05,9.57,55.77,31.62,63.17,66.16,9.44,44.02-16.74,86.81-59.83,99.78-6.98,2.1-14.14,3.19-21.42,3.47-.96.04-1.93,0-3.06,0-.03-.7-.08-1.2-.08-1.71.03-24.52.07-49.04.08-73.56,0-.65-.26-1.29-.4-1.94,0-6.4,0-12.81.01-19.21.13-.73.36-1.45.37-2.18.12-16.01.21-32.02.3-48.02.03-4.91,0-9.82,0-14.73,0-3.53,0-7.05,0-10.71,1.76,0,3.16,0,4.56,0Z"/><path class="cls-12" d="M530.15,42.62c3.9-4.99,7.44-10.34,11.78-14.92,12.89-13.58,28.72-22.02,47.22-25.1,25.14-4.19,47.97,1.48,68.02,17.22,17.38,13.64,27.86,31.58,31.58,53.39.56,3.27.71,6.61,1.05,9.91-.02,1.52-.05,3.03-.07,4.55l-.06-.08c-11.18-.02-22.36-.04-33.54-.03-.94,0-1.89.27-2.83.41-4.39,0-8.78,0-13.16,0-.79-.14-1.58-.41-2.37-.41-11.31-.1-22.63-.17-33.94-.24-1.01,0-2.01-.01-3.02-.02-7.62.04-15.24.08-22.86.12-.29-.07-.59-.19-.88-.19-10.34.02-20.68.05-31.01.08-9.35,0-18.71,0-28.43,0,.32-3.95.38-7.5.94-10.98.76-4.76,1.9-9.45,2.87-14.17,2.91-6.51,5.81-13.02,8.72-19.53Z"/><path class="cls-2" d="M689.73,87.67c.02-1.52.05-3.03.07-4.55.71-7.15,1.58-14.29,3.96-21.1,11.33-32.44,33.66-52.74,67.58-58.87,28.91-5.22,54.3,3.22,75.3,23.68,14.59,14.22,22.76,31.83,24.89,52.16.07.67.32,1.31.48,1.97-.07,2.35-.14,4.69-.21,7.04-16.17,0-32.34-.02-48.51-.03-.73-.09-1.47-.25-2.2-.25-12.17-.04-24.33-.08-36.5-.09-12.09,0-24.18.03-36.27.05-10.07-.03-20.13-.07-30.2-.08-6.13,0-12.26.04-18.39.06Z"/><path class="cls-11" d="M258.87,166.19c.57-3.31,1.11-6.62,1.71-9.93,6-33.31,33.4-61.3,66.58-67.7,5.9-1.14,11.99-1.27,17.99-1.87v-.03c.05,1.67.11,3.34.16,5.01,0,1.81-.01,3.63-.02,5.44,0,6.67-.01,13.33-.02,20-.02,7.42-.03,14.85-.05,22.27,0,8.5,0,17,0,25.5-.02,5.12-.03,10.24-.05,15.35-.15.79-.41,1.58-.42,2.37-.03,8.17-.02,16.35-.02,24.52,0,16.95.02,33.9.03,50.85-.04.14-.06.28-.07.42-1.35.04-2.7.08-4.06.11-2.56-.2-5.15-.23-7.68-.62-24.4-3.79-43.95-15.62-58.3-35.73-9.63-13.5-14.78-28.66-15.48-45.27,0-1.39,0-2.78,0-4.31-1.39,0-2.44,0-3.49,0-10.27,0-20.55,0-30.82-.02-.8,0-1.59-.23-2.39-.35,2.41-.02,4.82-.05,7.22-.07,7.6-.04,15.2-.07,22.8-.11.42,0,.84,0,1.26,0,.18,0,.36,0,.54.01,1.47,0,2.94,0,4.58,0,0-2.1,0-3.98,0-5.86Z"/><path class="cls-2" d="M688.9,467c-5.55,4.79-11.22,9.46-16.63,14.41-8.13,7.43-15.11,15.9-21.58,24.79-.44.61-.94,1.17-1.41,1.75-27.14-14.96-42.47-37.84-46.07-68.61-.09-1.08-.19-2.16-.28-3.23l.75-16.37c5.11-36.17,32.13-65.15,67.91-72.46,5.74-1.17,11.7-1.21,17.56-1.78.07.24.15.48.22.71-.03,2.15-.07,4.3-.1,6.45,0,9.79.01,19.59.02,29.38-.03,6.36-.06,12.71-.09,19.07,0,5.91,0,11.82.01,17.73,0,5.45,0,10.91,0,16.36-.05,6.22-.11,12.44-.16,18.66.02,4.23.05,8.45.07,12.68-.08.15-.15.29-.23.44Z"/><path class="cls-3" d="M508.75,431.43c4.56-.12,9.12-.23,13.68-.35,3.62.54,7.25.99,10.85,1.65,6.97,1.27,13.54,3.8,20.04,6.55,6.23,3.28,12.27,6.86,17.66,11.43,17.25,14.59,27.58,33,30.53,55.45.48,3.64.63,7.32.94,11.12-16.6,0-32.85,0-49.11,0-.06-2.14.16-4.33-.24-6.41-1.82-9.33-6.23-17.14-13.79-23.14-5.8-4.61-12.38-7.34-19.62-7.88-11.79-.89-22.09,2.68-30.45,11.42-6.91,7.22-10.34,15.74-10.45,25.67-13.55.01-27.1.02-40.64.03-2.56,0-5.13,0-7.68,0-1.89-36.79,28.13-81.34,78.28-85.54Z"/><path class="cls-5" d="M171.61,442.52c-2.9,19.34-11.18,36.01-25.19,49.65-14.25,13.86-31.33,22.04-51.17,23.95-25.81,2.48-48.51-5.01-67.57-22.57-14.93-13.75-23.82-30.9-26.6-51.07-.54-3.94-.73-7.93-1.08-11.91,14.68,0,28.97,0,43.25,0,.23,2.78.18,5.62.73,8.33,4.76,23.53,27.24,38.06,49.7,34.13,20.53-3.59,35.82-21.66,35.62-42.17.9-.03,1.81-.09,2.71-.09,12.39,0,24.78,0,37.17-.01,1.01.14,2.03.28,3.04.41-.2,3.79-.41,7.57-.61,11.36Z"/><path class="cls-5" d="M688.85,269.38c-1.85,16.42-7.97,31.1-18.36,43.89-14.4,17.72-33.05,28.15-55.66,31.36-3.8.54-7.68.45-11.53.65,0-14.25.02-28.5.03-42.74,2.84-.31,5.74-.37,8.52-.96,13.78-2.94,24-10.73,30.3-23.3,4.43-8.83,5.67-18.3,3.38-27.96-3.89-16.39-13.94-27.28-30.09-32.26-3.7-1.14-7.62-1.55-11.56-2.32-.05-.64-.11-1.46-.18-2.28,0-13.32,0-26.63,0-39.95.15-.13.3-.27.44-.4,2.12.14,4.24.25,6.36.43,12.12,1.06,23.58,4.37,34.24,10.28,17.16,9.51,29.69,23.28,37.68,41.17,3.4,7.62,5.58,15.59,6.44,23.91.15,3.12.3,6.23.45,9.35-.02,1.91-.04,3.81-.06,5.72-.13,1.8-.27,3.61-.4,5.41Z"/><path class="cls-11" d="M247.72,43.93c-9.77,15.91-23.05,27.84-40.2,35.37-.62.27-1.24.55-1.86.82-5.11,1.49-10.18,3.14-15.34,4.4-3.47.85-7.08,1.14-10.63,1.69-2.11.02-4.23.04-6.34.06l.04-.08c-.15-.5-.35-1-.46-1.51-2.56-12.1-6.66-23.61-12.76-34.42-7.9-14-18.56-25.41-31.91-34.29-10.97-7.3-22.9-12.43-35.82-15.18-.35-.07-.63-.5-.94-.77,15.66.03,31.33.05,46.99.08,39.51.08,79.01.18,118.52.26.74,0,1.47,0,2.33,0,.2,6.09-.53,11.84-1.68,17.54-1.3,6.43-3.29,12.65-5.86,18.69-.4.95-.91,1.85-1.37,2.78-.91,1.52-1.82,3.04-2.72,4.56Z"/><path class="cls-8" d="M252.5,172.04c-7.6.04-15.2.07-22.8.11-2.41.01-4.82.04-7.22.07-.91-.03-1.81-.08-2.72-.08-15.66,0-31.32.04-46.98-.01-28.58-.1-57.16-.25-85.74-.38-.04-1.24-.07-2.47-.11-3.71.14-1.38.29-2.77.43-4.15.15-1.5.3-2.99.45-4.49,6.11-33.29,24.87-56.14,56.5-68.28,6.72-2.58,13.74-4.1,20.96-4.47,2.71-.15,5.41-.3,8.12-.46l-.04.08c.08.75.08,1.51.24,2.23,1.68,7.9,4.17,15.53,7.33,22.97,4.95,11.64,11.73,22.07,20.49,31.17,6.03,6.26,12.72,11.8,20.31,16.07,5.23,2.94,10.78,5.32,16.19,7.95,3.98,1.37,7.96,2.72,11.93,4.12.92.33,1.78.83,2.67,1.26Z"/><path class="cls-3" d="M129.3,430.85c.2,20.51-15.09,38.58-35.62,42.17-22.47,3.92-44.94-10.6-49.7-34.13-.55-2.71-.5-5.55-.73-8.33,3.07-.12,6.14-.23,9.21-.35,6.06,0,12.12,0,18.18,0,2.73,0,5.45,0,8.18,0,2.39,0,4.79,0,7.27,0,.28-3.6.54-7.03.81-10.46.31-1.78.6-3.57.94-5.35,7.67-40.42,43.45-69.85,84.63-69.6,0,10.63,0,21.26-.02,31.89-.01,3.61-.13,7.23-.21,10.84-2.02.17-4.07.18-6.05.53-10.41,1.83-19.35,6.31-26.3,14.49-6.95,8.18-10.73,17.5-10.58,28.31Z"/><path class="cls-3" d="M257.85,466.67c.67,6.05.61,12.04-.88,18.01-5.19,20.69-25.69,34.75-46.77,31.99-19.62-2.57-34.33-16.53-37.5-36.06-.69-4.27-.19-8.73-.24-13.1.11-.46.21-.92.32-1.38.05-.45.1-.9.16-1.36.29-.92.61-1.84.88-2.77,4.94-17.46,20.61-29.83,38.04-30.98,3.26.05,6.53.1,9.79.15,2.55.67,5.16,1.18,7.64,2.03,9.03,3.08,16.12,8.77,21.68,16.44.81,1.44,1.81,2.8,2.39,4.33,1.59,4.2,3.01,8.46,4.5,12.7Z"/><path class="cls-7" d="M345.16,86.7c.18-22.69,7.99-42.38,23.51-58.9,13.72-14.59,30.59-23.47,50.48-26.08,28.72-3.78,53.47,4.71,73.88,25.22,12.42,12.48,20,27.65,23.06,45.02.18,1,.54,1.97.82,2.95.02.44.03.89.05,1.33,0,.15,0,.31,0,.46.03.76.05,1.52.08,2.28-.08.15-.06.29.05.42.06.66.19,1.33.17,1.99-.07,1.94-.19,3.88-.3,5.83-6.5-.05-13.01-.1-19.51-.15-.31-4.05-.32-8.15-1-12.13-2.27-13.23-8.41-24.59-17.63-34.26-5.89-6.17-12.87-10.83-20.68-14.35-12.83-5.78-26.2-7.06-39.8-4.43-15.13,2.92-27.86,10.41-37.79,22.36-10.21,12.29-15.56,26.35-15.41,42.4-5.14.04-10.29.08-15.43.12-1.36,0-2.72.01-4.08.02-.16-.04-.32-.08-.48-.12v.03Z"/><path class="cls-7" d="M946.56,422.4c0,6.4,0,12.81-.01,19.21-1.31,13.63-5.87,26.16-13.43,37.5-13.81,20.7-33.09,33.32-57.58,37.74-4.73.85-9.62.8-14.43,1.16-.17-1.54-.34-3.09-.51-4.63.04-1.95.08-3.91.11-5.86.07-3.06.15-6.13.22-9.19,1.8-.13,3.6-.33,5.4-.37,5.56-.14,10.91-1.42,16.1-3.2,13.77-4.74,24.88-13.12,33.15-25.11,6.54-9.48,10.34-19.96,11.44-31.51.67-7.08.26-13.99-1.34-20.84-3.41-14.58-10.78-26.81-22.38-36.33-12.14-9.96-26.12-15.09-41.87-15.25l-.15-.03h-.15c-.05-3.29-.1-6.6-.15-9.9.01-3.06.02-6.13.03-9.19.03-.12.07-.23.12-.35,2.84-.02,5.68-.04,8.52-.06,1.67.26,3.35.53,5.02.79,1.67.3,3.33.61,5,.91,2.69.72,5.38,1.43,8.08,2.15,3.52,1.41,7.03,2.82,10.55,4.23,4.39,2.6,8.79,5.2,13.18,7.79.34.29.67.6,1.03.87,11.51,8.64,20.39,19.43,26.5,32.46,4.02,8.58,6.76,17.54,7.56,27.03Z"/><path class="cls-7" d="M173.4,86.18c-2.71.15-5.41.3-8.12.46-.35-.27-.68-.76-1.05-.79-10.48-1.01-20.46-3.87-29.73-8.78-24.77-13.13-40.16-33.41-45.71-61C87.72,10.79,87.27,5.49,87.4,0c.86,0,1.59,0,2.32,0,.31,0,.62,0,.93.01.29,0,.58,0,.86,0,.31.26.59.69.94.77,12.92,2.75,24.85,7.89,35.82,15.18,13.35,8.88,24,20.28,31.91,34.29,6.1,10.81,10.19,22.32,12.76,34.42.11.51.3,1.01.46,1.51Z"/><path class="cls-10" d="M860.59,513.39c.17,1.54.34,3.09.51,4.63-1.09,1.44-2.49.14-3.71.42-.76-.25-1.51-.54-2.28-.73-9.87-2.41-19.29-5.91-28.19-10.86-6.22-3.46-12.16-7.35-17.4-12.12-5.35-4.87-10.44-10.03-14.75-15.94-7.46-10.22-12.96-21.37-16.53-33.5-1.04-3.52-2.09-7.03-3.13-10.55,0-.74,0-1.48,0-2.23,1.72-.03,3.44-.07,5.16-.1,1.72.18,3.43.36,5.15.53,8.59.84,16.76,3.2,24.59,6.77,19.21,8.76,33.43,22.66,42.6,41.67,3.98,8.26,6.72,16.91,7.53,26.1.15,1.97.3,3.94.45,5.91Z"/><path class="cls-4" d="M237.9,166.66c-5.41-2.63-10.96-5.01-16.19-7.95-7.58-4.27-14.28-9.81-20.31-16.07-8.77-9.1-15.54-19.52-20.49-31.17-3.16-7.44-5.65-15.07-7.33-22.97-.16-.73-.16-1.49-.24-2.23,2.11-.02,4.23-.04,6.34-.06,2.8.41,5.61.76,8.4,1.23,8.21,1.38,15.98,4.1,23.46,7.71,14.76,7.55,26.53,18.34,35.17,32.5.27.44.46.92.69,1.38-1.06,2.44-2.43,4.79-3.1,7.33-1.59,6.01-2.91,12.09-4.21,18.17-.86,4.02-1.47,8.09-2.2,12.13Z"/><path class="cls-5" d="M775.1,434.74c1.04,3.52,2.09,7.03,3.13,10.55,3.57,12.12,9.07,23.27,16.53,33.5,4.31,5.9,9.4,11.06,14.75,15.94,5.24,4.77,11.18,8.66,17.4,12.12,8.9,4.96,18.33,8.46,28.19,10.86.77.19,1.52.48,2.28.73-8.54.03-17.08.05-25.62.08-.91,0-1.81-.06-2.72-.06-26.69-.03-53.39-.05-80.08-.08-.68,0-1.36-.04-2.04-.06,3.79-6.36,7.9-12.54,11.3-19.1,7.29-14.09,12.33-29.01,14.64-44.75.83-5.65,1.23-11.37,1.84-17.05.1-.9.27-1.78.4-2.67Z"/><path class="cls-4" d="M478.79,516.94c.11-9.93,3.54-18.45,10.45-25.67,8.36-8.74,18.66-12.31,30.45-11.42,7.24.54,13.82,3.27,19.62,7.88,7.56,6.01,11.97,13.81,13.79,23.14.4,2.07.18,4.27.24,6.41-8.99,0-17.98,0-26.96-.02-4.08,0-8.16-.08-12.24-.09-9.45-.01-18.9.01-28.35-.01-2.34,0-4.67-.14-7.01-.22Z"/><path class="cls-12" d="M950.53,173.92c.34-.14.67-.4,1.01-.4,10.69-.11,20.83-2.71,30.6-6.86,7.04-2.99,13.49-6.98,19.5-11.72,7.96-6.27,14.43-13.82,19.82-22.35.23-.36.62-.63.93-.94,4.29,6.85,7.27,14.3,8.9,22.15,1.28,6.18,1.69,12.55,2.47,18.83.06.51,0,1.03,0,1.73-25.71,0-51.26,0-76.82,0-2.14-.15-4.28-.29-6.42-.44Z"/><path class="cls-6" d="M237.9,166.66c.72-4.05,1.34-8.11,2.2-12.13,1.3-6.08,2.62-12.16,4.21-18.17.67-2.54,2.05-4.89,3.1-7.33,3.26,4.95,5.42,10.41,7.3,15.99,2.32,6.88,3.78,13.92,4.16,21.18,0,1.88,0,3.76,0,5.86-1.63,0-3.1,0-4.58,0-.18,0-.36,0-.54-.01-.42,0-.84,0-1.26,0-.89-.42-1.75-.93-2.67-1.26-3.97-1.4-7.95-2.75-11.93-4.12Z"/><path class="cls-11" d="M690.04,270.7c-.26-2.24-.53-4.49-.79-6.73.02-1.91.04-3.81.06-5.72.15-2.06.29-4.13.44-6.19.11-.27.31-.53.32-.81.43-7.07,2.2-13.85,4.51-20.51.91-2.27,1.82-4.54,2.73-6.81.94-1.95,1.88-3.9,2.82-5.85,1.33-2.14,2.67-4.29,4-6.43.96-1.42,1.92-2.85,2.89-4.27.73-.83,1.47-1.65,2.2-2.48.9-1.08,1.79-2.16,2.69-3.24,1.06-1.09,2.11-2.19,3.17-3.28,2.14-1.92,4.28-3.83,6.42-5.75,2.57-1.84,5.13-3.68,7.7-5.52,2.73-1.53,5.46-3.06,8.19-4.59,5.97-2.11,11.84-4.54,17.93-6.22,4.92-1.36,10.09-1.81,15.16-2.66,3.67-.02,7.33-.05,11-.07,2.81.46,5.64.86,8.44,1.39,27.14,5.15,47.61,19.69,61.14,43.76,5.81,10.34,9.18,21.51,10.01,33.4.14,1.06.27,2.11.41,3.17,0,3.63,0,7.26,0,10.88-.13.62-.27,1.25-.4,1.87-.37,2.91-.54,5.87-1.14,8.73-4.21,20.08-14.13,36.8-30.05,49.77-14.59,11.89-31.34,18.41-50.23,19.19-2.71.15-5.41.29-8.12.44-.46-.16-.91-.39-1.39-.46-4.18-.58-8.39-.98-12.55-1.7-6.87-1.2-13.32-3.79-19.7-6.52-3.66-2.12-7.31-4.23-10.97-6.35-2.85-2.21-5.71-4.41-8.56-6.62-2.45-2.48-4.9-4.96-7.35-7.43-1.81-2.29-3.62-4.58-5.44-6.87-2.58-4.24-5.16-8.49-7.73-12.73-1.06-2.44-2.11-4.87-3.17-7.31-1.15-4.2-2.36-8.38-3.41-12.6-.56-2.25-.84-4.57-1.24-6.86ZM721.24,255.74c-.04,1.3-.07,2.6-.11,3.9.11,2.02.21,4.04.35,6.06.38,5.78,2,11.27,4.41,16.48,3.46,7.48,8.28,13.91,14.65,19.28,9.87,8.32,21.31,12.3,34,12.82,5.25.22,10.46-.67,15.58-2.09,11-3.05,20.13-9.06,27.28-17.77,8.18-9.97,12.67-21.48,12.25-34.6-.3-3.73-.24-7.53-.98-11.17-2.75-13.6-9.96-24.62-21.07-32.71-12.24-8.9-26.06-12.38-41.19-9.73-6.91,1.21-13.4,3.61-19.28,7.41-4.17,2.7-8.42,5.41-11.55,9.43-8.52,9.06-13.36,19.75-14.12,32.21-.08.16-.15.32-.23.48Z"/><path class="cls-2" d="M258.24,431.17c-1.48-.01-2.96-.02-4.44-.03-10.72,0-21.44.02-32.17.03-3.26-.05-6.53-.1-9.79-.15-.67-.08-1.34-.23-2.01-.23-12.47,0-24.94.03-37.41.05-.12-.09-.26-.15-.4-.2.12-3.4.31-6.79.33-10.19.05-8.18.03-16.35.01-24.53,0-2.8-.09-5.59-.14-8.39.07-3.61.19-7.23.21-10.84.03-10.63.02-21.26.02-31.89l-.06-.07c2.01.11,4.04.12,6.04.34,3.92.43,7.83.98,11.74,1.48,4.55,1.36,9.09,2.71,13.64,4.07,5.12,2.62,10.24,5.23,15.36,7.85,1.26.91,2.52,1.8,3.77,2.72,14.32,10.58,24.54,24.2,30.53,40.99,2.55,7.15,4.02,14.51,4.77,22.04.05,1.24.11,2.48.16,3.72,0,.78,0,1.56,0,2.34-.06.3-.12.59-.18.89Z"/><path class="cls-7" d="M258.81,258.47c-.11,2.47-.22,4.93-.33,7.4-.19,1.65-.34,3.3-.57,4.94-1.63,11.82-5.73,22.75-11.99,32.89-6.03,9.77-13.89,17.84-23.03,24.72-5.59,3.09-11.19,6.18-16.78,9.28-5.16,1.63-10.31,3.26-15.47,4.88-6.08.61-12.15,1.22-18.23,1.84-5.33-.52-10.74-.62-15.97-1.64-20.39-3.99-37.26-14.08-50.45-30.15-10.34-12.6-16.53-27.06-18.63-43.24-.26-2.81-.53-5.63-.79-8.44.13-.98.26-1.97.38-2.95,6.52.03,13.05.06,19.57.09.45,4.48.6,9.02,1.41,13.43,2.85,15.38,10.76,27.94,22.64,37.84,9.86,8.22,21.3,13.25,34.23,14.59,7.48.78,14.89.69,22.24-.98,16.26-3.69,29.39-12.31,39.29-25.65,8.53-11.49,12.37-24.65,12.91-38.86,6.52,0,13.04,0,19.56.01Z"/><path class="cls-10" d="M258.42,430.28c0-.78,0-1.56,0-2.34,1.03-3.83,1.97-7.68,3.09-11.49,2.06-6.98,5.08-13.55,8.54-19.93,3.43-6.32,7.45-12.28,12.28-17.56,4.12-4.49,8.71-8.58,13.34-12.56,5.64-4.83,12.03-8.6,18.68-11.85,8.91-4.34,18.29-7.4,27.94-9.63.49-.11,1.04-.01,1.98-.01,0,2.4,0,4.78,0,7.16-.13,1.36-.25,2.73-.38,4.09-.33,1.86-.62,3.72-.98,5.56-7.02,35.67-37.04,63.62-73.19,68.14-1.63.14-3.26.28-4.89.42-2.14,0-4.28,0-6.41-.01Z"/><path class="cls-10" d="M344.61,339.7c.08-1.32.16-2.63.24-3.95.65-3.52,1.05-7.12,2.02-10.56,1.51-5.33,3.4-10.54,5.13-15.8,1.22-2.4,2.44-4.8,3.65-7.19,1.5-2.3,3.01-4.59,4.51-6.89,2.14-2.73,4.27-5.45,6.41-8.18,1.98-2.03,3.95-4.06,5.93-6.09,2.57-2.06,5.15-4.12,7.72-6.17,2.27-1.46,4.54-2.92,6.81-4.38,3.03-1.57,6.06-3.14,9.1-4.7.36-.1.73-.17,1.07-.32,8.9-3.76,18.23-5.72,27.81-6.61,1.98.04,3.95.08,5.93.12-.1,1.2-.2,2.39-.31,3.59-1.01,3.52-1.93,7.06-3.05,10.54-4.17,13-10.44,24.9-19.17,35.4-7.88,9.48-17.29,17.19-28.05,23.28-10.13,5.73-20.95,9.59-32.24,12.24-1.02.24-2.04.43-3.51.73,0-1.8,0-3.43,0-5.05Z"/><path class="cls-8" d="M781.48,173.56c-3.67.02-7.33.05-11,.07-5.57-.89-11.2-1.55-16.71-2.72-6.73-1.43-12.95-4.39-19.11-7.4-3.76-2.45-7.52-4.9-11.28-7.34-3.92-3.64-7.85-7.29-11.77-10.93-.4-.54-.77-1.12-1.2-1.63-8.55-9.99-14.52-21.34-17.78-34.07-1.05-4.08-1.66-8.27-2.48-12.41-.06-1.05-.12-2.11-.17-3.16-.01-.16-.03-.32-.04-.47-.01-.3-.03-.61-.04-.91.04-.3.07-.61.11-.91-.11-1.37-.21-2.73-.32-4.1l.06.08c6.13-.02,12.26-.07,18.39-.06,10.07,0,20.13.05,30.2.08.14.89.36,1.77.41,2.67.55,10.34,4.85,18.83,12.65,25.56,7.82,6.75,16.73,10.03,27.24,9.05,5.76-.54,11.11-1.91,16.03-4.87,12.09-7.28,18.2-18.06,18.63-32.12,16.17,0,32.34.02,48.51.03-.05,2.12-.11,4.24-.16,6.36-.06.86-.12,1.71-.18,2.57,0,0,.01-.01.01-.01-.2,1.65-.31,3.31-.6,4.95-3.79,21.47-14.03,39.24-30.99,52.95-14.08,11.38-30.24,17.71-48.4,18.76Z"/><path class="cls-12" d="M896.46,104.9c5.95-4,12.02-7.8,18.75-10.35,3.37-1.28,6.86-2.24,10.29-3.34.62,1.9,1.12,3.85,1.88,5.69,4.1,10.05,15.06,15.62,25.18,13.21,9.9-2.36,15.83-8.82,17.57-18.96,10.63,2.75,20.27,7.54,29.06,14.08-1.89,6.4-5.3,11.93-9.47,17.08-3.41,4.21-7.37,7.79-11.9,10.68-8.13,5.19-16.9,8.31-26.71,8.78-10.21.48-19.73-1.42-28.7-6.21-8.94-4.76-16.07-11.48-21.12-20.24-1.91-3.31-3.24-6.94-4.83-10.43Z"/><path class="cls-12" d="M938.2,174.3c-.6-.02-1.19-.04-1.79-.06-1.95-.05-3.9-.1-5.85-.15-7.28,0-14.57.02-21.85.03-.29.02-.59.03-.88.05-3.94,0-7.88,0-11.81,0-3.48-.04-6.97-.07-10.45-.11-2.42,0-4.85-.01-7.28-.02-1.97,0-3.94,0-5.91-.01-1.82,0-3.63,0-5.45-.01-1.66-.03-3.31-.05-4.97-.08-.35-6.49.36-12.91,2.05-19.15,1.48-5.48,3.5-10.82,5.29-16.22,1.35-2.45,2.7-4.9,4.05-7.36,1.58,2.28,3.11,4.61,4.77,6.83,7.51,10.13,16.6,18.46,27.64,24.68,8.44,4.76,17.44,7.85,26.89,9.68,3.31.64,6.72.73,10.08,1.1.8.09,1.58.28,2.37.42-2.3.13-4.6.26-6.9.39Z"/><path class="cls-5" d="M771.55,346.17c2.71-.15,5.41-.29,8.12-.44.6.17,1.19.48,1.79.48,9.52.1,19.03.18,28.55.21,17,.07,34,.11,51,.16-.01,3.06-.02,6.13-.03,9.19-.73,3.77-1.21,7.61-2.24,11.29-9.34,33.49-30.89,54.63-64.61,63.17-4.51,1.14-9.23,1.47-13.85,2.17-1.72.03-3.44.07-5.16.1-.14-.64-.27-1.29-.41-1.93-.03-.38-.02-.77-.11-1.13-2.71-11.11-6.36-21.84-11.92-31.9-6.4-11.57-14.66-21.54-24.91-29.86-9.71-7.89-20.56-13.75-32.41-17.71-4.41-1.47-8.95-2.52-13.44-3.77,2.28-.05,4.56-.1,6.84-.14,2.27-.01,4.55-.02,6.82-.03,2.88.02,5.75.04,8.63.05,3.33,0,6.66,0,10,0,4.09,0,8.18,0,12.27,0,11.69.03,23.38.06,35.06.08Z"/><path class="cls-10" d="M691.93,346.21c4.48,1.24,9.03,2.3,13.44,3.77,11.85,3.96,22.69,9.82,32.41,17.71,10.25,8.32,18.52,18.29,24.91,29.86,5.56,10.06,9.21,20.8,11.92,31.9.09.36.07.75.11,1.13-2.88.49-5.77.98-8.65,1.47-5.93-1.3-11.95-2.32-17.78-3.97-8.38-2.38-15.9-6.69-23.12-11.5-3.01-2.49-6.02-4.98-9.03-7.47-2.61-2.8-5.23-5.6-7.84-8.41-1.78-2.44-3.56-4.88-5.35-7.32-1.78-3.17-3.57-6.35-5.35-9.52-1.26-3.05-2.52-6.1-3.79-9.15-.62-2.17-1.4-4.3-1.83-6.51-.99-5.15-1.81-10.34-2.7-15.51.03-2.15.07-4.3.1-6.45.85,0,1.7-.01,2.55-.02Z"/><path class="cls-2" d="M535.28,120.85c4.22-4.37,8.4-8.79,12.7-13.1,1.53-1.53,3.34-2.79,5.02-4.17,1.97-1.25,3.91-2.54,5.9-3.75,10.32-6.32,21.54-10.12,33.48-11.86,2.81-.23,5.62-.45,8.43-.68,1.01,0,2.01.01,3.02.02.02,12.72.03,25.44.05,38.16.05,3.43.11,6.86.16,10.29-.09.82-.25,1.64-.26,2.46-.05,10.93-.08,21.87-.08,32.8,0,.7.29,1.39.44,2.09-.15.13-.3.27-.44.4-5.27,0-10.55.02-15.82.03-9.09-.02-18.18-.04-27.27-.06-.9-.02-1.81-.06-2.71-.06-13.41-.12-26.82-.23-40.22-.35.32-4.11.41-8.25,1.02-12.32.66-4.43,1.81-8.78,2.74-13.16,1.85-4.54,3.69-9.08,5.54-13.61,2.77-4.37,5.54-8.74,8.31-13.11Z"/><path class="cls-3" d="M604.03,135.75c-.05-3.43-.11-6.86-.16-10.29.57-2.57.91-5.22,1.76-7.69,5.69-16.62,17.12-26.68,34.51-29.81,4.39,0,8.78,0,13.16,0,.75.11,1.5.18,2.24.34,17.72,3.83,30.35,17,33.77,35.18.1.47.2.94.3,1.41.04.6.08,1.2.12,1.8-.07.14-.06.29.02.42.02.31.05.61.07.92-.05,2.43-.1,4.85-.15,7.28-.13.77-.27,1.54-.4,2.32-3.42,19.61-19.61,34.63-40.03,35.79-22.82,1.29-42.28-15-45.22-37.67Z"/><path class="cls-4" d="M813.28,87.97c-.43,14.06-6.54,24.84-18.63,32.12-4.92,2.96-10.27,4.33-16.03,4.87-10.51.98-19.42-2.29-27.24-9.05-7.8-6.73-12.1-15.22-12.65-25.56-.05-.89-.27-1.78-.41-2.67,12.09-.02,24.18-.06,36.27-.05,12.17,0,24.33.04,36.5.09.73,0,1.47.16,2.2.25Z"/><path class="cls-2" d="M517.06,177.09c-.14,1.49-.29,2.98-.43,4.47-4.1,32.72-21.15,56.08-50.92,70.09-10.96,5.15-22.67,7.25-34.75,7.32-1.98-.04-3.95-.08-5.93-.12-1.63-.2-3.27-.41-4.9-.61-8.51-1.04-16.63-3.45-24.49-6.81-2.85-1.46-5.7-2.93-8.56-4.39-2.28-1.51-4.55-3.02-6.83-4.53-2.59-2.14-5.18-4.28-7.78-6.42-2.01-2.07-4.02-4.14-6.03-6.21-2.38-3.08-4.77-6.16-7.15-9.24-1.68-2.85-3.35-5.71-5.03-8.56-1.1-2.55-2.21-5.1-3.31-7.64-1.42-4.89-2.97-9.74-4.2-14.68-.77-3.11-1.06-6.33-1.57-9.51.02-5.12.03-10.24.05-15.35.2-1.24.35-2.5.62-3.73,1.13-5.13,2.29-10.25,3.45-15.37,1.79-4.25,3.57-8.5,5.36-12.75,2.15-3.48,4.3-6.95,6.46-10.43,1.8-2.29,3.61-4.57,5.41-6.86,4.13-3.83,8.25-7.66,12.38-11.49,1.12-.76,2.25-1.52,3.36-2.29,11.32-7.81,23.85-12.48,37.42-14.46,2.81-.23,5.62-.46,8.43-.69,1.97,0,3.94,0,5.91,0,3.08.28,6.19.37,9.23.86,27.3,4.4,48.12,18.45,62.35,42.18,6.29,10.5,9.88,21.91,11.03,34.09.05.48.1.96.16,1.44.09,3.9.19,7.8.28,11.69ZM430.94,206.74c18.67.06,34-15.21,34.03-33.89.03-18.26-15.3-33.8-33.41-33.85-19.01-.05-34.35,14.95-34.44,33.69-.09,18.7,15.1,33.99,33.82,34.05Z"/><path class="cls-12" d="M259.18,176.89c-.67,4.39-1.14,8.82-2.05,13.16-3.94,18.67-13.2,34.27-27.46,46.93-.51.45-.98.94-1.46,1.41-4.33,2.97-8.66,5.94-13,8.91-4.1,1.91-8.2,3.82-12.3,5.73-.37.06-.74.08-1.1.17-5.38,1.33-10.71,2.88-16.14,3.92-3.95.75-8.02.83-12.04,1.21-1.58.04-3.17.16-4.75.11-1.69-.06-3.37-.28-5.06-.43-2.14-.37-4.29-.71-6.43-1.12-18.22-3.46-33.84-11.79-46.63-25.23-13.7-14.39-21.57-31.49-23.41-51.32-.1-2.87-.21-5.74-.31-8.61,28.58.13,57.16.29,85.74.38,15.66.05,31.32,0,46.98.01.91,0,1.81.05,2.72.08.8.12,1.59.35,2.39.35,10.27.02,20.55.02,30.82.02,1.05,0,2.1,0,3.49,0,0,1.53,0,2.92,0,4.31Z"/><path class="cls-3" d="M603.33,302.53c.02-13.49.04-26.98.06-40.47.12-.72.37-1.45.34-2.16-.07-1.72-.39-3.44-.39-5.16-.04-12.7-.02-25.4-.03-38.09.13-1.07.26-2.13.38-3.2.06.82.13,1.64.18,2.28,3.95.77,7.87,1.18,11.56,2.32,16.15,4.98,26.2,15.86,30.09,32.26,2.29,9.67,1.05,19.13-3.38,27.96-6.3,12.57-16.52,20.36-30.3,23.3-2.78.59-5.67.65-8.52.96Z"/><path class="cls-6" d="M603.7,213.46c-.13,1.07-.26,2.13-.38,3.2-1.08-.13-2.16-.26-3.24-.38-6.3-.53-12.17-2.42-17.67-5.52.3-2.67.55-5.35.92-8.01.66-4.81,1.35-9.61,2.1-14.4.77-4.94,1.63-9.87,2.45-14.8,5.27,0,10.55-.02,15.82-.03,0,13.32,0,26.63,0,39.95Z"/><path class="cls-11" d="M434.01,86.83c-1.97,0-3.94,0-5.91,0-9.15.02-18.3.05-27.45.07-9.56-.02-19.11-.04-28.67-.06-2.28-.07-4.57-.13-6.85-.2-.15-16.05,5.2-30.11,15.41-42.4,9.93-11.95,22.66-19.44,37.79-22.36,13.6-2.63,26.97-1.34,39.8,4.43,7.82,3.52,14.79,8.18,20.68,14.35,9.22,9.67,15.35,21.03,17.63,34.26.68,3.98.69,8.08,1,12.13-.9.03-1.81.08-2.71.08-20.24-.1-40.48-.2-60.72-.3Z"/><path class="cls-11" d="M861.42,365.71c15.75.16,29.73,5.29,41.87,15.25,11.6,9.52,18.97,21.75,22.38,36.33,1.6,6.85,2.01,13.77,1.34,20.84-1.09,11.55-4.89,22.03-11.44,31.51-8.27,11.99-19.38,20.37-33.15,25.11-5.2,1.79-10.55,3.06-16.1,3.2-1.8.05-3.6.25-5.4.37,0-5.29.02-10.57.03-15.86.02-28.04.04-56.07.07-84.11,0-.75.06-1.51.09-2.26.11-.65.32-1.29.32-1.94.02-9.49,0-18.97,0-28.46Z"/><path class="cls-12" d="M860.14,507.48c.19.02.37.03.56.05-.04,1.95-.08,3.91-.11,5.86-.15-1.97-.3-3.94-.45-5.91Z"/><path class="cls-9" d="M582.4,210.75c5.49,3.1,11.37,4.99,17.67,5.52-.28,2.75-.61,5.49-.84,8.24-.49,5.97-1.03,11.93-1.35,17.91-.3,5.55-.33,11.12-.48,16.67-3.08-.37-6.21-.5-9.23-1.17-5.15-1.16-10.21-2.66-15.32-4.02-4.85-2.41-9.7-4.82-14.55-7.23-3.34-2.43-6.68-4.86-10.01-7.3-2.41-2.28-4.81-4.56-7.22-6.84-2.06-2.41-4.13-4.81-6.19-7.22-1.54-2.24-3.08-4.48-4.62-6.72-1.72-3.22-3.44-6.45-5.17-9.67-1.86-5.79-3.99-11.51-5.48-17.39-1.05-4.12-1.23-8.47-1.82-12.71-.08-.58-.24-1.15-.37-1.73.08-1.35.16-2.7.24-4.05,13.41.12,26.82.23,40.22.35.9,0,1.81.04,2.71.06.54,16.36,7.69,28.85,21.8,37.27Z"/><path class="cls-4" d="M597.41,259.1c.15-5.56.18-11.12.48-16.67.32-5.98.86-11.94,1.35-17.91.23-2.75.55-5.5.84-8.24,1.08.13,2.16.26,3.24.38,0,12.7-.01,25.4.03,38.09,0,1.72.33,3.44.39,5.16.03.71-.22,1.44-.34,2.16-.04-.81-.07-1.62-.11-2.54-1.95-.14-3.91-.28-5.87-.42Z"/><path class="cls-1" d="M829.65,259.81c.42,13.13-4.07,24.63-12.25,34.6-7.15,8.71-16.27,14.72-27.28,17.77-5.13,1.42-10.33,2.3-15.58,2.09-12.69-.52-24.13-4.49-34-12.82-6.37-5.37-11.19-11.8-14.65-19.28-2.41-5.21-4.03-10.7-4.41-16.48-.13-2.02-.23-4.04-.35-6.06l17.23-.08c1.64.03,3.28.05,4.92.08,1.38.01,2.75.03,4.13.04,1.81.01,3.61.03,5.42.04.12-.13.24-.26.36-.39.84-11.8,8.98-19.7,20.2-21.26,5.91-.82,11.45.93,16.06,4.66,5.32,4.3,8.25,10.05,8.5,17.08,10.7,0,21.2,0,31.71,0Z"/><path class="cls-11" d="M163.82,258.01c1.69.15,3.37.37,5.06.43,1.58.05,3.16-.07,4.75-.11,7.38.02,14.76.06,22.14.06,2.55,0,5.11-.1,7.66-.15,3.16.01,6.33.02,9.49.03,1.23.02,2.45.03,3.68.05,4.38,0,8.76,0,13.13-.01,3.17.05,6.35.11,9.52.16-.53,14.21-4.38,27.37-12.91,38.86-9.9,13.34-23.03,21.97-39.29,25.65-7.35,1.67-14.76,1.76-22.24.98-12.93-1.35-24.37-6.38-34.23-14.59-11.88-9.9-19.79-22.46-22.64-37.84-.82-4.41-.96-8.95-1.41-13.43.83-.03,1.66-.07,2.49-.07,18.27,0,36.54,0,54.8,0Z"/><path class="cls-5" d="M970.14,91.15c-1.74,10.13-7.67,16.6-17.57,18.96-10.12,2.41-21.08-3.16-25.18-13.21-.75-1.85-1.26-3.79-1.88-5.69.08-1.81.04-3.63.26-5.41,1.08-8.49,5.62-14.47,13.33-18.11.34-.16.66-.36.99-.53,2.73-.46,5.46-.92,8.19-1.38,10.85,1.03,18.47,6.75,21.02,16.23.78,2.91.59,6.09.84,9.15Z"/><path class="cls-11" d="M528.33,325.64c1.64,1.27,3.29,2.54,4.93,3.82,1.69,2.69,3.37,5.38,5.06,8.06,1.5,5.59,1.77,11.15-.75,16.54-.98,2.1-2.24,4.08-3.37,6.11-.98.75-1.93,1.56-2.95,2.25-1.54,1.03-3.14,1.97-4.72,2.95-3.19,1.29-6.47,2.1-9.94,2.03-1.39-.15-2.81-.19-4.18-.46-8.44-1.65-15.67-9.09-17.2-17.63-2.2-12.32,5.52-23.68,17.8-26.14,1.11-.22,2.25-.23,3.38-.33,2.01.18,4.02.37,6.03.55,1.97.75,3.94,1.5,5.91,2.26Z"/><path class="cls-4" d="M582.4,210.75c-14.11-8.42-21.26-20.91-21.8-37.27,9.09.02,18.18.04,27.27.06-.82,4.93-1.68,9.86-2.45,14.8-.75,4.79-1.44,9.59-2.1,14.4-.37,2.66-.61,5.34-.92,8.01Z"/></g></svg>