<?xml version="1.0" encoding="UTF-8"?><svg id="_圖層_2" xmlns="http://www.w3.org/2000/svg" viewBox="0 0 260.94 260.92"><defs><style>.cls-1{fill:#299591;}.cls-2{fill:#da2c7e;}.cls-3{fill:#101d30;}.cls-4{fill:#217bac;}.cls-5{fill:#183354;}.cls-6{fill:#258d80;}.cls-7{fill:#2b9899;}</style></defs><g id="_飄移"><path class="cls-2" d="M130.02,71.82c-.99,4.6-1.78,9.26-3.03,13.78-.88,3.16-2.39,6.13-3.62,9.19-1.46,2.49-2.92,4.97-4.37,7.46-1.72,2.21-3.45,4.41-5.17,6.62-1.47,1.49-2.94,2.97-4.41,4.46l-4.47,3.78c-1.37.95-2.75,1.91-4.12,2.86-.11.09-.21.18-.32.27-.15.11-.3.21-.46.32-1.82,1.04-3.63,2.07-5.45,3.11-2.07.92-4.14,1.84-6.22,2.76-3.63.98-7.23,2.1-10.9,2.9-2.83.62-5.75.84-8.62,1.23-2.75,0-5.49,0-8.24,0-2.11-.32-4.25-.48-6.32-.98-4.23-1.02-8.41-2.21-12.62-3.34-1.81-.76-3.62-1.51-5.43-2.27-2.78-1.67-5.55-3.34-8.33-5.01-1.14-.84-2.28-1.68-3.42-2.52-1.47-1.26-2.94-2.53-4.41-3.79-1.72-1.83-3.43-3.66-5.15-5.5-1.73-2.4-3.47-4.81-5.2-7.21-1.5-2.86-3.01-5.73-4.51-8.59-1.79-4.87-3.66-9.73-4.24-14.92-.49-4.42-.67-8.87-.99-13.31.29-2.84.4-5.72.89-8.53,2.54-14.44,8.93-26.94,19.86-36.75C39.88.71,62.12-4.39,86.31,4.04c25.44,8.86,39.8,27.62,43.57,54.37.05,4.47.09,8.94.14,13.41ZM90.83,65.44c-.04-14.02-11.66-25.65-25.66-25.62-13.75.03-25.73,10.79-25.68,25.68.05,15.77,13.05,25.76,25.58,25.57,14.21,0,25.8-11.53,25.76-25.63Z"/><path class="cls-4" d="M195.47,130.33c-1.6.04-3.21.08-4.81.12-.71-.81-1.43-.76-1.95.14h0c-.12-.2-.24-.4-.37-.59-3.11-.64-6.25-1.16-9.33-1.94-5.2-1.32-10.15-3.34-14.85-5.93-.44-.24-.94-.36-1.41-.54-1.73-1.2-3.49-2.35-5.17-3.61-7.66-5.69-13.97-12.57-18.68-20.92-3.6-6.39-5.94-13.2-7.33-20.35-.49-2.5-.55-5.09-.83-7.63-.07-.6-.21-1.2-.32-1.79,0-1.37,0-2.74,0-4.11.11-.25.3-.51.31-.76.09-8.09,2.05-15.77,5.19-23.16,2.27-5.33,5.28-10.21,8.87-14.76,4.75-6.02,10.46-10.92,16.92-15,.28-.17.47-.47.71-.71.48-.16.99-.26,1.42-.5,12.47-6.89,25.77-9.5,39.91-7.78,14.98,1.83,27.93,8.08,38.34,18.91,15.96,16.61,22.05,36.55,17.23,59.09-5.19,24.29-20.21,40.44-43.63,48.54-4.76,1.65-9.93,2.1-14.9,3.11-1.78.05-3.55.11-5.33.16ZM218.45,99.37c11.15-7.43,17.34-18.05,18.29-31.49,1.52-21.55-14.01-40.57-35.43-43.53-6.16-.85-12.21-.29-18.14,1.62-.26.08-.5.24-.75.36-4.84,1.43-9.03,4.01-12.93,7.17-3.18,2.58-5.89,5.58-8.08,9-3.93,6.16-6.29,12.79-6.64,20.22-.37,7.72,1.08,14.93,4.7,21.72,3.61,6.76,8.68,12.16,15.32,15.98,2.5,1.44,5.25,2.45,7.89,3.66,12.67,4.09,24.72,2.64,35.77-4.72Z"/><path class="cls-2" d="M195.72,260.55c1.15-.02,2.3-.03,3.44-.05,5.41-.54,10.81-1.2,15.97-3,24.55-8.58,39.92-25.48,44.55-51.14,3.95-21.88-2.43-41.1-17.92-56.99-10.76-11.04-24.09-17.22-39.47-18.83-.5-.05-.99-.24-1.49-.37-1.78.05-3.55.11-5.33.16,0,12.24.01,24.47.02,36.71.07.56.19,1.11.19,1.67.03,9.21.06,18.41.06,27.62,0,9.15-.03,18.3-.04,27.45.02,7.62.05,15.24.06,22.86,0,4.64-.03,9.28-.05,13.92Z"/><path class="cls-7" d="M130.44,63.17c.11-.25.3-.51.31-.76.09-8.09,2.05-15.77,5.19-23.16,2.27-5.33,5.28-10.21,8.87-14.76,4.75-6.02,10.46-10.92,16.92-15,.28-.17.47-.47.71-.71-5.19-3.25-10.82-5.5-16.77-6.73-4.68-.97-9.5-1.28-14.25-1.87-.38-.05-.78,0-1.31,0,0,19.46,0,38.8,0,58.14.11,1.62.22,3.24.33,4.86Z"/><path class="cls-6" d="M52,259.38c-3.2-.79-6.36-1.71-9.54-2.58-1.84-.8-3.69-1.6-5.53-2.4-3.21-1.95-6.42-3.9-9.64-5.85-1.73-1.37-3.47-2.74-5.2-4.11-1.88-1.86-3.75-3.71-5.63-5.57-1.67-2.16-3.34-4.32-5.01-6.48-1.6-2.77-3.21-5.53-4.81-8.3-2.07-4.83-4.03-9.71-4.94-14.91-.55-3.14-.85-6.33-1.29-9.5-.05-.36-.23-.7-.35-1.05.11-2.05.22-4.09.33-6.14.6-14.3,5.52-26.97,14.53-38.02,9.82-12.05,22.48-19.55,37.67-22.74,2.17-.45,4.4-.59,6.61-.87.47-.1.94-.2,1.41-.3,2.75,0,5.49,0,8.24,0,.8.1,1.6.21,2.4.31,8.99.63,17.45,3.18,25.28,7.57,18.22,10.24,29.23,25.74,33.12,46.28.4,2.12.7,4.26,1.05,6.39-.02,2.78-.04,5.55-.05,8.33-.64,3.83-.98,7.75-2.01,11.47-1.27,4.61-3.11,9.05-4.71,13.57-1.16,2.07-2.31,4.13-3.47,6.2-1.39,1.94-2.78,3.89-4.18,5.83-1.45,1.62-2.9,3.24-4.35,4.86-.83.8-1.65,1.6-2.48,2.4-.82.68-1.63,1.36-2.45,2.03-.63.56-1.25,1.11-1.88,1.67-1.08.73-2.16,1.46-3.23,2.18-1.62,1.01-3.25,2.02-4.87,3.03-1.48.71-2.95,1.42-4.43,2.14-1.72.69-3.44,1.38-5.16,2.06-5.04,1.75-10.17,3.09-15.52,3.42-.21.01-.41.16-.61.25-1.56.11-3.13.22-4.69.33-1.44.01-2.89.03-4.33.04-1.7-.2-3.4-.4-5.1-.6-1.73-.31-3.49-.51-5.19-.94ZM68.88,236.53c9.43-.58,17.52-4.24,24.38-10.69,3.04-2.37,5.09-5.58,7.13-8.74,2.88-4.45,4.69-9.36,5.61-14.59,2.01-11.45-.62-21.91-7.36-31.17-6.12-8.41-14.46-13.87-24.75-15.94-2.76-.56-5.63-.51-8.45-.74-9.94-.32-18.64,3.08-26.19,9.27-6.59,5.41-11.14,12.32-13.45,20.64-1.08,3.88-1.74,7.82-1.58,11.79.39,9.6,3.4,18.26,9.7,25.73,4.07,4.82,8.93,8.47,14.59,11.09,3.94,1.83,8.1,3.05,12.47,3.34,1.53.1,3.06.18,4.59.26.98-.03,1.97-.05,2.95-.08.12-.06.24-.12.36-.17Z"/><path class="cls-5" d="M130.71,191.12c-.02,2.78-.04,5.55-.05,8.33.67,4.22,1.17,8.47,2.06,12.65,1.08,5.1,3.32,9.8,5.6,14.46,1.85,2.84,3.71,5.69,5.56,8.53,2.76,2.97,5.52,5.94,8.27,8.91.41.3.85.58,1.23.91,7.56,6.47,16.15,10.99,25.78,13.46,3.09.79,6.26,1.26,9.39,1.88.8.04,1.59.09,2.39.13.12.01.24.02.36.03.23.01.46.02.69.03.23-.03.46-.06.69-.08,1.03.08,2.07.16,3.1.24l-.06-.05c.02-4.64.05-9.28.05-13.92,0-7.62-.04-15.24-.06-22.86-.67-.11-1.34-.28-2.02-.31-7.82-.42-14.25-3.67-19.35-9.57-5.11-5.92-7.59-12.66-6.85-20.62.41-4.36,1.44-8.41,3.69-12.13,5.51-9.15,13.67-13.77,24.31-14.1,0-12.24-.01-24.47-.02-36.71-1.6.04-3.21.08-4.81.12-.65.05-1.3.09-1.95.14h0c-1.25.14-2.51.23-3.74.44-16.25,2.87-29.7,10.62-40.07,23.46-8.61,10.66-13.41,22.89-14.2,36.63Z"/><path class="cls-7" d="M182.68,104.09c3.02-4.5,5.9-9.1,7.83-14.19.97-2.55,1.69-5.19,2.53-7.79-1.44-.47-2.91-.85-4.31-1.42-7.6-3.11-11.82-11.4-10-19.06,1.79-7.49,6.68-11.98,14.35-13.3-2.08-8.04-5.71-15.34-10.66-22-4.84,1.43-9.03,4.01-12.93,7.17-3.18,2.58-5.89,5.58-8.08,9-3.93,6.16-6.29,12.79-6.64,20.22-.37,7.72,1.08,14.93,4.7,21.72,3.61,6.76,8.68,12.16,15.32,15.98,2.5,1.44,5.25,2.45,7.89,3.66Z"/><path class="cls-7" d="M130.15,72.51c.02.45.03.9.05,1.35.04,1.48.07,2.95.11,4.43,0,5.51-.02,11.02-.02,16.54-.01.22-.03.44-.04.67,0,2.98,0,5.96,0,8.94.03,2.64.05,5.27.08,7.91,0,1.84,0,3.67.01,5.51,0,1.49,0,2.98,0,4.48,0,1.38,0,2.75.01,4.13.02,1.25.04,2.51.06,3.76,4.92.26,9.77-.28,14.5-1.55,4.15-1.12,8.19-2.65,12.28-4,1.86-1.02,3.71-2.05,5.57-3.07-1.73-1.2-3.49-2.35-5.17-3.61-7.66-5.69-13.97-12.57-18.68-20.92-3.6-6.39-5.94-13.2-7.33-20.35-.49-2.5-.55-5.09-.83-7.63-.07-.6-.21-1.2-.32-1.79-.1,1.74-.19,3.48-.29,5.22Z"/><path class="cls-3" d="M195.49,167.05c-10.64.33-18.8,4.95-24.31,14.1-2.24,3.73-3.28,7.78-3.69,12.13-.74,7.95,1.74,14.69,6.85,20.62,5.1,5.9,11.52,9.16,19.35,9.57.68.04,1.35.2,2.02.31.01-9.15.04-18.3.04-27.45,0-9.21-.03-18.41-.06-27.62,0-.56-.12-1.11-.19-1.67Z"/><path class="cls-1" d="M65.43,154.66c-9.94-.32-18.64,3.08-26.19,9.27-6.59,5.41-11.14,12.32-13.45,20.64-1.08,3.88-1.74,7.82-1.58,11.79.39,9.6,3.4,18.26,9.7,25.73,4.07,4.82,8.93,8.47,14.59,11.09,3.94,1.83,8.1,3.05,12.47,3.34,1.53.1,3.06.18,4.59.26l.06-13.04c-.02-1.24-.04-2.48-.06-3.72,0-1.04-.02-2.08-.03-3.12,0-1.37-.02-2.73-.03-4.1.1-.09.2-.18.3-.27,8.93-.63,14.91-6.8,16.09-15.29.62-4.47-.71-8.67-3.53-12.16-3.25-4.02-7.6-6.24-12.93-6.43,0-8.1,0-16.05,0-24Z"/><path class="cls-4" d="M193.08,48.33c-7.67,1.32-12.56,5.8-14.35,13.3-1.83,7.66,2.39,15.95,10,19.06,1.4.57,2.87.95,4.31,1.42,1.37-.06,2.74-.03,4.1-.2,6.43-.82,10.95-4.25,13.7-10.09.12-.26.27-.5.4-.75.35-2.06.69-4.13,1.04-6.19-.78-8.21-5.11-13.98-12.28-15.91-2.21-.59-4.61-.44-6.92-.64Z"/></g></svg>