<?xml version="1.0" encoding="UTF-8"?><svg id="_圖層_2" xmlns="http://www.w3.org/2000/svg" viewBox="0 0 796 449.75"><defs><style>.cls-1{fill:#299591;}.cls-2{fill:#da2c7e;}.cls-3{fill:#193456;}.cls-4{fill:#101d30;}.cls-5{fill:#217bac;}.cls-6{fill:#050c1d;}.cls-7{fill:#01795a;}.cls-8{fill:#183354;}.cls-9{fill:#163050;}.cls-10{fill:#09548b;}.cls-11{fill:#258d80;}.cls-12{fill:#2b9899;}.cls-13{fill:#0d6358;}</style></defs><g id="_飄移"><path class="cls-2" d="M59.41,315.29c-27.2-3.83-46.28-18.44-55.3-44.32-8.57-24.6-3.39-47.23,14.06-66.68,9.98-11.12,22.69-17.62,37.38-20.21,2.86-.5,5.78-.61,8.67-.91,4.51.32,9.04.51,13.54,1.01,5.28.59,10.22,2.5,15.17,4.32,2.91,1.53,5.82,3.06,8.74,4.59,2.45,1.76,4.89,3.53,7.34,5.29,1.86,1.75,3.73,3.49,5.59,5.24,1.29,1.49,2.57,2.99,3.86,4.48.85,1.16,1.71,2.32,2.56,3.48,1.7,2.82,3.4,5.65,5.1,8.47.77,1.84,1.54,3.68,2.31,5.52,1.14,4.28,2.36,8.53,3.39,12.83.51,2.1.68,4.28,1,6.43,0,2.79,0,5.59,0,8.38-.4,2.93-.63,5.89-1.25,8.77-.81,3.73-1.95,7.4-2.94,11.09-.94,2.11-1.87,4.22-2.81,6.32-1.05,1.85-2.11,3.7-3.16,5.54-.11.16-.22.31-.33.47-.09.11-.19.21-.28.32-.97,1.4-1.94,2.79-2.91,4.19l-3.85,4.54c-1.51,1.5-3.03,2.99-4.54,4.49-2.24,1.75-4.49,3.51-6.73,5.26-2.53,1.48-5.06,2.97-7.58,4.45-3.11,1.25-6.14,2.79-9.35,3.68-4.6,1.28-9.34,2.08-14.02,3.09-4.55-.05-9.1-.1-13.64-.14ZM92.64,249.37c.19-12.74-9.97-25.97-26-26.02-15.15-.04-26.09,12.14-26.12,26.12-.03,14.23,11.8,26.05,26.05,26.1,14.34.05,26.08-11.74,26.07-26.2Z"/><path class="cls-5" d="M464.47,178.92c.01-8.37.03-16.75.05-25.12,0-.23.07-.46.11-.69.08-.62.22-1.24.22-1.86.01-10.28,0-20.56,0-30.84v-2.32c2.32.13,4.37.25,6.43.36,5.69.35,11.13,1.8,16.46,3.73,5.84,2.12,11.17,5.21,16.26,8.73,2.57,2.22,5.13,4.44,7.7,6.66,1.04,1.13,2.07,2.26,3.11,3.39.95,1.18,1.9,2.36,2.84,3.54,1.17,1.73,2.35,3.46,3.52,5.2.95,1.74,1.9,3.48,2.85,5.21.96,2.33,1.93,4.66,2.89,6.99.79,2.9,1.67,5.77,2.33,8.7.58,2.58.91,5.21,1.35,7.81.12.09.24.19.36.28v5.51c.72,0,1.14.08,1.52-.01,7.43-1.71,14.65-4.07,21.51-7.41,5.12-2.5,10.05-5.4,14.38-9.12,3.57-3.06,7.11-6.21,10.27-9.67,3.72-4.06,6.81-8.65,9.45-13.52,2.67-4.91,4.99-9.97,6.57-15.35.86-2.93,1.59-5.89,2.38-8.84.04.95.08,1.91.13,2.86-.1,23.4-.22,46.81-.3,70.21-.06,16.36-.06,32.73-.07,49.09,0,.87.13,1.73.2,2.6-.08,1.9-.17,3.8-.25,5.7-5.15.09-10.24-.45-15.2-1.76-24.09-6.37-40.07-21.43-47.97-45.04-1.7-5.09-2.4-10.4-2.88-15.73v-3.89c-1.13.24-1.92.38-2.7.57-8.69,2.04-17.02,5.01-24.82,9.42-8.28,4.69-15.52,10.62-21.59,17.92-6.72,8.08-11.55,17.25-14.76,27.25-.86,2.68-1.57,5.41-2.35,8.11-.03-.69-.09-1.39-.09-2.08.01-18.5.03-36.99.05-55.49,0-3.71.02-7.42.03-11.13Z"/><path class="cls-5" d="M132.41,387.42c-1.02,5.06-1.49,10.32-3.16,15.16-8.24,23.82-24.67,39.09-49.38,44.38-22.93,4.9-43.22-1.29-60.11-17.52-11.02-10.59-17.38-23.77-19.24-39-1.76-14.38.9-27.91,7.91-40.59.24-.44.34-.96.5-1.45.24-.24.54-.44.72-.72,4.15-6.57,9.13-12.38,15.26-17.21,4.63-3.65,9.59-6.72,15.01-9.02,7.52-3.2,15.33-5.19,23.56-5.28.26,0,.52-.2.77-.31,1.39,0,2.79,0,4.18,0,.61.11,1.21.26,1.82.32,2.59.28,5.22.35,7.76.84,7.27,1.41,14.2,3.79,20.7,7.45,8.5,4.79,15.5,11.2,21.28,19,1.27,1.72,2.45,3.51,3.67,5.26.18.48.31.99.55,1.43,2.63,4.79,4.69,9.82,6.03,15.11.8,3.13,1.33,6.32,1.98,9.49.2.12.39.25.59.37h.01c-.91.52-.96,1.25-.14,1.97-.04,1.63-.08,3.26-.13,4.89-.05,1.81-.11,3.61-.16,5.42ZM105.88,368.99c-1.23-2.68-2.25-5.48-3.72-8.03-3.89-6.75-9.38-11.92-16.26-15.58-6.91-3.68-14.24-5.15-22.09-4.78-7.55.36-14.3,2.76-20.56,6.76-3.49,2.23-6.53,4.98-9.16,8.22-3.21,3.97-5.84,8.23-7.29,13.15-.13.25-.28.49-.37.76-1.94,6.02-2.51,12.18-1.65,18.45,3.01,21.78,22.36,37.58,44.27,36.04,13.67-.96,24.47-7.26,32.03-18.6,7.49-11.24,8.97-23.49,4.8-36.38Z"/><path class="cls-11" d="M464.47,178.92c0,3.71-.02,7.42-.03,11.13-.45,2.63-.83,5.27-1.35,7.88-5.76,28.83-31.83,51.07-61.19,52.23-3.28,0-6.55-.02-9.83-.03-.93-.12-1.86-.25-2.8-.37-1.05-.2-2.11-.41-3.16-.61-.93-.15-1.86-.29-2.79-.44-1.28-.35-2.57-.69-3.85-1.04-1.87-.66-3.74-1.32-5.62-1.98-2.44-1.11-4.87-2.22-7.31-3.34-.59-.32-1.22-.58-1.76-.96-3.03-2.13-6.04-4.28-9.06-6.43-2.16-2.11-4.45-4.12-6.47-6.36-10.54-11.72-16.29-25.47-17.09-41.23-.11-2.15-.1-4.3-.15-6.45.61-4.08.9-8.23,1.88-12.22,4.46-18.22,14.88-32.11,30.92-41.8.35-.21.68-.45,1.01-.68,5.33-2.73,10.79-5.19,16.68-6.43,3.73-.79,7.53-1.27,11.3-1.89,3.51-.09,7.02-.18,10.53-.27.16.18.3.5.48.52,7.07.65,13.9,2.35,20.31,5.36,20.99,9.84,33.87,26.11,38.36,48.91.42,2.15.66,4.34.98,6.51ZM386.12,224.12c1.52.36,3.04.72,4.55,1.08,2.56.24,5.12.48,7.67.72,2.32-.21,4.65-.29,6.94-.65,18.37-2.93,33.04-18.44,34.62-36.99,1.29-15.12-4.03-27.69-15.95-37.18-7.42-5.91-15.99-8.93-25.57-8.75-1.76.09-3.52.18-5.28.27-2.68.61-5.36,1.21-8.04,1.82-3.56,1.02-6.82,2.63-9.82,4.8-.11.06-.22.13-.33.19-.11.09-.21.17-.32.26-.99.69-2.06,1.29-2.96,2.08-12.07,10.64-17.14,23.9-14.51,39.85,1.09,6.6,3.66,12.66,8.02,17.86,1.85,1.99,3.71,3.97,5.56,5.96,2.1,1.52,4.2,3.04,6.3,4.56,1.63.83,3.26,1.66,4.9,2.49,1.4.54,2.8,1.08,4.19,1.62Z"/><path class="cls-13" d="M220.99,50.73c4.53-5.31,8.71-10.97,13.64-15.88,17.97-17.91,39.55-29.07,64.63-33.13,6.24-1.01,12.62-1.16,18.94-1.69.57-.05,1.15,0,2.08,0-.53,2.73-.95,5.29-1.53,7.81-4.19,18.06-11.6,34.7-22.08,49.98-.19.28-.33.6-.5.91-.36.45-.74.88-1.08,1.35-4.98,6.85-10.36,13.36-16.61,19.09-4.16,3.81-8.53,7.4-12.8,11.09-.1.1-.19.19-.29.29-5.25,3.38-10.5,6.76-15.75,10.15-2.22,1.12-4.41,2.29-6.67,3.34-9.25,4.31-18.51,8.63-28.46,11.16-2.73.69-5.48,1.31-8.23,1.97-2.22.38-4.44.75-6.66,1.13-.1-.5-.21-.99-.31-1.49,0-.57,0-1.14,0-1.71.1-.69.24-1.37.31-2.06.47-4.38.78-8.78,1.42-13.13,1.78-12.12,5.65-23.6,11.27-34.45,2.61-5.05,5.78-9.81,8.7-14.71Z"/><path class="cls-12" d="M471.29,118.46c-2.06-.12-4.11-.23-6.43-.36v2.32c0,10.28,0,20.56,0,30.84,0,.62-.14,1.24-.22,1.86.03-11.88.09-23.76.09-35.65,0-9.22,1.82-18.08,5.76-26.39,10.23-21.53,27.08-34.74,50.71-38.26,22.98-3.43,42.68,3.78,58.59,20.69,9.92,10.55,15.41,23.28,17.06,37.66.12,2.21.24,4.43.36,6.64-.05.23-.09.46-.14.68-1.65,0-3.29,0-4.94-.01-1.25,0-2.5,0-3.75,0-.69-.03-1.39-.08-2.08-.08-8.55,0-17.09,0-25.64-.01-9.88-.02-19.76-.06-29.64-.1-.12,0-.24-.01-.37-.02-1.75-.01-3.51-.02-5.26-.04-1.87,0-3.73,0-5.6,0-4.2,0-8.39,0-12.59,0-11.41-.04-22.82-.09-34.23-.11-.56,0-1.12.21-1.68.32Z"/><path class="cls-12" d="M63.29,182.8c-4.19-.66-8.49-.91-12.54-2.05-26.21-7.37-42.93-24.34-48.63-50.93C-5.15,95.94,15,62.99,48.17,53.01c5.38-1.62,10.89-2.46,16.49-2.67.74-.03,1.49,0,2.36,0,.02.54.06.93.06,1.32-.02,18.88-.05,37.75-.06,56.63,0,.5.2,1,.3,1.49,0,4.93,0,9.86-.01,14.79-.1.56-.28,1.12-.28,1.68-.09,12.32-.16,24.65-.23,36.97-.02,3.78,0,7.56,0,11.34v8.24h-3.51Z"/><path class="cls-12" d="M387.87,416.93c-3.01,3.84-5.72,7.96-9.07,11.48-9.93,10.45-22.11,16.96-36.35,19.33-19.36,3.22-36.93-1.14-52.37-13.25-13.38-10.5-21.45-24.31-24.31-41.1-.43-2.52-.55-5.09-.81-7.63.02-1.17.04-2.33.05-3.5l.05.06c8.61.01,17.21.03,25.82.02.73,0,1.45-.21,2.18-.31,3.38,0,6.76,0,10.13,0,.61.11,1.22.31,1.83.32,8.71.08,17.42.13,26.13.19.77,0,1.55.01,2.32.02,5.87-.03,11.73-.06,17.6-.09.23.05.45.14.68.14,7.96-.01,15.92-.04,23.87-.06,7.2,0,14.4,0,21.89,0-.24,3.04-.29,5.78-.72,8.45-.59,3.66-1.46,7.28-2.21,10.91-2.24,5.01-4.47,10.02-6.71,15.03Z"/><path class="cls-2" d="M265.02,382.26c-.02,1.17-.04,2.33-.05,3.5-.55,5.5-1.22,11-3.05,16.25-8.73,24.97-25.91,40.6-52.02,45.32-22.26,4.02-41.8-2.48-57.96-18.23-11.23-10.95-17.52-24.5-19.16-40.15-.05-.51-.24-1.01-.37-1.51.05-1.81.11-3.61.16-5.42,12.45,0,24.89.01,37.34.02.56.07,1.13.19,1.69.19,9.37.03,18.73.06,28.1.07,9.31,0,18.61-.03,27.92-.04,7.75.02,15.5.05,23.25.06,4.72,0,9.44-.03,14.15-.05Z"/><path class="cls-11" d="M596.71,321.81c-.44,2.55-.86,5.1-1.31,7.64-4.62,25.64-25.71,47.19-51.26,52.12-4.54.88-9.23.98-13.85,1.44v.02c-.04-1.29-.08-2.57-.12-3.86,0-1.4,0-2.79.01-4.19,0-5.13,0-10.26.01-15.39.01-5.72.03-11.43.04-17.15,0-6.54,0-13.08,0-19.63.01-3.94.03-7.88.04-11.82.11-.61.32-1.21.32-1.82.02-6.29.02-12.58.01-18.88,0-13.05-.02-26.1-.03-39.15.03-.11.05-.22.05-.33,1.04-.03,2.08-.06,3.12-.09,1.97.15,3.97.18,5.92.48,18.78,2.92,33.84,12.03,44.88,27.51,7.41,10.39,11.38,22.06,11.92,34.85v3.32c1.07,0,1.88,0,2.69,0,7.91,0,15.82,0,23.73.01.61,0,1.23.18,1.84.27-1.85.02-3.71.04-5.56.05-5.85.03-11.7.06-17.55.08-.32,0-.65,0-.97,0-.14,0-.28,0-.41-.01-1.13,0-2.27,0-3.52,0,0,1.62,0,3.07,0,4.51Z"/><path class="cls-2" d="M265.67,90.24c4.27-3.69,8.64-7.28,12.8-11.09,6.26-5.72,11.63-12.24,16.61-19.09.34-.47.72-.9,1.08-1.35,20.89,11.52,32.7,29.13,35.46,52.81.07.83.14,1.66.21,2.49-.19,4.2-.38,8.4-.57,12.6-3.93,27.84-24.74,50.15-52.28,55.78-4.42.9-9.01.93-13.52,1.37-.06-.18-.11-.37-.17-.55.03-1.66.05-3.31.08-4.97,0-7.54,0-15.08-.01-22.62.02-4.89.05-9.79.07-14.68,0-4.55,0-9.1-.01-13.65,0-4.2,0-8.4,0-12.6.04-4.79.08-9.58.12-14.36-.02-3.25-.04-6.51-.05-9.76.06-.11.12-.22.17-.34Z"/><path class="cls-3" d="M404.35,117.62c-3.51.09-7.02.18-10.53.27-2.79-.42-5.58-.77-8.35-1.27-5.37-.98-10.43-2.93-15.43-5.04-4.8-2.53-9.44-5.28-13.6-8.8-13.28-11.23-21.23-25.41-23.51-42.68-.37-2.8-.49-5.64-.73-8.56,12.78,0,25.29,0,37.81,0,.05,1.65-.12,3.34.19,4.93,1.4,7.19,4.79,13.19,10.62,17.82,4.47,3.55,9.53,5.65,15.1,6.07,9.08.68,17-2.07,23.44-8.79,5.32-5.56,7.96-12.12,8.05-19.76,10.43,0,20.86-.02,31.29-.03,1.97,0,3.95,0,5.91,0,1.46,28.32-21.66,62.62-60.27,65.85Z"/><path class="cls-5" d="M663.89,109.08c2.24-14.89,8.6-27.72,19.39-38.22,10.97-10.67,24.12-16.96,39.39-18.43,19.87-1.91,37.34,3.86,52.02,17.38,11.49,10.59,18.33,23.79,20.48,39.32.42,3.03.56,6.1.83,9.17-11.3,0-22.3,0-33.29,0-.18-2.14-.14-4.32-.56-6.41-3.67-18.11-20.97-29.3-38.26-26.27-15.8,2.76-27.57,16.68-27.42,32.46-.7.02-1.39.07-2.09.07-9.54,0-19.08,0-28.61,0-.78-.11-1.56-.21-2.34-.32.16-2.91.32-5.83.47-8.74Z"/><path class="cls-5" d="M265.7,242.37c1.42-12.64,6.13-23.94,14.14-33.79,11.09-13.64,25.44-21.67,42.85-24.14,2.92-.41,5.92-.34,8.88-.5,0,10.97-.01,21.94-.02,32.9-2.19.24-4.42.28-6.56.74-10.61,2.27-18.48,8.26-23.33,17.94-3.41,6.8-4.37,14.09-2.6,21.53,3,12.62,10.73,21,23.16,24.83,2.84.88,5.86,1.19,8.9,1.78.04.49.09,1.12.14,1.75,0,10.25,0,20.5,0,30.76-.11.1-.23.21-.34.31-1.63-.11-3.27-.19-4.89-.33-9.33-.82-18.15-3.36-26.36-7.91-13.21-7.32-22.86-17.92-29.01-31.7-2.62-5.87-4.3-12-4.96-18.41-.12-2.4-.23-4.8-.35-7.2.01-1.47.03-2.93.04-4.4.1-1.39.21-2.78.31-4.17Z"/><path class="cls-11" d="M605.3,415.93c7.52-12.25,17.74-21.43,30.94-27.23.48-.21.95-.42,1.43-.63,3.93-1.14,7.84-2.42,11.81-3.39,2.67-.65,5.45-.88,8.18-1.3,1.63-.01,3.25-.03,4.88-.04l-.03.06c.12.39.27.77.35,1.17,1.97,9.31,5.12,18.17,9.82,26.5,6.08,10.78,14.29,19.56,24.56,26.39,8.44,5.62,17.63,9.57,27.57,11.69.27.06.48.39.72.59-12.06-.02-24.12-.04-36.17-.06-30.41-.07-60.83-.14-91.24-.2-.57,0-1.14,0-1.79,0-.15-4.69.41-9.11,1.3-13.5,1-4.95,2.54-9.74,4.51-14.39.31-.73.7-1.43,1.05-2.14.7-1.17,1.4-2.34,2.1-3.51Z"/><path class="cls-8" d="M601.62,317.31c5.85-.03,11.7-.05,17.55-.08,1.85,0,3.71-.03,5.56-.05.7.02,1.4.06,2.09.06,12.06,0,24.11-.03,36.17,0,22,.07,44,.19,66.01.29.03.95.06,1.9.09,2.86-.11,1.06-.22,2.13-.33,3.19-.12,1.15-.23,2.3-.35,3.45-4.7,25.63-19.15,43.22-43.5,52.57-5.17,1.99-10.57,3.15-16.14,3.44-2.08.12-4.17.23-6.25.35l.03-.06c-.06-.57-.06-1.16-.18-1.72-1.3-6.08-3.21-11.96-5.64-17.69-3.81-8.96-9.03-16.99-15.77-23.99-4.64-4.82-9.8-9.08-15.63-12.37-4.03-2.27-8.3-4.1-12.46-6.12-3.06-1.05-6.13-2.09-9.18-3.17-.71-.25-1.37-.64-2.06-.97Z"/><path class="cls-3" d="M696.46,118.06c-.15-15.79,11.62-29.7,27.42-32.46,17.29-3.02,34.59,8.16,38.26,26.27.42,2.09.38,4.27.56,6.41-2.36.09-4.73.18-7.09.27-4.67,0-9.33,0-14,0-2.1,0-4.2,0-6.3,0-1.84,0-3.69,0-5.59,0-.21,2.77-.42,5.41-.62,8.05-.24,1.37-.46,2.75-.72,4.12-5.9,31.12-33.45,53.77-65.15,53.58,0-8.18,0-16.36.02-24.55,0-2.78.1-5.56.16-8.34,1.55-.13,3.13-.14,4.66-.4,8.01-1.41,14.9-4.86,20.25-11.15,5.35-6.3,8.26-13.47,8.14-21.79Z"/><path class="cls-3" d="M597.5,90.49c-.52-4.66-.47-9.27.68-13.86,3.99-15.93,19.78-26.75,36.01-24.62,15.1,1.98,26.43,12.73,28.87,27.76.53,3.28.15,6.72.18,10.08-.08.35-.16.71-.25,1.06-.04.35-.08.7-.12,1.04-.23.71-.47,1.42-.67,2.13-3.81,13.44-15.86,22.97-29.28,23.85-2.51-.04-5.02-.08-7.53-.11-1.96-.51-3.97-.91-5.89-1.56-6.95-2.37-12.41-6.75-16.69-12.66-.62-1.11-1.4-2.16-1.84-3.33-1.23-3.23-2.32-6.52-3.46-9.78Z"/><path class="cls-7" d="M530.29,383.01c-.14,17.46-6.15,32.63-18.1,45.34-10.56,11.23-23.55,18.07-38.86,20.08-22.11,2.91-41.17-3.62-56.88-19.41-9.56-9.61-15.39-21.28-17.75-34.66-.14-.77-.42-1.51-.63-2.27-.01-.34-.03-.69-.04-1.03,0-.12,0-.24,0-.35-.02-.59-.04-1.17-.06-1.76.06-.12.05-.22-.04-.32-.05-.51-.15-1.02-.13-1.53.05-1.5.15-2.99.23-4.48,5.01.04,10.02.08,15.02.12.24,3.12.24,6.27.77,9.34,1.75,10.19,6.47,18.93,13.57,26.38,4.53,4.75,9.9,8.34,15.92,11.05,9.87,4.45,20.17,5.43,30.64,3.41,11.65-2.25,21.44-8.01,29.09-17.21,7.86-9.46,11.98-20.28,11.86-32.64,3.96-.03,7.92-.06,11.88-.1,1.05,0,2.09-.01,3.14-.02.12.03.25.06.37.1v-.02Z"/><path class="cls-7" d="M67.31,124.57c0-4.93,0-9.86.01-14.79,1.01-10.5,4.52-20.14,10.34-28.87,10.63-15.94,25.47-25.65,44.33-29.05,3.64-.66,7.4-.61,11.11-.89.13,1.19.26,2.38.39,3.56-.03,1.5-.06,3.01-.09,4.51-.06,2.36-.11,4.72-.17,7.08-1.38.1-2.77.25-4.15.29-4.28.11-8.4,1.09-12.4,2.47-10.6,3.65-19.15,10.1-25.52,19.33-5.04,7.3-7.96,15.37-8.8,24.26-.52,5.45-.2,10.77,1.03,16.05,2.62,11.23,8.3,20.64,17.23,27.97,9.35,7.67,20.11,11.62,32.23,11.74l.11.02h.12c.04,2.53.08,5.08.12,7.62,0,2.36-.02,4.72-.03,7.08-.02.09-.06.18-.09.27-2.19.02-4.37.03-6.56.05-1.29-.2-2.58-.4-3.86-.61-1.28-.23-2.57-.47-3.85-.7-2.07-.55-4.15-1.1-6.22-1.66-2.71-1.08-5.42-2.17-8.12-3.25-3.38-2-6.76-4-10.15-6-.26-.22-.51-.46-.79-.67-8.86-6.65-15.7-14.96-20.4-24.99-3.1-6.6-5.2-13.51-5.82-20.81Z"/><path class="cls-7" d="M662.51,383.4c2.08-.12,4.17-.23,6.25-.35.27.21.52.58.81.61,8.07.78,15.75,2.98,22.89,6.76,19.07,10.11,30.91,25.72,35.19,46.96.82,4.05,1.17,8.14,1.06,12.36h-1.79c-.24,0-.48,0-.72,0-.22,0-.44,0-.66,0-.24-.2-.45-.53-.72-.59-9.95-2.12-19.13-6.07-27.57-11.69-10.27-6.83-18.48-15.62-24.56-26.39-4.7-8.32-7.85-17.18-9.82-26.5-.08-.4-.23-.78-.35-1.17Z"/><path class="cls-10" d="M133.5,54.53c-.13-1.19-.26-2.38-.39-3.56.84-1.11,1.92-.11,2.86-.32.59.19,1.16.42,1.76.56,7.6,1.85,14.85,4.55,21.7,8.36,4.79,2.67,9.36,5.66,13.39,9.33,4.12,3.75,8.04,7.72,11.35,12.27,5.74,7.87,9.98,16.45,12.73,25.79.8,2.71,1.61,5.41,2.41,8.12,0,.57,0,1.14,0,1.71-1.32.03-2.65.05-3.97.08-1.32-.14-2.64-.28-3.96-.41-6.61-.64-12.9-2.47-18.93-5.22-14.79-6.74-25.73-17.45-32.79-32.08-3.07-6.36-5.18-13.02-5.8-20.09-.11-1.52-.23-3.03-.34-4.55Z"/><path class="cls-4" d="M612.86,321.45c4.16,2.02,8.43,3.85,12.46,6.12,5.84,3.29,10.99,7.55,15.63,12.37,6.75,7,11.97,15.03,15.77,23.99,2.43,5.73,4.35,11.6,5.64,17.69.12.56.13,1.15.18,1.72-1.63.01-3.25.03-4.88.04-2.16-.31-4.32-.58-6.47-.94-6.32-1.06-12.3-3.16-18.06-5.93-11.36-5.81-20.42-14.12-27.08-25.02-.21-.34-.35-.71-.53-1.07.81-1.88,1.87-3.69,2.39-5.65,1.22-4.62,2.24-9.31,3.24-13.99.66-3.09,1.13-6.22,1.69-9.34Z"/><path class="cls-5" d="M199.3,115.07c-.8-2.71-1.61-5.41-2.41-8.12-2.75-9.33-6.98-17.92-12.73-25.79-3.32-4.54-7.23-8.52-11.35-12.27-4.03-3.67-8.6-6.67-13.39-9.33-6.85-3.81-14.11-6.51-21.7-8.36-.6-.15-1.17-.37-1.76-.56,6.57-.02,13.15-.04,19.72-.06.7,0,1.4.04,2.09.04,20.55.02,41.1.04,61.65.06.52,0,1.05.03,1.57.05-2.92,4.89-6.08,9.66-8.7,14.71-5.61,10.85-9.49,22.33-11.27,34.45-.64,4.35-.95,8.75-1.42,13.13-.07.69-.21,1.37-.31,2.06Z"/><path class="cls-4" d="M427.42,51.79c-.08,7.65-2.72,14.2-8.05,19.76-6.44,6.73-14.36,9.48-23.44,8.79-5.58-.42-10.64-2.52-15.1-6.07-5.82-4.62-9.21-10.63-10.62-17.82-.31-1.6-.14-3.29-.19-4.93,6.92,0,13.84,0,20.76.01,3.14,0,6.28.06,9.42.07,7.27.01,14.55,0,21.82.01,1.8,0,3.6.11,5.4.17Z"/><path class="cls-12" d="M64.26,315.86c-.26.11-.51.31-.77.31-8.23.09-16.04,2.08-23.56,5.28-5.42,2.3-10.38,5.37-15.01,9.02-6.13,4.83-11.11,10.64-15.26,17.21-.18.28-.48.48-.72.72-3.3-5.28-5.6-11.01-6.85-17.05-.98-4.76-1.3-9.66-1.9-14.5-.05-.39,0-.79,0-1.33,19.79,0,39.46,0,59.13,0,1.65.11,3.29.23,4.94.34Z"/><path class="cls-6" d="M612.86,321.45c-.56,3.11-1.03,6.25-1.69,9.34-1,4.68-2.02,9.36-3.24,13.99-.52,1.96-1.58,3.77-2.39,5.65-2.51-3.81-4.17-8.01-5.62-12.31-1.79-5.29-2.91-10.72-3.2-16.3,0-1.45,0-2.9,0-4.51,1.26,0,2.39,0,3.52,0,.14,0,.28,0,.41.01.32,0,.65,0,.97,0,.68.33,1.35.72,2.06.97,3.05,1.08,6.12,2.12,9.18,3.17Z"/><path class="cls-11" d="M264.79,241.36c.2,1.73.4,3.46.61,5.18-.01,1.47-.03,2.93-.04,4.4-.11,1.59-.23,3.18-.34,4.77-.09.21-.24.41-.25.62-.33,5.45-1.69,10.66-3.48,15.79-.7,1.75-1.4,3.5-2.1,5.24-.72,1.5-1.45,3-2.17,4.5-1.03,1.65-2.05,3.3-3.08,4.95-.74,1.1-1.48,2.19-2.22,3.29-.57.64-1.13,1.27-1.7,1.91-.69.83-1.38,1.66-2.07,2.49-.81.84-1.62,1.68-2.44,2.52-1.65,1.48-3.29,2.95-4.94,4.43-1.98,1.42-3.95,2.83-5.93,4.25-2.1,1.18-4.2,2.35-6.3,3.53-4.59,1.62-9.12,3.5-13.8,4.79-3.79,1.05-7.77,1.39-11.67,2.05-2.82.02-5.65.04-8.47.06-2.17-.35-4.34-.66-6.5-1.07-20.89-3.96-36.65-15.16-47.07-33.69-4.47-7.96-7.07-16.56-7.7-25.71-.1-.81-.21-1.63-.31-2.44,0-2.79,0-5.59,0-8.38.1-.48.2-.96.31-1.44.29-2.24.42-4.52.88-6.72,3.24-15.46,10.88-28.33,23.13-38.32,11.23-9.16,24.13-14.17,38.67-14.78,2.08-.11,4.16-.23,6.25-.34.36.12.7.3,1.07.35,3.22.44,6.46.75,9.66,1.31,5.29.92,10.25,2.91,15.16,5.02,2.81,1.63,5.63,3.26,8.44,4.89,2.2,1.7,4.39,3.4,6.59,5.09,1.89,1.91,3.77,3.82,5.66,5.72,1.4,1.76,2.79,3.53,4.19,5.29,1.98,3.27,3.97,6.53,5.95,9.8.81,1.88,1.63,3.75,2.44,5.63.88,3.23,1.82,6.45,2.62,9.7.43,1.73.64,3.52.95,5.28ZM240.77,252.87c.03-1,.06-2,.08-3-.09-1.56-.16-3.11-.27-4.67-.29-4.45-1.54-8.67-3.4-12.69-2.66-5.76-6.38-10.71-11.28-14.84-7.6-6.41-16.4-9.47-26.17-9.87-4.04-.17-8.05.51-12,1.61-8.47,2.35-15.49,6.98-21,13.68-6.3,7.68-9.75,16.53-9.43,26.64.23,2.87.19,5.8.75,8.6,2.11,10.47,7.66,18.95,16.22,25.18,9.42,6.86,20.06,9.53,31.71,7.49,5.32-.93,10.32-2.78,14.84-5.71,3.21-2.08,6.48-4.17,8.89-7.26,6.56-6.98,10.28-15.2,10.87-24.8.06-.12.12-.25.18-.37Z"/><path class="cls-2" d="M597.2,117.82c1.14,0,2.28.02,3.41.02,8.25,0,16.51-.01,24.76-.02,2.51.04,5.02.08,7.53.11.52.06,1.03.18,1.55.18,9.6,0,19.2-.02,28.8-.04.09.07.2.12.31.15-.09,2.62-.24,5.23-.26,7.85-.04,6.29-.02,12.59,0,18.88,0,2.15.07,4.31.11,6.46-.06,2.78-.15,5.56-.16,8.34-.02,8.18-.01,16.36-.02,24.55l.04.06c-1.55-.08-3.11-.09-4.65-.26-3.02-.33-6.03-.75-9.04-1.14-3.5-1.04-7-2.09-10.5-3.13-3.94-2.01-7.88-4.03-11.82-6.04-.97-.7-1.94-1.39-2.9-2.1-11.02-8.15-18.89-18.63-23.5-31.56-1.96-5.5-3.09-11.17-3.67-16.97-.04-.95-.08-1.91-.13-2.86,0-.6,0-1.2,0-1.8.05-.23.09-.46.14-.68Z"/><path class="cls-7" d="M596.76,250.77c.08-1.9.17-3.8.25-5.7.14-1.27.26-2.54.44-3.8,1.25-9.1,4.41-17.52,9.23-25.32,4.65-7.52,10.69-13.74,17.73-19.03,4.31-2.38,8.61-4.76,12.92-7.14,3.97-1.25,7.94-2.51,11.91-3.76,4.68-.47,9.35-.94,14.03-1.41,4.1.4,8.27.48,12.29,1.27,15.69,3.07,28.69,10.84,38.84,23.21,7.96,9.7,12.73,20.83,14.34,33.29.2,2.17.41,4.33.61,6.5-.1.76-.2,1.51-.3,2.27-5.02-.02-10.04-.05-15.07-.07-.35-3.45-.46-6.94-1.09-10.34-2.19-11.84-8.28-21.51-17.43-29.13-7.59-6.33-16.4-10.2-26.35-11.23-5.76-.6-11.47-.53-17.12.75-12.52,2.84-22.62,9.48-30.25,19.75-6.56,8.84-9.53,18.98-9.94,29.92-5.02,0-10.04,0-15.05-.01Z"/><path class="cls-10" d="M597.06,118.5c0,.6,0,1.2,0,1.8-.79,2.95-1.52,5.92-2.38,8.84-1.58,5.37-3.91,10.43-6.57,15.35-2.64,4.86-5.73,9.45-9.45,13.52-3.17,3.46-6.7,6.61-10.27,9.67-4.34,3.72-9.26,6.62-14.38,9.12-6.86,3.34-14.08,5.7-21.51,7.41-.38.09-.8.01-1.52.01v-5.51c.1-1.05.2-2.1.29-3.15.25-1.43.48-2.86.76-4.28,5.4-27.46,28.52-48.98,56.34-52.46,1.26-.11,2.51-.22,3.77-.32,1.65,0,3.29,0,4.94.01Z"/><path class="cls-10" d="M530.71,188.24c-.06,1.01-.12,2.03-.18,3.04-.5,2.71-.81,5.48-1.56,8.13-1.16,4.1-2.62,8.11-3.95,12.17-.94,1.85-1.87,3.69-2.81,5.54-1.16,1.77-2.31,3.53-3.47,5.3-1.64,2.1-3.29,4.2-4.93,6.3-1.52,1.56-3.04,3.12-4.57,4.68-1.98,1.58-3.96,3.17-5.95,4.75-1.75,1.13-3.49,2.25-5.24,3.38-2.33,1.21-4.67,2.41-7,3.62-.28.08-.56.13-.83.24-6.85,2.89-14.03,4.4-21.41,5.09-1.52-.03-3.04-.06-4.56-.09.08-.92.16-1.84.24-2.76.78-2.71,1.49-5.43,2.35-8.11,3.21-10,8.04-19.17,14.76-27.25,6.07-7.3,13.31-13.23,21.59-17.92,7.8-4.41,16.13-7.38,24.82-9.42.78-.18,1.57-.33,2.7-.57v3.89Z"/><path class="cls-8" d="M194.4,316.13c2.82-.02,5.65-.04,8.47-.06,4.29.68,8.62,1.19,12.86,2.09,5.18,1.1,9.97,3.38,14.71,5.69,2.89,1.88,5.79,3.77,8.68,5.65,3.02,2.81,6.04,5.61,9.06,8.42.31.42.59.86.93,1.25,6.58,7.69,11.18,16.43,13.69,26.23.8,3.14,1.28,6.37,1.91,9.55.04.81.09,1.62.13,2.43.01.12.02.24.03.36.01.23.02.47.03.7-.03.23-.06.47-.08.7.08,1.05.16,2.1.25,3.16l-.05-.06c-4.72.02-9.44.05-14.15.05-7.75,0-15.5-.04-23.25-.06-.11-.68-.28-1.36-.32-2.05-.42-7.96-3.73-14.49-9.74-19.68-6.02-5.2-12.88-7.72-20.97-6.96-4.43.42-8.55,1.47-12.34,3.75-9.31,5.6-14.01,13.9-14.34,24.72-12.45,0-24.89-.01-37.34-.02.04-1.63.08-3.26.13-4.89.05-.66.09-1.32.14-1.98,0,0-.01,0-.01,0,.15-1.27.24-2.55.46-3.81,2.92-16.53,10.8-30.21,23.86-40.76,10.84-8.76,23.28-13.64,37.26-14.44Z"/><path class="cls-12" d="M105.88,368.99c-4.58,3.08-9.25,6-14.44,7.97-2.59.98-5.28,1.72-7.92,2.57-.48-1.46-.86-2.96-1.44-4.38-3.16-7.73-11.6-12.03-19.39-10.17-7.62,1.82-12.18,6.79-13.52,14.59-8.18-2.12-15.6-5.81-22.37-10.84,1.46-4.92,4.08-9.19,7.29-13.15,2.62-3.24,5.67-6,9.16-8.22,6.26-4,13.01-6.4,20.56-6.76,7.86-.37,15.18,1.09,22.09,4.78,6.88,3.67,12.37,8.83,16.26,15.58,1.47,2.55,2.49,5.34,3.72,8.03Z"/><path class="cls-12" d="M73.75,315.56c.46.02.92.03,1.38.05,1.5.04,3,.07,4.51.11,5.61,0,11.21-.02,16.82-.02.23-.01.45-.03.68-.04,3.03,0,6.06,0,9.09,0,2.68.03,5.36.05,8.04.08,1.87,0,3.73,0,5.6.01,1.52,0,3.04,0,4.55,0,1.4,0,2.8,0,4.2.01,1.27.02,2.55.04,3.82.06.27,5-.28,9.94-1.57,14.74-1.14,4.22-2.7,8.33-4.07,12.49-1.04,1.89-2.08,3.78-3.12,5.66-1.22-1.76-2.39-3.55-3.67-5.26-5.78-7.79-12.78-14.21-21.28-19-6.5-3.66-13.43-6.04-20.7-7.45-2.55-.49-5.17-.56-7.76-.84-.61-.07-1.22-.21-1.82-.32,1.77-.1,3.54-.2,5.31-.3Z"/><path class="cls-5" d="M202.04,183.26c-2.08.11-4.16.23-6.25.34-.46-.13-.92-.37-1.38-.37-7.33-.07-14.65-.14-21.98-.16-13.09-.05-26.17-.08-39.26-.12,0-2.36.02-4.72.03-7.08.56-2.9.93-5.86,1.72-8.69,7.19-25.78,23.78-42.05,49.74-48.63,3.47-.88,7.1-1.13,10.66-1.67,1.32-.03,2.65-.05,3.97-.08.1.5.21.99.31,1.49.03.29.01.59.08.87,2.09,8.55,4.9,16.81,9.18,24.56,4.92,8.91,11.29,16.58,19.18,22.99,7.48,6.07,15.83,10.59,24.95,13.63,3.39,1.13,6.89,1.94,10.34,2.9-1.76.04-3.51.07-5.27.11-1.75,0-3.5.02-5.25.02-2.21-.01-4.43-.03-6.64-.04-2.57,0-5.13,0-7.7,0-3.15,0-6.3,0-9.45,0-9-.02-17.99-.04-26.99-.06Z"/><path class="cls-10" d="M263.34,183.23c-3.45-.96-6.95-1.77-10.34-2.9-9.12-3.05-17.47-7.56-24.95-13.63-7.89-6.41-14.25-14.08-19.18-22.99-4.28-7.75-7.09-16.01-9.18-24.56-.07-.28-.06-.58-.08-.87,2.22-.38,4.44-.75,6.66-1.13,4.57,1,9.2,1.78,13.69,3.06,6.45,1.83,12.24,5.15,17.8,8.85,2.32,1.92,4.64,3.84,6.95,5.75,2.01,2.16,4.02,4.31,6.04,6.47,1.37,1.88,2.74,3.76,4.12,5.64,1.37,2.44,2.75,4.89,4.12,7.33.97,2.35,1.94,4.7,2.92,7.05.48,1.67,1.08,3.31,1.41,5.01.76,3.97,1.4,7.96,2.08,11.94-.03,1.66-.05,3.31-.08,4.97-.66,0-1.31,0-1.97.01Z"/><path class="cls-2" d="M383.93,356.71c-3.25,3.37-6.47,6.77-9.77,10.08-1.18,1.18-2.57,2.15-3.86,3.21-1.51.96-3.01,1.95-4.54,2.89-7.94,4.87-16.58,7.79-25.78,9.13-2.16.17-4.33.35-6.49.52-.77,0-1.55-.01-2.32-.02-.01-9.79-.03-19.58-.04-29.37-.04-2.64-.08-5.28-.12-7.92.07-.63.2-1.26.2-1.9.03-8.42.06-16.83.06-25.25,0-.54-.22-1.07-.34-1.61.11-.1.23-.21.34-.31,4.06,0,8.12-.02,12.18-.02,7,.02,14,.03,20.99.05.7.02,1.39.04,2.09.05,10.32.09,20.64.18,30.97.27-.25,3.16-.32,6.35-.79,9.49-.51,3.41-1.39,6.76-2.11,10.13-1.42,3.49-2.84,6.99-4.26,10.48-2.13,3.37-4.26,6.73-6.4,10.1Z"/><path class="cls-3" d="M331,345.24c.04,2.64.08,5.28.12,7.92-.44,1.98-.7,4.02-1.35,5.92-4.38,12.79-13.18,20.54-26.56,22.95-3.38,0-6.76,0-10.13,0-.57-.09-1.16-.14-1.72-.26-13.64-2.95-23.37-13.09-26-27.08l-.23-1.09c-.03-.46-.06-.93-.1-1.39.05-.11.05-.22-.02-.33-.02-.24-.04-.47-.06-.71.04-1.87.08-3.74.11-5.6.1-.59.2-1.19.31-1.78,2.64-15.1,15.09-26.66,30.82-27.55,17.57-.99,32.55,11.55,34.81,29Z"/><path class="cls-4" d="M169.91,382.02c.33-10.82,5.03-19.12,14.34-24.72,3.79-2.28,7.91-3.34,12.34-3.75,8.09-.76,14.95,1.77,20.97,6.96,6.01,5.18,9.31,11.72,9.74,19.68.04.69.21,1.37.32,2.05-9.31.01-18.61.04-27.92.04-9.37,0-18.73-.03-28.1-.07-.56,0-1.13-.13-1.69-.19Z"/><path class="cls-2" d="M397.96,313.42c.11-1.15.22-2.29.33-3.44,3.15-25.19,16.28-43.17,39.2-53.96,8.43-3.97,17.45-5.58,26.76-5.64,1.52.03,3.04.06,4.56.09,1.26.16,2.51.32,3.77.47,6.55.8,12.8,2.66,18.85,5.25,2.2,1.13,4.39,2.25,6.59,3.38,1.75,1.16,3.51,2.33,5.26,3.49,2,1.65,3.99,3.3,5.99,4.94,1.55,1.59,3.09,3.19,4.64,4.78,1.84,2.37,3.67,4.74,5.51,7.11,1.29,2.2,2.58,4.39,3.87,6.59.85,1.96,1.7,3.92,2.55,5.89,1.09,3.76,2.29,7.5,3.24,11.3.6,2.39.82,4.88,1.21,7.32-.01,3.94-.03,7.88-.04,11.82-.16.96-.27,1.93-.48,2.87-.87,3.95-1.77,7.89-2.65,11.83-1.37,3.27-2.75,6.55-4.12,9.82-1.66,2.68-3.31,5.35-4.97,8.03-1.39,1.76-2.78,3.52-4.17,5.28-3.18,2.95-6.35,5.9-9.53,8.84-.86.59-1.73,1.17-2.59,1.76-8.71,6.01-18.36,9.61-28.8,11.13-2.16.18-4.33.35-6.49.53-1.52,0-3.03,0-4.55,0-2.37-.21-4.76-.28-7.11-.66-21.02-3.39-37.05-14.2-48-32.47-4.84-8.08-7.61-16.86-8.49-26.24l-.12-1.11c-.07-3-.14-6-.21-9ZM464.25,290.59c-14.37-.04-26.17,11.71-26.19,26.09-.02,14.06,11.78,26.02,25.72,26.06,14.63.04,26.44-11.51,26.51-25.93.07-14.4-11.62-26.17-26.03-26.21Z"/><path class="cls-12" d="M596.47,313.57c.52-3.38.87-6.79,1.58-10.13,3.04-14.37,10.16-26.38,21.14-36.12.39-.35.75-.72,1.13-1.08,3.33-2.29,6.67-4.57,10-6.86,3.16-1.47,6.31-2.94,9.47-4.41.28-.04.57-.07.85-.13,4.14-1.02,8.25-2.22,12.43-3.02,3.04-.58,6.18-.64,9.27-.93,1.22-.03,2.44-.13,3.65-.08,1.3.04,2.6.21,3.89.33,1.65.29,3.3.55,4.95.86,14.03,2.66,26.05,9.08,35.89,19.43,10.54,11.08,16.6,24.25,18.02,39.51.08,2.21.16,4.42.24,6.63-22-.1-44-.22-66.01-.29-12.06-.04-24.11,0-36.17,0-.7,0-1.4-.04-2.09-.06-.61-.09-1.23-.27-1.84-.27-7.91-.02-15.82-.01-23.73-.01-.81,0-1.62,0-2.69,0v-3.32Z"/><path class="cls-3" d="M331.54,216.85c-.02,10.38-.03,20.77-.05,31.15-.09.55-.29,1.11-.27,1.66.05,1.33.3,2.65.3,3.97.03,9.78.02,19.55.02,29.33-.1.82-.2,1.64-.3,2.46-.05-.63-.1-1.26-.14-1.75-3.04-.59-6.06-.91-8.9-1.78-12.43-3.83-20.17-12.21-23.16-24.83-1.77-7.44-.8-14.73,2.6-21.53,4.85-9.68,12.72-15.67,23.33-17.94,2.14-.46,4.37-.5,6.56-.74Z"/><path class="cls-6" d="M331.26,285.42c.1-.82.2-1.64.3-2.46.83.1,1.66.2,2.5.3,4.85.41,9.37,1.86,13.6,4.25-.23,2.06-.42,4.12-.71,6.17-.51,3.7-1.04,7.4-1.62,11.09-.6,3.8-1.25,7.6-1.89,11.4-4.06,0-8.12.02-12.18.02,0-10.25,0-20.5,0-30.76Z"/><path class="cls-11" d="M461.89,382.9c1.52,0,3.03,0,4.55,0,7.04-.02,14.09-.04,21.13-.06,7.36.02,14.71.03,22.07.05,1.76.05,3.52.1,5.27.15.12,12.36-4,23.18-11.86,32.64-7.65,9.2-17.44,14.96-29.09,17.21-10.47,2.02-20.76,1.03-30.64-3.41-6.02-2.71-11.39-6.3-15.92-11.05-7.1-7.44-11.82-16.19-13.57-26.38-.53-3.07-.53-6.22-.77-9.34.7-.02,1.39-.06,2.09-.06,15.58.08,31.16.16,46.74.23Z"/><path class="cls-11" d="M132.86,168.22c-12.12-.13-22.88-4.07-32.23-11.74-8.93-7.33-14.61-16.74-17.23-27.97-1.23-5.28-1.55-10.6-1.03-16.05.84-8.89,3.77-16.96,8.8-24.26,6.37-9.23,14.92-15.69,25.52-19.33,4-1.38,8.12-2.36,12.4-2.47,1.39-.04,2.77-.19,4.15-.29,0,4.07-.02,8.14-.02,12.21-.02,21.58-.03,43.17-.05,64.75,0,.58-.04,1.16-.07,1.74-.08.5-.24,1-.24,1.49-.01,7.3,0,14.61,0,21.91Z"/><path class="cls-12" d="M133.84,59.07c-.14-.01-.29-.02-.43-.04.03-1.5.06-3.01.09-4.51.11,1.52.23,3.03.34,4.55Z"/><path class="cls-9" d="M347.65,287.51c-4.23-2.39-8.75-3.84-13.6-4.25.22-2.12.47-4.23.64-6.35.38-4.59.79-9.19,1.04-13.79.23-4.27.25-8.56.37-12.84,2.37.29,4.78.38,7.1.9,3.96.89,7.86,2.05,11.79,3.09,3.73,1.86,7.47,3.71,11.2,5.57,2.57,1.87,5.14,3.75,7.71,5.62,1.85,1.75,3.71,3.51,5.56,5.26,1.59,1.85,3.18,3.71,4.77,5.56,1.19,1.72,2.37,3.45,3.56,5.17,1.33,2.48,2.65,4.96,3.98,7.44,1.43,4.46,3.07,8.86,4.22,13.39.81,3.17.95,6.52,1.4,9.78.06.45.19.89.28,1.33-.06,1.04-.12,2.08-.18,3.11-10.32-.09-20.64-.18-30.97-.27-.7,0-1.39-.03-2.09-.05-.41-12.59-5.92-22.21-16.78-28.69Z"/><path class="cls-4" d="M336.1,250.28c-.12,4.28-.14,8.56-.37,12.84-.25,4.6-.66,9.2-1.04,13.79-.17,2.12-.43,4.23-.64,6.35-.83-.1-1.66-.2-2.5-.3,0-9.78,0-19.55-.02-29.33,0-1.32-.25-2.65-.3-3.97-.02-.55.17-1.11.27-1.66.03.62.06,1.25.09,1.96,1.5.11,3.01.22,4.52.33Z"/><path class="cls-1" d="M157.31,249.73c-.32-10.11,3.13-18.96,9.43-26.64,5.5-6.71,12.53-11.33,21-13.68,3.95-1.1,7.96-1.77,12-1.61,9.77.4,18.57,3.46,26.17,9.87,4.9,4.14,8.62,9.09,11.28,14.84,1.86,4.01,3.1,8.23,3.4,12.69.1,1.56.18,3.11.27,4.67-4.42.02-8.84.04-13.26.06-1.26-.02-2.52-.04-3.78-.06-1.06,0-2.12-.02-3.18-.03-1.39,0-2.78-.02-4.17-.03-.09.1-.18.2-.28.3-.64,9.09-6.91,15.16-15.55,16.36-4.55.63-8.82-.72-12.37-3.59-4.09-3.31-6.35-7.74-6.54-13.15-8.23,0-16.32,0-24.41,0Z"/><path class="cls-11" d="M669.89,251.12c-1.3-.11-2.59-.28-3.89-.33-1.22-.04-2.44.05-3.65.08-5.68-.02-11.36-.05-17.04-.05-1.97,0-3.93.08-5.9.12-2.44,0-4.87-.02-7.31-.03l-2.83-.04c-3.37,0-6.74,0-10.11.01-2.44-.04-4.89-.08-7.33-.12.41-10.94,3.37-21.07,9.94-29.92,7.62-10.27,17.73-16.91,30.25-19.75,5.66-1.28,11.36-1.35,17.12-.75,9.96,1.04,18.76,4.91,26.35,11.23,9.15,7.62,15.24,17.29,17.43,29.13.63,3.4.74,6.89,1.09,10.34-.64.02-1.28.06-1.91.06-14.06,0-28.13,0-42.19,0Z"/><path class="cls-5" d="M49.16,379.57c1.34-7.8,5.9-12.78,13.52-14.59,7.79-1.86,16.23,2.43,19.39,10.17.58,1.42.97,2.92,1.44,4.38-.06,1.39-.03,2.79-.2,4.17-.83,6.54-4.33,11.14-10.26,13.94-.26.12-.51.27-.76.41-2.1.35-4.2.71-6.3,1.06-8.35-.79-14.22-5.19-16.18-12.49-.6-2.24-.45-4.69-.65-7.04Z"/><path class="cls-11" d="M389.28,199.06c-1.27-.98-2.53-1.96-3.8-2.94-1.3-2.07-2.6-4.14-3.89-6.21-1.15-4.31-1.36-8.59.58-12.73.76-1.62,1.73-3.14,2.6-4.7.76-.58,1.48-1.2,2.27-1.73,1.19-.79,2.42-1.52,3.63-2.27,2.45-1,4.98-1.62,7.65-1.56,1.07.11,2.16.15,3.22.36,6.5,1.27,12.07,7,13.24,13.57,1.7,9.48-4.25,18.23-13.7,20.13-.85.17-1.74.18-2.6.26-1.55-.14-3.09-.28-4.64-.42-1.52-.58-3.03-1.16-4.55-1.74Z"/><path class="cls-4" d="M347.65,287.51c10.86,6.48,16.37,16.1,16.78,28.69-7-.02-14-.03-20.99-.05.63-3.8,1.29-7.59,1.89-11.4.58-3.69,1.11-7.39,1.62-11.09.28-2.05.47-4.11.71-6.17Z"/></g></svg>