<?xml version="1.0" encoding="UTF-8"?><svg id="_圖層_2" xmlns="http://www.w3.org/2000/svg" viewBox="0 0 199.83 36.58"><defs><style>.cls-1{fill:#fff;}</style></defs><g id="_按鈕"><path class="cls-1" d="M60.76,2.12c-.53,2.08-1.35,4.08-2.83,5.46-.07-.09-.2-.25-.3-.33,1.39-1.28,2.19-3.17,2.69-5.13h-2.34v-.42h2.44c.13-.57.24-1.14.33-1.7l.44.07c-.1.53-.21,1.08-.33,1.62h4.77v.42h-4.87ZM65.79,7.46v.41h-6.46v-.41h3.07v-2.98h-2.17v-.42h5.11v.42h-2.52v2.98h2.96Z"/><path class="cls-1" d="M71.81,2.19c-.26.68-.57,1.33-.95,1.93h5.01v4.03h-.44v-.48h-4.38v.52h-.43v-3.71c-.5.72-1.11,1.36-1.85,1.88-.06-.11-.19-.25-.29-.33,1.37-.94,2.27-2.33,2.87-3.85h-2.58v-.42h2.73c.21-.58.36-1.16.5-1.76l.45.09c-.14.56-.3,1.12-.49,1.67h4.59v.42h-4.74ZM71.05,4.54v2.71h4.38v-2.71h-4.38Z"/><path class="cls-1" d="M80.93,3.86c-.34-.28-1.01-.69-1.54-.96l.25-.31c.52.26,1.2.66,1.54.93l-.25.34ZM79.66,7.76c.42-.7,1.02-1.88,1.44-2.88l.33.25c-.4.93-.94,2.08-1.38,2.89l-.4-.26ZM80.1.13c.58.32,1.32.79,1.67,1.12l-.27.34c-.36-.33-1.08-.84-1.67-1.17l.27-.29ZM87.49,2.8v1.42h-.42v-1.04h-5.02v1.04h-.42v-1.42h1V.36h3.89v2.44h.96ZM86.57,7.66c0,.27-.06.39-.26.45-.22.07-.6.08-1.26.08-.02-.12-.07-.26-.14-.38.52.02.96.02,1.08,0,.13,0,.16-.04.16-.15v-1.39c-1.03.23-2.07.46-2.88.62l-.16-.39c.78-.14,1.9-.37,3.04-.59v-1.63h-3.19v1.2c0,.83-.12,1.96-.77,2.75-.07-.08-.23-.22-.33-.27.6-.74.68-1.73.68-2.48v-1.57h4.02v3.73ZM83.05,2.8h1.28v-1.35h1.79v-.72h-3.07v2.07ZM83.53,4.9c.77.08,1.74.29,2.25.5l-.12.36c-.53-.21-1.5-.45-2.26-.55l.13-.31ZM86.11,1.79h-1.4v1.01h1.4v-1.01Z"/><path class="cls-1" d="M98.17,2.41c-.12,3.85-.22,5.08-.51,5.45-.14.2-.3.25-.56.27-.23.02-.67,0-1.08-.02,0-.12-.06-.3-.13-.41.47.04.9.04,1.07.04.16,0,.24-.02.32-.12.23-.29.34-1.53.45-5.05h-1.55c-.11,2.4-.51,4.46-2.17,5.64-.07-.09-.23-.22-.35-.29.24-.17.47-.36.66-.57-1.45.18-2.96.36-4.02.49l-.07-.41c.55-.05,1.26-.13,2.03-.22v-.93h-1.79v-.37h1.79v-.67h-1.77v-2.63h1.77v-.69h-2.05v-.37h2.05v-.76c-.6.06-1.24.1-1.79.12-.02-.1-.07-.25-.12-.34,1.33-.08,3-.23,3.9-.44l.25.33c-.49.12-1.14.21-1.83.29v.79h2.02v.37h-2.02v.69h1.83v2.63h-1.83v.67h1.84v.37h-1.84v.88c.61-.06,1.26-.14,1.89-.22v.1c.87-1.14,1.13-2.71,1.22-4.49h-1.2v-.41h1.21c.03-.67.03-1.35.03-2.06h.42c0,.7,0,1.39-.03,2.06h1.97v.25ZM90.88,3.75h1.38v-.78h-1.38v.78ZM92.25,4.9v-.81h-1.38v.81h1.38ZM92.67,2.97v.78h1.44v-.78h-1.44ZM94.11,4.09h-1.44v.81h1.44v-.81Z"/><path class="cls-1" d="M101.81,5.77c-.12.82-.31,1.73-.5,2.31-.07-.04-.25-.1-.35-.12.23-.61.39-1.47.49-2.26l.37.07ZM103.37,5.45c-.03-.16-.06-.36-.11-.58-1.7.25-1.93.3-2.06.38-.03-.1-.09-.3-.14-.41.16-.04.34-.27.59-.61.14-.17.44-.62.78-1.19-1,.12-1.17.16-1.29.21-.02-.1-.08-.31-.13-.41.14-.02.28-.23.45-.5.18-.28.79-1.34,1.12-2.34l.39.17c-.37.91-.85,1.86-1.33,2.58l1.02-.09c.23-.4.44-.83.63-1.25l.39.18c-.58,1.14-1.25,2.25-1.92,3.11l1.43-.19c-.09-.36-.19-.73-.31-1.05l.32-.06c.24.63.45,1.46.53,1.94l-.35.1ZM102.54,5.67c.12.68.23,1.54.26,2.13l-.34.06c-.03-.59-.14-1.46-.25-2.15l.33-.04ZM103.24,5.48c.21.55.43,1.27.52,1.73l-.33.11c-.09-.48-.31-1.2-.5-1.76l.31-.08ZM109.2,7.41v.37h-5.11V.37h.4v3.11h4.48v.36h-4.48v3.57h4.72ZM106.43,3.28c-.02-.12-.05-.28-.09-.46-1.16.18-1.35.23-1.46.29-.03-.08-.08-.28-.13-.36.14-.02.26-.14.41-.32.09-.09.3-.34.52-.67-.59.1-.74.14-.83.17-.02-.07-.08-.27-.13-.36.11-.03.2-.11.31-.25.1-.13.48-.72.66-1.27l.37.14c-.22.48-.48.94-.74,1.3l.59-.07c.11-.17.2-.35.29-.52l.34.15c-.34.59-.73,1.14-1.13,1.58l.85-.11c-.04-.13-.08-.26-.13-.39l.3-.06c.13.37.27.85.31,1.13l-.31.08ZM106.42,7.24c-.02-.13-.05-.29-.09-.47-1.15.19-1.34.24-1.46.3-.02-.09-.07-.28-.12-.36.13-.02.26-.14.42-.33.1-.1.35-.4.6-.78-.69.12-.84.16-.93.21-.02-.09-.07-.28-.12-.37.11,0,.19-.1.29-.23.11-.14.48-.71.67-1.24l.34.13c-.21.47-.47.9-.72,1.25l.69-.08c.09-.15.17-.31.25-.46l.34.16c-.37.6-.79,1.18-1.19,1.62l.85-.11c-.04-.13-.08-.26-.12-.39l.29-.06c.14.37.27.84.31,1.13l-.31.08ZM108.56,3.29c-.02-.13-.05-.3-.1-.48-1.24.18-1.43.23-1.53.3-.03-.09-.08-.28-.13-.36.14-.03.26-.14.42-.32.1-.09.32-.36.56-.69-.71.11-.86.16-.95.2-.03-.08-.08-.28-.13-.37.11-.02.19-.1.28-.24.11-.14.46-.73.65-1.29l.35.14c-.2.48-.46.95-.71,1.32l.72-.1c.11-.16.22-.34.31-.51l.34.16c-.37.59-.78,1.15-1.2,1.59l.93-.12c-.04-.14-.09-.31-.14-.44l.31-.06c.15.39.3.88.35,1.19l-.32.09ZM108.6,7.18c-.02-.12-.04-.26-.08-.42-1.25.19-1.45.24-1.55.3-.02-.08-.08-.27-.13-.35.14-.03.26-.14.42-.33.1-.1.34-.42.6-.79-.75.12-.9.16-1,.21-.02-.08-.07-.28-.12-.37.1,0,.19-.1.28-.23.1-.14.46-.71.63-1.25l.34.15c-.19.45-.44.9-.69,1.25l.77-.1c.09-.15.18-.31.26-.46l.34.16c-.36.61-.78,1.2-1.19,1.65l.95-.12c-.05-.18-.1-.36-.16-.52l.3-.05c.15.39.3.88.35,1.18l-.32.1Z"/><path class="cls-1" d="M112.65,5.77c-.12.82-.31,1.75-.5,2.33-.08-.04-.27-.1-.38-.12.23-.61.4-1.49.5-2.28l.38.07ZM114.39,5.43c-.02-.17-.06-.37-.12-.59-1.87.28-2.1.33-2.25.41-.03-.09-.09-.31-.14-.41.16-.04.35-.28.61-.61.14-.17.46-.62.81-1.19-1.04.12-1.23.16-1.34.21-.02-.09-.09-.3-.13-.41.14-.03.29-.22.46-.51.19-.27.8-1.33,1.17-2.33l.39.16c-.4.92-.88,1.87-1.39,2.58l1.08-.11c.23-.39.46-.8.66-1.22l.38.19c-.59,1.12-1.28,2.23-1.98,3.08l1.59-.22c-.09-.34-.21-.69-.31-1l.34-.07c.23.63.47,1.44.54,1.91l-.37.11ZM113.42,5.66c.12.67.23,1.51.26,2.08l-.37.06c-.02-.58-.13-1.43-.23-2.09l.34-.05ZM114.17,5.47c.21.53.43,1.24.53,1.69l-.34.11c-.1-.46-.32-1.17-.5-1.71l.32-.09ZM116.84,7.24c-.67.34-1.5.7-2.09.96-.04-.1-.14-.24-.22-.33.59-.24,1.46-.62,1.94-.89l.37.26ZM117.14.91h-2.4v-.34h2.4V0h.43v.56h2.31v.34h-2.31v.59h1.9v.34h-4.32v-.34h1.98v-.59ZM119.77,3.83h-4.95v-1.55h4.95v1.55ZM115.08,6.92v-2.62h4.4v2.62h-4.4ZM115.21,3.5h1.25v-.88h-1.25v.88ZM115.48,5.08h3.59v-.45h-3.59v.45ZM115.48,5.82h3.59v-.46h-3.59v.46ZM115.48,6.59h3.59v-.48h-3.59v.48ZM116.82,2.62v.88h1.13v-.88h-1.13ZM118.08,6.93c.69.28,1.42.62,1.89.87l-.21.33c-.47-.25-1.2-.6-1.87-.9l.18-.3ZM119.37,2.62h-1.06v.88h1.06v-.88Z"/><path class="cls-1" d="M123.79,7.66v.52h-.36v-3.21c-.19.27-.39.5-.59.7-.05-.06-.18-.21-.26-.28.51-.5.99-1.21,1.28-1.94l.34.1c-.08.2-.17.39-.27.59h1.29c-.09-.18-.21-.36-.33-.52l.3-.15c.17.2.34.48.42.68h1.24v.35h-1.36v.67h1.18v.34h-1.18v.68h1.23v.34h-1.23v.78h1.37v.36h-3.07ZM124.03,1.01h-1.4v-.37h1.4V0h.38v1.6h-.38v-.59ZM123.04,1.79h1.56v1.53h-1.56v-1.53ZM123.36,2.99h.9v-.88h-.9v.88ZM125.11,4.49h-1.32v.67h1.32v-.67ZM125.11,5.5h-1.32v.68h1.32v-.68ZM125.11,6.52h-1.32v.78h1.32v-.78ZM126.77,3.31h-1.61v-1.52h1.61v1.52ZM125.79,1.61h-.39V0h.39v.63h1.31v.37h-1.31v.6ZM126.44,2.11h-.95v.88h.95v-.88ZM130.24,7.69c.17,0,.21-.13.22-1.27.1.08.26.15.38.18-.03,1.22-.13,1.5-.54,1.5h-.51c-.42,0-.52-.13-.52-.61v-2.22h-.68c-.14,1.33-.5,2.36-1.64,2.94-.06-.11-.2-.28-.3-.34,1.06-.5,1.39-1.42,1.51-2.6h-.88V.37h3.27v4.9h-.88v2.22c0,.18.02.21.16.21h.42ZM127.65,1.87h2.48V.77h-2.48v1.1ZM127.65,3.36h2.48v-1.11h-2.48v1.11ZM127.65,4.86h2.48v-1.12h-2.48v1.12Z"/><path class="cls-1" d="M136.39,3.25c-.15.26-.31.53-.49.78h4.7v4.18h-.42v-.39h-4.31v.39h-.42v-3.58c-.49.57-1.06,1.07-1.73,1.47-.05-.08-.19-.24-.27-.32,1.05-.62,1.86-1.52,2.45-2.52h-2.26v-.38h2.47c.14-.27.28-.56.4-.84h-2.19v-.38h2.33c.1-.26.18-.51.25-.78-.89.04-1.8.07-2.62.08-.02-.1-.05-.24-.1-.34,2.18-.04,5-.18,6.38-.5l.3.32c-.87.2-2.15.33-3.48.41-.08.28-.16.54-.26.81h3.88v.38h-4.02c-.11.28-.23.57-.37.84h4.92v.38h-5.12ZM140.18,4.4h-4.31v.76h4.31v-.76ZM135.87,6.28h4.31v-.78h-4.31v.78ZM140.18,7.44v-.81h-4.31v.81h4.31Z"/><path class="cls-1" d="M105.85,27.19c-.09,0-.18-.07-.19-.17l-.76-4.72c-.02-.11.06-.21.16-.22.1-.02.21.05.22.16l.76,4.72c.02.11-.06.21-.16.22-.01,0-.02,0-.03,0Z"/><path class="cls-1" d="M105.09,22.08s-.02,0-.03,0c-.11.02-.18.12-.16.22l.76,4.72c.02.1.1.17.19.17.01,0,.02,0,.03,0,.11-.02.18-.12.16-.22l-.76-4.72c-.02-.1-.1-.16-.2-.16h0Z"/><path class="cls-1" d="M105.07,36.58c-1.46,0-4.62-6.56-5.25-7.9-.79-1.27-1.38-2.57-.23-3.39.89-.63,1.88.38,2.3.8l.05.05s.02.02,1.45,2.08l-1.48-8.43c-.06-.39.03-.77.26-1.09.23-.32.57-.52.95-.59.38-.07.77.03,1.09.26.32.23.52.57.59.95l.46,2.89c.19-.11.4-.18.62-.22.64-.1,1.26.14,1.68.61.23-.16.49-.27.77-.31.65-.1,1.33.17,1.74.7.2-.12.42-.2.65-.23h0c.99-.16,1.93.52,2.09,1.51,0,0,.48,3.03.83,5.22.66,4.11-.43,5.78-.77,5.83,0,0-7.06,1.13-7.72,1.24-.02,0-.05,0-.07,0ZM100.22,25.49c-.14,0-.27.04-.39.13-.73.51-.63,1.32.34,2.88,1.52,3.24,4.01,7.69,4.88,7.69.01,0,.03,0,.04,0,.63-.1,7.08-1.14,7.68-1.23.13-.15,1.12-1.49.49-5.39-.35-2.19-.83-5.22-.83-5.22-.13-.78-.87-1.32-1.64-1.19h0c-.22.04-.44.13-.62.26-.08.06-.2.05-.26-.03-.03-.01-.07-.05-.09-.08-.32-.46-.87-.69-1.41-.62-.27.04-.53.17-.73.35-.04.04-.1.06-.15.05-.06,0-.11-.04-.14-.08-.31-.46-.87-.69-1.42-.61-.26.04-.5.15-.7.32-.05.04-.13.06-.19.03-.07-.02-.11-.08-.12-.15l-.51-3.19c-.09-.58-.63-.98-1.23-.89-.28.05-.53.2-.7.43s-.23.51-.19.8l1.63,9.31c.02.09-.03.18-.12.21-.09.04-.19,0-.24-.07-.65-.94-1.89-2.73-1.93-2.78l-.04-.03c-.45-.45-.95-.89-1.4-.89ZM110.75,22.96h0,0Z"/><path class="cls-1" d="M103.38,18.11c-.08,0-.16,0-.24.02-.39.06-.72.27-.95.58-.23.32-.32.7-.26,1.09l1.48,8.43q-1.43-2.06-1.45-2.08l-.05-.05c-.33-.33-.99-1.01-1.69-1.01-.2,0-.41.06-.61.2-1.15.82-.57,2.12.23,3.39.63,1.34,3.78,7.9,5.25,7.9.02,0,.05,0,.07,0,.66-.11,7.72-1.24,7.72-1.24.34-.05,1.43-1.72.77-5.83-.35-2.19-.83-5.22-.83-5.22-.14-.89-.92-1.54-1.8-1.54-.1,0-.2,0-.29.02-.23.04-.45.12-.65.23-.35-.46-.9-.72-1.46-.72-.09,0-.19,0-.28.02-.28.04-.54.15-.77.31-.35-.4-.85-.63-1.39-.63-.1,0-.19,0-.29.02-.22.04-.43.11-.62.22l-.46-2.89c-.06-.39-.27-.72-.59-.95-.25-.18-.55-.28-.85-.28h0ZM103.75,29.28s.05,0,.08-.02c.08-.03.13-.12.12-.21l-1.63-9.31c-.04-.28.02-.57.19-.8s.42-.38.7-.43c.06,0,.12-.01.18-.01.52,0,.97.38,1.05.9l.51,3.19c.01.07.06.13.12.15.02,0,.05.01.07.01.05,0,.09-.01.13-.04.2-.17.44-.28.7-.32.07,0,.14-.01.21-.01.48,0,.94.23,1.21.63.03.05.08.08.14.08,0,0,.02,0,.02,0,.05,0,.09-.02.13-.05.21-.19.46-.31.73-.35.07,0,.14-.01.2-.01.47,0,.93.23,1.21.63.02.03.06.07.09.08.04.04.09.07.15.07.04,0,.08-.01.12-.04.18-.13.4-.22.62-.26.08-.01.16-.02.24-.02.69,0,1.29.51,1.41,1.21,0,0,.48,3.02.83,5.22.63,3.91-.37,5.25-.49,5.39-.6.1-7.05,1.13-7.68,1.23-.01,0-.02,0-.04,0-.87,0-3.35-4.46-4.88-7.69-.97-1.56-1.07-2.37-.34-2.88.13-.09.26-.13.39-.13.45,0,.95.43,1.4.89l.04.03c.04.06,1.28,1.85,1.93,2.78.04.05.1.08.16.08h0ZM110.75,22.96h0,0Z"/><path class="cls-1" d="M108.15,26.82c-.09,0-.18-.07-.19-.17l-.59-3.69c-.02-.11.06-.21.16-.22.1-.02.21.06.22.16l.59,3.69c.02.11-.06.21-.16.22-.01,0-.02,0-.03,0Z"/><path class="cls-1" d="M107.56,22.74s-.02,0-.04,0c-.11.02-.18.12-.16.22l.59,3.69c.02.1.1.17.19.17.01,0,.02,0,.03,0,.11-.02.18-.12.16-.22l-.59-3.69c-.02-.09-.1-.17-.19-.17h0Z"/><path class="cls-1" d="M110.53,26.51c-.09,0-.18-.07-.19-.17l-.49-3.04c-.02-.11.06-.21.16-.22.1-.02.21.05.22.16l.49,3.04c.02.11-.06.21-.16.22-.01,0-.02,0-.03,0Z"/><path class="cls-1" d="M110.04,23.08s-.02,0-.03,0c-.11.02-.18.12-.16.22l.49,3.04c.02.1.1.17.19.17.01,0,.02,0,.03,0,.11-.02.18-.12.16-.22l-.49-3.04c-.02-.1-.1-.16-.19-.16h0Z"/><path class="cls-1" d="M199.33,14.32H.5c-.28,0-.5-.22-.5-.5s.22-.5.5-.5h198.83c.28,0,.5.22.5.5s-.22.5-.5.5Z"/><circle class="cls-1" cx="99.92" cy="13.82" r="2.9"/></g></svg>