<?xml version="1.0" encoding="UTF-8"?><svg id="_圖層_2" xmlns="http://www.w3.org/2000/svg" viewBox="0 0 647.31 365.74"><defs><style>.cls-1{fill:#299591;}.cls-2{fill:#da2c7e;}.cls-3{fill:#193456;}.cls-4{fill:#101d30;}.cls-5{fill:#217bac;}.cls-6{fill:#050c1d;}.cls-7{fill:#01795a;}.cls-8{fill:#183354;}.cls-9{fill:#163050;}.cls-10{fill:#09548b;}.cls-11{fill:#258d80;}.cls-12{fill:#2b9899;}.cls-13{fill:#0d6358;}</style></defs><g id="_飄移"><path class="cls-2" d="M48.31,256.39c-22.12-3.12-37.64-14.99-44.97-36.04-6.97-20.01-2.76-38.41,11.43-54.22,8.11-9.04,18.45-14.33,30.4-16.43,2.32-.41,4.7-.5,7.05-.74,3.67.26,7.35.41,11.01.82,4.29.48,8.31,2.03,12.34,3.51,2.37,1.24,4.74,2.49,7.11,3.73,1.99,1.43,3.98,2.87,5.96,4.3,1.52,1.42,3.03,2.84,4.55,4.26,1.05,1.22,2.09,2.43,3.14,3.65l2.09,2.83c1.38,2.3,2.76,4.59,4.14,6.89.63,1.5,1.25,2.99,1.88,4.49.93,3.48,1.92,6.94,2.76,10.44.41,1.71.55,3.48.81,5.23,0,2.27,0,4.54,0,6.81-.33,2.38-.51,4.79-1.02,7.13-.66,3.04-1.58,6.01-2.39,9.02-.76,1.71-1.52,3.43-2.28,5.14-.86,1.5-1.71,3.01-2.57,4.51-.09.13-.18.25-.27.38-.08.09-.15.17-.23.26-.79,1.14-1.58,2.27-2.36,3.41l-3.13,3.7c-1.23,1.22-2.46,2.43-3.69,3.65-1.83,1.43-3.65,2.85-5.48,4.28-2.06,1.21-4.11,2.41-6.17,3.62-2.53,1.02-4.99,2.27-7.6,2.99-3.74,1.04-7.6,1.69-11.4,2.51-3.7-.04-7.4-.08-11.1-.12ZM75.34,202.79c.16-10.36-8.11-21.12-21.15-21.16-12.32-.04-21.22,9.87-21.24,21.24-.03,11.58,9.59,21.19,21.19,21.22,11.66.04,21.21-9.55,21.2-21.31Z"/><path class="cls-5" d="M377.71,145.5c.01-6.81.02-13.62.04-20.43,0-.19.06-.37.09-.56.06-.5.18-1.01.18-1.51.01-8.36,0-16.72,0-25.08v-1.89c1.88.11,3.56.2,5.23.3,4.63.28,9.05,1.47,13.38,3.04,4.75,1.72,9.08,4.24,13.22,7.1,2.09,1.81,4.17,3.61,6.26,5.42.84.92,1.68,1.84,2.53,2.75.77.96,1.54,1.92,2.31,2.88.96,1.41,1.91,2.82,2.87,4.23.77,1.41,1.55,2.83,2.32,4.24.78,1.89,1.57,3.79,2.35,5.68.64,2.36,1.36,4.69,1.9,7.07.47,2.09.74,4.23,1.1,6.35.1.08.2.15.3.23v4.48c.59,0,.93.06,1.24,0,6.04-1.39,11.91-3.31,17.49-6.03,4.17-2.03,8.17-4.39,11.7-7.42,2.9-2.49,5.78-5.05,8.35-7.86,3.03-3.3,5.54-7.04,7.69-10.99,2.17-3.99,4.06-8.11,5.35-12.48.7-2.38,1.29-4.79,1.94-7.19.03.78.07,1.55.1,2.33-.08,19.03-.18,38.07-.24,57.1-.05,13.31-.05,26.61-.06,39.92,0,.7.1,1.41.16,2.11-.07,1.54-.14,3.09-.21,4.63-4.19.07-8.33-.37-12.36-1.43-19.59-5.18-32.59-17.43-39.01-36.62-1.38-4.14-1.95-8.46-2.34-12.79v-3.16c-.92.19-1.56.31-2.2.46-7.07,1.66-13.84,4.07-20.18,7.66-6.74,3.81-12.62,8.64-17.56,14.57-5.47,6.57-9.39,14.02-12,22.16-.7,2.18-1.28,4.4-1.91,6.6-.03-.56-.07-1.13-.07-1.69.01-15.04.03-30.08.04-45.12,0-3.02.01-6.03.02-9.05Z"/><path class="cls-5" d="M107.67,315.06c-.83,4.12-1.21,8.39-2.57,12.33-6.7,19.37-20.06,31.79-40.15,36.09-18.65,3.99-35.14-1.05-48.88-14.25-8.96-8.62-14.13-19.33-15.64-31.72-1.43-11.69.74-22.7,6.43-33.01.2-.36.28-.78.41-1.18.2-.19.44-.36.58-.59,3.37-5.34,7.42-10.07,12.41-13.99,3.77-2.97,7.8-5.46,12.21-7.34,6.12-2.6,12.47-4.22,19.16-4.29.21,0,.42-.16.63-.25,1.13,0,2.27,0,3.4,0,.49.09.98.21,1.48.26,2.1.23,4.24.28,6.31.69,5.91,1.15,11.55,3.09,16.84,6.06,6.91,3.89,12.6,9.11,17.31,15.45,1.04,1.4,1.99,2.85,2.98,4.28.15.39.25.8.45,1.16,2.14,3.89,3.81,7.99,4.91,12.29.65,2.54,1.08,5.14,1.61,7.72.16.1.32.2.48.3h0c-.74.42-.78,1.02-.11,1.6-.03,1.33-.07,2.65-.1,3.98-.04,1.47-.09,2.94-.13,4.41ZM86.1,300.07c-1-2.18-1.83-4.46-3.03-6.53-3.16-5.49-7.63-9.69-13.22-12.67-5.62-3-11.58-4.19-17.97-3.89-6.14.29-11.63,2.24-16.72,5.49-2.84,1.81-5.31,4.05-7.45,6.69-2.61,3.23-4.75,6.69-5.93,10.69-.1.21-.23.4-.3.62-1.58,4.9-2.04,9.91-1.34,15,2.45,17.71,18.18,30.56,36,29.31,11.11-.78,19.9-5.9,26.04-15.13,6.09-9.14,7.29-19.11,3.91-29.59Z"/><path class="cls-11" d="M377.71,145.5c0,3.02-.01,6.03-.02,9.05-.36,2.14-.67,4.28-1.1,6.41-4.68,23.44-25.88,41.53-49.76,42.47-2.66,0-5.33-.02-7.99-.02-.76-.1-1.52-.2-2.27-.3-.86-.16-1.71-.33-2.57-.49-.76-.12-1.51-.24-2.27-.36-1.04-.28-2.09-.56-3.13-.85-1.52-.54-3.05-1.08-4.57-1.61-1.98-.9-3.96-1.81-5.94-2.71-.48-.26-.99-.47-1.43-.78-2.47-1.73-4.91-3.48-7.37-5.23-1.76-1.72-3.62-3.35-5.26-5.17-8.57-9.53-13.24-20.71-13.9-33.53-.09-1.75-.08-3.5-.12-5.25.49-3.32.73-6.7,1.53-9.94,3.62-14.81,12.1-26.11,25.15-33.99.28-.17.55-.37.82-.55,4.34-2.22,8.77-4.22,13.56-5.23,3.04-.64,6.13-1.03,9.19-1.54,2.85-.07,5.71-.15,8.56-.22.13.15.25.41.39.42,5.75.53,11.3,1.91,16.52,4.36,17.07,8,27.54,21.23,31.19,39.77.34,1.75.53,3.53.79,5.3ZM314,182.25c1.23.29,2.47.58,3.7.88,2.08.2,4.16.39,6.24.59,1.88-.17,3.78-.23,5.65-.53,14.94-2.38,26.87-14.99,28.16-30.08,1.05-12.3-3.28-22.52-12.97-30.24-6.04-4.81-13-7.26-20.79-7.11-1.43.07-2.86.15-4.29.22-2.18.49-4.36.99-6.53,1.48-2.89.83-5.55,2.14-7.99,3.9-.09.05-.18.1-.27.15-.09.07-.17.14-.26.21-.81.56-1.68,1.05-2.41,1.69-9.81,8.66-13.94,19.44-11.8,32.41.89,5.37,2.98,10.3,6.52,14.53,1.51,1.62,3.02,3.23,4.52,4.85,1.71,1.24,3.41,2.47,5.12,3.71,1.33.67,2.65,1.35,3.98,2.02,1.14.44,2.27.88,3.41,1.32Z"/><path class="cls-13" d="M179.71,41.26c3.68-4.32,7.08-8.92,11.09-12.92,14.61-14.57,32.16-23.64,52.56-26.95,5.07-.82,10.26-.94,15.4-1.38.46-.04.93,0,1.69,0-.43,2.22-.77,4.3-1.25,6.35-3.4,14.69-9.44,28.21-17.95,40.64-.16.23-.27.49-.41.74-.29.37-.61.72-.88,1.1-4.05,5.57-8.42,10.87-13.51,15.52-3.39,3.1-6.93,6.02-10.41,9.02-.08.08-.16.16-.24.24-4.27,2.75-8.54,5.5-12.81,8.25-1.81.91-3.59,1.86-5.42,2.72-7.53,3.51-15.05,7.02-23.15,9.08-2.22.56-4.46,1.07-6.69,1.6-1.8.31-3.61.61-5.41.92-.09-.4-.17-.81-.26-1.21,0-.46,0-.93,0-1.39.09-.56.19-1.11.25-1.67.38-3.56.63-7.14,1.15-10.68,1.44-9.86,4.6-19.19,9.16-28.02,2.12-4.11,4.7-7.98,7.07-11.96Z"/><path class="cls-12" d="M383.25,96.33c-1.67-.09-3.35-.19-5.23-.3v1.89c0,8.36,0,16.72,0,25.08,0,.5-.12,1.01-.18,1.51.03-9.66.07-19.32.07-28.99,0-7.5,1.48-14.71,4.69-21.46,8.32-17.51,22.02-28.25,41.24-31.12,18.69-2.79,34.71,3.07,47.65,16.83,8.07,8.58,12.53,18.93,13.87,30.63.1,1.8.2,3.6.3,5.4-.04.19-.08.37-.11.56-1.34,0-2.68,0-4.02,0-1.02,0-2.03,0-3.05,0-.57-.02-1.13-.07-1.7-.07-6.95,0-13.9,0-20.85,0-8.03-.02-16.07-.05-24.1-.08-.1,0-.2,0-.3-.01-1.43-.01-2.85-.02-4.28-.03-1.52,0-3.04,0-4.56,0-3.41,0-6.83,0-10.24,0-9.28-.03-18.56-.07-27.83-.09-.45,0-.91.17-1.36.26Z"/><path class="cls-12" d="M51.46,148.66c-3.4-.54-6.9-.74-10.2-1.66-21.32-5.99-34.91-19.8-39.55-41.42-5.91-27.56,10.48-54.35,37.45-62.46,4.37-1.32,8.85-2,13.41-2.17.6-.02,1.21,0,1.92,0,.02.44.05.75.05,1.07-.02,15.35-.04,30.7-.05,46.05,0,.4.16.81.25,1.21,0,4.01,0,8.02,0,12.03-.08.46-.23.91-.23,1.37-.07,10.02-.13,20.04-.19,30.06-.02,3.07,0,6.15,0,9.22v6.7c-1.1,0-1.98,0-2.85,0Z"/><path class="cls-12" d="M315.42,339.05c-2.44,3.13-4.66,6.47-7.37,9.34-8.07,8.5-17.98,13.79-29.56,15.72-15.74,2.62-30.03-.93-42.59-10.78-10.88-8.54-17.44-19.77-19.77-33.42-.35-2.05-.44-4.14-.66-6.21.01-.95.03-1.9.04-2.85l.04.05c7,.01,14,.03,21,.02.59,0,1.18-.17,1.77-.26,2.75,0,5.49,0,8.24,0,.49.09.99.25,1.48.26,7.08.06,14.17.11,21.25.15.63,0,1.26,0,1.89.01,4.77-.03,9.54-.05,14.31-.08.18.04.37.12.55.12,6.47-.01,12.94-.03,19.42-.05,5.86,0,11.71,0,17.8,0-.2,2.47-.24,4.7-.59,6.87-.48,2.98-1.19,5.92-1.8,8.87-1.82,4.08-3.64,8.15-5.46,12.23Z"/><path class="cls-2" d="M215.52,310.85c-.01.95-.03,1.9-.04,2.85-.45,4.48-.99,8.94-2.48,13.21-7.1,20.31-21.07,33.02-42.3,36.85-18.1,3.27-33.99-2.01-47.14-14.83-9.13-8.9-14.25-19.92-15.58-32.65-.04-.42-.2-.82-.3-1.23.04-1.47.09-2.94.13-4.41,10.12,0,20.24.01,30.37.02.46.06.92.16,1.38.16,7.62.03,15.23.05,22.85.05,7.57,0,15.14-.02,22.7-.03,6.3.02,12.6.04,18.91.05,3.84,0,7.67-.02,11.51-.04Z"/><path class="cls-11" d="M485.25,261.69c-.36,2.07-.7,4.15-1.07,6.21-3.75,20.85-20.91,38.37-41.68,42.38-3.69.71-7.51.8-11.26,1.17v.02c-.03-1.05-.07-2.09-.1-3.14,0-1.14,0-2.27.01-3.41,0-4.17,0-8.35,0-12.52.01-4.65.02-9.3.03-13.94,0-5.32,0-10.64,0-15.96.01-3.2.02-6.41.03-9.61.09-.49.26-.99.26-1.48.02-5.12.01-10.23.01-15.35,0-10.61-.01-21.22-.02-31.84.02-.09.04-.18.04-.27.85-.02,1.69-.05,2.54-.07,1.6.12,3.23.14,4.81.39,15.27,2.37,27.52,9.78,36.49,22.37,6.03,8.45,9.25,17.94,9.69,28.34v2.7c.87,0,1.53,0,2.19,0,6.43,0,12.86,0,19.3.01.5,0,1,.14,1.49.22-1.51.01-3.01.03-4.52.04-4.76.03-9.51.05-14.27.07-.26,0-.53,0-.79,0-.11,0-.22,0-.34,0-.92,0-1.84,0-2.86,0v3.67Z"/><path class="cls-2" d="M216.04,73.38c3.48-3,7.02-5.92,10.41-9.02,5.09-4.65,9.46-9.95,13.51-15.52.28-.38.59-.73.88-1.1,16.99,9.37,26.59,23.69,28.84,42.95.06.67.12,1.35.17,2.02l-.47,10.25c-3.2,22.64-20.12,40.78-42.51,45.36-3.59.73-7.33.76-10.99,1.11-.05-.15-.09-.3-.14-.45.02-1.35.04-2.69.06-4.04,0-6.13,0-12.26-.01-18.4.02-3.98.04-7.96.06-11.94,0-3.7,0-7.4,0-11.1,0-3.41,0-6.83,0-10.24.03-3.89.07-7.79.1-11.68-.01-2.65-.03-5.29-.04-7.94.05-.09.09-.18.14-.27Z"/><path class="cls-3" d="M328.82,95.65c-2.85.07-5.71.15-8.56.22-2.26-.34-4.54-.62-6.79-1.03-4.36-.8-8.48-2.38-12.55-4.1-3.9-2.06-7.68-4.3-11.06-7.16-10.8-9.13-17.26-20.66-19.11-34.71-.3-2.28-.39-4.59-.59-6.96,10.39,0,20.57,0,30.75,0,.04,1.34-.1,2.71.15,4.01,1.14,5.84,3.9,10.73,8.63,14.49,3.63,2.88,7.75,4.59,12.28,4.93,7.38.56,13.83-1.68,19.06-7.15,4.33-4.52,6.48-9.85,6.54-16.07,8.48,0,16.96-.01,25.44-.02,1.6,0,3.21,0,4.81,0,1.19,23.03-17.61,50.92-49.01,53.55Z"/><path class="cls-5" d="M539.88,88.71c1.82-12.1,7-22.54,15.77-31.08,8.92-8.68,19.61-13.8,32.03-14.99,16.16-1.55,30.37,3.14,42.3,14.13,9.35,8.61,14.91,19.34,16.65,31.97.34,2.47.46,4.96.68,7.45-9.19,0-18.13,0-27.07,0-.14-1.74-.11-3.52-.46-5.21-2.98-14.73-17.05-23.82-31.11-21.37-12.85,2.25-22.42,13.56-22.3,26.4-.57.02-1.13.06-1.7.06-7.76,0-15.51,0-23.27,0-.63-.09-1.27-.17-1.9-.26.13-2.37.26-4.74.38-7.11Z"/><path class="cls-5" d="M216.07,197.1c1.16-10.28,4.99-19.47,11.5-27.48,9.02-11.1,20.69-17.62,34.84-19.63,2.38-.34,4.81-.28,7.22-.41,0,8.92-.01,17.84-.02,26.76-1.78.19-3.59.23-5.33.6-8.62,1.84-15.03,6.72-18.97,14.59-2.77,5.53-3.55,11.46-2.12,17.51,2.44,10.26,8.73,17.08,18.84,20.19,2.31.71,4.77.97,7.24,1.45.03.4.07.91.11,1.42,0,8.34,0,16.67,0,25.01-.09.08-.19.17-.28.25-1.33-.09-2.66-.15-3.98-.27-7.59-.67-14.76-2.73-21.43-6.43-10.74-5.95-18.59-14.57-23.59-25.78-2.13-4.77-3.49-9.76-4.03-14.97-.09-1.95-.19-3.9-.28-5.85.01-1.19.02-2.39.04-3.58.08-1.13.17-2.26.25-3.39Z"/><path class="cls-11" d="M492.23,338.24c6.12-9.96,14.43-17.43,25.16-22.14.39-.17.78-.34,1.16-.51,3.2-.93,6.37-1.97,9.6-2.76,2.17-.53,4.43-.72,6.65-1.06,1.32-.01,2.65-.02,3.97-.04l-.03.05c.1.32.22.63.29.95,1.6,7.57,4.17,14.78,7.99,21.55,4.95,8.76,11.62,15.91,19.97,21.46,6.87,4.57,14.33,7.78,22.42,9.5.22.05.39.32.59.48-9.81-.02-19.61-.03-29.42-.05-24.73-.05-49.46-.11-74.2-.17-.46,0-.92,0-1.46,0-.12-3.81.33-7.41,1.05-10.98.82-4.03,2.06-7.92,3.67-11.7.25-.59.57-1.16.86-1.74.57-.95,1.14-1.9,1.7-2.86Z"/><path class="cls-8" d="M489.24,258.04c4.76-.02,9.51-.04,14.27-.07,1.51,0,3.01-.03,4.52-.04.57.02,1.13.05,1.7.05,9.8,0,19.61-.03,29.41,0,17.89.06,35.78.16,53.68.24.02.77.05,1.55.07,2.32-.09.87-.18,1.73-.27,2.6-.09.94-.19,1.87-.28,2.81-3.82,20.84-15.57,35.15-35.37,42.75-4.21,1.61-8.6,2.56-13.12,2.8-1.69.1-3.39.19-5.08.28l.03-.05c-.05-.47-.05-.94-.15-1.4-1.05-4.94-2.61-9.72-4.59-14.38-3.1-7.29-7.34-13.82-12.83-19.51-3.78-3.92-7.97-7.39-12.71-10.06-3.27-1.84-6.75-3.33-10.13-4.98-2.49-.86-4.98-1.7-7.47-2.58-.58-.2-1.12-.52-1.67-.79Z"/><path class="cls-3" d="M566.37,96.01c-.12-12.84,9.45-24.15,22.3-26.4,14.06-2.46,28.13,6.64,31.11,21.37.34,1.7.31,3.47.46,5.21-1.92.07-3.85.15-5.77.22-3.79,0-7.59,0-11.38,0-1.71,0-3.41,0-5.12,0-1.5,0-3,0-4.55,0-.17,2.25-.34,4.4-.5,6.55-.2,1.12-.38,2.24-.59,3.35-4.8,25.31-27.2,43.73-52.98,43.57,0-6.65,0-13.31.01-19.96,0-2.26.08-4.52.13-6.79,1.26-.1,2.55-.11,3.79-.33,6.51-1.15,12.11-3.95,16.47-9.07,4.35-5.12,6.72-10.95,6.62-17.72Z"/><path class="cls-3" d="M485.89,73.59c-.42-3.79-.38-7.54.55-11.27,3.25-12.95,16.08-21.75,29.28-20.02,12.28,1.61,21.49,10.35,23.48,22.57.43,2.67.12,5.46.15,8.2-.07.29-.13.57-.2.86-.03.28-.07.57-.1.85-.18.58-.38,1.15-.55,1.74-3.1,10.93-12.9,18.68-23.81,19.39-2.04-.03-4.08-.06-6.13-.09-1.6-.42-3.23-.74-4.79-1.27-5.65-1.93-10.09-5.49-13.57-10.29-.51-.9-1.14-1.76-1.5-2.71-1-2.63-1.89-5.3-2.82-7.95Z"/><path class="cls-7" d="M431.23,311.46c-.11,14.2-5,26.53-14.72,36.87-8.59,9.14-19.15,14.69-31.6,16.33-17.98,2.37-33.48-2.95-46.25-15.79-7.78-7.82-12.52-17.31-14.43-28.19-.11-.63-.34-1.23-.52-1.85-.01-.28-.02-.56-.03-.84,0-.1,0-.19,0-.29-.02-.48-.03-.95-.05-1.43.05-.09.04-.18-.03-.26-.04-.42-.12-.83-.1-1.25.04-1.22.12-2.43.19-3.65,4.07.03,8.14.06,12.22.1.2,2.53.2,5.1.63,7.59,1.42,8.29,5.26,15.4,11.03,21.45,3.69,3.87,8.05,6.78,12.95,8.98,8.03,3.62,16.4,4.42,24.91,2.77,9.47-1.83,17.44-6.52,23.66-14,6.39-7.69,9.74-16.49,9.65-26.54,3.22-.03,6.44-.05,9.66-.08.85,0,1.7,0,2.55-.01.1.03.2.05.3.08v-.02Z"/><path class="cls-7" d="M54.74,101.3c0-4.01,0-8.02,0-12.03.82-8.54,3.67-16.37,8.41-23.47,8.65-12.96,20.71-20.86,36.05-23.63,2.96-.53,6.02-.5,9.03-.73.11.97.21,1.93.32,2.9-.02,1.22-.05,2.44-.07,3.67-.05,1.92-.09,3.84-.14,5.75-1.13.08-2.25.21-3.38.23-3.48.09-6.83.89-10.08,2.01-8.62,2.96-15.58,8.21-20.75,15.72-4.09,5.94-6.47,12.5-7.16,19.73-.42,4.43-.16,8.76.84,13.05,2.13,9.13,6.75,16.79,14.01,22.74,7.6,6.24,16.35,9.45,26.21,9.55l.09.02h.09c.03,2.06.06,4.13.1,6.2,0,1.92-.01,3.84-.02,5.76-.02.07-.05.15-.08.22-1.78.01-3.55.03-5.33.04-1.05-.16-2.1-.33-3.14-.49-1.04-.19-2.09-.38-3.13-.57-1.69-.45-3.37-.9-5.06-1.35-2.2-.88-4.4-1.76-6.61-2.64-2.75-1.63-5.5-3.25-8.25-4.88-.21-.18-.42-.38-.64-.55-7.2-5.41-12.77-12.16-16.59-20.32-2.52-5.37-4.23-10.98-4.74-16.92Z"/><path class="cls-7" d="M538.76,311.79c1.69-.09,3.39-.19,5.08-.28.22.17.42.47.66.5,6.56.63,12.81,2.42,18.61,5.5,15.51,8.22,25.14,20.92,28.62,38.19.66,3.3.95,6.62.86,10.05h-1.45c-.19,0-.39,0-.58,0-.18,0-.36,0-.54,0-.2-.17-.37-.43-.59-.48-8.09-1.72-15.56-4.94-22.42-9.5-8.36-5.56-15.03-12.7-19.97-21.46-3.82-6.77-6.38-13.97-7.99-21.55-.07-.32-.19-.63-.29-.95Z"/><path class="cls-10" d="M108.56,44.34c-.11-.97-.21-1.93-.32-2.9.68-.9,1.56-.09,2.32-.26.48.15.94.34,1.43.46,6.18,1.51,12.08,3.7,17.65,6.8,3.9,2.17,7.61,4.6,10.89,7.59,3.35,3.05,6.54,6.28,9.23,9.98,4.67,6.4,8.12,13.38,10.35,20.97.65,2.2,1.31,4.4,1.96,6.6,0,.46,0,.93,0,1.39-1.08.02-2.15.04-3.23.06-1.07-.11-2.15-.23-3.22-.33-5.38-.52-10.49-2.01-15.39-4.24-12.03-5.48-20.93-14.19-26.67-26.09-2.49-5.17-4.21-10.58-4.72-16.34-.09-1.23-.19-2.47-.28-3.7Z"/><path class="cls-4" d="M498.38,261.4c3.38,1.65,6.86,3.13,10.13,4.98,4.75,2.67,8.94,6.14,12.71,10.06,5.49,5.69,9.73,12.22,12.83,19.51,1.98,4.66,3.53,9.44,4.59,14.38.1.46.1.93.15,1.4-1.32.01-2.65.02-3.97.04-1.75-.25-3.51-.47-5.26-.77-5.14-.86-10-2.57-14.68-4.82-9.24-4.73-16.61-11.48-22.02-20.35-.17-.27-.29-.58-.43-.87.66-1.53,1.52-3,1.94-4.59.99-3.76,1.82-7.57,2.64-11.37.54-2.52.92-5.06,1.38-7.59Z"/><path class="cls-5" d="M162.08,93.58c-.65-2.2-1.31-4.4-1.96-6.6-2.24-7.59-5.68-14.57-10.35-20.97-2.7-3.69-5.88-6.93-9.23-9.98-3.28-2.99-7-5.42-10.89-7.59-5.57-3.1-11.47-5.29-17.65-6.8-.48-.12-.95-.3-1.43-.46,5.35-.02,10.69-.03,16.04-.05.57,0,1.14.03,1.7.04,16.71.02,33.42.03,50.13.05.43,0,.85.02,1.28.04-2.37,3.98-4.95,7.85-7.07,11.96-4.57,8.82-7.72,18.16-9.16,28.02-.52,3.54-.77,7.12-1.15,10.68-.06.56-.17,1.12-.25,1.67Z"/><path class="cls-4" d="M347.58,42.12c-.07,6.22-2.22,11.55-6.54,16.07-5.24,5.47-11.68,7.71-19.06,7.15-4.53-.34-8.65-2.05-12.28-4.93-4.74-3.76-7.49-8.64-8.63-14.49-.25-1.3-.11-2.67-.15-4.01,5.63,0,11.25,0,16.88.01,2.55,0,5.11.05,7.66.05,5.92,0,11.83,0,17.75,0,1.46,0,2.93.09,4.39.13Z"/><path class="cls-12" d="M52.25,256.86c-.21.09-.42.25-.63.25-6.69.07-13.04,1.69-19.16,4.29-4.41,1.87-8.44,4.37-12.21,7.34-4.98,3.93-9.03,8.65-12.41,13.99-.14.23-.39.39-.58.59-2.69-4.29-4.55-8.95-5.57-13.87-.8-3.87-1.06-7.85-1.55-11.79-.04-.32,0-.65,0-1.08,16.1,0,32.09,0,48.09,0,1.34.09,2.68.18,4.02.28Z"/><path class="cls-6" d="M498.38,261.4c-.45,2.53-.84,5.08-1.38,7.59-.81,3.81-1.64,7.61-2.64,11.37-.42,1.59-1.28,3.06-1.94,4.59-2.04-3.1-3.39-6.52-4.57-10.01-1.45-4.31-2.37-8.71-2.6-13.26v-3.67c1.02,0,1.94,0,2.86,0,.11,0,.22,0,.34,0,.26,0,.53,0,.79,0,.56.26,1.09.58,1.67.79,2.48.88,4.98,1.72,7.47,2.58Z"/><path class="cls-11" d="M215.33,196.27c.16,1.41.33,2.81.49,4.22-.01,1.19-.02,2.39-.04,3.58-.09,1.29-.18,2.59-.28,3.88-.07.17-.19.33-.2.5-.27,4.43-1.38,8.67-2.83,12.84-.57,1.42-1.14,2.84-1.71,4.26-.59,1.22-1.18,2.44-1.77,3.66-.83,1.34-1.67,2.68-2.5,4.03-.6.89-1.2,1.78-1.81,2.67-.46.52-.92,1.04-1.38,1.55-.56.68-1.12,1.35-1.68,2.03-.66.68-1.32,1.37-1.98,2.05-1.34,1.2-2.68,2.4-4.02,3.6-1.61,1.15-3.21,2.3-4.82,3.46-1.71.96-3.42,1.91-5.13,2.87-3.74,1.32-7.41,2.84-11.22,3.9-3.08.85-6.32,1.13-9.49,1.66-2.3.02-4.59.03-6.89.05-1.76-.29-3.53-.54-5.28-.87-16.99-3.22-29.81-12.32-38.28-27.4-3.64-6.47-5.75-13.47-6.26-20.91l-.26-1.99c0-2.27,0-4.54,0-6.81.08-.39.17-.78.25-1.17.23-1.82.34-3.67.72-5.47,2.64-12.57,8.84-23.04,18.81-31.16,9.14-7.45,19.62-11.52,31.45-12.02l5.08-.28c.29.1.57.25.87.29,2.62.36,5.25.61,7.85,1.07,4.3.75,8.34,2.37,12.33,4.08l6.87,3.98c1.79,1.38,3.57,2.76,5.36,4.14,1.53,1.55,3.07,3.1,4.6,4.65,1.13,1.43,2.27,2.87,3.4,4.3,1.61,2.66,3.23,5.31,4.84,7.97.66,1.53,1.32,3.05,1.98,4.58.72,2.63,1.48,5.25,2.13,7.89.35,1.41.52,2.86.78,4.3ZM195.8,205.63c.02-.81.04-1.63.07-2.44-.07-1.27-.13-2.53-.22-3.8-.24-3.62-1.25-7.05-2.76-10.32-2.17-4.68-5.19-8.71-9.17-12.07-6.18-5.21-13.34-7.7-21.28-8.02-3.29-.13-6.55.42-9.76,1.31-6.89,1.91-12.6,5.67-17.08,11.13-5.12,6.24-7.93,13.45-7.67,21.66.19,2.33.15,4.71.61,6.99,1.72,8.52,6.23,15.41,13.19,20.48,7.66,5.57,16.31,7.75,25.78,6.09,4.33-.76,8.39-2.26,12.07-4.64,2.61-1.69,5.27-3.39,7.23-5.9,5.34-5.67,8.36-12.36,8.84-20.16.05-.1.1-.2.14-.3Z"/><path class="cls-2" d="M485.65,95.81c.93,0,1.85.01,2.78.02,6.71,0,13.42-.01,20.14-.02,2.04.03,4.08.06,6.13.09.42.05.84.14,1.26.14,7.81,0,15.61-.02,23.42-.03.08.05.16.1.25.13-.07,2.13-.2,4.25-.21,6.38-.03,5.12-.02,10.24,0,15.36,0,1.75.06,3.5.09,5.25-.04,2.26-.12,4.52-.13,6.79-.02,6.65-.01,13.31-.01,19.96l.04.05c-1.26-.07-2.53-.07-3.78-.21-2.45-.27-4.9-.61-7.35-.93-2.85-.85-5.69-1.7-8.54-2.55-3.2-1.64-6.41-3.28-9.61-4.91-.79-.57-1.58-1.13-2.36-1.7-8.96-6.63-15.36-15.15-19.11-25.66-1.6-4.47-2.52-9.08-2.99-13.8-.03-.78-.07-1.55-.1-2.33,0-.49,0-.98,0-1.47.04-.19.08-.37.11-.56Z"/><path class="cls-7" d="M485.29,203.92c.07-1.54.14-3.09.21-4.63.12-1.03.21-2.06.35-3.09,1.02-7.4,3.59-14.24,7.51-20.59,3.78-6.11,8.69-11.17,14.42-15.47,3.5-1.94,7-3.87,10.5-5.81,3.23-1.02,6.46-2.04,9.68-3.06,3.8-.38,7.61-.77,11.41-1.15,3.34.33,6.72.39,10,1.03,12.76,2.5,23.33,8.82,31.58,18.87,6.47,7.89,10.35,16.94,11.66,27.07.17,1.76.33,3.52.5,5.28-.08.62-.16,1.23-.24,1.85-4.08-.02-8.17-.04-12.25-.06-.28-2.81-.37-5.65-.88-8.41-1.78-9.63-6.74-17.49-14.17-23.69-6.17-5.14-13.34-8.29-21.43-9.14-4.68-.49-9.32-.43-13.92.61-10.18,2.31-18.4,7.71-24.6,16.06-5.34,7.19-7.75,15.43-8.08,24.33-4.08,0-8.16,0-12.24,0Z"/><path class="cls-10" d="M485.53,96.37c0,.49,0,.98,0,1.47-.64,2.4-1.23,4.81-1.94,7.19-1.29,4.37-3.18,8.48-5.35,12.48-2.15,3.96-4.66,7.69-7.69,10.99-2.58,2.81-5.45,5.37-8.35,7.86-3.53,3.02-7.53,5.39-11.7,7.42-5.58,2.72-11.45,4.63-17.49,6.03-.31.07-.65,0-1.24,0v-4.48c.08-.85.16-1.71.24-2.56.2-1.16.39-2.33.61-3.48,4.39-22.33,23.19-39.83,45.82-42.66,1.02-.09,2.04-.18,3.06-.26,1.34,0,2.68,0,4.02,0Z"/><path class="cls-10" d="M431.57,153.08c-.05.82-.1,1.65-.15,2.47-.41,2.21-.66,4.46-1.27,6.61-.94,3.33-2.13,6.6-3.21,9.89-.76,1.5-1.52,3-2.29,4.5-.94,1.44-1.88,2.87-2.82,4.31-1.34,1.71-2.67,3.41-4.01,5.12-1.24,1.27-2.48,2.54-3.71,3.81-1.61,1.29-3.22,2.58-4.84,3.86-1.42.91-2.84,1.83-4.26,2.74-1.9.98-3.8,1.96-5.7,2.94-.22.07-.46.11-.67.2-5.57,2.35-11.41,3.58-17.41,4.14-1.24-.03-2.47-.05-3.71-.08.06-.75.13-1.5.19-2.25.63-2.2,1.21-4.42,1.91-6.6,2.61-8.14,6.54-15.59,12-22.16,4.94-5.94,10.82-10.76,17.56-14.57,6.34-3.59,13.12-6,20.18-7.66.64-.15,1.28-.27,2.2-.46v3.16Z"/><path class="cls-8" d="M158.09,257.08c2.3-.02,4.59-.03,6.89-.05,3.49.56,7.01.97,10.46,1.7,4.22.89,8.1,2.75,11.96,4.63,2.35,1.53,4.71,3.06,7.06,4.6,2.46,2.28,4.91,4.56,7.37,6.84.25.34.48.7.75,1.02,5.35,6.25,9.09,13.36,11.13,21.33.65,2.55,1.04,5.18,1.55,7.77.04.66.07,1.32.11,1.98,0,.1.02.2.02.3,0,.19.02.38.03.57-.02.19-.05.38-.07.57.07.86.13,1.71.2,2.57l-.04-.05c-3.84.01-7.67.04-11.51.04-6.3,0-12.6-.03-18.91-.05-.09-.56-.23-1.11-.26-1.67-.34-6.47-3.03-11.79-7.92-16-4.9-4.23-10.47-6.28-17.05-5.66-3.61.34-6.96,1.2-10.04,3.05-7.57,4.56-11.39,11.31-11.66,20.11-10.12,0-20.24-.01-30.37-.02.03-1.33.07-2.65.1-3.98.04-.54.07-1.07.11-1.61,0,0,0,0,0,0,.12-1.03.2-2.07.38-3.1,2.37-13.44,8.78-24.56,19.4-33.15,8.82-7.13,18.93-11.09,30.3-11.74Z"/><path class="cls-12" d="M86.1,300.07c-3.72,2.5-7.53,4.88-11.74,6.48-2.11.8-4.29,1.4-6.44,2.09-.39-1.19-.7-2.41-1.17-3.56-2.57-6.29-9.43-9.78-15.77-8.27-6.2,1.48-9.91,5.52-11,11.87-6.65-1.72-12.69-4.72-18.19-8.82,1.18-4,3.32-7.47,5.93-10.69,2.13-2.63,4.61-4.88,7.45-6.69,5.09-3.25,10.58-5.2,16.72-5.49,6.39-.3,12.35.89,17.97,3.89,5.59,2.98,10.06,7.18,13.22,12.67,1.19,2.07,2.03,4.35,3.03,6.53Z"/><path class="cls-12" d="M59.97,256.62c.37.01.75.03,1.12.04,1.22.03,2.44.06,3.66.09,4.56,0,9.12-.01,13.68-.02.18-.01.37-.02.55-.03,2.47,0,4.93,0,7.4,0,2.18.02,4.36.04,6.54.07,1.52,0,3.04,0,4.55.01,1.23,0,2.47,0,3.7,0,1.14,0,2.27,0,3.41,0,1.04.02,2.07.03,3.11.05.22,4.07-.23,8.08-1.28,11.99-.92,3.43-2.19,6.77-3.31,10.16-.85,1.54-1.69,3.07-2.54,4.61-.99-1.43-1.95-2.88-2.98-4.28-4.7-6.34-10.39-11.55-17.31-15.45-5.28-2.98-10.92-4.91-16.84-6.06-2.07-.4-4.21-.46-6.31-.69-.5-.05-.99-.17-1.48-.26,1.44-.08,2.88-.16,4.32-.24Z"/><path class="cls-5" d="M164.3,149.02l-5.08.28c-.37-.1-.75-.3-1.12-.3-5.96-.06-11.91-.11-17.87-.13-10.64-.04-21.28-.07-31.93-.1,0-1.92.01-3.84.02-5.76.46-2.36.76-4.76,1.4-7.07,5.85-20.97,19.34-34.2,40.45-39.55,2.82-.72,5.78-.92,8.67-1.36,1.08-.02,2.15-.04,3.23-.06.09.4.17.81.26,1.21.02.24.01.48.07.71,1.7,6.95,3.98,13.67,7.46,19.97,4,7.25,9.18,13.48,15.6,18.69,6.08,4.94,12.87,8.61,20.29,11.09,2.76.92,5.6,1.58,8.41,2.36-1.43.03-2.86.06-4.28.09-1.42,0-2.85.01-4.27.02-1.8-.01-3.6-.02-5.4-.03-2.09,0-4.17,0-6.26,0-2.56,0-5.12,0-7.68,0-7.32-.02-14.63-.04-21.95-.05Z"/><path class="cls-10" d="M214.15,149c-2.81-.78-5.65-1.44-8.41-2.36-7.42-2.48-14.21-6.15-20.29-11.09-6.42-5.21-11.59-11.45-15.6-18.69-3.48-6.3-5.77-13.02-7.46-19.97-.06-.23-.05-.47-.07-.71,1.8-.31,3.61-.61,5.41-.92,3.72.81,7.48,1.45,11.13,2.49,5.25,1.49,9.95,4.19,14.47,7.2,1.88,1.56,3.77,3.12,5.65,4.68,1.64,1.75,3.27,3.51,4.91,5.26,1.12,1.53,2.23,3.06,3.35,4.58,1.12,1.99,2.23,3.98,3.35,5.96.79,1.91,1.58,3.82,2.37,5.73.39,1.36.88,2.69,1.14,4.07.62,3.23,1.13,6.47,1.69,9.71-.02,1.35-.04,2.69-.06,4.04-.53,0-1.07,0-1.6,0Z"/><path class="cls-2" d="M312.21,290.08c-2.64,2.74-5.26,5.5-7.95,8.2-.96.96-2.09,1.75-3.14,2.61-1.23.78-2.45,1.59-3.69,2.35-6.46,3.96-13.48,6.34-20.96,7.43-1.76.14-3.52.28-5.28.42-.63,0-1.26,0-1.89-.01-.01-7.96-.02-15.92-.03-23.89-.03-2.15-.07-4.29-.1-6.44.06-.51.16-1.03.16-1.54.03-6.85.05-13.69.05-20.54,0-.44-.18-.87-.27-1.31.09-.08.19-.17.28-.25,3.3,0,6.6-.01,9.9-.02,5.69.01,11.38.02,17.07.04.57.01,1.13.03,1.7.04,8.39.07,16.79.15,25.18.22-.2,2.57-.26,5.17-.64,7.71-.42,2.77-1.13,5.5-1.72,8.24-1.16,2.84-2.31,5.68-3.47,8.52-1.73,2.74-3.47,5.47-5.2,8.21Z"/><path class="cls-3" d="M269.17,280.75c.03,2.15.07,4.29.1,6.44-.36,1.61-.57,3.27-1.1,4.81-3.56,10.4-10.72,16.7-21.6,18.66-2.75,0-5.49,0-8.24,0-.47-.07-.94-.11-1.4-.21-11.09-2.4-19-10.64-21.14-22.02l-.19-.88c-.03-.38-.05-.75-.08-1.13.04-.09.04-.18-.01-.27-.02-.19-.03-.38-.05-.57.03-1.52.06-3.04.09-4.56.08-.48.17-.97.25-1.45,2.14-12.28,12.28-21.68,25.06-22.41,14.29-.81,26.47,9.39,28.31,23.58Z"/><path class="cls-4" d="M138.17,310.66c.27-8.8,4.09-15.55,11.66-20.11,3.08-1.86,6.43-2.71,10.04-3.05,6.58-.62,12.15,1.44,17.05,5.66,4.88,4.22,7.57,9.53,7.92,16,.03.56.17,1.11.26,1.67-7.57.01-15.14.04-22.7.03-7.62,0-15.23-.03-22.85-.05-.46,0-.92-.1-1.38-.16Z"/><path class="cls-2" d="M323.62,254.87c.09-.93.18-1.87.27-2.8,2.56-20.48,13.24-35.11,31.88-43.88,6.86-3.23,14.19-4.54,21.76-4.58,1.24.03,2.47.05,3.71.08,1.02.13,2.04.26,3.07.38,5.33.65,10.41,2.16,15.33,4.27,1.79.92,3.57,1.83,5.36,2.75,1.43.95,2.85,1.89,4.28,2.84,1.62,1.34,3.25,2.68,4.87,4.02,1.26,1.3,2.52,2.59,3.77,3.89,1.49,1.93,2.99,3.86,4.48,5.78,1.05,1.79,2.1,3.57,3.15,5.36.69,1.6,1.38,3.19,2.07,4.79.89,3.06,1.86,6.1,2.63,9.19.48,1.94.66,3.96.98,5.95-.01,3.2-.02,6.41-.03,9.61-.13.78-.22,1.57-.39,2.34-.71,3.21-1.44,6.41-2.16,9.62-1.12,2.66-2.24,5.32-3.35,7.98-1.35,2.18-2.69,4.35-4.04,6.53-1.13,1.43-2.26,2.86-3.39,4.29-2.58,2.4-5.17,4.79-7.75,7.19-.7.48-1.41.95-2.11,1.43-7.08,4.89-14.93,7.81-23.42,9.05-1.76.14-3.52.29-5.28.43-1.23,0-2.47,0-3.7,0-1.93-.17-3.87-.23-5.78-.54-17.09-2.75-30.13-11.55-39.03-26.4-3.94-6.57-6.19-13.71-6.91-21.34l-.1-.9c-.06-2.44-.12-4.88-.17-7.32ZM377.53,236.31c-11.69-.03-21.28,9.52-21.3,21.22-.02,11.43,9.58,21.16,20.91,21.19,11.9.03,21.5-9.36,21.56-21.09.05-11.71-9.45-21.28-21.17-21.32Z"/><path class="cls-12" d="M485.06,255c.42-2.75.71-5.52,1.28-8.24,2.47-11.69,8.26-21.45,17.19-29.38.32-.28.61-.59.92-.88,2.71-1.86,5.42-3.72,8.14-5.58,2.57-1.2,5.13-2.39,7.7-3.59.23-.04.47-.05.69-.11,3.37-.83,6.71-1.8,10.11-2.45,2.47-.47,5.02-.52,7.54-.76.99-.03,1.98-.1,2.97-.07,1.06.04,2.11.17,3.17.27,1.34.23,2.69.45,4.02.7,11.41,2.17,21.18,7.38,29.19,15.8,8.57,9.01,13.5,19.72,14.66,32.13.06,1.8.13,3.59.19,5.39-17.89-.08-35.78-.18-53.68-.24-9.8-.03-19.61,0-29.41,0-.57,0-1.13-.03-1.7-.05-.5-.08-1-.22-1.49-.22-6.43-.02-12.86-.01-19.3-.01-.66,0-1.32,0-2.19,0v-2.7Z"/><path class="cls-3" d="M269.61,176.34c-.01,8.44-.02,16.89-.04,25.33-.08.45-.23.9-.22,1.35.04,1.08.24,2.15.25,3.23.02,7.95.01,15.9.02,23.85-.08.67-.16,1.34-.24,2-.04-.51-.08-1.02-.11-1.42-2.47-.48-4.93-.74-7.24-1.45-10.11-3.12-16.4-9.93-18.84-20.19-1.44-6.05-.65-11.98,2.12-17.51,3.94-7.87,10.34-12.75,18.97-14.59,1.74-.37,3.55-.41,5.33-.6Z"/><path class="cls-6" d="M269.38,232.11c.08-.67.16-1.34.24-2,.68.08,1.35.16,2.03.24,3.94.33,7.62,1.51,11.06,3.46-.19,1.67-.34,3.35-.57,5.02-.41,3.01-.85,6.01-1.32,9.02-.48,3.09-1.02,6.18-1.53,9.27-3.3,0-6.6.01-9.9.02,0-8.34,0-16.67,0-25.01Z"/><path class="cls-11" d="M375.61,311.38c1.23,0,2.47,0,3.7,0,5.73-.02,11.46-.03,17.18-.05,5.98.01,11.97.03,17.95.04,1.43.04,2.86.08,4.29.13.09,10.05-3.25,18.85-9.65,26.54-6.22,7.48-14.18,12.17-23.66,14-8.51,1.65-16.89.84-24.91-2.77-4.89-2.2-9.26-5.12-12.95-8.98-5.77-6.05-9.61-13.16-11.03-21.45-.43-2.49-.43-5.06-.63-7.59.57-.02,1.13-.05,1.7-.05,12.67.06,25.34.13,38.01.19Z"/><path class="cls-11" d="M108.04,136.79c-9.86-.1-18.61-3.31-26.21-9.55-7.26-5.96-11.88-13.61-14.01-22.74-1-4.29-1.26-8.62-.84-13.05.69-7.23,3.06-13.79,7.16-19.73,5.18-7.51,12.13-12.76,20.75-15.72,3.25-1.12,6.6-1.92,10.08-2.01,1.13-.03,2.25-.15,3.38-.23,0,3.31-.01,6.62-.02,9.93-.01,17.55-.03,35.1-.04,52.66,0,.47-.04.94-.05,1.42-.07.4-.2.81-.2,1.21,0,5.94,0,11.88,0,17.82Z"/><path class="cls-12" d="M108.84,48.04c-.12-.01-.23-.02-.35-.03.02-1.22.05-2.44.07-3.67.09,1.23.19,2.47.28,3.7Z"/><path class="cls-9" d="M282.71,233.8c-3.44-1.94-7.12-3.13-11.06-3.46.18-1.72.38-3.44.52-5.16.31-3.74.64-7.47.84-11.21.19-3.48.21-6.96.3-10.44,1.93.23,3.89.31,5.78.73,3.22.72,6.39,1.67,9.59,2.52,3.04,1.51,6.07,3.02,9.11,4.53,2.09,1.52,4.18,3.05,6.27,4.57,1.51,1.43,3.01,2.85,4.52,4.28,1.29,1.51,2.58,3.01,3.88,4.52.96,1.4,1.93,2.8,2.89,4.21,1.08,2.02,2.16,4.03,3.23,6.05,1.16,3.62,2.5,7.21,3.43,10.89.66,2.58.77,5.3,1.14,7.96.05.36.15.72.23,1.08-.05.84-.1,1.69-.15,2.53-8.39-.07-16.79-.14-25.18-.22-.57,0-1.13-.03-1.7-.04-.34-10.24-4.81-18.06-13.65-23.33Z"/><path class="cls-4" d="M273.32,203.53c-.09,3.48-.12,6.96-.3,10.44-.2,3.74-.54,7.48-.84,11.21-.14,1.72-.35,3.44-.52,5.16-.68-.08-1.35-.16-2.03-.24,0-7.95,0-15.9-.02-23.85,0-1.08-.2-2.15-.25-3.23-.02-.45.14-.9.22-1.35.02.51.05,1.01.07,1.59,1.22.09,2.45.18,3.67.26Z"/><path class="cls-1" d="M127.93,203.09c-.26-8.22,2.55-15.42,7.67-21.66,4.48-5.45,10.19-9.21,17.08-11.13,3.21-.89,6.47-1.44,9.76-1.31,7.94.33,15.1,2.81,21.28,8.02,3.99,3.36,7.01,7.39,9.17,12.07,1.51,3.26,2.52,6.7,2.76,10.32.08,1.26.15,2.53.22,3.8-3.59.02-7.19.03-10.78.05-1.03-.02-2.05-.03-3.08-.05-.86,0-1.72-.02-2.58-.02-1.13,0-2.26-.02-3.39-.02-.07.08-.15.16-.22.24-.52,7.39-5.62,12.33-12.65,13.31-3.7.51-7.17-.58-10.06-2.92-3.33-2.69-5.16-6.29-5.32-10.69-6.7,0-13.27,0-19.85,0Z"/><path class="cls-11" d="M544.76,204.21c-1.06-.09-2.11-.23-3.17-.27-.99-.03-1.98.04-2.97.07-4.62-.02-9.24-.04-13.86-.04-1.6,0-3.2.06-4.8.1-1.98,0-3.96-.01-5.94-.02l-2.3-.03c-2.74,0-5.48,0-8.22,0-1.99-.03-3.97-.07-5.96-.1.33-8.89,2.74-17.13,8.08-24.33,6.2-8.35,14.41-13.75,24.6-16.06,4.6-1.04,9.24-1.1,13.92-.61,8.1.84,15.26,3.99,21.43,9.14,7.44,6.2,12.39,14.06,14.17,23.69.51,2.76.6,5.6.88,8.41-.52.02-1.04.05-1.56.05-11.44,0-22.87,0-34.31,0Z"/><path class="cls-5" d="M39.98,308.67c1.09-6.34,4.8-10.39,11-11.87,6.34-1.51,13.2,1.98,15.77,8.27.47,1.16.79,2.37,1.17,3.56-.05,1.13-.02,2.27-.17,3.39-.68,5.32-3.52,9.06-8.35,11.33-.21.1-.41.22-.62.33-1.71.29-3.42.57-5.12.86-6.79-.65-11.56-4.22-13.16-10.16-.49-1.82-.37-3.81-.53-5.73Z"/><path class="cls-11" d="M316.56,161.88c-1.03-.8-2.06-1.59-3.09-2.39-1.06-1.68-2.11-3.37-3.17-5.05-.94-3.5-1.11-6.98.47-10.36.62-1.32,1.4-2.55,2.11-3.83.61-.47,1.21-.98,1.85-1.41.97-.64,1.97-1.24,2.95-1.85,1.99-.81,4.05-1.32,6.22-1.27.87.09,1.76.12,2.62.29,5.29,1.04,9.81,5.69,10.77,11.04,1.38,7.71-3.46,14.82-11.14,16.37-.69.14-1.41.14-2.12.21-1.26-.11-2.52-.23-3.77-.34-1.23-.47-2.47-.94-3.7-1.41Z"/><path class="cls-4" d="M282.71,233.8c8.83,5.27,13.31,13.09,13.65,23.33-5.69-.01-11.38-.02-17.07-.04.51-3.09,1.05-6.17,1.53-9.27.47-3,.9-6.01,1.32-9.02.23-1.67.38-3.34.57-5.02Z"/></g></svg>