<?xml version="1.0" encoding="UTF-8"?><svg id="_圖層_2" xmlns="http://www.w3.org/2000/svg" xmlns:xlink="http://www.w3.org/1999/xlink" viewBox="0 0 30 30"><defs><style>.cls-1{fill:none;}.cls-2{filter:url(#drop-shadow-1);}.cls-3{fill:#fff;}</style><filter id="drop-shadow-1" x="-1.88" y="-2.37" width="34" height="34" filterUnits="userSpaceOnUse"><feOffset dx="0" dy="0"/><feGaussianBlur result="blur" stdDeviation="2"/><feFlood flood-color="#000b5b" flood-opacity=".65"/><feComposite in2="blur" operator="in"/><feComposite in="SourceGraphic"/></filter></defs><g id="_飄移"><rect class="cls-1" width="30" height="30"/><g class="cls-2"><path class="cls-3" d="M11,22.36h8.01c.27,0,.48.22.48.48v2.18c0,.27-.22.48-.48.48h-8.01c-.27,0-.48-.22-.48-.48v-2.18c0-.27.22-.48.48-.48Z"/><path class="cls-3" d="M9.53,10.26l4.64-5.44c.37-.43,1.29-.43,1.66,0l4.64,5.44,4.64,5.44c.37.43-.09.98-.83.98h-4.86v4.49c0,.23-.19.41-.41.41h-8.14c-.23,0-.41-.19-.41-.41v-4.49h-4.72c-.74,0-1.2-.54-.83-.98l4.64-5.44Z"/></g></g></svg>