<?xml version="1.0" encoding="UTF-8"?><svg id="_圖層_2" xmlns="http://www.w3.org/2000/svg" viewBox="0 0 346.95 346.92"><defs><style>.cls-1{fill:#299591;}.cls-2{fill:#da2c7e;}.cls-3{fill:#101d30;}.cls-4{fill:#217bac;}.cls-5{fill:#183354;}.cls-6{fill:#258d80;}.cls-7{fill:#2b9899;}</style></defs><g id="_泡泡飄移"><path class="cls-2" d="M174.26,77.66c5.01-35.56,24.1-60.5,57.93-72.28,32.16-11.21,61.74-4.43,87.16,18.38,14.54,13.04,23.04,29.66,26.41,48.86.66,3.73.8,7.56,1.18,11.34-.42,5.9-.67,11.82-1.32,17.69-.77,6.9-3.27,13.36-5.64,19.83-2,3.81-4,7.61-6,11.42-2.31,3.2-4.61,6.39-6.92,9.59-2.28,2.44-4.57,4.87-6.85,7.31-1.95,1.68-3.91,3.36-5.86,5.04l-4.55,3.35c-3.69,2.22-7.38,4.44-11.07,6.66-2.41,1-4.81,2.01-7.22,3.01-5.59,1.49-11.15,3.08-16.78,4.43-2.75.66-5.6.88-8.4,1.3-3.65,0-7.3,0-10.95,0-3.83-.53-7.7-.82-11.47-1.64-4.88-1.06-9.67-2.55-14.5-3.85-2.76-1.22-5.51-2.45-8.27-3.67-2.42-1.38-4.83-2.76-7.25-4.13-.2-.14-.41-.28-.61-.43-.14-.12-.28-.24-.42-.36-1.83-1.27-3.65-2.53-5.48-3.8-1.98-1.68-3.96-3.35-5.94-5.03-1.95-1.98-3.91-3.96-5.86-5.93-2.29-2.93-4.58-5.87-6.87-8.8-1.94-3.3-3.88-6.61-5.81-9.91-1.63-4.07-3.65-8.03-4.81-12.22-1.67-6.02-2.72-12.21-4.03-18.33.06-5.95.13-11.89.19-17.84ZM260.42,121.1c16.66.25,33.95-13.03,34.01-33.99.06-19.8-15.87-34.11-34.15-34.15-18.61-.04-34.06,15.42-34.11,34.06-.06,18.75,15.35,34.09,34.25,34.08Z"/><path class="cls-4" d="M79.96,173.08c-6.62-1.34-13.49-1.94-19.82-4.13-31.14-10.77-51.1-32.25-58.01-64.55-6.41-29.97,1.68-56.49,22.9-78.57C38.89,11.42,56.11,3.12,76.02.69c18.79-2.29,36.48,1.18,53.06,10.34.58.32,1.26.44,1.89.66.31.32.58.71.94.94,8.59,5.42,16.18,11.93,22.49,19.94,4.77,6.05,8.78,12.54,11.79,19.62,4.18,9.83,6.79,20.04,6.9,30.8,0,.34.26.67.41,1.01,0,1.82,0,3.64,0,5.46-.14.79-.34,1.58-.42,2.38-.37,3.38-.46,6.82-1.1,10.14-1.85,9.51-4.96,18.57-9.74,27.06-6.26,11.11-14.64,20.26-24.83,27.82-2.24,1.66-4.58,3.2-6.88,4.8-.63.24-1.29.4-1.87.72-6.26,3.44-12.84,6.12-19.75,7.89-4.09,1.04-8.27,1.73-12.4,2.58-.16.26-.32.52-.49.77h.01c-.69-1.18-1.65-1.25-2.59-.17-2.13-.05-4.27-.11-6.4-.16-2.36-.07-4.72-.14-7.08-.21ZM104.06,138.4c3.51-1.6,7.17-2.95,10.49-4.86,8.82-5.08,15.58-12.26,20.37-21.25,4.82-9.03,6.73-18.61,6.25-28.88-.47-9.87-3.61-18.7-8.83-26.88-2.91-4.56-6.51-8.54-10.75-11.97-5.18-4.2-10.75-7.63-17.19-9.53-.33-.16-.65-.37-.99-.48-7.88-2.54-15.93-3.28-24.12-2.15-28.47,3.93-49.13,29.23-47.11,57.87,1.26,17.86,9.49,31.98,24.31,41.86,14.69,9.79,30.71,11.72,47.56,6.28Z"/><path class="cls-2" d="M86.72,346.43c-1.53-.02-3.05-.05-4.58-.07-7.19-.72-14.38-1.59-21.24-3.99-32.65-11.41-53.08-33.87-59.24-68-5.25-29.1,3.24-54.64,23.83-75.77,14.31-14.68,32.03-22.9,52.49-25.04.67-.07,1.32-.32,1.98-.49,2.36.07,4.72.14,7.08.21,0,16.27-.02,32.54-.03,48.81-.09.74-.25,1.48-.25,2.21-.04,12.24-.08,24.48-.09,36.73,0,12.17.03,24.33.05,36.5-.03,10.13-.07,20.26-.08,30.39,0,6.17.04,12.34.06,18.5Z"/><path class="cls-7" d="M173.51,83.99c-.14-.34-.4-.67-.41-1.01-.12-10.76-2.72-20.96-6.9-30.8-3.01-7.08-7.02-13.57-11.79-19.62-6.31-8.01-13.91-14.52-22.49-19.94-.37-.23-.63-.62-.94-.94,6.9-4.32,14.39-7.32,22.29-8.95,6.22-1.29,12.63-1.7,18.95-2.48.51-.06,1.04,0,1.74,0,0,25.87,0,51.59,0,77.3l-.44,6.46Z"/><path class="cls-6" d="M270.9,346.13c-2.26.26-4.52.53-6.78.79-1.92-.02-3.84-.04-5.75-.06-2.08-.15-4.16-.3-6.23-.44-.27-.11-.53-.31-.81-.33-7.12-.44-13.94-2.21-20.64-4.54-2.28-.92-4.57-1.83-6.85-2.75-1.96-.95-3.93-1.89-5.89-2.84-2.16-1.34-4.31-2.68-6.47-4.02-1.43-.97-2.87-1.94-4.3-2.9-.83-.74-1.66-1.48-2.5-2.22-1.09-.9-2.17-1.8-3.26-2.71-1.1-1.06-2.2-2.12-3.3-3.19-1.93-2.15-3.86-4.31-5.79-6.46-1.85-2.58-3.7-5.17-5.55-7.75-1.54-2.75-3.08-5.49-4.61-8.24-2.12-6-4.57-11.92-6.26-18.04-1.37-4.95-1.82-10.16-2.67-15.25-.02-3.69-.05-7.38-.07-11.07.46-2.83.86-5.68,1.4-8.49,5.18-27.31,19.81-47.91,44.04-61.53,10.4-5.85,21.65-9.24,33.61-10.07,1.06-.14,2.13-.27,3.19-.41,3.65,0,7.3,0,10.95,0,.63.13,1.25.27,1.88.4,2.93.37,5.9.55,8.79,1.15,20.2,4.24,37.03,14.22,50.09,30.24,11.97,14.69,18.52,31.54,19.31,50.55.15,2.72.3,5.44.44,8.17-.16.46-.4.92-.46,1.39-.58,4.21-.99,8.44-1.72,12.63-1.21,6.92-3.81,13.4-6.57,19.82-2.13,3.68-4.26,7.36-6.39,11.04-2.22,2.87-4.44,5.75-6.66,8.62-2.49,2.47-4.99,4.93-7.48,7.4-2.31,1.82-4.61,3.65-6.92,5.47-4.27,2.59-8.54,5.19-12.81,7.78-2.45,1.06-4.91,2.12-7.36,3.19-4.23,1.15-8.43,2.37-12.68,3.43-2.27.56-4.6.84-6.91,1.25ZM255.85,314.73c1.31.04,2.61.07,3.92.11,2.03-.12,4.07-.21,6.1-.35,5.82-.38,11.34-2.01,16.58-4.44,7.52-3.48,14-8.34,19.4-14.75,8.38-9.93,12.38-21.44,12.9-34.21.22-5.28-.67-10.52-2.1-15.68-3.07-11.07-9.12-20.25-17.88-27.45-10.04-8.24-21.61-12.75-34.82-12.33-3.75.31-7.58.24-11.24.98-13.69,2.76-24.78,10.02-32.91,21.2-8.96,12.31-12.46,26.22-9.79,41.45,1.22,6.96,3.64,13.49,7.46,19.4,2.72,4.2,5.45,8.47,9.49,11.62,9.12,8.58,19.87,13.44,32.41,14.21.16.08.32.15.48.23Z"/><path class="cls-5" d="M173.15,254.12c.02,3.69.05,7.38.07,11.07-.89,5.61-1.56,11.27-2.74,16.82-1.44,6.78-4.42,13.03-7.44,19.23-2.46,3.78-4.93,7.56-7.39,11.35-3.67,3.95-7.33,7.9-11,11.85-.55.4-1.12.77-1.64,1.21-10.05,8.61-21.47,14.61-34.28,17.89-4.11,1.05-8.32,1.67-12.49,2.49-1.06.06-2.12.12-3.18.18-.16.01-.32.03-.48.04-.3.01-.61.03-.91.04-.3-.04-.61-.07-.91-.11-1.38.11-2.75.22-4.13.32l.08-.06c-.02-6.17-.07-12.34-.06-18.5,0-10.13.05-20.26.08-30.39.89-.14,1.78-.37,2.68-.41,10.4-.55,18.95-4.88,25.72-12.73,6.8-7.87,10.09-16.84,9.1-27.41-.54-5.8-1.92-11.18-4.9-16.13-7.33-12.17-18.17-18.31-32.32-18.75,0-16.27.02-32.54.03-48.81,2.13.05,4.27.11,6.4.16.86.06,1.72.12,2.59.18h-.01c1.66.18,3.33.3,4.98.59,21.61,3.81,39.49,14.12,53.28,31.19,11.45,14.17,17.83,30.43,18.87,48.7Z"/><path class="cls-7" d="M104.06,138.4c-4.02-5.99-7.85-12.1-10.42-18.87-1.28-3.39-2.25-6.9-3.36-10.36,1.91-.62,3.87-1.13,5.73-1.89,10.11-4.13,15.72-15.16,13.29-25.34-2.38-9.96-8.88-15.93-19.08-17.68,2.77-10.7,7.59-20.4,14.17-29.24,6.44,1.9,12.01,5.33,17.19,9.53,4.23,3.43,7.84,7.41,10.75,11.97,5.22,8.18,8.36,17.01,8.83,26.88.49,10.27-1.43,19.85-6.25,28.88-4.79,8.99-11.55,16.17-20.37,21.25-3.33,1.92-6.99,3.26-10.49,4.86Z"/><path class="cls-7" d="M173.9,96.4c-.02.6-.04,1.2-.06,1.8-.05,1.96-.1,3.93-.15,5.89.01,7.33.02,14.66.03,21.99.02.3.03.59.05.89,0,3.96,0,7.93,0,11.89-.04,3.5-.07,7.01-.11,10.51,0,2.44-.01,4.88-.02,7.32,0,1.98,0,3.97-.01,5.95,0,1.83,0,3.66-.01,5.49-.03,1.67-.05,3.33-.08,5-6.54.35-13-.37-19.27-2.06-5.52-1.49-10.89-3.52-16.33-5.32-2.47-1.36-4.94-2.72-7.4-4.08,2.3-1.59,4.63-3.13,6.88-4.8,10.19-7.56,18.57-16.71,24.83-27.82,4.79-8.49,7.9-17.55,9.74-27.06.65-3.33.73-6.76,1.1-10.14.09-.8.28-1.59.42-2.38.13,2.32.26,4.63.39,6.95Z"/><path class="cls-3" d="M87.02,222.11c14.14.44,24.99,6.58,32.32,18.75,2.98,4.95,4.36,10.34,4.9,16.13.99,10.58-2.31,19.54-9.1,27.41-6.78,7.85-15.32,12.17-25.72,12.73-.9.05-1.79.27-2.68.41-.02-12.17-.06-24.33-.05-36.5,0-12.24.04-24.48.09-36.73,0-.74.17-1.48.25-2.21Z"/><path class="cls-1" d="M259.95,205.64c13.21-.42,24.79,4.09,34.82,12.33,8.77,7.19,14.81,16.38,17.88,27.45,1.43,5.16,2.32,10.4,2.1,15.68-.52,12.77-4.52,24.28-12.9,34.21-5.41,6.41-11.88,11.26-19.4,14.75-5.25,2.43-10.76,4.05-16.58,4.44-2.03.13-4.07.23-6.1.35-.03-5.78-.06-11.56-.08-17.33l.08-4.95c.01-1.38.03-2.77.04-4.15.01-1.82.03-3.64.04-5.45-.13-.12-.26-.24-.39-.36-11.88-.84-19.82-9.04-21.39-20.33-.83-5.94.94-11.53,4.69-16.16,4.33-5.35,10.11-8.3,17.19-8.55,0-10.76,0-21.34,0-31.91Z"/><path class="cls-4" d="M90.23,64.26c10.2,1.75,16.7,7.72,19.08,17.68,2.43,10.18-3.18,21.21-13.29,25.34-1.86.76-3.82,1.26-5.73,1.89-1.82-.08-3.65-.04-5.45-.27-8.54-1.09-14.57-5.65-18.22-13.41-.16-.34-.36-.66-.54-1-.46-2.75-.92-5.49-1.38-8.24,1.04-10.91,6.79-18.59,16.33-21.15,2.93-.79,6.13-.59,9.21-.85Z"/></g></svg>