<?xml version="1.0" encoding="UTF-8"?><svg id="_圖層_2" xmlns="http://www.w3.org/2000/svg" xmlns:xlink="http://www.w3.org/1999/xlink" viewBox="0 0 389.65 133.01"><defs><style>.cls-1{fill:none;}.cls-2{fill:#2b999a;}.cls-3{fill:#09548c;}.cls-4{fill:#258e80;}.cls-5{fill:#193456;}.cls-6{fill:#01795a;}.cls-7{fill:#db2c7e;}.cls-8{fill:#217bad;}.cls-9{fill:#299692;}.cls-10{fill:#0d6358;}.cls-11{clip-path:url(#clippath);}</style><clipPath id="clippath"><rect class="cls-1" width="360" height="133.01"/></clipPath></defs><g id="_泡泡"><g class="cls-11"><path class="cls-7" d="M280.89.44c1.97.42,3.96.76,5.89,1.3,1.35.37,2.62,1.02,3.93,1.55,1.06.62,2.12,1.25,3.19,1.87.94.74,1.89,1.47,2.83,2.21.64.63,1.27,1.26,1.91,1.88l1.62,1.91c.41.59.81,1.17,1.22,1.76.04.04.08.09.12.13.05.07.09.13.14.2.44.78.89,1.55,1.33,2.33l1.18,2.66c.42,1.55.9,3.09,1.24,4.66.26,1.21.36,2.46.53,3.69,0,1.17,0,2.35,0,3.52-.14.9-.21,1.82-.42,2.7-.44,1.81-.95,3.6-1.43,5.39-.32.77-.65,1.55-.97,2.32-.71,1.19-1.43,2.37-2.14,3.56l-1.08,1.46c-.54.63-1.08,1.26-1.62,1.88-.78.73-1.57,1.47-2.35,2.2-1.03.74-2.06,1.48-3.08,2.22-1.22.64-2.45,1.29-3.67,1.93-2.08.76-4.16,1.57-6.38,1.81-1.89.21-3.79.29-5.69.42-1.22-.12-2.44-.17-3.65-.38-6.17-1.09-11.52-3.82-15.71-8.49-7.33-8.17-9.51-17.68-5.91-28.02,3.79-10.88,11.81-17.01,23.24-18.62,1.91-.02,3.82-.04,5.73-.06ZM278.16,17.19c-5.99.02-10.96,4.99-10.95,10.97.01,5.88,4.61,11,10.98,10.98,6.74-.02,11.01-5.58,10.93-10.94,0-6.08-4.93-11.03-10.96-11.01Z"/><path class="cls-10" d="M343.07,111.69c1.9,2.23,3.66,4.61,5.73,6.67,7.55,7.53,16.62,12.22,27.16,13.93,2.62.43,5.3.49,7.96.71.24.02.48,0,.87,0-.22-1.15-.4-2.22-.64-3.28-1.76-7.59-4.88-14.58-9.28-21.01-.08-.12-.14-.25-.21-.38-.15-.19-.31-.37-.46-.57-2.09-2.88-4.35-5.62-6.98-8.02-1.75-1.6-3.58-3.11-5.38-4.66-.04-.04-.08-.08-.12-.12-2.21-1.42-4.41-2.84-6.62-4.26-.93-.47-1.86-.96-2.8-1.4-3.89-1.81-7.78-3.63-11.96-4.69-1.15-.29-2.3-.55-3.46-.83-.93-.16-1.87-.32-2.8-.48-.04.21-.09.42-.13.62,0,.24,0,.48,0,.72.04.29.1.58.13.86.2,1.84.33,3.69.6,5.52.75,5.09,2.38,9.92,4.74,14.48,1.1,2.12,2.43,4.12,3.66,6.18Z"/><path class="cls-2" d="M276.79,56.18c-1.76.28-3.57.38-5.27.86-11.02,3.1-18.04,10.23-20.44,21.4-3.05,14.24,5.42,28.09,19.36,32.28,2.26.68,4.58,1.03,6.93,1.12.31.01.62,0,.99,0,.01-.23.02-.39.02-.55,0-7.93-.02-15.87-.03-23.8,0-.21.08-.42.13-.63,0-2.07,0-4.14,0-6.22-.04-.24-.12-.47-.12-.71-.04-5.18-.07-10.36-.1-15.54,0-1.59,0-3.18,0-4.77v-3.46c-.57,0-1.02,0-1.48,0Z"/><path class="cls-7" d="M361.84,95.08c1.8,1.55,3.63,3.06,5.38,4.66,2.63,2.4,4.89,5.14,6.98,8.02.14.2.3.38.46.57,8.78-4.84,13.74-12.24,14.9-22.2.03-.35.06-.7.09-1.05-.08-1.76-.16-3.53-.24-5.29-1.65-11.7-10.4-21.08-21.97-23.44-1.86-.38-3.79-.39-5.68-.57-.02.08-.05.15-.07.23.01.7.02,1.39.03,2.09,0,3.17,0,6.34,0,9.51,0,2.06.02,4.11.03,6.17,0,1.91,0,3.82,0,5.74,0,1.76,0,3.53,0,5.29.02,2.01.03,4.02.05,6.04,0,1.37-.01,2.73-.02,4.1.02.05.05.09.07.14Z"/><path class="cls-8" d="M361.86,31.15c.6,5.31,2.58,10.06,5.94,14.2,4.66,5.73,10.69,9.11,18.01,10.15,1.23.17,2.49.14,3.73.21,0-4.61,0-9.22,0-13.83-.92-.1-1.86-.12-2.76-.31-4.46-.95-7.77-3.47-9.8-7.54-1.43-2.86-1.84-5.92-1.09-9.05,1.26-5.3,4.51-8.83,9.73-10.44,1.2-.37,2.46-.5,3.74-.75.02-.21.04-.47.06-.74,0-4.31,0-8.62,0-12.93-.05-.04-.1-.09-.14-.13-.69.05-1.37.08-2.06.14-3.92.34-7.63,1.41-11.08,3.32-5.55,3.08-9.61,7.53-12.19,13.32-1.1,2.47-1.81,5.05-2.08,7.74-.05,1.01-.1,2.02-.15,3.02,0,.62.01,1.23.02,1.85.04.58.09,1.17.13,1.75Z"/><path class="cls-6" d="M278.48,80.66c0,2.07,0,4.14,0,6.22.42,4.41,1.9,8.46,4.35,12.13,4.47,6.7,10.7,10.78,18.63,12.21,1.53.28,3.11.26,4.67.38.06-.5.11-1,.17-1.5-.01-.63-.02-1.26-.04-1.9-.02-.99-.05-1.98-.07-2.97-.58-.04-1.16-.11-1.75-.12-1.8-.05-3.53-.46-5.21-1.04-4.46-1.53-8.05-4.24-10.73-8.12-2.12-3.07-3.35-6.46-3.7-10.2-.22-2.29-.08-4.53.43-6.74,1.1-4.72,3.49-8.67,7.24-11.75,3.93-3.22,8.45-4.88,13.55-4.93h.05s.05,0,.05,0c.02-1.07.03-2.14.05-3.21,0-.99,0-1.98-.01-2.97-.01-.04-.02-.08-.04-.11-.92,0-1.84-.01-2.76-.02-.54.09-1.08.17-1.62.26-.54.1-1.08.2-1.62.29-.87.23-1.74.46-2.61.7-1.14.46-2.28.91-3.41,1.37-1.42.84-2.84,1.68-4.26,2.52-.11.09-.22.19-.33.28-3.72,2.79-6.6,6.29-8.57,10.5-1.3,2.78-2.19,5.68-2.45,8.75Z"/><path class="cls-3" d="M306.29,110.09c-.06.5-.11,1-.17,1.5.35.47.81.04,1.2.14.25-.08.49-.17.74-.24,3.19-.78,6.24-1.91,9.12-3.51,2.01-1.12,3.93-2.38,5.63-3.92,1.73-1.58,3.38-3.25,4.77-5.16,2.41-3.31,4.19-6.92,5.35-10.84.34-1.14.67-2.27,1.01-3.41,0-.24,0-.48,0-.72-.56-.01-1.11-.02-1.67-.03-.55.06-1.11.12-1.66.17-2.78.27-5.42,1.04-7.96,2.19-6.22,2.83-10.82,7.33-13.78,13.48-1.29,2.67-2.17,5.47-2.44,8.44-.05.64-.1,1.27-.14,1.91Z"/><path class="cls-8" d="M333.95,84.65c-.34,1.14-.68,2.27-1.01,3.41-1.16,3.92-2.94,7.53-5.35,10.84-1.39,1.91-3.04,3.58-4.77,5.16-1.7,1.54-3.62,2.8-5.63,3.92-2.88,1.6-5.93,2.74-9.12,3.51-.25.06-.49.16-.74.24,2.76,0,5.53.02,8.29.02.29,0,.59-.02.88-.02,8.64,0,17.27-.02,25.91-.02.22,0,.44-.01.66-.02-1.23-2.06-2.56-4.06-3.66-6.18-2.36-4.56-3.99-9.38-4.74-14.48-.27-1.83-.4-3.68-.6-5.52-.03-.29-.09-.58-.13-.86Z"/><path class="cls-4" d="M361.07,33.79c-.34,1.37-.73,2.72-1.1,4.08-.34.79-.68,1.58-1.02,2.37-.83,1.37-1.67,2.75-2.5,4.12-.59.74-1.17,1.48-1.76,2.22-.79.8-1.59,1.6-2.38,2.41-.92.71-1.85,1.43-2.77,2.14-1.18.69-2.37,1.37-3.55,2.06-2.06.89-4.15,1.72-6.37,2.11-1.34.23-2.71.37-4.06.55-.15.02-.3.1-.45.15-.88-.05-1.75-.09-2.63-.14-6.11-.25-11.53-2.36-16.25-6.21-5.15-4.2-8.36-9.61-9.72-16.1-.19-.93-.25-1.88-.37-2.82-.04-.2-.09-.4-.13-.6,0-1.17,0-2.35,0-3.52l.13-1.03c.27-3.84,1.36-7.46,3.24-10.8,4.38-7.79,11-12.49,19.78-14.16.91-.17,1.82-.3,2.73-.45,1.19,0,2.37.02,3.56.02,1.64.28,3.31.42,4.9.86,1.97.54,3.87,1.33,5.8,2.01.88.49,1.77.99,2.65,1.48.83.6,1.66,1.19,2.49,1.79.69.62,1.38,1.24,2.08,1.86.34.35.68.71,1.02,1.06.29.35.58.7.87,1.05.24.27.48.54.71.8.31.46.62.92.93,1.38.43.69.86,1.39,1.29,2.08.3.63.61,1.26.91,1.89.29.73.59,1.47.88,2.2.75,2.15,1.32,4.35,1.46,6.64,0,.09.07.17.1.26.05.67.1,1.34.14,2,0,.62.01,1.23.02,1.85-.08.73-.17,1.45-.25,2.18-.13.74-.22,1.49-.4,2.22ZM351.3,26.58c-.25-4.03-1.81-7.49-4.57-10.42-1.01-1.3-2.39-2.18-3.74-3.05-1.9-1.23-4-2.01-6.24-2.4-4.89-.86-9.37.27-13.33,3.15-3.6,2.62-5.93,6.18-6.82,10.58-.24,1.18-.22,2.41-.32,3.61-.14,4.25,1.32,7.97,3.96,11.2,2.31,2.82,5.27,4.76,8.82,5.75,1.66.46,3.34.75,5.04.68,4.11-.17,7.81-1.45,11-4.15,2.06-1.74,3.62-3.82,4.74-6.24.78-1.69,1.3-3.46,1.43-5.33.04-.65.08-1.31.11-1.96-.01-.42-.02-.84-.03-1.26-.02-.05-.05-.1-.07-.16Z"/><path class="cls-8" d="M335.1,55.99c-.88-.05-1.75-.09-2.63-.14-.19.05-.39.15-.58.16-3.08.03-6.16.06-9.24.07-5.5.02-11,.03-16.5.05,0,.99,0,1.98.01,2.97.24,1.22.39,2.46.72,3.65,3.02,10.84,9.99,17.67,20.9,20.44,1.46.37,2.99.47,4.48.7.56.01,1.11.02,1.67.03.04-.21.09-.42.13-.62.01-.12,0-.25.03-.37.88-3.59,2.06-7.07,3.86-10.32,2.07-3.74,4.74-6.97,8.06-9.66,3.14-2.55,6.65-4.45,10.48-5.73,1.43-.48,2.9-.82,4.35-1.22-.74-.02-1.48-.03-2.21-.05-.74,0-1.47,0-2.21-.01-.93,0-1.86.01-2.79.02-1.08,0-2.16,0-3.23,0-1.32,0-2.65,0-3.97,0-3.78,0-7.56.02-11.34.03Z"/><path class="cls-3" d="M360.86,56c-1.45.4-2.92.74-4.35,1.22-3.83,1.28-7.34,3.18-10.48,5.73-3.32,2.69-5.99,5.92-8.06,9.66-1.8,3.26-2.98,6.73-3.86,10.32-.03.12-.02.24-.03.37.93.16,1.87.32,2.8.48,1.92-.42,3.87-.75,5.75-1.28,2.71-.77,5.14-2.17,7.48-3.72.97-.81,1.95-1.61,2.92-2.42.85-.91,1.69-1.81,2.54-2.72.58-.79,1.15-1.58,1.73-2.37.58-1.03,1.15-2.05,1.73-3.08l1.23-2.96c.2-.7.45-1.39.59-2.11.32-1.67.59-3.34.87-5.02-.01-.7-.02-1.39-.03-2.09-.28,0-.55,0-.83,0Z"/><path class="cls-5" d="M389.52,41.87c0-4.36-.01-8.73-.02-13.09-.04-.23-.12-.47-.11-.7.02-.56.13-1.11.13-1.67.01-4.11,0-8.22,0-12.32-.04-.35-.08-.69-.12-1.04-.02.26-.04.53-.06.74-1.28.25-2.55.38-3.74.75-5.23,1.61-8.48,5.13-9.73,10.44-.74,3.13-.34,6.19,1.09,9.05,2.04,4.07,5.35,6.59,9.8,7.54.9.19,1.84.21,2.76.31Z"/><path class="cls-4" d="M306.03,62.31c-5.1.05-9.62,1.71-13.55,4.93-3.75,3.08-6.14,7.04-7.24,11.75-.52,2.22-.65,4.45-.43,6.74.35,3.74,1.58,7.13,3.7,10.2,2.68,3.88,6.27,6.59,10.73,8.12,1.68.58,3.41.99,5.21,1.04.58.01,1.16.08,1.75.12,0-1.71,0-3.42,0-5.13,0-9.07-.01-18.14-.02-27.21,0-.24-.02-.49-.03-.73-.04-.21-.1-.42-.1-.63,0-3.07,0-6.14,0-9.21Z"/><path class="cls-2" d="M306.44,108.18c-.06,0-.12.01-.18.02.01.63.02,1.26.04,1.9.05-.64.1-1.27.14-1.91Z"/><path class="cls-9" d="M316.3,28.05c-.14,4.25,1.32,7.97,3.96,11.2,2.31,2.82,5.27,4.76,8.82,5.75,1.66.46,3.34.75,5.04.68,4.11-.17,7.81-1.45,11-4.15,2.06-1.74,3.62-3.82,4.74-6.24.78-1.69,1.3-3.46,1.43-5.33.04-.65.08-1.31.11-1.96-1.86,0-3.72-.02-5.57-.03-.53,0-1.06.02-1.59.03-.44,0-.89,0-1.33.01-.58,0-1.17,0-1.75.01-.04-.04-.08-.08-.12-.13-.27-3.82-2.91-6.37-6.54-6.88-1.91-.27-3.71.3-5.2,1.51-1.72,1.39-2.67,3.25-2.75,5.53-3.46,0-6.86,0-10.26,0Z"/></g></g></svg>