<?xml version="1.0" encoding="UTF-8"?><svg id="_圖層_2" xmlns="http://www.w3.org/2000/svg" xmlns:xlink="http://www.w3.org/1999/xlink" viewBox="0 0 30 30"><defs><style>.cls-1{fill:none;}.cls-2{filter:url(#drop-shadow-1);}.cls-3{fill:#fff;}</style><filter id="drop-shadow-1" x="-4.84" y="-4.62" width="40" height="39" filterUnits="userSpaceOnUse"><feOffset dx="0" dy="0"/><feGaussianBlur result="blur" stdDeviation="2"/><feFlood flood-color="#000b5b" flood-opacity=".65"/><feComposite in2="blur" operator="in"/><feComposite in="SourceGraphic"/></filter></defs><g id="_飄移"><rect class="cls-1" width="30" height="30"/><g class="cls-2"><path class="cls-3" d="M28.23,14.31c-.18-7.04-5.87-12.55-12.97-12.55S2.6,7.17,2.3,14.07c0,.19-.02.38-.02.57,0,2.29.61,4.53,1.77,6.49.03.05.03.1.02.16l-2.3,6.79c-.03.09.06.18.15.15l7.07-2.25s.1-.01.14.01c1.88,1,3.99,1.52,6.12,1.52,7.15,0,12.97-5.78,12.97-12.88,0-.09,0-.33,0-.33ZM6.5,20.44c-1.16-1.72-1.78-3.72-1.78-5.8,0-.33.02-.66.05-1.01.52-5.38,5.03-9.44,10.48-9.44s10.08,4.23,10.5,9.63c.02.32.04.58.04.82,0,5.76-4.73,10.45-10.53,10.45-1.55,0-3.06-.34-4.45-.98-.39-.18-1.12-.62-1.35-.76-.05-.03-.1-.03-.15-.02l-3.56,1.13c-.08.03-.16-.05-.13-.13l1.15-3.39c.02-.06.01-.12-.03-.17-.07-.1-.18-.26-.23-.33Z"/><path class="cls-3" d="M21.43,17.5c-.08-.13-.64-.4-.64-.4-.22-.11-1.85-.91-2.15-1.01-.26-.09-.56-.2-.82.19-.2.3-.79.99-.98,1.2-.13.15-.26.2-.56.05-.05-.02-1.5-.64-2.5-1.53-.89-.78-1.5-1.75-1.72-2.13-.14-.23-.05-.34.12-.51.1-.1.56-.66.6-.71.07-.11.2-.38.2-.38.13-.26.05-.49-.02-.64-.05-.1-.89-2.11-.97-2.3-.24-.57-.49-.6-.73-.58-.12,0-1.22.02-1.57.4l-.06.07c-.34.36-1.06,1.12-1.06,2.59,0,.34.05.69.17,1.09.2.71.61,1.48,1.13,2.19.01.01.82,1.13,1.22,1.6,1.28,1.47,2.72,2.55,4.17,3.12,1.86.73,2.65.89,3.1.89.2,0,.61-.1.7-.11.57-.05,1.92-.75,2.2-1.54.27-.75.27-1.4.17-1.57Z"/></g></g></svg>